<?xml version="1.0" standalone="no"?>
<!DOCTYPE svg PUBLIC "-//W3C//DTD SVG 20010904//EN" "http://www.w3.org/TR/2001/REC-SVG-20010904/DTD/svg10.dtd">
<svg version="1.0" xmlns="http://www.w3.org/2000/svg" width="781.000000pt" height="963.000000pt"
        viewBox="0 0 781.000000 963.000000" preserveAspectRatio="xMidYMid meet">

        <g transform="translate(0.000000,963.000000) scale(0.100000,-0.100000)" fill="#000000" stroke="none">
                <path d="M3241 9594 c-130 -29 -193 -58 -306 -141 -44 -33 -145 -97 -225 -143
-195 -111 -256 -156 -367 -269 -108 -110 -163 -183 -229 -302 -71 -129 -163
-263 -268 -389 -53 -63 -128 -161 -167 -218 -39 -57 -82 -108 -95 -114 -13 -6
-24 -19 -24 -30 0 -14 8 -18 33 -18 29 0 46 13 128 98 52 53 122 129 156 167
l61 70 -14 -64 c-8 -35 -28 -82 -43 -105 -15 -23 -63 -108 -105 -191 -43 -82
-104 -188 -136 -235 -31 -47 -74 -117 -94 -155 -20 -39 -50 -86 -67 -104 -35
-39 -34 -65 2 -69 21 -2 41 15 120 100 52 57 109 121 126 143 25 30 11 -4 -58
-144 -157 -320 -221 -502 -265 -761 -15 -86 -18 -163 -19 -420 0 -173 5 -353
10 -400 10 -81 11 -85 35 -85 l25 0 -3 104 c-3 125 3 157 83 426 34 116 79
281 100 368 21 86 39 156 41 154 2 -2 -3 -55 -12 -118 -8 -63 -19 -208 -24
-324 -6 -155 -14 -234 -30 -303 -23 -99 -22 -122 8 -122 14 0 23 14 35 58 9
31 36 100 61 152 l45 95 -5 -130 c-8 -196 -22 -326 -49 -431 -31 -120 -214
-516 -324 -699 -90 -148 -131 -228 -131 -250 0 -10 10 -15 28 -15 25 0 46 22
173 188 154 198 386 541 425 627 27 58 46 147 38 170 -4 8 -14 15 -24 15 -13
0 -19 -11 -23 -49 -6 -50 -44 -135 -95 -212 -169 -256 -247 -371 -272 -399
-26 -31 -24 -26 15 50 94 184 214 460 234 536 33 129 42 213 51 489 5 143 13
280 19 305 5 25 19 110 30 190 35 246 52 313 87 333 25 15 16 37 -15 37 -53 0
-78 -69 -111 -305 -24 -167 -33 -209 -72 -340 -52 -171 -57 -172 -52 -5 5 145
15 272 34 430 9 74 8 87 -6 97 -15 11 -13 22 21 110 50 131 110 245 167 320
50 66 57 83 33 83 -25 0 -83 -60 -129 -134 -92 -146 -149 -298 -217 -571 -48
-192 -146 -535 -157 -545 -11 -11 8 404 23 501 45 286 135 518 392 1009 21 41
55 112 76 157 31 69 40 80 57 76 22 -6 28 15 8 35 -8 8 5 37 55 119 36 59 69
120 72 136 9 35 -10 60 -41 53 -19 -5 -6 20 74 145 200 311 376 533 637 807
144 150 181 171 485 279 136 47 157 53 178 42 19 -11 25 -11 32 1 7 11 20 2
57 -37 43 -46 46 -53 31 -62 -22 -14 -24 -51 -3 -51 9 0 53 22 98 49 113 68
221 96 337 87 189 -15 434 -78 581 -151 113 -56 345 -206 483 -312 147 -114
176 -142 177 -172 0 -19 12 -35 42 -56 51 -37 69 -71 102 -198 40 -153 81
-231 251 -467 61 -86 9 -38 -148 135 -141 155 -261 265 -360 328 -53 34 -73
57 -48 57 6 0 10 7 10 15 0 25 -57 19 -65 -6 -9 -29 18 -65 86 -112 97 -68
197 -165 218 -212 53 -121 170 -249 311 -343 127 -85 187 -135 267 -224 88
-97 123 -150 214 -316 108 -198 173 -372 185 -492 l5 -55 -47 95 c-26 52 -89
181 -140 285 -81 165 -108 208 -199 325 -100 128 -105 137 -100 173 5 32 3 37
-15 37 -18 0 -20 -7 -20 -53 0 -51 3 -57 100 -187 108 -145 169 -253 257 -450
48 -110 98 -213 166 -344 17 -33 22 -70 30 -217 9 -156 7 -202 -12 -389 -14
-136 -19 -216 -13 -222 6 -6 18 -8 28 -6 14 2 25 24 42 83 77 273 82 480 13
677 -10 31 -27 118 -36 195 -25 208 -86 376 -219 606 -71 124 -83 143 -120
192 l-31 39 45 -28 c80 -49 252 -126 281 -126 22 0 29 5 29 20 0 14 -17 28
-61 51 -34 17 -82 45 -108 63 -60 41 -182 116 -248 151 -29 16 -53 32 -53 37
0 4 -6 8 -13 8 -7 0 -34 13 -60 30 -38 24 -47 35 -47 58 0 21 -37 84 -124 214
-135 202 -153 234 -183 323 -41 123 -39 126 31 33 156 -206 289 -420 309 -498
4 -14 13 -20 34 -20 23 0 36 -12 73 -61 54 -73 126 -139 151 -139 30 0 23 21
-24 75 -24 28 -67 82 -95 120 -29 39 -57 75 -62 82 -5 6 -73 105 -149 220
-174 259 -301 423 -411 533 -147 147 -483 384 -695 491 -251 126 -659 190
-839 131 -38 -12 -90 -35 -115 -51 -52 -32 -56 -30 -105 45 -19 29 -36 44 -58
48 -57 11 -142 4 -257 -20z m-592 -416 c-40 -46 -112 -126 -160 -178 -96 -104
-113 -124 -223 -281 -82 -116 -218 -268 -224 -250 -10 31 161 329 232 404 31
31 54 47 71 47 16 0 25 6 25 15 0 10 -10 15 -27 15 -27 0 -26 1 22 51 76 77
171 152 265 208 47 28 87 50 88 51 2 0 -29 -37 -69 -82z m-678 -765 c-5 -10
-24 -31 -42 -48 -31 -29 -31 -28 5 18 40 49 54 60 37 30z m43 -77 c-39 -60
-51 -67 -34 -20 11 29 60 87 67 80 3 -2 -12 -29 -33 -60z m3457 -63 c13 -16
12 -17 -3 -4 -10 7 -18 15 -18 17 0 8 8 3 21 -13z m-3478 -110 c-9 -27 -25
-66 -36 -88 -27 -52 -185 -295 -192 -295 -7 0 128 260 155 300 10 14 32 49 50
78 18 28 34 52 36 52 1 0 -4 -21 -13 -47z m4416 -1635 c6 -56 3 -114 -6 -177
-16 -109 -29 -137 -19 -41 4 36 7 120 8 188 0 67 3 121 5 118 3 -2 8 -42 12
-88z" />
                <path d="M3230 9456 c-25 -13 -75 -32 -112 -41 -199 -51 -478 -318 -616 -590
-55 -109 -84 -189 -89 -252 -5 -59 -4 -63 15 -63 l21 0 -20 -47 c-55 -129
-137 -295 -176 -358 -70 -112 -141 -264 -162 -347 -11 -42 -27 -141 -36 -220
-9 -79 -25 -192 -36 -253 -15 -90 -19 -159 -19 -387 0 -226 3 -278 13 -278 11
0 15 37 20 167 4 91 7 210 7 263 0 53 9 143 19 201 11 57 26 167 35 244 28
239 75 385 174 538 67 104 272 542 272 581 0 19 -33 22 -47 4 -5 -7 -15 -33
-23 -58 -7 -25 -15 -39 -17 -33 -14 39 74 243 168 390 78 121 245 296 349 365
69 46 72 47 38 14 -73 -70 -35 -78 52 -11 32 25 62 45 67 45 5 0 24 11 43 25
42 31 115 33 178 5 23 -10 42 -20 42 -22 0 -2 -18 -2 -40 0 -46 5 -61 -4 -227
-123 -209 -151 -372 -307 -440 -422 -30 -52 -44 -153 -21 -153 10 0 20 16 26
43 27 105 198 297 398 446 228 172 230 173 280 173 19 0 34 4 34 8 0 4 9 6 20
3 29 -8 70 5 70 22 0 8 -7 15 -15 15 -13 0 -115 67 -115 75 0 2 16 1 35 -2 51
-8 46 18 -8 40 -57 23 -103 21 -157 -7z" />
                <path d="M3790 9357 c-41 -11 -45 -15 -45 -42 0 -35 29 -48 38 -15 5 19 13 20
135 20 101 0 154 -5 242 -25 131 -29 170 -31 170 -10 0 15 -12 19 -160 55
-106 26 -315 35 -380 17z" />
                <path d="M4075 9229 c-317 -17 -507 -60 -577 -130 -64 -62 -44 -111 36 -90 57
14 103 14 112 0 4 -7 21 -9 48 -4 124 22 236 -23 446 -180 99 -74 120 -85 150
-83 33 3 35 5 33 39 -4 64 -43 149 -90 195 -76 74 -224 112 -395 100 -51 -3
-142 -9 -203 -12 l-110 -5 31 20 c86 58 233 84 569 102 203 11 322 9 483 -7
52 -6 62 -4 62 9 0 18 -54 32 -180 47 -95 11 -182 11 -415 -1z m19 -230 c75
-27 128 -76 156 -140 12 -28 20 -53 18 -55 -2 -2 -58 35 -123 83 -66 47 -147
99 -180 115 l-60 30 66 -6 c36 -2 91 -15 123 -27z" />
                <path d="M3293 9205 c-63 -32 -214 -196 -380 -412 -52 -68 -118 -201 -134
-268 -6 -27 -24 -85 -40 -128 -36 -99 -49 -187 -26 -187 10 0 23 23 37 68 37
115 69 182 131 273 103 153 179 241 303 352 l70 62 -47 -86 c-52 -95 -56 -109
-29 -109 23 0 122 172 125 216 2 24 -2 29 -24 32 -19 2 -41 -11 -88 -53 -34
-30 -64 -55 -66 -55 -5 0 78 115 119 165 20 24 27 28 37 18 17 -17 49 -16 49
0 0 8 -9 22 -20 32 -11 10 -20 21 -20 25 0 13 71 40 105 40 40 0 49 24 13 34
-40 10 -63 7 -115 -19z" />
                <path d="M4417 9023 c-18 -17 -4 -44 32 -63 31 -15 38 -24 34 -40 -4 -16 0
-20 17 -20 26 0 56 -31 162 -167 119 -154 208 -236 208 -192 0 7 -24 39 -53
73 -83 96 -188 236 -176 236 5 0 56 -47 112 -105 81 -82 109 -105 130 -105 17
0 27 5 27 15 0 8 -6 15 -12 15 -7 0 -58 47 -113 104 -78 82 -113 111 -160 132
-33 15 -86 49 -118 76 -56 46 -76 56 -90 41z" />
                <path d="M4874 8908 c19 -170 56 -269 222 -604 115 -232 169 -355 213 -480 32
-93 61 -182 65 -199 4 -16 -54 65 -129 180 -75 116 -169 255 -209 311 -94 129
-100 140 -80 148 9 3 25 6 36 6 13 0 18 5 16 18 -3 13 -12 16 -43 14 -59 -4
-65 -8 -65 -45 0 -26 19 -61 88 -158 48 -68 116 -169 151 -224 36 -55 112
-171 169 -258 l105 -159 18 -141 c28 -219 29 -216 -40 -117 -33 47 -94 144
-137 215 -42 72 -121 202 -177 290 -221 352 -335 559 -358 649 -10 40 -9 50
10 89 12 24 21 49 21 55 0 24 -31 11 -51 -20 -16 -27 -19 -46 -17 -108 3 -67
9 -87 54 -180 65 -134 132 -250 281 -486 66 -104 162 -260 213 -346 52 -86
119 -193 151 -237 32 -44 59 -90 61 -103 2 -13 11 -24 23 -26 11 -2 42 -27 69
-55 l49 -50 -39 23 c-138 84 -392 260 -689 479 -134 99 -249 196 -366 306
-229 217 -294 324 -330 542 -18 114 -19 139 -9 223 6 52 23 122 36 156 28 71
28 74 10 74 -18 0 -50 -67 -73 -150 -12 -45 -17 -103 -17 -185 0 -84 -4 -124
-13 -133 -26 -27 -7 -228 26 -289 28 -49 131 -276 128 -279 -2 -2 -31 28 -64
67 -52 60 -74 100 -152 274 -50 112 -91 210 -91 219 0 9 -7 16 -15 16 -10 0
-15 -10 -15 -34 0 -18 7 -50 15 -69 8 -20 15 -56 15 -79 0 -24 11 -74 25 -112
13 -39 23 -71 21 -73 -6 -6 -81 208 -131 372 -47 150 -52 197 -30 263 12 35
-32 30 -46 -5 -28 -72 33 -343 136 -603 19 -46 32 -86 30 -88 -6 -6 -145 275
-145 293 0 8 -7 15 -15 15 -24 0 -18 -45 16 -118 17 -37 78 -163 136 -280
l106 -213 -35 -37 c-20 -20 -37 -43 -40 -51 -7 -25 -78 75 -118 167 -90 208
-161 489 -181 713 -11 122 -7 354 7 432 5 29 3 37 -8 37 -9 0 -22 -22 -33 -59
-16 -53 -17 -86 -12 -278 8 -315 45 -502 161 -818 6 -16 4 -15 -13 5 -27 32
-94 146 -166 285 -32 61 -69 129 -82 153 -14 23 -20 42 -14 42 6 0 11 7 11 16
0 10 -7 14 -22 12 -46 -6 -35 -47 71 -255 55 -109 130 -240 166 -291 66 -92
177 -212 196 -212 6 0 7 -9 3 -22 -9 -32 -9 -32 -39 -12 -22 14 -50 18 -139
18 -96 1 -117 -2 -155 -21 -25 -13 -45 -22 -45 -20 -1 1 -7 12 -13 24 -17 30
-16 33 6 33 11 0 22 4 26 10 3 5 -17 78 -45 162 -43 134 -53 178 -75 353 -40
323 -58 582 -51 745 3 80 9 160 12 178 6 31 5 33 -17 30 -21 -3 -25 -11 -36
-68 -24 -130 -9 -531 32 -839 8 -63 13 -116 11 -119 -14 -13 -91 200 -120 328
-21 93 -49 386 -43 442 5 43 4 48 -14 48 -18 0 -19 5 -13 65 6 61 5 65 -13 65
-17 0 -23 -12 -37 -84 -9 -47 -28 -118 -42 -158 -96 -277 -160 -593 -165 -817
-1 -31 -7 11 -15 94 -19 219 -34 446 -31 475 2 20 -3 26 -22 28 l-24 4 6 -139
c3 -77 14 -228 23 -336 16 -177 16 -222 -1 -205 -9 9 -55 289 -55 336 0 36 -3
42 -21 42 -21 0 -22 -3 -15 -82 4 -46 13 -124 20 -175 9 -59 11 -105 6 -129
-5 -21 -7 -52 -4 -68 2 -17 -7 -1 -20 37 -22 59 -41 173 -62 375 -6 53 -9 62
-26 62 -19 0 -20 -5 -14 -77 11 -120 35 -320 42 -336 4 -11 -13 -28 -53 -55
-74 -50 -79 -57 -152 -177 -34 -54 -61 -95 -61 -90 1 22 59 372 65 393 5 16 3
22 -8 22 -16 0 -32 -32 -46 -95 -9 -39 -9 -39 -10 -7 -1 22 -6 32 -17 32 -40
0 -44 -20 -54 -287 -11 -284 -17 -328 -48 -368 -23 -29 -30 -81 -11 -87 7 -2
4 -56 -11 -173 -29 -229 -26 -479 9 -602 15 -53 28 -83 37 -83 18 0 18 6 -3
93 -26 104 -25 433 1 615 18 128 28 154 41 112 9 -27 35 -25 36 3 1 12 7 -29
15 -91 18 -148 45 -289 95 -486 32 -127 41 -184 44 -270 2 -59 0 -104 -5 -100
-19 21 -112 238 -135 315 -28 93 -33 138 -21 187 10 44 -18 45 -33 1 -15 -45
-14 -82 8 -174 30 -125 47 -168 141 -356 53 -106 98 -213 115 -270 37 -130 93
-251 180 -388 76 -121 235 -341 288 -401 18 -19 0 -6 -38 30 -197 184 -303
293 -362 373 -69 92 -176 274 -215 364 -15 35 -29 53 -40 53 -29 0 -21 -36 32
-144 115 -236 223 -381 410 -557 73 -69 120 -121 120 -132 0 -40 126 -301 245
-507 70 -122 120 -220 111 -220 -2 0 -34 53 -71 118 -138 237 -245 379 -354
467 -37 28 -61 56 -61 67 0 31 -44 20 -48 -12 -2 -20 11 -38 66 -87 55 -49 69
-67 65 -85 -2 -13 17 -77 43 -143 64 -167 116 -322 175 -520 27 -93 63 -213
79 -265 25 -82 50 -217 50 -268 0 -22 -113 142 -212 308 -247 412 -332 722
-313 1148 6 131 5 152 -8 152 -16 0 -28 -58 -44 -212 l-8 -78 -47 60 c-27 33
-48 62 -48 66 0 3 -31 59 -69 123 -159 270 -182 314 -261 508 -41 99 -85 242
-95 311 -5 28 -12 42 -22 42 -33 0 10 -213 82 -395 43 -112 128 -288 170 -355
23 -37 24 -85 2 -77 -22 7 -111 173 -182 339 -84 198 -124 300 -195 498 -68
190 -81 220 -97 220 -7 0 -13 -5 -13 -11 0 -6 34 -111 76 -233 133 -386 257
-677 348 -811 l48 -70 -19 -100 c-38 -210 -20 -488 52 -770 13 -54 23 -100 20
-103 -8 -8 -100 145 -136 229 -49 113 -102 272 -128 384 -32 139 -63 334 -63
398 0 49 -3 58 -16 55 -27 -5 -26 -76 2 -268 56 -381 154 -638 329 -871 62
-83 117 -200 117 -251 0 -19 6 -40 13 -47 19 -19 13 -315 -12 -531 -28 -244
-68 -468 -97 -555 -13 -38 -21 -56 -18 -40 13 68 16 423 4 528 -13 117 -45
262 -80 362 -11 33 -36 119 -55 191 -40 153 -75 244 -94 244 -9 0 -12 -9 -8
-27 7 -43 93 -365 133 -498 40 -136 60 -263 69 -445 8 -151 -5 -279 -45 -444
-37 -150 -38 -166 -7 -166 32 0 49 21 91 110 46 99 81 223 111 395 38 222 75
580 75 744 1 65 2 74 14 59 19 -26 56 -23 56 3 0 32 -62 168 -112 245 -51 79
-58 97 -91 219 -102 371 -123 634 -71 888 l6 29 32 -29 c17 -17 48 -43 69 -58
26 -19 51 -53 74 -99 19 -39 50 -87 68 -106 28 -30 34 -44 40 -105 4 -38 13
-104 21 -145 9 -48 10 -76 4 -78 -15 -5 -12 -32 4 -32 9 0 26 -34 46 -87 95
-265 251 -546 468 -846 l35 -48 -6 -312 c-5 -270 -23 -517 -39 -533 -3 -2 -13
38 -23 90 -15 84 -16 110 -5 230 22 259 15 556 -13 556 -9 0 -13 -62 -14 -223
-3 -272 -13 -330 -32 -171 -11 93 -10 126 3 224 8 63 18 150 22 193 6 73 5 77
-14 77 -11 0 -23 -8 -26 -17 -10 -26 -53 -330 -70 -503 -9 -85 -21 -195 -28
-243 -10 -83 -11 -87 -26 -65 -11 16 -12 23 -4 26 7 2 12 10 12 18 0 11 -8 14
-27 12 -41 -5 -42 -46 -4 -109 l31 -50 -25 -112 c-26 -117 -53 -205 -104 -347
-49 -135 -204 -443 -177 -352 6 21 23 207 32 355 6 104 6 107 -15 107 -25 0
-25 -6 0 66 45 131 140 482 161 597 18 102 22 160 22 352 1 244 -4 275 -45
275 -20 0 -21 -3 -12 -62 11 -88 8 -345 -6 -453 -19 -138 -38 -222 -102 -448
-77 -272 -266 -761 -320 -827 l-20 -25 6 33 c6 27 4 32 -13 32 -11 0 -23 -6
-25 -12 -3 -7 -6 5 -6 27 -1 22 -9 90 -18 152 -14 96 -19 113 -35 113 -29 0
-33 -45 -14 -161 19 -121 13 -190 -29 -316 -22 -65 -135 -335 -135 -323 0 3 7
37 15 75 10 46 17 146 21 290 2 121 6 257 8 302 3 67 1 83 -10 83 -26 0 -31
-43 -37 -310 -5 -212 -10 -284 -26 -359 -26 -122 -41 -138 -41 -44 0 54 4 72
15 77 21 8 19 33 -4 45 -15 9 -20 27 -25 98 -9 113 -39 313 -65 431 -32 145
-112 382 -129 382 -23 0 -10 -96 31 -226 47 -148 101 -456 109 -629 3 -60 3
-60 -24 -59 -200 4 -185 2 -193 31 -3 15 -11 149 -16 297 -5 149 -12 308 -15
353 -6 73 -5 83 10 83 9 0 16 7 16 16 0 12 -9 14 -37 12 l-38 -3 -6 -65 c-4
-36 -14 -85 -24 -110 -22 -60 -51 -233 -66 -407 -7 -79 -16 -143 -20 -143 -24
0 -39 35 -39 93 0 51 4 64 20 75 26 16 27 52 1 52 -17 0 -20 11 -25 103 -8
129 -24 220 -47 275 -18 42 -18 44 6 134 25 93 47 199 85 413 40 224 99 422
156 524 31 55 30 63 -3 59 -67 -8 -151 -248 -218 -623 -38 -210 -89 -423 -105
-439 -6 -6 -10 -20 -10 -31 0 -38 -149 -325 -168 -325 -4 0 -18 9 -32 19 l-24
19 36 54 c31 47 39 53 69 53 l34 0 1 70 c1 46 10 99 28 155 41 130 96 564 96
760 l0 100 25 0 c41 0 30 27 -15 34 -22 3 -40 8 -40 10 0 2 7 23 16 47 63 176
87 517 37 536 -25 10 -31 -15 -26 -96 9 -131 -19 -280 -97 -511 -82 -244 -96
-297 -121 -455 l-19 -120 5 290 c7 478 24 547 212 886 84 150 132 262 178 413
39 128 54 222 61 380 3 77 9 148 13 158 4 11 17 -26 35 -105 65 -281 80 -336
118 -451 44 -133 161 -423 208 -516 39 -77 85 -129 135 -151 85 -39 107 -12
48 55 -110 125 -190 285 -224 450 -24 114 -46 347 -54 576 -9 232 -15 284 -37
288 -15 3 -16 -6 -12 -85 2 -48 9 -196 14 -328 6 -132 17 -287 25 -344 8 -57
13 -106 11 -108 -11 -12 -128 345 -160 490 -14 62 -32 135 -41 162 -8 28 -15
60 -15 73 0 14 -6 22 -17 22 -12 0 5 23 50 68 66 66 83 102 50 102 -17 0 -156
-120 -208 -180 -133 -154 -226 -230 -282 -230 -19 0 -47 -8 -61 -19 -27 -18
-72 -36 -72 -28 0 8 107 75 196 123 186 101 263 229 324 534 34 173 35 180 16
180 -22 0 -24 -7 -56 -160 -45 -215 -100 -337 -187 -422 -21 -20 -83 -62 -138
-94 -55 -31 -125 -74 -155 -94 -30 -21 -84 -52 -120 -70 -80 -40 -100 -57
-100 -85 0 -16 -27 -38 -122 -98 -287 -179 -477 -407 -567 -684 -16 -49 -48
-161 -71 -249 -23 -87 -52 -179 -65 -204 -48 -96 -136 -330 -164 -440 -41
-161 -65 -345 -58 -452 5 -78 10 -94 41 -146 20 -31 36 -63 36 -70 0 -6 7 -12
16 -12 13 0 15 8 12 35 -3 23 0 31 7 25 5 -4 47 -26 93 -49 l83 -40 -38 -6
c-70 -11 -88 -19 -91 -44 -4 -27 12 -41 46 -41 12 0 40 -9 62 -20 47 -24 110
-27 110 -5 0 10 -10 15 -32 15 -20 1 -45 11 -63 25 l-30 25 82 0 c53 0 84 -4
89 -12 4 -7 9 -62 11 -123 3 -92 1 -107 -9 -91 -40 60 -82 97 -107 94 -20 -2
-27 -9 -29 -30 -2 -20 1 -28 12 -28 8 0 16 6 18 12 6 18 66 -69 78 -111 20
-78 31 -207 37 -453 3 -144 10 -258 15 -258 5 0 6 -5 3 -10 -4 -6 -1 -150 6
-320 l13 -310 24 0 25 0 -5 195 c-4 166 -2 195 10 195 12 0 13 10 9 47 -12 88
-39 501 -35 525 2 13 8 -17 12 -67 4 -49 21 -229 36 -400 16 -171 32 -352 36
-402 l7 -93 28 0 c35 0 34 -9 14 217 -69 752 -118 1226 -141 1362 -5 32 -4 33
22 27 50 -13 208 -79 389 -162 l180 -83 -4 -48 c-3 -26 -5 -75 -5 -108 -1 -58
0 -60 26 -63 30 -4 41 13 79 112 16 45 25 56 42 56 45 0 47 -12 16 -88 -36
-90 -38 -125 -8 -120 17 2 31 23 59 88 23 54 42 84 51 83 8 -1 42 -7 76 -14
l63 -13 0 -42 c0 -23 11 -129 25 -235 40 -314 64 -523 80 -704 8 -93 18 -191
21 -218 l7 -47 58 0 c57 0 59 1 60 28 l1 27 10 -27 c6 -18 17 -28 30 -28 19 0
20 4 13 123 -6 103 -4 138 13 222 38 182 67 444 72 635 1 15 15 -12 34 -65 18
-49 40 -105 50 -123 16 -31 16 -36 -10 -140 -18 -75 -37 -125 -64 -167 -50
-81 -62 -114 -58 -166 2 -34 7 -45 23 -48 11 -2 24 -10 30 -18 20 -27 49 -11
58 32 5 22 37 98 71 168 l62 128 59 -103 c33 -56 74 -132 91 -168 38 -81 126
-180 160 -180 30 0 41 25 22 48 -9 9 -13 22 -11 29 6 18 -67 123 -87 123 -45
0 -97 189 -115 420 l-7 85 101 233 c101 235 160 399 162 450 0 26 1 26 9 5 7
-18 17 -23 44 -23 30 0 39 6 66 45 31 45 129 266 190 428 18 48 35 86 37 83 7
-7 -28 -376 -47 -493 -18 -113 -43 -174 -105 -258 -56 -76 -66 -125 -27 -125
31 0 79 61 135 170 30 58 100 194 155 302 56 108 102 204 102 213 0 9 9 19 20
22 22 6 37 40 22 55 -6 6 0 34 16 76 13 37 39 124 56 194 l33 127 21 -45 c28
-57 28 -65 -7 -269 -20 -119 -37 -192 -60 -245 -33 -80 -39 -120 -18 -120 24
0 47 35 91 141 71 169 92 213 99 202 3 -5 24 -59 45 -119 22 -60 53 -137 71
-172 26 -52 36 -63 54 -60 18 2 23 10 25 45 4 51 -34 237 -84 417 l-36 129 16
81 c32 157 38 234 45 530 l6 299 64 -79 c102 -125 192 -214 218 -214 29 0 31
34 5 64 -23 26 -118 191 -206 357 -69 131 -135 299 -181 461 -77 273 -190 595
-255 730 -28 59 -24 69 10 28 108 -126 400 -623 400 -680 0 -12 -80 -2 -94 11
-6 5 -18 9 -28 9 -24 0 -24 -51 0 -73 26 -24 173 -72 261 -87 50 -8 124 -10
230 -6 268 12 431 41 431 77 0 10 10 21 23 24 68 21 117 49 117 66 0 14 -7 19
-29 19 -17 0 -32 -4 -35 -9 -9 -13 -113 -39 -216 -52 -52 -6 -99 -15 -105 -19
-36 -27 -315 -39 -420 -18 -68 13 -74 24 -104 171 -24 116 -65 220 -140 350
-32 56 -77 135 -100 176 -24 40 -63 117 -88 170 -25 53 -50 105 -56 116 -5 11
20 -8 58 -43 71 -64 179 -126 211 -120 36 7 24 35 -43 104 -66 67 -192 214
-226 264 -9 13 -17 33 -17 43 0 10 -13 49 -30 87 -35 79 -38 98 -10 55 52 -80
73 -94 83 -55 7 25 -10 415 -19 443 -4 13 18 -2 65 -44 39 -35 84 -69 99 -76
l27 -12 -27 -1 c-50 0 -30 -28 55 -74 110 -59 179 -81 322 -101 114 -16 296
-16 390 0 20 4 6 -7 -42 -32 -52 -27 -73 -43 -73 -56 0 -18 5 -19 49 -13 27 3
82 18 122 31 l73 25 -32 -33 c-31 -32 -42 -67 -22 -67 6 0 45 24 88 54 79 54
215 136 227 136 4 0 -21 -30 -55 -66 -63 -68 -80 -97 -80 -140 0 -31 26 -32
34 -1 3 12 39 60 81 107 54 62 75 93 75 113 0 23 -4 27 -28 27 -28 0 -90 -27
-147 -65 -61 -41 -13 3 83 75 55 41 109 89 121 107 29 41 25 87 -7 91 -18 3
-44 -17 -111 -81 -85 -82 -92 -86 -182 -115 -52 -16 -110 -33 -129 -36 -34 -6
-34 -6 12 19 26 13 87 55 137 92 50 38 114 84 142 103 28 19 77 59 109 88 l57
52 5 -141 c5 -122 3 -150 -13 -195 -11 -29 -37 -124 -59 -210 -56 -216 -66
-344 -44 -570 15 -158 15 -176 0 -220 -37 -114 -54 -238 -40 -292 5 -19 12
-22 37 -20 23 2 36 12 52 38 18 31 20 53 21 190 l2 156 42 84 c23 47 71 135
106 197 35 62 93 170 128 239 l64 127 -4 -154 c-7 -272 -42 -462 -138 -730
-90 -254 -146 -437 -212 -697 -19 -78 -69 -223 -120 -350 -91 -227 -128 -338
-119 -360 3 -7 15 -12 27 -10 23 3 68 74 183 293 96 181 120 251 211 610 78
309 112 427 113 398 1 -7 7 -13 14 -13 9 0 18 25 27 73 13 78 69 246 149 452
56 143 63 185 32 185 -16 0 -19 6 -16 33 5 35 20 191 31 304 6 71 7 73 30 67
18 -5 24 -2 24 11 0 30 -20 55 -45 55 -42 0 -46 -20 -65 -310 -15 -215 -24
-261 -93 -439 -106 -277 -166 -468 -247 -792 -43 -175 -95 -360 -115 -411 -33
-83 -131 -278 -140 -278 -4 0 37 106 83 216 34 82 41 103 116 384 66 248 97
348 170 556 102 290 136 480 136 756 0 132 -3 178 -12 181 -9 4 -8 6 3 6 19 1
59 42 59 60 0 8 -8 11 -19 8 -17 -4 -18 -1 -11 17 26 67 125 276 252 531 79
160 163 342 186 405 l41 115 0 -65 c1 -95 -16 -353 -30 -460 -10 -76 -15 -94
-30 -97 -16 -5 -19 -16 -19 -72 0 -36 -1 -77 -3 -91 -1 -19 3 -26 19 -28 18
-3 27 -20 53 -110 17 -59 47 -179 66 -267 39 -180 81 -361 156 -675 28 -118
62 -291 76 -385 23 -160 24 -180 14 -335 -6 -91 -13 -225 -17 -298 -3 -72 -10
-132 -15 -132 -13 0 -11 -28 2 -32 17 -6 -15 -357 -36 -398 -12 -23 -15 -45
-11 -74 3 -23 -2 -87 -12 -144 l-18 -104 -1 184 c-1 107 -8 234 -18 308 -16
122 -26 171 -79 375 -32 123 -32 123 -1 117 18 -3 25 0 25 12 0 21 -44 48 -72
44 -36 -5 -34 -48 15 -239 42 -162 67 -287 83 -418 7 -51 6 -53 -15 -46 -26 8
-61 -2 -61 -18 0 -7 13 -18 30 -24 88 -33 64 -197 -103 -703 -24 -74 -70 -233
-102 -352 -32 -120 -60 -217 -61 -215 -2 2 4 43 13 93 14 75 15 105 5 189 -13
122 -49 240 -97 319 -19 32 -35 62 -35 67 0 12 45 29 76 29 15 0 24 6 24 15 0
11 -13 15 -53 15 -95 0 -113 -55 -52 -156 44 -74 81 -186 95 -296 15 -112 -3
-211 -81 -453 -91 -281 -169 -435 -327 -648 -42 -58 -68 -85 -75 -78 -14 14
-13 323 2 411 31 182 225 915 281 1063 57 152 87 216 200 428 75 138 100 195
100 222 0 30 -4 37 -20 37 -13 0 -20 -7 -20 -20 0 -11 -32 -75 -70 -143 -180
-311 -262 -515 -351 -864 -13 -51 -25 -91 -26 -89 -1 1 6 69 17 152 11 82 29
226 40 319 12 94 29 198 40 232 22 73 66 141 115 179 35 26 46 54 23 54 -24
-1 -92 -55 -120 -95 -61 -88 -65 -111 -123 -595 -34 -287 -74 -477 -141 -678
-84 -253 -96 -314 -95 -466 1 -133 10 -185 42 -248 17 -34 17 -39 3 -73 -9
-22 -14 -58 -12 -88 l3 -52 43 -3 c58 -4 97 22 170 112 110 137 118 153 340
726 33 85 64 167 67 182 6 24 13 11 46 -85 41 -119 74 -267 84 -382 7 -81 -19
-412 -39 -498 -7 -32 -28 -81 -45 -108 -36 -59 -40 -89 -11 -89 12 0 31 16 48
40 15 22 57 83 94 135 88 126 110 185 133 358 l6 49 81 -129 c107 -170 188
-324 188 -356 0 -37 10 -57 29 -57 10 0 30 -24 49 -60 32 -58 35 -60 74 -60
l41 0 -6 62 -5 63 21 -43 c12 -23 27 -42 35 -42 17 0 14 13 -26 130 -28 79
-62 268 -62 340 0 24 -4 31 -17 28 -34 -6 -38 -51 -19 -181 37 -246 34 -256
-29 -102 -32 77 -37 97 -32 142 5 47 3 53 -13 53 -13 0 -21 12 -29 47 -16 75
-30 186 -41 341 -6 79 -19 214 -30 300 -25 198 -30 206 -124 210 -61 3 -67 1
-64 -15 2 -13 14 -19 46 -21 30 -2 46 -9 57 -25 15 -24 49 -289 60 -472 7
-112 27 -271 46 -360 21 -101 21 -104 3 -70 -9 17 -63 104 -119 195 l-103 165
-7 145 c-4 80 -8 165 -9 190 -1 38 -4 45 -23 48 -21 3 -22 -1 -25 -70 l-3 -73
-40 -5 c-39 -5 -40 -6 -39 -45 0 -28 14 -64 47 -122 l46 -81 -10 -89 c-16
-148 -48 -246 -102 -313 l-20 -25 6 40 c16 109 29 351 23 443 -8 123 -35 260
-70 358 -32 88 -32 94 0 94 19 0 25 5 22 18 -2 13 -15 18 -56 20 -42 2 -52 6
-48 17 14 38 60 197 101 355 40 154 141 493 181 605 l14 40 -3 -65 c-2 -59 0
-65 19 -68 19 -3 23 6 38 75 31 148 76 388 76 408 0 11 30 70 66 130 37 61 91
159 121 220 30 60 60 117 68 125 8 9 21 31 29 50 8 19 15 27 16 18 0 -21 30
-25 30 -4 0 7 3 28 6 45 5 25 3 31 -10 31 -13 0 -15 7 -11 38 2 20 10 127 16
237 15 254 8 420 -36 910 l-7 70 55 -100 c30 -55 85 -152 124 -216 63 -106 71
-124 82 -203 9 -58 11 -123 6 -194 -6 -98 -9 -109 -28 -118 -23 -9 -85 -116
-86 -146 -1 -12 6 -18 19 -18 15 0 28 16 47 55 15 30 30 55 34 55 18 0 18
-243 -1 -255 -4 -2 -22 11 -40 30 -32 33 -33 35 -12 35 20 0 41 25 31 34 -11
9 -159 17 -159 8 0 -5 41 -51 90 -102 l91 -92 -7 -111 c-6 -100 5 -262 22
-322 3 -11 -16 18 -43 65 -49 85 -177 237 -200 239 -32 2 -3 -67 47 -114 36
-33 105 -136 143 -212 27 -54 127 -303 162 -403 13 -36 73 -177 135 -315 91
-203 110 -253 101 -267 -6 -10 -11 -24 -11 -33 0 -8 -20 -29 -45 -47 -47 -35
-57 -58 -26 -58 14 0 17 -6 13 -25 -6 -33 9 -32 48 5 18 17 45 40 61 51 l28
19 30 -43 c16 -24 36 -49 44 -55 12 -10 -13 -38 -142 -165 -151 -148 -258
-243 -265 -236 -2 2 -18 56 -36 119 -38 134 -46 150 -65 150 -23 0 -19 -28 26
-176 29 -96 38 -139 30 -147 -7 -7 -12 -6 -15 4 -11 36 -98 273 -126 344 -111
282 -150 422 -150 544 0 38 -4 71 -9 73 -5 2 -16 54 -25 116 -8 62 -26 143
-39 180 -31 88 -91 182 -117 182 -11 0 -20 -4 -20 -9 0 -4 20 -44 44 -87 50
-89 73 -165 82 -274 l6 -75 -40 41 c-21 22 -41 46 -44 54 -7 22 -38 4 -38 -22
1 -13 23 -88 51 -168 68 -197 69 -204 62 -375 -8 -215 27 -406 123 -658 36
-93 39 -107 26 -107 -4 0 -25 39 -46 88 -46 104 -126 256 -174 331 l-34 55 21
17 c41 33 15 51 -42 30 -44 -17 -43 -45 6 -119 51 -76 140 -248 190 -368 29
-70 32 -83 20 -99 -32 -45 -4 -103 38 -77 15 10 19 7 28 -21 10 -31 45 -237
55 -327 18 -151 26 -226 36 -315 18 -167 18 -165 45 -165 30 0 31 8 10 175 -8
66 -20 163 -25 215 -11 90 -25 198 -36 265 -3 21 -2 26 4 15 6 -8 17 -62 26
-120 9 -58 24 -147 32 -199 8 -52 19 -151 24 -220 5 -69 10 -127 10 -128 0 -2
28 -3 61 -3 l62 0 -6 42 c-4 24 -18 120 -32 213 -14 94 -28 209 -32 257 l-6
87 27 10 c31 12 33 30 6 64 -20 26 -25 86 -11 136 6 21 8 22 20 7 7 -9 20 -16
27 -16 8 0 14 -4 14 -10 0 -5 7 -10 15 -10 24 0 18 18 -22 61 -50 54 -54 62
-47 98 5 21 12 31 25 31 26 0 24 28 -3 32 -30 4 -44 55 -21 80 16 18 19 12 66
-107 30 -79 54 -125 63 -125 19 0 18 4 -11 90 -26 76 -27 92 -5 65 7 -8 19
-15 26 -15 28 0 15 25 -57 112 l-26 31 77 76 c76 76 220 204 315 278 28 22
104 86 170 142 l120 102 8 -33 c15 -67 76 -598 87 -758 6 -91 15 -205 20 -255
6 -49 12 -182 15 -295 3 -113 8 -247 11 -298 l6 -92 54 0 54 0 0 86 c0 114
-17 353 -35 489 -25 188 -55 468 -54 510 0 31 4 21 18 -45 10 -47 21 -107 25
-135 4 -27 20 -117 36 -200 48 -248 90 -555 90 -660 0 -38 3 -45 20 -45 17 0
20 7 20 48 0 185 -50 507 -201 1302 -19 100 -21 200 -7 400 3 31 0 35 -23 38
-32 4 -39 -14 -39 -111 0 -77 -15 -82 -25 -9 -3 26 -14 57 -23 70 -18 23 -17
24 121 160 76 75 193 198 260 272 66 74 124 136 128 138 3 2 9 -6 12 -18 3
-11 12 -20 21 -20 12 0 16 10 16 45 0 42 2 45 26 45 21 0 25 4 22 18 -4 12 10
38 39 72 50 61 54 93 11 98 -18 2 -37 -7 -62 -29 -30 -26 -39 -29 -51 -19 -30
25 -56 81 -96 206 -102 321 -229 569 -399 784 -67 83 -234 253 -333 337 -134
113 -327 233 -376 233 -11 0 -27 10 -35 23 -23 36 -55 169 -66 274 -29 271
-119 693 -235 1103 -116 410 -132 493 -122 638 9 122 16 126 65 40 78 -137
112 -225 133 -336 10 -59 26 -141 34 -182 9 -41 22 -130 30 -198 8 -67 17
-127 20 -132 11 -17 43 -11 50 10 7 22 -1 113 -15 170 -5 19 -16 91 -25 160
-9 68 -27 168 -40 220 -13 53 -29 150 -35 216 -6 65 -26 245 -45 399 -29 239
-33 300 -28 418 5 118 3 137 -10 137 -42 0 -48 -261 -13 -560 14 -113 27 -236
31 -275 3 -38 8 -81 11 -95 2 -14 -13 7 -34 45 -21 39 -50 89 -65 112 -20 32
-25 49 -20 77 4 29 2 36 -11 36 -9 0 -16 -6 -16 -12 0 -7 -5 -5 -11 5 -5 9
-20 17 -33 17 -18 0 -25 -7 -30 -31 -9 -47 -7 -59 9 -59 8 0 15 5 15 12 0 9 3
9 11 1 8 -8 7 -28 -5 -75 -8 -34 -18 -89 -22 -120 -5 -39 -11 -58 -20 -58 -8
0 -14 -9 -14 -20 0 -11 6 -20 14 -20 14 0 26 -42 26 -92 0 -59 41 -225 150
-613 49 -173 161 -685 159 -727 0 -15 -20 37 -130 347 -103 292 -129 345 -169
345 -24 0 -30 94 -30 448 0 236 -2 282 -14 282 -23 0 -31 -158 -29 -568 2
-239 -1 -371 -7 -367 -33 21 -104 229 -140 409 -27 138 -44 211 -57 259 -4 11
0 17 11 17 9 0 16 7 16 15 0 15 -65 33 -77 21 -4 -3 3 -41 15 -84 12 -42 33
-139 47 -214 24 -130 56 -243 95 -334 18 -40 18 -40 -4 -40 -14 1 -22 -6 -23
-19 -2 -15 13 -30 59 -60 l62 -40 -3 -265 c-3 -338 15 -630 69 -1131 8 -69 8
-116 -1 -170 -11 -75 -59 -249 -84 -304 -56 -128 -79 -175 -82 -171 -2 2 1 53
7 112 9 82 8 172 -1 369 -7 143 -12 325 -12 404 2 133 1 143 -16 138 -15 -4
-19 7 -28 72 -7 42 -46 220 -89 396 -81 336 -123 520 -150 645 -9 41 -32 127
-51 190 -60 194 -58 181 -39 240 9 29 50 126 91 215 153 337 180 463 201 916
l7 147 51 -18 c28 -10 98 -39 155 -65 68 -30 114 -45 135 -43 43 4 46 32 7 72
-60 62 -145 286 -210 551 -29 119 -59 179 -90 183 -13 2 -28 -1 -33 -6 -15
-15 1 -52 21 -52 20 0 36 -46 106 -295 39 -138 82 -254 119 -321 l23 -42 -31
9 c-61 17 -161 60 -212 90 -49 30 -52 34 -57 82 -12 94 -39 187 -55 187 -12 0
-14 -11 -8 -65 4 -36 9 -80 13 -97 l6 -32 -24 19 c-14 11 -42 39 -63 62 l-38
42 17 68 c22 88 15 158 -28 270 -19 49 -44 133 -57 188 -12 55 -40 151 -62
215 -21 63 -46 138 -56 165 -9 28 -78 174 -155 325 -168 334 -197 402 -232
550 -15 63 -29 121 -31 128 -2 6 -11 12 -20 12 -14 0 -16 -8 -10 -62z m-1667
-310 c-3 -8 -6 -5 -6 6 -1 11 2 17 5 13 3 -3 4 -12 1 -19z m13 -278 c18 -231
62 -392 154 -564 30 -55 61 -128 70 -162 9 -34 27 -91 41 -128 32 -85 32 -95
-2 -54 -30 36 -54 57 -122 109 -40 31 -48 46 -89 154 -57 153 -107 350 -127
501 -20 160 -20 164 17 287 l33 109 7 -54 c4 -29 12 -118 18 -198z m-119 -119
c-11 -7 -12 -24 -7 -77 10 -101 60 -329 90 -414 44 -123 42 -114 15 -106 -13
4 -61 12 -106 18 l-83 11 0 59 c0 89 18 239 46 377 27 134 29 141 47 141 8 0
7 -3 -2 -9z m1090 -235 c39 -76 132 -187 253 -302 66 -63 117 -114 113 -114
-14 0 -72 32 -108 61 -20 16 -81 81 -135 144 -53 63 -101 115 -104 115 -16 0
-80 181 -80 224 1 12 9 -3 20 -33 11 -30 29 -73 41 -95z m-140 -228 c22 -44
52 -99 67 -120 16 -25 22 -42 15 -49 -8 -8 -73 109 -119 219 -27 62 -4 31 37
-50z m289 -109 c0 -18 -10 -8 -25 24 l-16 32 21 -24 c11 -13 20 -27 20 -32z
m-1425 -59 c3 -5 1 -10 -4 -10 -6 0 -11 5 -11 10 0 6 2 10 4 10 3 0 8 -4 11
-10z m238 -10 c32 -13 2 -11 -78 5 l-70 14 63 -5 c35 -3 73 -9 85 -14z m1251
11 c6 -9 -16 -21 -39 -21 -7 0 -15 7 -19 15 -4 11 2 15 24 15 16 0 31 -4 34
-9z m-1179 -31 c13 -5 14 -9 5 -9 -8 0 -24 4 -35 9 -13 5 -14 9 -5 9 8 0 24
-4 35 -9z m-46 -50 c23 -6 57 -18 73 -26 43 -22 196 -176 181 -181 -19 -7 -16
-26 12 -92 26 -62 28 -81 22 -171 -4 -57 -29 -130 -45 -130 -5 0 -14 -12 -21
-26 -19 -43 -93 -124 -138 -150 -52 -32 -187 -76 -191 -64 -2 6 -22 10 -45 10
-140 0 -227 37 -301 127 l-55 66 32 21 c75 51 297 172 297 162 0 -2 -28 -23
-62 -47 -90 -63 -128 -99 -128 -120 0 -25 26 -24 70 2 110 66 109 66 48 3 -32
-33 -58 -67 -58 -76 0 -21 80 -34 110 -18 18 10 43 7 29 -3 -59 -44 -89 -71
-89 -83 0 -22 47 -17 72 8 13 13 32 21 44 20 13 -2 41 6 63 18 34 17 41 18 41
5 0 -8 9 -15 20 -15 11 0 20 4 20 10 0 5 21 22 48 37 54 31 81 60 82 86 0 24
-22 21 -56 -8 -16 -13 -36 -31 -45 -38 -18 -16 -36 -1 -31 26 2 12 -3 17 -20
17 -20 0 -17 5 25 41 76 65 54 92 -38 47 -33 -16 -45 -27 -42 -40 5 -19 -19
-34 -26 -15 -2 6 41 54 95 107 104 101 124 140 72 140 -19 0 -25 -4 -22 -20 2
-12 -16 -38 -52 -75 -56 -57 -70 -65 -70 -41 0 8 -10 16 -22 18 -19 2 -12 9
34 33 57 29 81 63 37 52 -12 -3 -27 -1 -33 5 -9 9 0 23 36 59 26 27 48 56 48
67 0 10 11 29 25 42 14 13 25 29 25 37 0 23 -47 15 -64 -11 -11 -17 -22 -23
-36 -19 -15 4 -20 1 -20 -13 0 -11 -9 -25 -21 -32 -42 -27 -30 -1 35 70 63 70
82 108 52 108 -7 0 -38 -27 -67 -59 -30 -32 -66 -62 -80 -65 l-26 -6 -8 110
c-3 60 -4 114 -1 119 4 5 28 4 64 -5 31 -7 77 -18 101 -24z m-429 28 c0 -2
-35 -39 -77 -83 -79 -82 -86 -84 -25 -5 36 47 82 90 95 90 4 0 7 -1 7 -2z
m180 -28 c0 -11 -2 -20 -4 -20 -2 0 -6 9 -9 20 -3 11 -1 20 4 20 5 0 9 -9 9
-20z m1601 -29 c57 -46 63 -49 116 -47 31 1 62 -4 72 -11 9 -7 24 -13 34 -13
10 0 40 -17 67 -37 53 -40 70 -74 70 -145 0 -20 5 -40 10 -43 12 -8 3 -100
-16 -171 -16 -57 -101 -192 -133 -212 -24 -14 -27 -4 -6 24 8 10 15 29 15 42
0 17 -6 22 -25 22 -14 0 -25 -4 -25 -10 0 -5 -7 -10 -15 -10 -9 0 -18 -7 -21
-15 -4 -8 -13 -15 -22 -15 -12 0 -10 6 10 28 48 52 98 125 98 143 0 14 -8 18
-42 17 -43 0 -78 -20 -78 -44 0 -7 -25 -40 -55 -72 -54 -59 -69 -92 -41 -92 8
0 34 19 57 43 23 23 36 33 27 22 -27 -35 -50 -86 -44 -101 7 -19 35 -18 42 1
4 8 13 15 20 15 8 0 17 7 20 15 4 8 12 15 20 15 7 0 18 8 23 18 6 9 11 13 11
8 0 -5 -16 -28 -35 -52 -19 -23 -35 -49 -35 -56 0 -19 -101 -60 -162 -66 -30
-3 -75 2 -116 13 -90 25 -227 105 -178 105 17 0 96 96 96 116 0 8 7 14 15 14
8 0 15 -4 15 -10 0 -18 33 -11 59 13 13 12 6 -1 -17 -29 -23 -27 -42 -58 -42
-67 0 -21 36 -23 47 -3 4 8 34 41 66 74 31 33 57 67 57 75 0 17 34 50 43 41 9
-9 -10 -41 -55 -96 -50 -60 -108 -157 -108 -180 0 -31 29 -20 44 17 9 20 35
61 59 93 119 154 146 206 113 214 -9 2 29 51 99 128 63 69 114 133 114 143 1
26 -35 21 -58 -9 l-21 -27 0 27 c0 36 -22 33 -59 -9 -17 -19 -33 -35 -36 -35
-14 0 -36 -32 -31 -45 3 -9 0 -12 -9 -9 -18 7 -49 -22 -42 -40 7 -18 -11 -36
-29 -29 -18 7 -47 -24 -40 -42 3 -9 0 -12 -9 -9 -15 6 -45 -17 -45 -35 0 -6 5
-11 11 -11 5 0 7 -5 4 -10 -4 -6 -12 -4 -22 5 -14 15 -14 18 4 38 26 29 63 91
63 106 0 8 -11 11 -27 9 -21 -2 -28 -9 -28 -24 -1 -12 -52 -89 -114 -172 -62
-84 -121 -168 -131 -187 l-18 -35 -36 45 c-85 103 -119 236 -91 357 15 69 54
161 77 183 6 7 19 -1 37 -23 l28 -33 -58 -61 c-48 -50 -59 -69 -59 -95 0 -50
28 -43 95 25 l57 57 -31 -47 c-17 -26 -31 -51 -31 -57 0 -6 -4 -11 -10 -11 -5
0 -10 -7 -10 -15 0 -8 7 -15 15 -15 8 0 15 7 15 15 0 8 4 15 9 15 11 0 141
164 141 178 0 10 -23 22 -41 22 -5 0 -9 -5 -9 -11 0 -6 -11 -24 -25 -41 -22
-26 -25 -27 -25 -9 0 11 5 23 10 26 12 8 13 45 1 45 -5 0 -11 17 -13 38 -3 20
-8 44 -12 53 -5 11 -2 19 9 23 11 4 22 -5 36 -29 15 -25 28 -35 45 -35 28 0
31 18 8 61 -17 34 -11 52 9 26 16 -21 67 -34 67 -16 0 7 23 -13 51 -44 47 -53
79 -72 79 -46 0 13 -34 64 -68 102 l-26 27 27 0 c15 0 27 5 27 10 0 16 7 12
71 -39z m-1692 -11 c0 -10 -3 -8 -9 5 -12 27 -12 43 0 25 5 -8 9 -22 9 -30z
m-12 -110 c47 -90 62 -110 81 -110 27 0 30 29 6 65 -12 18 -13 25 -4 25 13 0
10 56 -5 91 -4 11 0 18 14 22 18 4 20 -2 26 -62 3 -36 10 -74 15 -83 18 -32
10 -45 -52 -88 -35 -24 -67 -48 -73 -54 -5 -7 -28 -25 -50 -41 l-40 -29 28 30
c52 57 17 78 -39 23 l-33 -32 -7 27 c-7 28 -23 32 -55 16 -32 -18 -24 -48 15
-56 50 -9 51 -28 4 -64 -23 -16 -45 -30 -49 -30 -10 0 -31 104 -27 132 2 15
11 24 26 26 25 4 31 32 6 32 -11 0 -14 6 -9 23 20 66 133 247 154 247 6 0 36
-49 68 -110z m1258 99 c4 -6 -2 -20 -13 -32 -24 -26 -62 -103 -87 -174 -17
-47 -18 -63 -7 -160 12 -118 42 -207 89 -270 36 -48 37 -50 104 -101 103 -78
221 -104 368 -83 147 22 236 79 318 204 55 85 81 142 92 200 6 29 9 34 10 16
1 -35 -31 -134 -60 -184 -52 -91 -151 -194 -186 -195 -7 0 -13 -4 -13 -9 0
-16 -157 -63 -213 -64 -200 -4 -392 113 -478 293 -60 124 -64 140 -63 230 0
76 5 96 43 189 53 132 79 169 96 140z m-664 -46 c13 -16 12 -17 -3 -4 -10 7
-18 15 -18 17 0 8 8 3 21 -13z m-847 -113 c-27 -77 -47 -206 -39 -260 4 -29 3
-31 -4 -10 -13 36 -13 194 0 227 11 31 58 113 63 113 2 0 -7 -31 -20 -70z
m1214 -7 c-10 -2 -26 -2 -35 0 -10 3 -2 5 17 5 19 0 27 -2 18 -5z m1152 -8 c7
-9 8 -15 2 -15 -5 0 -12 7 -16 15 -3 8 -4 15 -2 15 2 0 9 -7 16 -15z m-276
-56 c-9 -11 -19 -17 -21 -15 -8 7 21 45 30 39 4 -3 1 -14 -9 -24z m833 -11
c-3 -8 -6 -5 -6 6 -1 11 2 17 5 13 3 -3 4 -12 1 -19z m-1680 1 c70 -12 77 -23
48 -80 -15 -28 -15 -51 1 -126 2 -11 22 -43 43 -71 22 -27 51 -71 64 -99 54
-105 160 -202 273 -247 68 -28 182 -46 284 -46 61 0 78 5 157 45 110 54 198
136 238 218 16 31 35 63 43 70 13 10 14 7 7 -23 -4 -19 -14 -48 -22 -64 -8
-15 -26 -101 -39 -190 -34 -224 -40 -251 -96 -420 -55 -167 -84 -226 -169
-330 -64 -79 -308 -314 -374 -361 -24 -16 -72 -51 -108 -77 -42 -31 -99 -60
-159 -80 -88 -31 -100 -33 -228 -32 l-135 1 -105 52 c-178 90 -285 167 -421
303 -176 175 -309 387 -346 549 -8 38 -19 69 -24 69 -12 0 -23 30 -55 140 -24
83 -74 293 -74 312 0 5 12 0 28 -12 87 -68 195 -131 248 -145 118 -30 274 -15
379 38 97 48 263 241 317 367 32 74 35 115 11 164 -13 29 -14 38 -3 51 27 33
111 42 217 24z m1313 -85 c0 -8 -1 -14 -3 -14 -1 0 -27 25 -57 56 l-55 57 58
-43 c31 -23 57 -49 57 -56z m-2069 22 c-24 -25 -71 -59 -105 -77 -34 -18 -57
-28 -53 -23 11 11 190 142 197 143 2 1 -15 -19 -39 -43z m-127 4 c-1 -27 -13
-39 -100 -102 -54 -39 -120 -88 -145 -109 l-46 -38 -11 23 c-9 21 -7 26 26 48
125 83 175 119 199 141 16 14 39 35 53 46 14 11 25 20 25 21 0 0 0 -14 -1 -30z
m591 -151 c-8 -19 -13 -25 -9 -14 3 11 9 54 12 95 l7 75 3 -61 c2 -41 -2 -74
-13 -95z m1442 109 c-3 -7 -5 -2 -5 12 0 14 2 19 5 13 2 -7 2 -19 0 -25z m68
-8 c3 -5 1 -10 -4 -10 -6 0 -11 5 -11 10 0 6 2 10 4 10 3 0 8 -4 11 -10z m346
-136 c74 -49 163 -102 197 -118 l62 -30 0 -68 c0 -86 -17 -334 -31 -453 -19
-157 -63 -303 -149 -490 l-41 -90 7 75 c4 41 8 212 10 380 1 168 7 334 13 370
14 88 14 110 -3 110 -10 0 -18 -18 -25 -52 -18 -93 -19 -96 -20 -68 0 14 -10
66 -21 115 -14 68 -17 100 -10 130 13 57 12 85 -3 85 -31 0 -48 -147 -27 -235
5 -22 17 -91 25 -153 15 -104 15 -119 0 -195 -25 -122 -81 -257 -246 -588 -81
-164 -193 -398 -247 -521 -92 -206 -132 -284 -284 -563 -31 -56 -59 -111 -63
-125 -7 -22 -8 -22 -19 -4 -7 12 -11 91 -11 229 l1 210 41 155 c40 148 68 229
82 240 4 3 15 23 24 45 10 22 27 51 37 65 l19 25 -6 -67 c-5 -59 -4 -68 10
-68 10 0 19 11 23 28 28 122 90 338 117 410 119 311 150 381 171 384 18 3 22
12 27 73 4 39 18 102 32 142 33 93 49 203 46 306 -3 71 18 335 27 346 2 2 15
-6 30 -18 57 -45 75 -6 24 52 -16 19 -30 45 -30 57 0 21 1 21 38 -8 20 -16 98
-69 173 -118z m-265 41 c-10 -10 -16 -34 -17 -63 0 -26 -7 -78 -14 -117 l-14
-70 4 85 c3 47 5 119 5 160 l0 75 26 -27 c25 -25 26 -28 10 -43z m-739 -17
c-39 -49 -55 -30 -20 23 20 30 28 35 38 26 10 -9 6 -19 -18 -49z m-1830 -20
c-3 -8 -6 -5 -6 6 -1 11 2 17 5 13 3 -3 4 -12 1 -19z m928 -92 c-45 -80 -155
-193 -223 -229 -78 -41 -154 -55 -249 -46 -45 5 -96 15 -115 23 -41 18 -22 19
81 6 58 -8 77 -7 83 3 6 9 8 9 8 0 0 -30 126 -3 218 46 63 32 147 125 190 208
20 40 38 68 40 63 2 -5 -13 -38 -33 -74z m-873 -19 l22 -32 -23 20 c-22 19
-51 76 -51 99 1 6 7 -4 15 -22 8 -18 25 -48 37 -65z m-63 -51 c1 -42 -5 -29
-12 24 -4 30 -3 38 3 25 5 -11 9 -33 9 -49z m2488 -68 c-2 -18 -4 -4 -4 32 0
36 2 50 4 33 2 -18 2 -48 0 -65z m-10 -125 c-3 -10 -5 -4 -5 12 0 17 2 24 5
18 2 -7 2 -21 0 -30z m-10 -85 c-2 -13 -4 -3 -4 22 0 25 2 35 4 23 2 -13 2
-33 0 -45z m-2339 -300 c38 -81 39 -86 17 -76 -17 7 -27 27 -40 77 -10 36 -20
73 -23 81 -12 36 9 -2 46 -82z m2261 -142 c-29 -75 -53 -135 -55 -133 -6 5 46
197 62 230 38 79 39 80 42 59 2 -10 -20 -81 -49 -156z m-2164 -201 c32 -77 89
-216 127 -310 80 -195 87 -216 67 -197 -21 19 -49 15 -49 -8 0 -11 12 -45 26
-77 37 -83 64 -153 60 -153 -17 0 -226 363 -226 393 0 2 14 2 30 -1 26 -4 30
-1 30 21 0 13 -7 30 -14 37 -8 6 -22 46 -32 88 -13 65 -56 238 -80 332 -14 51
6 11 61 -125z m2030 -75 c-32 -149 -44 -189 -72 -240 -21 -38 -91 -140 -96
-140 -1 0 -2 29 -2 65 0 46 4 65 13 65 7 0 28 35 47 78 54 119 130 280 131
279 1 -1 -8 -49 -21 -107z m-2098 -12 c-3 -8 -6 -5 -6 6 -1 11 2 17 5 13 3 -3
4 -12 1 -19z m10 -40 c-3 -8 -6 -5 -6 6 -1 11 2 17 5 13 3 -3 4 -12 1 -19z
m1949 -71 l-34 -78 -4 42 c-3 37 1 48 32 84 19 23 36 39 38 36 1 -3 -13 -41
-32 -84z m-1694 9 c-5 -17 -7 -15 -18 14 -18 50 -16 59 5 31 11 -14 16 -33 13
-45z m90 -103 c-5 -29 -11 -23 -39 45 l-15 37 30 -28 c22 -21 28 -34 24 -54z
m1472 -128 c-4 -9 -16 -21 -28 -27 -19 -10 -19 -9 3 16 28 30 33 32 25 11z
m-1514 -194 c-1 -13 -29 45 -29 59 0 8 6 0 14 -19 8 -18 15 -36 15 -40z m1057
3 c-3 -3 -12 -4 -19 -1 -8 3 -5 6 6 6 11 1 17 -2 13 -5z m-968 -46 l-1 -43
-14 34 c-13 28 -13 36 -2 42 7 5 14 9 16 9 1 0 2 -19 1 -42z m-60 -23 c0 -5
-6 1 -14 15 -8 14 -14 30 -14 35 0 6 6 -1 14 -15 8 -14 14 -29 14 -35z m2941
-63 c12 -31 60 -165 106 -297 47 -132 109 -309 139 -392 54 -150 64 -185 44
-150 -5 9 -17 17 -24 17 -25 0 -17 -50 16 -101 28 -44 51 -129 36 -129 -15 0
-52 96 -156 410 -71 212 -128 365 -156 418 -40 74 -45 93 -51 172 -10 136 7
156 46 52z m-3411 -244 c26 -44 18 -49 -20 -12 -18 17 -25 32 -22 45 6 23 11
19 42 -33z m3423 -128 c33 -87 119 -363 114 -367 -2 -2 -20 28 -40 66 -59 113
-113 268 -120 346 -8 83 1 74 46 -45z m-4280 -447 l-4 -63 -36 0 c-21 0 -48
-3 -62 -7 -20 -5 -13 7 40 64 36 39 65 70 65 69 1 0 -1 -29 -3 -63z m4215 -20
c-3 -10 -5 -2 -5 17 0 19 2 27 5 18 2 -10 2 -26 0 -35z m-1448 -205 c-19 -65
-24 -18 -8 67 l14 70 3 -47 c2 -26 -2 -66 -9 -90z m1458 70 c-2 -13 -4 -3 -4
22 0 25 2 35 4 23 2 -13 2 -33 0 -45z m-4330 1 c-39 -33 -50 -69 -19 -69 10 0
37 14 60 31 24 17 46 29 49 26 9 -9 -14 -120 -48 -229 -46 -152 -98 -271 -190
-433 -101 -178 -139 -267 -169 -395 -12 -52 -31 -119 -41 -148 -23 -64 -23
-72 -3 -72 13 0 15 -9 10 -57 -3 -32 -8 -146 -11 -253 -7 -214 4 -325 49 -500
13 -52 27 -121 31 -152 7 -57 7 -58 -45 -138 -46 -69 -55 -77 -65 -63 -7 9
-19 14 -29 10 -9 -4 -66 17 -138 49 -68 31 -176 74 -242 96 -65 21 -152 52
-193 69 -87 34 -103 36 -103 9 0 -15 21 -29 89 -61 73 -34 88 -44 84 -60 -6
-20 20 -28 32 -10 3 5 22 2 43 -7 l38 -16 -35 -18 -34 -18 -141 64 c-78 35
-159 69 -181 76 -22 7 -66 26 -99 42 -32 16 -67 27 -77 25 -12 -3 -19 0 -19 8
0 31 41 180 50 183 5 2 10 24 10 49 0 62 40 257 101 493 43 165 60 214 114
320 164 326 388 642 624 879 127 128 227 194 317 211 92 17 109 23 154 56 57
42 77 44 27 3z m4340 -111 c-2 -13 -4 -5 -4 17 -1 22 1 32 4 23 2 -10 2 -28 0
-40z m-4837 -32 c0 -2 -48 -44 -107 -94 -129 -107 -283 -266 -338 -348 -21
-32 -70 -103 -108 -156 -37 -53 -95 -143 -128 -200 -32 -56 -59 -100 -59 -97
0 21 80 239 111 302 97 198 266 373 499 520 124 77 130 80 130 73z m5520 -120
c275 -189 525 -471 688 -776 53 -99 157 -349 148 -357 -2 -2 -17 17 -32 44
-64 113 -117 194 -172 264 -33 41 -78 111 -100 156 -109 215 -227 383 -334
473 -35 30 -114 87 -177 129 -135 90 -132 88 -151 94 -8 2 -26 24 -39 48 l-24
43 59 -33 c32 -19 93 -57 134 -85z m-268 -33 c14 -21 31 -56 38 -78 15 -47 40
-84 57 -85 6 0 20 11 31 25 l20 25 22 -53 c123 -288 173 -424 199 -542 19 -82
34 -180 25 -157 -6 13 -34 17 -34 5 0 -16 35 -99 44 -105 13 -9 13 -508 1
-529 -5 -8 -15 28 -26 92 -10 58 -32 150 -50 205 -58 182 -128 298 -308 510
l-101 118 4 180 c2 136 8 211 26 304 13 67 24 122 25 122 1 0 13 -17 27 -37z
m356 -238 c59 -71 185 -224 280 -338 164 -198 176 -216 241 -350 74 -152 157
-284 265 -417 l67 -84 -238 -238 c-131 -132 -276 -271 -321 -311 -46 -40 -100
-87 -120 -104 -21 -18 -39 -33 -42 -33 -10 0 -104 75 -107 86 -4 13 246 250
303 287 94 61 344 308 344 341 0 29 -37 17 -89 -30 -34 -31 -51 -41 -51 -30 0
9 -7 16 -15 16 -28 0 -206 -147 -395 -325 -86 -81 -91 -77 -61 42 82 322 76
815 -15 1127 -25 89 -114 318 -173 449 -17 38 -31 74 -31 80 0 18 46 -31 158
-168z m-5808 121 c0 -2 -8 -10 -17 -17 -16 -13 -17 -12 -4 4 13 16 21 21 21
13z m5946 -148 c55 -58 126 -152 159 -213 33 -58 27 -54 -46 35 -247 297 -255
306 -204 263 28 -23 68 -61 91 -85z m-6082 -24 c-48 -64 -111 -154 -140 -202
-30 -47 -57 -88 -61 -91 -20 -19 100 187 146 249 52 70 129 160 137 160 2 0
-35 -52 -82 -116z m2695 -337 c56 -108 55 -115 -7 -34 -28 35 -43 67 -48 97
-4 25 -5 43 -2 40 3 -3 28 -49 57 -103z m2268 -84 c-2 -27 -3 -5 -3 47 0 52 1
74 3 48 2 -27 2 -69 0 -95z m777 -233 c95 -141 152 -300 186 -520 29 -184 27
-251 -12 -357 -29 -81 -32 -86 -42 -63 -6 14 -24 45 -40 70 -56 86 -168 334
-221 492 -80 233 -107 364 -113 538 l-5 145 100 -117 c55 -65 121 -149 147
-188z m-787 103 c-3 -10 -5 -4 -5 12 0 17 2 24 5 18 2 -7 2 -21 0 -30z m-5323
0 c-4 -16 -36 -116 -71 -222 -59 -183 -75 -252 -102 -461 -17 -129 -97 -449
-107 -426 -4 10 -2 48 4 85 64 396 103 600 137 719 22 75 131 332 142 332 2 0
0 -12 -3 -27z m1085 -333 c-12 -187 -62 -570 -85 -652 -21 -75 -33 -61 -46 56
-9 84 1 226 28 381 12 73 103 379 110 372 2 -2 -1 -72 -7 -157z m1740 -268
l-12 -93 -24 42 -24 43 18 161 18 160 18 -110 c15 -94 16 -123 6 -203z m-3089
-72 c-10 -63 -26 -159 -34 -213 -9 -54 -16 -130 -16 -168 0 -69 -14 -92 -26
-43 -8 32 0 126 25 269 18 106 60 279 67 273 1 -2 -6 -55 -16 -118z m3147 -47
c16 -68 -1 -138 -21 -87 -9 24 -7 134 2 134 5 0 13 -21 19 -47z m2633 -196 c0
-12 -3 -33 -7 -46 -5 -20 -9 -15 -30 39 -32 86 -30 103 7 62 17 -18 30 -42 30
-55z m-2549 -114 c17 -63 29 -119 27 -125 -3 -7 -23 42 -47 108 -31 90 -40
128 -35 149 l7 29 9 -24 c5 -13 22 -75 39 -137z m-130 80 c-9 -15 -10 -13 -11
13 0 17 3 34 8 38 11 12 14 -32 3 -51z m-2929 -227 l115 -54 7 -47 c4 -26 6
-48 4 -50 -15 -15 -282 110 -313 146 -18 21 -18 22 -1 9 25 -19 106 -23 106
-4 0 7 -9 16 -20 19 -16 5 -30 35 -16 35 2 0 55 -24 118 -54z m1262 -52 c8
-43 17 -125 20 -181 l5 -103 -28 0 c-38 0 -119 25 -158 50 l-33 19 32 47 c39
58 128 234 128 254 0 9 3 11 10 4 6 -6 17 -46 24 -90z m5446 -24 c-47 -44 -98
-87 -115 -96 -27 -15 -28 -15 -15 0 22 23 204 175 210 175 3 0 -33 -35 -80
-79z m-5198 -258 c3 -227 1 -252 -13 -252 -9 0 -22 7 -29 15 -7 8 -19 15 -28
15 -13 0 -14 15 -9 113 7 112 27 264 49 367 11 52 11 54 19 25 4 -16 9 -144
11 -283z m4201 126 c36 -84 73 -189 82 -233 19 -86 52 -175 66 -175 4 0 11
-16 15 -36 5 -30 3 -38 -17 -52 -13 -9 -32 -15 -41 -14 -20 4 -24 -27 -8 -58
7 -13 6 -21 -5 -30 -11 -9 -17 -6 -28 17 -47 90 -132 408 -144 537 -5 55 3
196 12 196 1 0 32 -69 68 -152z m-5263 -8 c140 -71 252 -129 248 -129 -4 -1
-60 19 -125 43 -65 24 -176 62 -248 86 -71 23 -131 43 -132 44 -7 6 -14 86 -7
85 5 0 124 -58 264 -129z m231 75 c51 -20 95 -38 97 -40 2 -1 -2 -12 -9 -23
-21 -34 -5 -52 46 -52 34 0 45 4 45 16 0 8 4 13 9 10 10 -6 -8 -66 -20 -66 -3
0 -80 36 -170 79 -116 56 -156 80 -136 80 17 1 27 6 27 16 0 21 6 20 111 -20z
m5829 -98 c0 -2 -10 -12 -22 -23 l-23 -19 19 23 c18 21 26 27 26 19z m-5546
-40 c18 -13 18 -15 1 -40 -14 -22 -21 -25 -36 -16 -22 11 -23 22 -9 50 13 23
20 24 44 6z m271 -103 l55 -7 0 -58 c0 -66 13 -64 -100 -19 -69 28 -110 65
-110 101 l0 27 50 -19 c27 -10 74 -22 105 -25z m525 -274 l27 0 12 -140 11
-140 -36 -80 c-20 -44 -39 -78 -42 -75 -3 3 -5 26 -3 50 2 42 0 45 -23 45 -21
0 -28 10 -54 83 -36 100 -55 167 -48 174 7 8 21 -25 56 -129 20 -62 37 -98 46
-98 8 0 14 2 14 4 0 23 -32 160 -41 178 -9 16 -9 23 0 26 6 2 11 19 11 37 0
24 -7 39 -27 55 l-28 21 49 -5 c27 -3 61 -6 76 -6z m-493 -32 c-3 -8 -6 -5 -6
6 -1 11 2 17 5 13 3 -3 4 -12 1 -19z m5630 -10 c-3 -8 -6 -5 -6 6 -1 11 2 17
5 13 3 -3 4 -12 1 -19z m-5560 -10 c-3 -8 -6 -5 -6 6 -1 11 2 17 5 13 3 -3 4
-12 1 -19z m167 16 c13 -5 16 -20 15 -73 -2 -122 -13 -136 -27 -35 -17 125
-17 119 12 108z m-124 -179 c5 -33 10 -76 9 -95 0 -34 -1 -34 -10 -10 -17 40
-39 168 -38 213 l1 42 14 -45 c8 -25 19 -72 24 -105z m-18 -300 c29 -133 32
-166 31 -290 0 -89 -6 -160 -16 -195 -8 -30 -15 -46 -16 -35 -1 11 -12 119
-26 240 -32 272 -65 620 -64 660 0 17 14 -28 29 -100 16 -71 44 -197 62 -280z
m75 333 c-2 -13 -4 -5 -4 17 -1 22 1 32 4 23 2 -10 2 -28 0 -40z m2940 20 c-3
-8 -6 -5 -6 6 -1 11 2 17 5 13 3 -3 4 -12 1 -19z m-18 -134 c-11 -103 -8 -234
7 -384 7 -58 6 -64 -8 -52 -49 40 -60 300 -19 460 13 51 25 91 28 89 2 -3 -1
-54 -8 -113z m837 32 c3 -8 4 -30 2 -50 l-3 -36 -28 50 -28 50 26 0 c14 0 28
-6 31 -14z m671 -43 c-3 -10 -5 -2 -5 17 0 19 2 27 5 18 2 -10 2 -26 0 -35z
m-58 -48 c0 -5 -6 -1 -14 9 -8 11 -15 27 -15 35 1 17 29 -26 29 -44z m-1153
-127 c-53 -138 -76 -184 -129 -263 -58 -86 -111 -147 -147 -168 -26 -16 -31
-16 -36 -3 -10 26 16 85 47 107 16 11 29 29 29 39 0 11 42 75 93 142 51 68
113 155 137 195 25 39 46 70 48 68 1 -1 -17 -54 -42 -117z m-3163 -33 c-8 -58
-21 -38 -22 35 -1 39 1 43 14 29 12 -11 14 -27 8 -64z m347 -39 c6 -38 9 -70
7 -73 -6 -6 -47 66 -47 82 0 15 22 67 26 62 2 -1 8 -33 14 -71z m-139 27 c-12
-20 -14 -14 -5 12 4 9 9 14 11 11 3 -2 0 -13 -6 -23z m-234 -185 c-3 -7 -5 -2
-5 12 0 14 2 19 5 13 2 -7 2 -19 0 -25z m116 -123 c-3 -9 -8 -14 -10 -11 -3 3
-2 9 2 15 9 16 15 13 8 -4z m5344 -253 c-2 -15 -4 -2 -4 28 0 30 2 43 4 27 2
-15 2 -39 0 -55z" />
                <path d="M4393 7239 c-32 -33 -60 -66 -62 -72 -2 -7 -25 -33 -49 -60 -61 -63
-122 -146 -122 -163 0 -35 69 1 70 37 1 16 100 126 100 110 0 -15 19 -14 36 3
16 17 18 33 4 38 -5 2 17 32 50 68 97 107 72 144 -27 39z" />
                <path d="M4326 7268 c-20 -28 -20 -48 -3 -48 19 0 47 33 47 53 0 24 -26 21
-44 -5z" />
                <path d="M4260 7165 c0 -8 7 -15 15 -15 8 0 15 7 15 15 0 8 -7 15 -15 15 -8 0
-15 -7 -15 -15z" />
                <path d="M4230 7125 c0 -8 7 -15 15 -15 8 0 15 7 15 15 0 8 -7 15 -15 15 -8 0
-15 -7 -15 -15z" />
                <path d="M4030 7085 c0 -8 7 -15 15 -15 8 0 15 7 15 15 0 8 -7 15 -15 15 -8 0
-15 -7 -15 -15z" />
                <path d="M4173 7065 c-3 -9 -3 -18 0 -22 10 -10 37 6 37 22 0 20 -29 20 -37 0z" />
                <path d="M4072 7038 c-20 -20 -14 -40 11 -36 14 2 23 11 25 26 4 24 -16 30
-36 10z" />
                <path d="M4110 6981 c-5 -11 -10 -24 -10 -30 0 -12 40 -15 40 -3 0 4 3 17 6
30 8 28 -21 31 -36 3z" />
                <path d="M2725 7363 c-29 -7 -43 -21 -61 -59 -14 -30 -14 -35 -1 -49 9 -8 21
-15 27 -15 19 0 60 48 60 70 0 11 7 23 15 26 8 4 15 12 15 20 0 14 -17 16 -55
7z" />
                <path d="M2792 7273 c2 -10 12 -18 23 -18 11 0 21 8 23 18 3 13 -3 17 -23 17
-20 0 -26 -4 -23 -17z" />
                <path d="M2763 7195 c-3 -9 -3 -18 0 -22 10 -10 37 6 37 22 0 20 -29 20 -37 0z" />
                <path d="M3654 6746 c-21 -21 -34 -44 -34 -60 0 -36 17 -33 55 11 26 30 37 36
68 35 30 -1 37 2 37 17 0 22 -19 31 -62 31 -21 0 -40 -10 -64 -34z" />
                <path d="M3485 6590 c-23 -45 -20 -115 7 -134 46 -32 63 -13 29 30 -18 23 -19
28 -5 72 17 59 17 62 -1 62 -8 0 -21 -13 -30 -30z" />
                <path d="M3650 6591 c0 -13 15 -26 43 -40 45 -22 65 -25 91 -15 27 10 19 34
-12 34 -15 0 -45 9 -67 20 -49 25 -55 25 -55 1z" />
                <path d="M3970 6596 c0 -7 7 -19 15 -26 19 -16 19 -47 0 -80 -20 -35 -18 -50
6 -50 42 0 63 114 28 156 -15 18 -49 18 -49 0z" />
                <path d="M3587 6527 c-27 -19 -20 -71 11 -75 13 -2 28 1 35 6 7 5 21 6 32 1
60 -24 78 15 23 49 -47 29 -80 35 -101 19z" />
                <path d="M3880 6523 c-27 -10 -60 -46 -60 -66 0 -16 5 -18 28 -13 15 4 43 10
62 14 40 8 52 38 24 59 -19 14 -29 15 -54 6z" />
                <path d="M3690 6267 c0 -13 5 -28 12 -35 17 -17 76 -15 94 2 18 19 18 36 -1
36 -8 0 -15 -4 -15 -10 0 -18 -29 -11 -42 10 -18 28 -48 26 -48 -3z" />
                <path d="M3811 6223 c-21 -14 -35 -15 -115 -6 -55 7 -92 7 -94 2 -2 -5 -20
-18 -41 -28 -20 -11 -74 -58 -119 -105 -60 -63 -89 -86 -107 -86 -20 0 -25 -5
-25 -25 0 -25 1 -25 88 -25 48 0 112 6 142 13 44 10 63 10 95 1 77 -24 278
-12 296 17 4 7 23 5 55 -7 27 -9 91 -19 142 -22 89 -4 92 -4 92 17 0 14 -6 21
-20 21 -11 0 -20 5 -20 10 0 6 -4 10 -8 10 -5 0 -48 39 -97 86 -85 82 -181
144 -222 144 -10 0 -29 -7 -42 -17z m-53 -50 c49 -4 72 -2 72 6 0 12 56 15 62
3 2 -4 32 -28 68 -54 65 -46 150 -128 133 -128 -22 0 -121 34 -156 53 -35 20
-42 20 -108 9 -48 -8 -76 -9 -89 -2 -31 17 -102 12 -137 -10 -35 -21 -144 -52
-153 -44 -3 3 31 39 75 80 44 40 87 80 95 88 9 9 25 13 40 10 14 -3 58 -8 98
-11z m147 -164 c10 -11 -169 -22 -216 -14 -23 4 -37 10 -31 14 13 8 238 8 247
0z" />
                <path d="M3977 5859 c-162 -72 -354 -76 -445 -9 -15 11 -42 23 -59 26 -27 5
-33 3 -33 -11 0 -42 108 -94 225 -107 121 -15 229 4 349 61 138 64 103 102
-37 40z" />
                <path d="M3678 5713 c-10 -2 -18 -11 -18 -20 0 -12 7 -14 31 -9 17 3 42 6 55
6 15 0 24 6 24 15 0 15 -50 19 -92 8z" />
                <path d="M250 1815 c0 -8 7 -15 15 -15 8 0 15 7 15 15 0 8 -7 15 -15 15 -8 0
-15 -7 -15 -15z" />
                <path d="M4360 8422 c0 -10 4 -22 9 -27 5 -6 53 -88 106 -184 159 -288 304
-481 421 -562 84 -57 102 -27 21 37 -100 78 -254 286 -382 514 -32 58 -71 126
-87 153 -15 26 -28 54 -28 61 0 14 -21 26 -46 26 -8 0 -14 -8 -14 -18z" />
                <path d="M2236 7518 c-34 -123 -70 -376 -86 -613 -6 -88 -16 -203 -21 -255
-14 -142 -23 -568 -14 -702 5 -91 10 -118 21 -118 12 0 14 43 14 258 0 141 5
318 10 392 5 74 16 236 25 360 21 319 57 602 85 676 14 36 12 54 -5 54 -9 0
-20 -20 -29 -52z" />
                <path d="M1970 6050 c0 -11 7 -20 15 -20 8 0 15 9 15 20 0 11 -7 20 -15 20 -8
0 -15 -9 -15 -20z" />
                <path d="M6163 5444 c-22 -59 36 -269 137 -494 116 -255 301 -589 328 -590 21
0 13 22 -44 125 -208 378 -387 804 -387 923 0 38 -4 52 -14 52 -7 0 -16 -7
-20 -16z" />
                <path d="M1796 5357 c-11 -57 -209 -376 -297 -479 -27 -31 -49 -64 -49 -72 0
-29 51 -18 104 22 28 21 76 56 106 77 91 64 220 181 262 237 48 63 108 180
108 208 0 41 -30 18 -70 -55 -60 -108 -106 -166 -196 -243 -84 -72 -154 -126
-154 -119 0 3 35 61 79 129 110 173 162 275 155 304 -9 37 -41 31 -48 -9z" />
                <path d="M5270 4911 c0 -21 11 -151 25 -287 28 -281 32 -520 11 -659 -8 -49
-35 -183 -60 -297 -25 -114 -46 -219 -47 -235 l0 -28 -11 25 c-14 32 -16 322
-4 557 7 135 6 217 -4 318 -13 134 -13 136 8 158 27 29 28 47 2 47 -21 0 -56
-33 -66 -62 -3 -10 2 -78 12 -151 14 -109 15 -162 8 -307 -12 -232 -10 -554 4
-609 10 -43 9 -48 -27 -110 -62 -107 -170 -328 -203 -415 -17 -44 -60 -170
-97 -278 l-67 -197 -12 102 c-6 56 -25 156 -41 222 -65 268 -69 366 -21 500
18 50 41 102 51 117 22 31 24 48 6 48 -37 0 -103 -128 -127 -246 -19 -90 0
-257 50 -452 36 -143 52 -271 46 -365 -5 -69 -21 -140 -77 -325 -81 -269 -91
-297 -155 -425 -79 -158 -134 -297 -158 -396 -28 -114 -62 -380 -53 -405 5
-12 16 -16 39 -14 62 6 96 90 143 348 37 207 97 432 175 664 38 110 80 248 95
306 33 130 157 518 224 702 57 156 205 468 222 468 8 0 9 -34 4 -117 -7 -140
0 -177 37 -181 58 -7 75 93 42 248 -25 121 -19 143 78 294 32 50 36 86 9 86
-11 0 -29 -12 -40 -26 -12 -15 -21 -22 -21 -17 0 5 18 88 39 184 57 251 64
313 63 514 -2 235 -62 735 -89 735 -8 0 -13 -14 -13 -39z m-53 -1883 c-2 -13
-4 -5 -4 17 -1 22 1 32 4 23 2 -10 2 -28 0 -40z m-797 -1803 c-15 -83 -35
-189 -44 -237 -17 -90 -64 -213 -65 -171 -2 38 29 255 45 318 16 64 84 249 89
243 2 -2 -9 -71 -25 -153z" />
                <path d="M1460 4760 c0 -11 7 -20 15 -20 8 0 15 9 15 20 0 11 -7 20 -15 20 -8
0 -15 -9 -15 -20z" />
                <path d="M6320 4629 c0 -59 156 -259 202 -259 27 0 22 25 -9 50 -41 32 -153
191 -153 218 0 15 -6 22 -20 22 -16 0 -20 -7 -20 -31z" />
                <path d="M6222 3910 c0 -19 2 -27 5 -17 2 9 2 25 0 35 -3 9 -5 1 -5 -18z" />
                <path d="M4285 3531 c-79 -21 -112 -24 -265 -25 -96 -1 -251 3 -344 8 -163 9
-168 9 -164 -10 2 -13 13 -20 36 -22 18 -2 32 -9 32 -16 0 -17 184 -30 425
-31 269 0 434 38 443 102 3 19 -1 22 -35 20 -21 0 -78 -12 -128 -26z" />
                <path d="M2142 3013 c-12 -82 -27 -211 -33 -288 -6 -77 -12 -141 -14 -143 -2
-2 -6 16 -10 40 -4 24 -25 103 -47 176 -27 93 -37 143 -33 164 6 27 5 29 -17
26 -36 -5 -34 -56 6 -200 63 -221 68 -257 75 -508 6 -228 7 -235 27 -238 20
-3 21 3 33 210 19 339 40 603 57 734 17 124 14 174 -9 174 -10 0 -20 -44 -35
-147z" />
                <path d="M550 1445 c0 -60 9 -143 25 -227 14 -73 42 -216 61 -318 19 -102 44
-228 54 -280 29 -139 78 -453 86 -542 7 -78 7 -78 35 -78 16 0 29 2 29 4 0 2
-5 50 -10 107 -14 139 -54 369 -149 846 -43 219 -82 431 -86 472 l-6 74 28 -7
c15 -4 39 -10 51 -13 19 -5 23 -2 20 12 -3 21 -57 43 -105 44 l-33 1 0 -95z" />
                <path d="M5915 948 c10 -65 15 -78 31 -78 10 0 14 12 14 38 0 57 -10 82 -32
82 -18 0 -19 -5 -13 -42z" />
                <path d="M6470 965 c0 -8 7 -15 15 -15 8 0 15 7 15 15 0 8 -7 15 -15 15 -8 0
-15 -7 -15 -15z" />
                <path d="M2080 420 c0 -20 5 -30 15 -30 10 0 15 10 15 30 0 20 -5 30 -15 30
-10 0 -15 -10 -15 -30z" />
        </g>
</svg>