<?xml version="1.0" standalone="no"?>
<!DOCTYPE svg PUBLIC "-//W3C//DTD SVG 20010904//EN" "http://www.w3.org/TR/2001/REC-SVG-20010904/DTD/svg10.dtd">
<svg version="1.0" xmlns="http://www.w3.org/2000/svg" width="881.000000pt" height="995.000000pt"
        viewBox="0 0 881.000000 995.000000" preserveAspectRatio="xMidYMid meet">

        <g transform="translate(0.000000,995.000000) scale(0.100000,-0.100000)" fill="#000000" stroke="none">
                <path d="M4146 9933 c-42 -3 -74 -10 -83 -18 -8 -8 -22 -15 -31 -15 -10 0 -71
-14 -137 -31 -181 -46 -360 -125 -462 -201 -29 -22 -105 -66 -170 -98 -153
-75 -353 -196 -476 -289 -155 -116 -213 -197 -284 -395 -14 -39 -41 -101 -60
-138 -19 -36 -36 -82 -40 -101 -4 -24 -26 -57 -74 -111 -42 -47 -69 -86 -69
-99 0 -12 -18 -57 -39 -100 -63 -125 -71 -177 -73 -462 -1 -137 -1 -261 0
-275 0 -14 0 -138 -1 -276 l-3 -250 -85 -85 c-95 -93 -127 -148 -160 -276 -34
-136 -23 -251 38 -383 19 -42 45 -126 59 -193 14 -65 29 -130 35 -144 7 -20 0
-53 -36 -164 -60 -185 -84 -286 -91 -394 l-7 -90 -127 -205 c-239 -386 -300
-509 -389 -775 -70 -211 -91 -313 -91 -439 0 -123 18 -187 95 -341 l65 -131
-11 -64 c-18 -111 3 -262 56 -392 l24 -58 -35 -103 c-19 -56 -51 -163 -70
-237 -34 -129 -35 -140 -28 -245 l6 -110 -37 55 c-21 30 -46 66 -57 79 -10 13
-18 32 -18 42 0 11 -7 19 -17 19 -10 0 -29 9 -43 20 -14 11 -31 20 -37 20 -20
0 -15 -48 5 -59 37 -20 72 -86 87 -167 9 -43 23 -105 32 -136 15 -55 15 -62
-6 -142 -46 -184 -52 -396 -13 -507 14 -40 23 -54 38 -54 22 0 23 18 4 100
-14 66 9 367 30 380 9 6 118 -380 170 -603 46 -196 134 -625 155 -752 7 -47
25 -152 38 -235 14 -82 28 -185 32 -228 5 -55 11 -77 21 -77 20 0 18 145 -4
297 -18 118 -18 122 0 126 14 4 18 -1 18 -21 0 -14 5 -77 11 -139 9 -80 16
-113 25 -113 21 0 27 81 18 228 -7 100 -6 150 3 184 20 79 42 280 63 583 28
403 57 717 80 869 11 71 20 133 20 137 0 5 7 9 15 9 10 0 15 10 15 30 0 17 -4
30 -10 30 -5 0 -10 5 -10 10 0 6 7 10 15 10 11 0 15 11 15 39 0 34 3 38 19 34
16 -4 22 2 30 34 16 61 31 231 29 323 -2 70 4 113 36 245 35 143 40 156 47
125 4 -19 22 -100 40 -180 61 -274 50 -608 -41 -1300 -16 -124 -37 -297 -45
-385 -8 -88 -22 -207 -31 -265 -9 -58 -14 -123 -12 -145 3 -37 5 -40 33 -40
38 0 62 41 110 185 41 127 44 101 8 -81 -14 -75 -23 -143 -20 -152 11 -29 53
-20 82 17 174 228 343 746 445 1366 11 69 23 130 25 135 10 20 -5 -444 -20
-630 -29 -370 -61 -590 -116 -807 -42 -168 -37 -215 23 -206 44 6 89 120 148
373 40 174 72 388 115 761 19 171 51 394 69 495 29 153 66 424 66 475 0 8 -10
14 -24 14 -21 0 -24 -6 -31 -57 -4 -32 -29 -172 -56 -312 -51 -263 -65 -358
-99 -671 -28 -252 -42 -361 -47 -357 -2 3 4 85 13 183 19 214 29 803 17 999
-8 118 -5 190 17 463 26 313 40 406 40 268 0 -59 2 -67 17 -64 14 2 26 -15 50
-71 18 -40 70 -144 117 -231 96 -177 136 -272 165 -387 54 -214 55 -390 7
-740 -91 -654 -94 -794 -26 -1335 34 -269 51 -331 92 -336 19 -2 31 3 41 20
17 27 72 453 89 690 11 158 7 289 -22 683 -12 160 3 409 25 432 17 17 20 40 5
45 -17 5 0 348 17 348 7 0 13 11 13 25 0 16 -6 25 -15 25 -8 0 -15 5 -15 10 0
6 5 10 10 10 6 0 10 9 10 20 0 11 -7 20 -15 20 -8 0 -15 -9 -15 -20 0 -11 -6
-20 -14 -20 -9 0 -15 -22 -19 -77 -4 -43 -12 -125 -19 -183 l-13 -105 -6 85
c-5 72 6 483 14 530 1 8 13 -33 26 -92 16 -72 29 -108 38 -108 18 0 17 6 -22
170 -19 80 -35 168 -35 197 0 39 -4 55 -17 62 -17 10 -17 10 0 11 15 0 17 10
17 75 0 60 -3 75 -15 75 -12 0 -15 -14 -16 -62 l-1 -63 -28 113 c-37 144 -86
443 -100 597 -5 66 -10 216 -10 333 0 182 -2 212 -15 212 -13 0 -15 -34 -15
-245 0 -367 20 -526 121 -964 l41 -175 -7 -159 c-4 -87 -11 -155 -15 -150 -4
4 -15 39 -24 77 -26 107 -74 217 -169 393 -104 191 -147 288 -176 403 -28 108
-38 285 -22 405 15 116 81 384 127 516 39 114 134 322 143 314 3 -3 4 -42 2
-85 -2 -67 0 -80 13 -80 13 0 16 11 16 53 l0 52 49 -85 c26 -47 69 -121 94
-164 77 -133 98 -213 122 -466 26 -272 35 -330 56 -330 17 0 17 11 13 163 -6
205 -20 349 -44 457 -19 88 -49 149 -165 340 -66 108 -105 188 -116 240 -4 19
-12 53 -18 75 -24 92 -8 233 53 462 19 70 37 138 41 151 7 21 5 23 -21 20 -27
-3 -31 -9 -62 -102 -68 -203 -96 -408 -73 -539 11 -62 10 -70 -7 -95 -35 -48
-119 -225 -150 -314 -17 -48 -36 -95 -41 -105 -6 -10 -15 -34 -20 -53 -5 -19
-10 -27 -10 -17 -1 9 -8 17 -16 17 -12 0 -15 -17 -17 -87 0 -49 -3 -73 -5 -55
-4 27 -8 33 -26 30 -18 -2 -26 -17 -44 -81 -56 -196 -76 -460 -77 -998 -1
-431 -1 -436 -17 -360 -9 42 -36 132 -60 201 -39 115 -43 135 -47 250 -3 106
1 153 27 311 61 373 63 512 11 786 -65 337 -27 506 171 753 l44 55 6 -45 c4
-25 10 -118 15 -207 5 -127 10 -163 21 -163 7 0 13 -4 13 -10 0 -5 -4 -10 -10
-10 -6 0 -10 -62 -10 -165 0 -140 2 -165 15 -165 12 0 15 13 15 61 0 45 4 65
16 73 10 8 19 38 24 86 11 89 30 510 30 662 l0 108 50 55 50 55 0 -55 c0 -39
4 -55 13 -55 13 0 52 177 73 330 4 25 12 52 19 60 7 8 16 37 20 63 3 27 8 47
10 45 29 -31 201 -270 209 -290 6 -16 13 -28 17 -28 8 0 149 -174 149 -184 0
-3 -9 -6 -19 -6 -20 0 -31 -18 -31 -53 0 -12 -12 -42 -26 -67 -14 -25 -34 -65
-44 -90 l-19 -45 0 158 c-1 133 -3 157 -16 157 -13 0 -15 -23 -15 -148 0 -82
-3 -210 -6 -284 -7 -127 -6 -135 12 -140 11 -3 25 -21 33 -44 7 -21 35 -79 63
-129 l49 -89 -26 -48 c-29 -53 -26 -88 6 -88 11 0 27 13 38 31 l18 30 17 -42
c24 -60 44 -152 52 -243 7 -76 6 -78 -13 -68 -26 15 -49 42 -34 42 6 0 11 7
11 16 0 22 -44 14 -48 -9 -7 -36 8 -63 48 -86 39 -22 41 -25 36 -60 -3 -20
-15 -103 -27 -186 l-22 -150 -31 0 c-44 0 -48 -32 -7 -46 30 -11 31 -13 31
-73 0 -99 18 -174 66 -272 44 -91 44 -92 44 -200 0 -252 38 -486 124 -767 82
-265 89 -361 40 -510 -21 -62 -28 -51 -44 68 -15 113 -44 268 -75 406 -14 58
-40 195 -59 305 -19 109 -51 269 -71 354 -43 185 -55 288 -34 301 16 10 1 42
-22 46 -53 10 -61 -80 -25 -259 14 -70 26 -131 25 -135 0 -13 -78 207 -100
287 -12 41 -46 140 -76 220 -73 192 -71 181 -94 375 -22 186 -20 230 12 238
16 4 20 12 17 39 -3 28 -8 34 -33 38 l-30 5 0 97 c0 77 3 100 18 115 9 11 17
25 17 32 0 26 -36 4 -55 -34 -16 -33 -20 -62 -21 -165 -1 -71 -9 -168 -19
-224 -22 -120 -14 -175 42 -311 35 -86 37 -97 41 -227 3 -109 7 -138 18 -138
11 0 14 18 15 73 0 72 0 72 14 37 85 -213 98 -256 116 -388 5 -42 17 -114 26
-160 13 -69 19 -82 35 -82 21 0 21 10 2 143 -10 67 4 39 25 -51 32 -139 49
-290 61 -537 18 -394 37 -533 96 -717 23 -72 40 -108 50 -108 16 0 18 9 5 43
-17 44 -60 269 -75 392 -8 66 -20 219 -26 340 -6 121 -12 247 -15 280 -4 43 2
27 19 -60 13 -66 34 -160 45 -209 12 -49 40 -199 62 -335 36 -216 39 -253 30
-301 -14 -74 -7 -100 30 -100 35 0 37 3 48 81 5 35 23 95 41 134 85 189 81
334 -19 653 -70 225 -122 525 -120 696 l0 51 23 -50 c12 -27 37 -96 56 -153
31 -99 50 -126 71 -105 13 13 -15 166 -47 252 -14 38 -48 105 -75 147 -32 51
-49 89 -49 110 0 17 -3 59 -6 93 -6 50 -10 61 -25 61 -14 0 -19 -10 -21 -47
l-3 -48 -12 53 c-13 54 -18 172 -7 172 19 0 170 -43 174 -50 3 -4 44 -15 91
-24 48 -9 135 -32 195 -51 121 -38 152 -42 160 -20 4 8 14 15 25 15 10 0 22 8
28 17 11 20 14 17 93 -56 34 -31 94 -60 126 -61 21 0 26 29 8 49 -16 18 -12
22 106 92 68 40 134 79 148 88 14 8 3 -5 -25 -30 -217 -193 -515 -485 -515
-504 0 -30 28 -13 116 68 223 207 695 559 702 524 2 -8 -11 -97 -27 -198 -44
-271 -63 -435 -59 -514 l3 -70 30 0 c35 0 40 9 91 156 55 157 85 293 148 669
7 46 19 86 26 88 6 2 23 14 37 26 32 28 26 56 -13 56 l-26 0 7 68 c8 78 52
394 61 435 6 29 6 29 21 7 11 -15 23 -20 46 -18 38 4 49 34 20 57 -11 9 -30
30 -42 48 -21 32 -22 35 -10 156 13 131 10 161 -18 155 -14 -2 -22 -22 -33
-78 -18 -83 -20 -82 -56 23 -76 220 -94 339 -94 620 l0 218 43 63 c23 35 65
100 92 144 28 44 53 78 57 76 4 -3 30 -46 59 -97 136 -244 182 -284 339 -294
85 -5 117 8 164 70 25 33 55 139 56 197 l0 24 16 -22 c15 -22 44 -30 44 -13 0
4 -13 38 -30 74 -26 57 -30 79 -30 149 l0 83 31 -54 c72 -126 161 -241 186
-241 22 0 15 20 -41 109 -79 127 -109 183 -169 316 -101 223 -187 502 -187
604 0 27 -4 52 -9 55 -4 3 -11 43 -15 88 -18 211 -58 376 -124 503 -27 51 -70
105 -162 200 -68 72 -135 138 -147 148 -12 9 -70 70 -129 133 l-106 116 6 46
c3 25 11 51 16 56 17 17 12 48 -7 44 -17 -3 -35 -31 -48 -73 -6 -19 -8 -18
-31 10 -25 30 -98 172 -109 212 -6 20 -3 20 87 -13 127 -47 280 -121 353 -170
87 -59 202 -121 270 -144 71 -24 73 -24 77 -2 3 13 8 10 22 -14 17 -28 71 -64
96 -64 19 0 50 -35 50 -55 0 -11 16 -32 35 -48 51 -41 242 -300 312 -424 108
-191 155 -333 174 -520 10 -96 9 -159 -6 -382 -15 -222 -16 -287 -7 -388 19
-198 70 -343 154 -438 22 -25 34 -46 28 -50 -5 -3 -10 -13 -10 -21 0 -12 7
-14 28 -10 23 5 40 -5 124 -79 153 -134 244 -270 310 -465 31 -93 73 -293 65
-314 -3 -7 -19 -16 -35 -19 -34 -7 -72 -42 -72 -67 0 -24 57 -106 92 -134 31
-24 31 -24 29 -117 -1 -52 -13 -190 -27 -308 -20 -178 -29 -224 -50 -270 l-27
-56 -23 135 c-47 262 -102 445 -177 580 -16 30 -72 114 -122 185 -51 72 -110
157 -130 189 -81 128 -167 346 -205 522 -46 213 -58 282 -65 348 l-7 69 42
-49 c85 -98 96 -58 14 52 l-55 76 -9 296 c-4 164 -7 298 -5 300 2 2 20 -21 42
-52 21 -30 44 -55 51 -56 31 -1 19 36 -47 137 -44 66 -71 118 -71 135 0 103
-91 469 -184 745 -31 89 -59 180 -62 203 -4 26 -12 40 -22 40 -26 0 -8 -93 62
-312 36 -113 79 -259 95 -324 33 -132 65 -307 59 -325 -5 -15 -109 113 -137
168 -44 88 -75 236 -91 443 -15 176 -42 292 -86 367 -19 32 -73 94 -120 139
-56 54 -84 88 -84 103 0 17 -5 22 -22 19 -18 -2 -24 -10 -26 -40 -3 -35 2 -42
92 -130 134 -132 163 -203 185 -455 15 -171 13 -180 -18 -78 -52 167 -114 300
-233 500 -176 293 -255 405 -289 405 -26 0 -24 -15 10 -58 34 -42 194 -298
263 -417 180 -315 220 -451 362 -1220 49 -262 83 -355 176 -480 26 -35 34 -62
60 -215 55 -310 120 -551 195 -715 48 -106 102 -195 197 -325 192 -261 248
-405 318 -812 l31 -177 -25 -48 c-23 -45 -25 -46 -30 -23 -13 57 -27 186 -41
375 -18 239 -19 245 -45 245 -19 0 -20 -7 -20 -124 0 -187 18 -387 56 -609 4
-22 3 -37 -4 -37 -5 0 -13 19 -16 43 -16 106 -166 411 -340 692 -111 178 -167
295 -210 437 -50 165 -70 299 -63 425 l5 103 -24 0 c-35 0 -44 -33 -44 -154 0
-114 20 -248 56 -370 12 -44 21 -82 19 -84 -5 -5 -80 193 -131 346 -110 328
-136 562 -80 723 19 54 19 59 2 59 -8 0 -21 -17 -29 -38 -50 -124 -49 -349 2
-547 60 -238 134 -434 327 -872 158 -359 213 -510 271 -745 32 -131 51 -188
60 -188 11 0 12 9 8 38 -48 278 -109 477 -241 780 -47 108 -88 204 -91 212 -3
8 43 -64 103 -160 122 -198 279 -501 312 -603 27 -84 56 -258 44 -266 -5 -3
-14 -15 -21 -26 -10 -16 -11 -4 -8 67 4 79 3 88 -13 88 -23 0 -29 -24 -37
-150 -6 -102 -7 -108 -55 -197 -46 -85 -72 -180 -89 -317 -5 -35 -29 409 -35
627 -7 254 -7 258 -28 255 -14 -2 -23 -13 -27 -33 -12 -55 -9 -332 6 -608 27
-487 55 -741 105 -937 24 -94 24 -90 5 -90 -19 0 -19 -17 1 -37 14 -14 13 -17
-13 -34 -15 -11 -34 -19 -41 -19 -48 0 -124 -80 -141 -149 -5 -20 -11 -162
-13 -316 l-3 -280 21 1 c24 0 28 -20 41 -218 5 -86 8 -98 25 -98 14 0 18 8 18
38 l0 37 42 -50 c109 -131 190 -189 325 -236 87 -29 263 -62 345 -63 75 -1 80
1 190 57 132 67 236 141 275 194 27 37 29 38 68 28 28 -7 58 -28 102 -71 93
-91 138 -199 163 -387 16 -116 16 -117 56 -117 41 0 41 3 19 160 -28 197 -92
385 -161 475 -15 20 -53 56 -83 79 l-56 43 8 183 c7 149 6 200 -7 274 -14 83
-71 240 -93 255 -5 3 -25 29 -46 57 -36 50 -75 84 -97 84 -5 0 -10 -12 -11
-27 -1 -25 -23 94 -43 230 -6 38 -11 47 -28 47 -19 0 -20 -4 -14 -72 6 -82 3
-80 -14 5 -9 44 -15 57 -30 57 -32 0 -31 -44 6 -257 19 -114 38 -222 41 -240
5 -28 1 -34 -28 -53 -19 -11 -59 -28 -89 -37 -30 -9 -63 -23 -72 -31 -15 -12
-39 -14 -125 -8 -60 3 -124 9 -144 12 l-37 6 -6 127 c-9 164 -19 261 -62 574
-20 142 -33 268 -30 280 7 28 83 147 93 147 12 -1 103 -166 172 -313 l60 -128
33 3 c25 2 34 8 36 25 2 17 -112 447 -143 540 -5 14 40 36 95 47 121 23 372
126 445 181 43 34 49 75 11 75 -14 0 -28 -5 -32 -11 -4 -8 -9 -7 -15 2 -5 9
-28 14 -68 14 l-60 0 25 26 c26 27 32 69 10 69 -7 0 -19 -6 -25 -13 -6 -8 -23
-12 -40 -9 -25 3 -39 -4 -85 -48 -31 -29 -62 -65 -69 -79 -7 -14 -18 -35 -24
-46 -7 -11 -14 -28 -17 -38 -3 -10 -34 -30 -69 -46 -110 -49 -100 -53 -125 50
-23 94 -22 109 6 109 9 0 40 12 67 25 28 14 55 25 61 25 6 0 50 37 97 83 78
75 87 87 87 120 0 34 2 37 28 36 17 -1 21 -3 9 -6 -10 -3 -17 -12 -15 -21 5
-24 122 -28 195 -7 30 9 56 15 57 13 2 -2 15 -19 30 -39 22 -30 24 -38 11 -43
-19 -7 -19 -45 0 -70 9 -12 15 -42 15 -75 0 -130 35 -221 84 -221 21 0 20 8
-5 64 -11 26 -21 72 -22 104 -2 52 0 57 21 60 29 4 28 28 -3 48 -14 9 -25 23
-25 30 0 19 3 18 46 -11 44 -30 134 -36 134 -10 0 8 -4 15 -10 15 -5 0 -10 8
-10 19 0 13 -16 24 -58 39 -69 25 -151 90 -130 103 10 7 11 12 1 29 -7 11 -13
29 -13 40 0 26 -10 25 -88 -6 -70 -28 -137 -34 -214 -20 -40 7 -48 6 -48 -7 0
-8 -13 -17 -30 -21 -32 -6 -53 -37 -31 -44 8 -3 6 -8 -6 -17 -24 -18 -33 -10
-33 29 0 19 -6 52 -14 74 -14 38 -13 42 8 65 38 41 110 76 208 102 106 28 167
51 183 70 18 23 82 28 120 9 28 -13 34 -20 29 -39 -4 -18 2 -26 30 -43 22 -13
36 -29 36 -41 0 -34 141 -139 270 -200 93 -44 200 -53 200 -16 0 7 -15 16 -34
19 -20 4 -36 14 -38 24 -3 11 -53 42 -123 77 -103 52 -130 72 -214 154 -53 51
-110 99 -128 107 -45 19 -147 18 -178 -2 -14 -9 -39 -20 -57 -24 -18 -5 -53
-16 -78 -24 -25 -9 -96 -30 -157 -48 -101 -29 -135 -49 -102 -60 7 -2 6 -8 -3
-16 -12 -9 -20 0 -47 57 l-33 68 33 45 c24 32 64 64 134 107 135 82 399 201
447 201 47 0 86 -33 134 -113 76 -127 203 -284 288 -355 90 -76 133 -102 166
-102 15 0 20 -6 20 -25 0 -14 10 -59 22 -100 21 -72 21 -76 5 -110 -11 -24
-29 -41 -52 -51 -27 -11 -35 -20 -35 -39 0 -18 -5 -25 -19 -25 -33 0 -51 -11
-51 -31 0 -11 -22 -48 -50 -83 -27 -35 -50 -66 -50 -68 0 -2 -108 -112 -240
-243 -231 -230 -299 -308 -375 -424 -36 -55 -46 -101 -21 -101 7 0 63 62 124
138 156 194 391 422 434 422 5 0 17 7 25 16 15 15 18 13 39 -27 13 -24 37 -77
55 -117 26 -58 30 -75 19 -82 -20 -12 28 -182 191 -680 165 -505 186 -560 206
-560 22 0 15 34 -51 256 -31 106 -89 328 -130 495 -84 343 -122 461 -206 637
l-59 123 36 32 c88 77 123 125 149 206 18 58 28 71 74 107 30 22 62 56 72 75
19 36 25 127 9 157 -4 10 -4 51 2 95 12 90 -2 164 -59 309 -30 78 -33 92 -25
135 13 67 22 440 12 486 -7 30 -6 37 6 37 28 0 9 44 -28 65 -20 11 -91 72
-158 136 -92 89 -121 122 -121 142 0 14 -5 27 -12 29 -6 2 45 33 115 68 145
73 162 96 65 85 -48 -6 -82 -19 -143 -53 -44 -25 -110 -63 -147 -84 -37 -21
-95 -61 -130 -89 -57 -46 -66 -50 -101 -45 -50 8 -110 34 -82 35 11 1 25 11
30 23 10 22 170 137 191 138 6 0 22 8 35 19 13 10 75 47 137 81 61 34 112 65
112 69 0 5 18 20 40 35 34 22 40 24 40 9 0 -36 43 -105 81 -129 89 -56 169 -3
169 114 0 53 -16 75 -77 106 -34 17 -83 22 -83 8 0 -4 -16 -6 -35 -4 -42 5
-84 -14 -289 -131 l-149 -86 -44 32 c-24 18 -61 44 -81 60 -20 15 -68 44 -107
64 -56 29 -82 36 -130 37 l-60 1 2 -35 c4 -90 23 -203 43 -247 11 -26 42 -70
68 -97 44 -45 45 -47 15 -32 -18 9 -37 16 -44 16 -7 0 -27 18 -46 40 -24 28
-42 40 -61 40 -30 0 -75 -26 -96 -55 -12 -17 -19 -18 -82 -6 -38 6 -75 15 -81
19 -6 4 -19 50 -27 102 -36 219 -108 408 -214 556 -28 40 -88 105 -133 145
-198 177 -229 211 -270 294 -78 158 -94 324 -70 719 26 405 -12 600 -171 879
-65 114 -231 343 -300 414 l-41 41 29 4 c21 2 30 9 32 25 2 12 15 26 32 33 44
18 66 50 79 114 16 85 14 431 -4 546 -8 52 -15 98 -15 101 0 4 9 9 20 12 39
10 25 52 -32 99 -29 24 -100 90 -158 148 -58 58 -151 150 -208 204 -57 54
-101 100 -99 103 3 2 19 -3 36 -11 38 -20 61 -20 61 -1 0 8 -30 30 -69 50 -61
30 -80 47 -145 129 -41 52 -79 97 -85 100 -5 3 -7 14 -4 25 3 13 -5 24 -31 39
-27 16 -44 40 -75 104 -25 53 -57 101 -88 131 -45 46 -199 149 -288 194 -128
65 -442 132 -675 143 -91 4 -174 10 -185 12 -11 3 -51 3 -89 1z m449 -79 c85
-13 103 -19 119 -40 10 -14 54 -45 97 -70 43 -25 79 -48 79 -50 0 -2 -27 10
-61 26 -150 76 -371 128 -565 132 -83 2 -84 2 -21 5 37 2 67 8 67 13 0 12 161
3 285 -16z m-658 -50 c-3 -3 -12 -4 -19 -1 -8 3 -5 6 6 6 11 1 17 -2 13 -5z
m532 -18 c74 -13 102 -41 29 -30 -23 4 -46 11 -49 16 -6 10 -364 3 -394 -8
-11 -4 -17 -4 -13 1 30 32 292 45 427 21z m467 -7 c38 -12 96 -35 129 -51 55
-28 185 -107 185 -112 0 -1 -21 0 -47 4 -32 4 -96 32 -193 84 -193 104 -203
115 -74 75z m-106 -117 c79 -39 90 -48 67 -50 -15 -2 -27 -7 -27 -11 0 -5 30
-39 66 -77 83 -87 102 -120 38 -66 -82 68 -265 192 -285 192 -17 0 -59 48 -59
68 0 6 -9 14 -20 17 -11 3 -20 10 -20 15 0 14 136 -36 240 -88z m-473 38 c2
-32 2 -33 -9 -12 -11 22 -42 30 -53 12 -3 -5 12 -62 34 -127 21 -65 42 -131
45 -148 6 -29 5 -29 -37 17 -24 25 -68 93 -98 150 -50 95 -56 103 -86 106 -30
3 -33 1 -48 -45 l-15 -48 5 40 c3 22 5 50 5 62 0 20 6 22 63 26 34 2 91 3 127
3 l65 -1 2 -35z m147 18 c50 -9 63 -17 97 -57 22 -25 53 -74 69 -109 l29 -62
-59 40 c-73 49 -80 60 -41 60 20 0 31 5 31 14 0 19 -51 38 -91 34 -30 -3 -34
-7 -37 -36 -4 -44 32 -78 180 -171 62 -38 129 -86 148 -107 l35 -37 -79 7
c-43 3 -118 6 -165 6 l-86 0 -37 73 c-39 76 -88 255 -88 320 0 43 4 44 94 25z
m-468 -15 c-25 -81 -46 -186 -46 -235 0 -51 2 -58 20 -58 11 0 20 5 20 10 0 6
8 5 20 -2 34 -22 45 -2 90 172 l12 44 44 -84 c24 -47 60 -107 79 -133 58 -78
129 -98 145 -40 4 16 10 12 36 -27 l31 -45 -86 6 c-189 15 -462 12 -590 -6
-49 -7 -53 -7 -48 11 41 134 60 209 64 257 5 53 4 59 -16 64 -44 11 -18 36 54
51 31 7 54 7 60 1 14 -14 55 -11 55 5 0 13 11 18 53 25 5 0 6 -7 3 -16z m-302
-69 c-4 -16 -12 -19 -33 -16 -25 3 -30 -1 -55 -58 -24 -53 -57 -184 -68 -270
-3 -21 -14 -27 -98 -52 -52 -15 -98 -28 -102 -28 -17 0 -6 50 34 163 l41 119
54 23 c31 14 53 30 53 39 0 19 -32 21 -62 5 -16 -8 -22 -8 -29 2 -6 10 -1 16
14 22 33 13 252 75 254 73 1 -1 0 -11 -3 -22z m1251 -72 c-3 -3 -16 5 -28 17
l-22 23 28 -17 c15 -10 25 -20 22 -23z m368 -31 c-2 -3 -18 10 -36 29 l-32 34
36 -30 c20 -16 34 -31 32 -33z m-468 -76 c99 -72 310 -235 304 -235 -2 0 -38
11 -79 23 -122 36 -304 177 -360 277 l-24 45 29 -19 c17 -10 75 -51 130 -91z
m-1485 82 c0 -12 -16 -19 -99 -43 -9 -3 9 8 39 25 65 36 60 34 60 18z m-55
-164 c-19 -50 -39 -112 -46 -137 -6 -25 -16 -50 -23 -55 -6 -5 -69 -32 -141
-61 -71 -29 -152 -64 -179 -77 l-49 -25 20 34 c47 80 128 198 135 198 5 0 -3
-22 -17 -50 -14 -27 -25 -56 -25 -65 0 -29 30 -15 57 28 30 47 114 150 126
155 11 5 8 32 -3 32 -6 0 -4 12 5 29 11 23 32 36 92 59 43 17 79 29 80 28 1
-1 -13 -43 -32 -93z m1896 5 c71 -51 312 -268 306 -275 -3 -2 -41 9 -85 24
-57 19 -82 33 -86 47 -4 14 -10 17 -31 12 -37 -9 -105 13 -115 39 -4 11 -29
40 -54 63 -25 23 -46 47 -46 53 0 5 -18 37 -40 70 l-41 59 65 -23 c35 -13 93
-44 127 -69z m-1525 -2 c-17 -58 -28 -81 -43 -87 -18 -7 -16 3 20 81 23 49 42
88 44 87 1 -2 -8 -38 -21 -81z m-636 -66 c0 -5 -5 -10 -11 -10 -5 0 -7 5 -4
10 3 6 8 10 11 10 2 0 4 -4 4 -10z m-87 -47 c-11 -28 -153 -258 -153 -247 0 5
15 52 34 104 29 82 39 99 76 127 49 38 52 39 43 16z m1174 9 c34 -10 14 -28
-39 -36 -47 -7 -48 -6 -48 18 0 23 4 26 33 25 17 -1 42 -4 54 -7z m-242 -53
c-33 -10 -67 -18 -75 -16 -8 2 12 10 45 19 83 22 103 20 30 -3z m-240 -9 c-3
-5 -10 -10 -16 -10 -18 0 -564 -232 -743 -316 -99 -46 -182 -82 -184 -79 -6 6
35 40 68 57 14 7 40 25 58 40 78 66 385 196 632 268 80 23 150 43 155 45 21 7
36 5 30 -5z m1285 0 c12 -8 9 -10 -13 -10 -16 0 -26 4 -22 10 8 12 16 12 35 0z
m-410 -26 c234 -27 206 -18 226 -77 9 -29 19 -58 22 -64 2 -8 -4 -13 -16 -13
-18 0 -32 -18 -32 -42 0 -6 9 -8 20 -5 11 3 20 4 20 3 0 -5 62 -305 75 -366 8
-36 15 -107 15 -157 0 -75 3 -93 15 -93 23 0 28 58 22 239 -6 184 -29 327 -77
468 l-29 85 62 -7 c69 -8 238 -42 274 -56 18 -7 23 -14 18 -28 -3 -11 6 -88
20 -173 23 -133 43 -425 45 -645 0 -28 4 -33 24 -33 22 0 24 5 31 73 3 39 22
167 42 282 31 191 58 477 45 499 -7 13 54 -3 138 -35 134 -51 296 -163 341
-235 17 -28 27 -35 45 -31 17 3 36 -10 79 -50 31 -30 55 -57 52 -59 -2 -3 -42
22 -88 55 -103 74 -175 111 -229 118 -23 3 -44 12 -47 19 -7 19 -43 18 -43 -1
0 -8 11 -56 24 -107 13 -51 26 -118 30 -148 l6 -55 -13 50 c-18 68 -25 78 -52
71 -20 -5 -26 3 -59 74 -20 43 -36 84 -36 89 0 5 -9 50 -21 100 -14 63 -25 91
-35 91 -25 0 -27 -28 -10 -116 14 -67 15 -89 5 -100 -14 -17 -10 -56 32 -319
30 -186 32 -227 13 -344 -6 -37 -4 -41 13 -41 15 0 22 9 27 30 3 18 12 30 21
30 12 0 15 18 15 108 0 103 -14 297 -26 352 l-5 25 16 -22 c17 -25 44 -31 46
-10 0 6 7 -3 15 -21 8 -18 19 -95 24 -170 14 -188 19 -222 34 -222 8 0 16 -29
24 -82 13 -99 40 -188 57 -188 7 0 15 -7 19 -15 3 -8 15 -15 27 -15 20 0 21 4
15 48 -15 116 -26 300 -26 449 0 89 -3 168 -6 177 -9 24 -43 19 -54 -6 -8 -22
-9 -21 -10 7 0 17 -7 61 -15 99 -8 38 -13 71 -12 72 2 2 26 -13 55 -33 45 -32
54 -44 71 -97 36 -112 42 -160 50 -401 9 -248 28 -375 56 -375 11 0 13 41 9
208 -4 194 -3 204 11 162 27 -81 46 -209 48 -318 2 -100 3 -107 22 -107 19 0
20 6 19 145 0 135 -3 156 -42 310 -47 190 -67 301 -58 325 5 15 9 14 32 -4 33
-26 54 -27 54 -3 0 10 -36 43 -89 82 -50 36 -92 71 -95 78 -3 7 20 -6 52 -28
31 -23 80 -58 107 -77 100 -70 147 -174 165 -361 11 -119 12 -401 0 -447 l-7
-30 -6 35 c-3 19 -9 60 -12 90 -22 204 -111 560 -140 560 -22 0 -19 -49 10
-165 34 -137 85 -445 85 -511 l0 -54 -76 0 c-72 0 -76 1 -104 32 -16 17 -32
44 -35 60 -4 15 -13 28 -20 28 -15 0 -101 58 -180 120 -61 49 -161 99 -278
140 -48 17 -145 58 -215 92 -174 83 -248 110 -312 113 -30 2 -86 10 -125 18
-38 9 -139 19 -222 23 l-153 7 0 101 c0 94 11 232 26 349 6 44 5 49 -12 45
-22 -4 -31 -36 -34 -123 -5 -121 -15 -127 -28 -17 -16 138 -16 240 0 224 17
-17 48 -15 48 2 0 27 -42 86 -61 86 -16 0 -18 6 -13 48 4 26 13 57 21 70 8 13
12 30 9 37 -10 27 -19 27 214 -1z m-733 10 c-3 -3 -12 -4 -19 -1 -8 3 -5 6 6
6 11 1 17 -2 13 -5z m458 -22 c-21 -42 -38 -215 -30 -317 4 -49 20 -146 35
-215 32 -137 55 -268 49 -274 -2 -2 -71 -6 -153 -9 l-149 -6 7 132 c9 167 26
319 37 332 5 5 9 33 9 62 0 74 19 158 33 144 17 -17 47 -13 47 6 0 23 -39 63
-62 63 -9 0 -24 -10 -32 -22 -17 -26 -51 -197 -62 -305 -12 -131 -24 -65 -24
136 0 133 4 201 11 208 15 15 4 43 -15 43 -8 0 -22 -10 -30 -22 -31 -44 -18
-479 20 -675 9 -45 14 -88 11 -96 -3 -9 -30 -16 -77 -21 -117 -10 -217 -35
-340 -81 -63 -25 -118 -41 -122 -37 -3 4 -16 66 -29 137 -19 111 -22 168 -23
395 l-1 265 110 37 c61 20 111 33 113 28 2 -5 -4 -44 -12 -86 -27 -128 -37
-294 -26 -392 17 -136 33 -200 55 -216 34 -26 48 -20 42 17 -3 17 -1 52 4 77
5 25 16 117 24 205 9 88 22 192 30 230 19 88 19 85 -4 85 -25 0 -36 -52 -51
-240 -18 -226 -29 -258 -26 -75 2 108 9 184 21 234 13 57 14 75 5 81 -9 6 -10
20 -4 56 l9 49 75 17 c117 29 408 73 497 76 l41 2 -13 -28z m782 22 c-3 -3
-12 -4 -19 -1 -8 3 -5 6 6 6 11 1 17 -2 13 -5z m-2367 -94 c-23 -27 -44 -50
-47 -50 -6 0 12 23 56 73 42 46 35 30 -9 -23z m99 -45 c-10 -38 -19 -81 -19
-96 0 -19 -12 -34 -47 -60 -27 -18 -87 -67 -135 -107 -49 -40 -88 -70 -88 -67
0 20 78 154 117 202 51 63 185 205 189 200 1 -1 -6 -34 -17 -72z m2837 24 c19
-22 19 -22 -3 -10 -13 6 -23 16 -23 21 0 15 5 12 26 -11z m-307 -29 c9 0 -9
-256 -25 -355 l-19 -110 -7 172 c-5 124 -11 180 -22 200 -30 55 -37 78 -31
100 5 21 6 22 53 8 26 -8 49 -15 51 -15z m-2029 -82 c0 -7 -9 -74 -20 -148
-34 -228 -23 -363 36 -469 22 -40 61 -179 52 -185 -113 -80 -166 -119 -222
-164 l-68 -55 6 39 c22 147 56 500 56 586 0 45 -3 58 -15 58 -9 0 -15 -9 -15
-22 -1 -106 -76 -694 -89 -702 -16 -11 8 812 28 929 6 39 7 40 121 92 127 57
130 59 130 41z m-316 -155 c-18 -26 -19 -58 -22 -492 l-2 -464 -128 -118 c-79
-73 -129 -113 -134 -106 -10 19 -31 705 -23 790 5 65 4 77 -9 77 -21 0 -26
-12 -35 -83 l-8 -62 -2 93 -1 93 38 40 38 41 12 -131 c7 -77 25 -179 44 -248
28 -108 31 -130 29 -258 -2 -156 6 -200 34 -200 24 0 33 30 34 118 1 52 4 67
16 67 20 0 19 10 -7 85 -23 66 -23 74 9 263 4 24 2 32 -10 32 -10 0 -18 -16
-25 -47 -8 -39 -10 -42 -11 -18 -1 17 -13 86 -26 155 -28 139 -31 189 -13 223
6 12 14 29 18 37 6 13 185 140 198 140 2 0 -4 -12 -14 -27z m348 -183 c-5
-147 -7 -167 -15 -125 -8 43 9 313 18 303 2 -2 0 -82 -3 -178z m-672 16 c0 -2
-8 -10 -17 -17 -16 -13 -17 -12 -4 4 13 16 21 21 21 13z m3260 -47 c0 -18 -18
-9 -23 12 -4 16 -3 18 9 8 8 -6 14 -15 14 -20z m-3414 -95 c-43 -41 -81 -72
-85 -68 -3 3 30 39 74 79 44 40 82 71 85 68 3 -3 -30 -39 -74 -79z m-26 73 c0
-2 -19 -21 -42 -42 l-43 -40 40 43 c36 39 45 47 45 39z m3217 -99 c-2 -13 -4
-5 -4 17 -1 22 1 32 4 23 2 -10 2 -28 0 -40z m-3128 -250 c0 -268 9 -398 37
-520 11 -50 20 -68 32 -68 21 0 -58 -83 -113 -118 -22 -14 -71 -55 -109 -91
l-69 -66 6 40 c4 22 7 50 7 63 0 12 6 22 13 22 9 0 20 33 33 98 24 124 25 372
1 557 -28 219 -29 209 19 234 22 12 63 42 90 66 27 24 50 44 51 45 0 0 1 -118
2 -262z m3138 90 c-2 -24 -4 -7 -4 37 0 44 2 63 4 43 2 -21 2 -57 0 -80z
m-3383 13 c3 -5 1 -48 -5 -97 -8 -64 -8 -150 0 -309 9 -182 9 -253 -4 -414
-14 -180 -17 -196 -40 -223 -22 -27 -25 -27 -25 -9 0 15 -6 21 -21 21 -16 0
-19 3 -12 13 27 34 36 142 39 467 2 269 6 345 18 385 22 69 21 89 -4 82 -18
-5 -18 -2 6 44 24 47 37 58 48 40z m2226 -41 c-14 -4 -63 -5 -110 -3 -56 4
-114 0 -170 -10 -47 -9 -147 -19 -223 -22 -173 -7 -326 -33 -472 -80 -58 -19
20 16 89 40 99 33 211 53 396 70 159 14 530 18 490 5z m289 -76 c106 -16 111
-18 111 -43 0 -10 11 -23 24 -29 18 -8 27 -26 40 -77 22 -86 70 -181 140 -274
31 -41 56 -85 56 -97 0 -12 2 -29 6 -37 4 -12 -12 -15 -88 -20 -111 -6 -77 8
-423 -174 -70 -37 -127 -75 -157 -105 -26 -27 -54 -48 -62 -48 -9 0 -16 -4
-16 -10 0 -5 -9 -10 -20 -10 -22 0 -24 -11 -14 -73 l7 -38 61 5 c33 3 62 10
64 16 2 5 67 42 145 80 78 38 189 97 246 129 120 69 189 94 251 89 l44 -3 71
-143 c55 -111 69 -147 60 -158 -16 -23 -59 -3 -60 27 0 31 -40 40 -49 11 -6
-18 -19 -20 -149 -25 -191 -7 -311 -43 -469 -143 -45 -29 -54 -69 -13 -62 23
5 23 4 10 -16 -18 -24 -19 -46 -4 -46 6 0 45 31 86 70 42 39 101 82 136 100
93 45 227 75 227 51 0 -28 -42 -51 -134 -75 -54 -15 -125 -40 -156 -57 -110
-58 -225 -181 -218 -232 3 -20 8 -22 58 -19 30 2 57 6 60 8 2 3 -1 14 -8 25
-16 24 -14 27 40 66 40 28 45 30 55 15 6 -10 34 -30 63 -46 47 -26 59 -28 124
-23 75 5 119 22 153 59 27 30 63 98 63 120 0 15 9 18 55 18 66 0 65 -1 -13
-85 -89 -95 -249 -149 -363 -123 -52 12 -99 4 -99 -16 0 -17 146 -32 215 -22
43 7 46 6 63 -23 29 -52 70 -33 42 19 -14 25 13 34 28 9 15 -23 42 -25 42 -2
0 14 3 13 23 -5 13 -12 31 -22 40 -22 19 0 23 29 7 48 -7 9 -7 9 2 2 16 -13
48 -13 48 0 0 7 6 7 19 0 30 -15 41 -12 41 12 0 12 -14 34 -32 50 l-33 28 30
-15 c17 -8 36 -15 43 -15 21 0 13 36 -10 49 -23 11 -22 11 2 4 43 -11 64 -9
68 9 2 10 -7 22 -23 30 l-26 14 38 30 c21 16 50 37 65 47 l26 16 73 -100 73
-101 0 -127 c1 -208 -77 -698 -115 -722 -6 -4 -9 -14 -6 -23 4 -9 3 -16 -2
-16 -5 0 -14 -26 -20 -59 -13 -69 -132 -313 -217 -446 -171 -269 -432 -518
-641 -611 -103 -45 -263 -57 -324 -23 -24 13 -24 13 14 23 51 13 51 40 -1 31
-50 -8 -166 17 -231 50 -60 30 -162 94 -176 110 -5 6 -32 27 -59 46 -75 52
-150 130 -264 276 -147 188 -209 276 -261 373 -86 160 -98 195 -126 375 -14
94 -46 261 -71 371 -24 111 -44 209 -44 218 0 17 15 22 25 7 3 -5 19 -12 35
-16 l30 -7 -30 -31 c-33 -35 -39 -64 -15 -74 10 -3 28 8 51 33 20 22 30 30 24
17 -5 -12 -10 -26 -10 -32 0 -20 36 -11 60 14 32 34 44 18 25 -34 -20 -59 -19
-81 4 -81 13 0 21 9 25 28 4 15 18 41 31 57 l24 30 1 -47 c0 -36 4 -48 15 -48
9 0 18 8 21 18 19 57 44 82 44 42 0 -11 6 -20 13 -20 8 0 22 9 32 20 10 11 29
20 42 20 16 0 23 -6 23 -20 0 -11 7 -20 15 -20 9 0 15 9 15 24 0 20 7 25 44
35 24 6 52 13 62 17 18 5 18 5 2 -6 -10 -6 -18 -18 -18 -27 0 -24 70 -11 124
24 46 28 57 47 34 56 -7 3 2 6 20 6 26 1 32 5 32 23 0 28 -70 92 -137 124 -66
31 -192 64 -245 64 -34 0 -118 32 -118 45 0 7 139 -5 185 -17 57 -14 175 -66
212 -94 17 -13 39 -24 47 -24 30 0 16 31 -30 63 -25 17 -40 33 -35 35 27 9 8
31 -31 37 -24 4 -74 16 -113 26 -54 15 -103 19 -222 19 -147 0 -153 -1 -153
-20 0 -18 6 -20 39 -18 32 1 44 -3 59 -23 11 -13 19 -26 17 -28 -10 -9 -76 12
-109 34 -20 14 -46 25 -56 25 -31 0 -24 -34 11 -64 17 -14 28 -26 24 -26 -13
0 -71 34 -106 61 -48 38 -62 37 -57 -1 4 -25 2 -29 -8 -18 -7 7 -19 54 -27
103 l-15 90 27 22 c110 93 223 94 501 3 190 -62 255 -80 283 -80 25 0 27 3 27
38 0 21 -12 58 -28 87 -30 55 -62 72 -62 33 l0 -23 -18 21 c-19 23 -189 83
-312 110 -41 9 -115 20 -165 24 -105 9 -147 -4 -227 -72 l-48 -39 0 123 c0
185 43 316 111 342 37 13 34 39 -5 46 -29 5 -29 5 25 41 92 60 249 146 364
197 239 108 568 209 705 218 70 4 206 18 310 33 77 10 189 5 319 -15z m-2207
-209 c3 -113 2 -167 -2 -125 -8 78 -13 336 -6 329 2 -2 6 -94 8 -204z m1138
150 c-108 -29 -252 -74 -320 -98 -69 -25 -126 -44 -128 -43 -5 6 195 90 293
123 89 30 277 71 330 72 11 0 -68 -24 -175 -54z m-1393 -242 c-2 -16 -4 -5 -4
22 0 28 2 40 4 28 2 -13 2 -35 0 -50z m913 22 c0 -2 -18 -14 -40 -25 -22 -11
-40 -17 -40 -12 0 5 15 16 33 25 34 17 47 20 47 12z m2467 -87 c13 -15 3 -12
-42 12 -80 44 -91 56 -28 29 29 -11 60 -30 70 -41z m-2748 -191 c-47 -87 -61
-171 -58 -339 l4 -148 -28 -27 -27 -28 -2 40 c-6 131 16 325 52 444 7 27 73
111 86 111 1 0 -11 -24 -27 -53z m2276 -17 c16 -17 16 -20 3 -15 -9 4 -19 13
-22 21 -7 19 -2 18 19 -6z m-51 -65 c6 -17 -10 -22 -94 -28 -46 -4 -95 -25
-305 -132 -208 -106 -245 -122 -220 -95 17 17 50 43 75 58 25 14 79 46 120 71
41 24 122 66 180 93 92 42 113 48 171 48 50 0 68 -4 73 -15z m-2367 -15 c20 0
24 -4 18 -17 -3 -10 -11 -52 -17 -94 l-11 -76 -28 11 c-20 7 -29 17 -29 33 0
17 -6 23 -23 23 -30 0 -41 -25 -62 -132 -9 -46 -31 -153 -50 -238 -18 -85 -41
-202 -50 -260 -21 -133 -22 -138 -44 -145 -10 -3 -45 -32 -77 -65 -54 -55 -83
-69 -69 -33 8 22 -4 53 -20 53 -23 0 -26 -16 -13 -64 10 -38 9 -50 -7 -85 -10
-23 -21 -41 -26 -41 -11 0 -29 92 -35 185 -3 53 0 114 11 175 23 135 54 236
68 220 2 -3 22 -32 45 -65 41 -61 74 -95 92 -95 12 0 13 27 2 32 -5 2 -28 32
-52 68 -23 36 -51 74 -61 85 -18 21 -18 23 27 98 24 43 65 98 89 124 50 52 52
58 28 71 -14 8 -13 12 10 27 15 9 27 26 27 36 0 11 4 19 9 19 5 0 51 36 102
80 52 44 100 77 107 75 8 -3 25 -5 39 -5z m2658 -166 c159 -149 216 -233 263
-384 21 -70 47 -216 56 -320 l6 -65 -35 65 c-19 36 -34 75 -35 88 -1 78 -39
141 -57 95 -12 -31 -23 23 -12 61 6 20 7 41 4 46 -10 17 -42 11 -56 -10 -13
-20 -16 -18 -67 50 -29 38 -49 70 -45 70 5 0 34 24 66 54 98 91 63 129 -61 65
-69 -36 -92 -30 -92 21 0 18 -6 29 -18 32 -17 5 -100 151 -117 207 -7 23 -7
24 51 16 56 -7 62 -11 149 -91z m-2699 -49 c19 -13 22 -27 27 -162 5 -148 39
-406 56 -427 5 -6 13 -31 19 -56 41 -183 154 -568 183 -622 27 -51 -12 -65
-61 -22 -32 29 -55 80 -39 89 14 9 11 55 -5 55 -15 0 -77 -129 -96 -199 l-12
-44 -19 42 c-20 45 -17 86 7 95 8 3 14 11 14 18 0 7 14 42 30 76 34 72 36 82
15 82 -16 0 -105 -125 -106 -150 -1 -23 -57 142 -84 250 -33 131 -47 266 -39
380 l7 95 24 -90 c44 -167 63 -285 64 -391 1 -79 5 -104 15 -104 7 0 14 -12
16 -27 2 -17 10 -29 20 -31 16 -3 17 5 13 75 -2 43 -9 96 -14 118 -6 22 -11
65 -11 95 0 53 -7 87 -65 345 -36 160 -36 232 -1 374 26 104 27 115 12 126 -8
7 -13 15 -9 18 9 10 16 9 39 -8z m514 -66 c65 -10 188 -42 310 -79 41 -13 71
-29 82 -44 l17 -23 -82 29 c-181 63 -306 91 -413 92 -99 1 -103 0 -150 -32
l-49 -34 40 37 c70 66 115 75 245 54z m-908 -70 c-89 -133 -152 -306 -167
-459 -13 -128 -47 -278 -102 -442 -30 -93 -58 -168 -62 -168 -3 0 -25 42 -48
94 -48 102 -51 130 -32 276 14 119 51 270 93 381 28 75 43 101 77 132 23 20
53 40 65 43 13 4 24 10 24 15 0 9 173 179 178 174 2 -1 -10 -22 -26 -46z
m-215 9 c-3 -8 -6 -5 -6 6 -1 11 2 17 5 13 3 -3 4 -12 1 -19z m2953 -54 c0
-11 -21 -44 -28 -44 -4 0 -7 11 -7 25 0 17 6 25 18 25 9 0 17 -3 17 -6z m70
-2 c0 -11 -22 -32 -32 -32 -5 0 -4 9 2 20 11 20 30 28 30 12z m95 -12 c-3 -5
-13 -10 -21 -10 -8 0 -14 5 -14 10 0 6 9 10 21 10 11 0 17 -4 14 -10z m-2362
-97 c3 -10 8 -36 11 -58 4 -22 9 -52 12 -66 4 -23 1 -27 -26 -31 -28 -4 -31
-2 -40 31 -20 78 -23 123 -9 132 23 14 47 10 52 -8z m2152 -70 c-45 -107 -151
-142 -241 -81 -40 27 -43 44 -9 52 17 4 31 0 45 -14 41 -41 141 -18 150 35 5
26 22 39 63 44 4 1 0 -16 -8 -36z m-3076 -152 c-29 -91 -63 -249 -75 -356 l-7
-60 -13 40 c-28 88 -6 263 45 363 18 35 68 102 76 102 2 0 -10 -40 -26 -89z
m4008 -3 c-3 -8 -6 -5 -6 6 -1 11 2 17 5 13 3 -3 4 -12 1 -19z m-3400 -65 c-3
-10 -5 -4 -5 12 0 17 2 24 5 18 2 -7 2 -21 0 -30z m777 12 c9 -23 68 -55 102
-55 34 0 84 33 84 56 0 9 11 14 30 14 17 0 30 -4 30 -9 0 -5 -19 -29 -43 -54
-57 -58 -102 -68 -168 -37 -65 31 -95 93 -48 99 4 1 9 -6 13 -14z m-432 -16
c20 -9 27 -30 57 -177 19 -92 45 -216 58 -277 12 -60 22 -116 20 -124 -3 -22
-167 537 -167 572 0 20 2 20 32 6z m363 -32 c11 -23 35 -52 54 -64 39 -27 21
-30 -35 -7 -51 21 -144 77 -144 86 0 9 55 26 85 27 14 0 26 -13 40 -42z m404
24 c19 -10 30 -21 25 -24 -17 -10 -118 -47 -121 -43 -2 1 6 14 17 29 11 14 20
32 20 41 0 21 17 20 59 -3z m-1083 -369 c14 -64 45 -174 69 -244 l42 -128 -24
-92 c-21 -79 -25 -117 -25 -253 -1 -141 2 -171 24 -255 21 -79 23 -96 12 -103
-8 -4 -14 -15 -14 -22 0 -8 -4 -15 -8 -15 -10 0 -82 -105 -150 -218 l-50 -83
-4 128 c-4 96 -11 146 -28 198 -21 64 -23 91 -25 310 -2 166 -8 269 -19 335
-9 52 -19 128 -23 168 -4 47 -10 72 -18 72 -7 0 -15 9 -18 20 -3 13 0 20 9 20
10 0 14 15 14 60 0 47 -3 60 -15 60 -11 0 -15 -13 -16 -52 l0 -53 -14 38 c-16
43 -6 87 20 87 10 0 15 10 15 33 0 39 40 104 100 162 l42 40 -6 -30 c-21 -110
-56 -555 -56 -722 0 -94 3 -113 15 -113 12 0 15 14 15 63 0 135 42 581 82 862
l13 90 7 -123 c4 -67 19 -175 34 -240z m1074 274 c0 -2 -7 -7 -16 -10 -8 -3
-12 -2 -9 4 6 10 25 14 25 6z m2071 -145 c26 -73 15 -91 -51 -91 -28 0 -50 3
-50 8 0 8 28 161 37 202 5 23 7 22 25 -20 11 -25 29 -69 39 -99z m351 -43 c14
-18 57 -67 97 -109 l71 -77 10 -143 c5 -79 10 -206 10 -282 0 -127 -2 -138
-17 -135 -11 2 -35 37 -61 88 -49 97 -81 221 -137 525 -52 286 -50 268 -22
213 13 -25 35 -61 49 -80z m-3882 -62 c22 -81 22 -85 5 -162 -9 -43 -19 -140
-22 -215 -9 -207 21 -358 117 -593 33 -83 40 -111 40 -168 0 -37 -3 -68 -7
-68 -5 0 -18 32 -30 70 -13 39 -46 119 -74 178 -31 65 -54 130 -60 167 -19
131 -29 452 -19 626 8 154 18 249 25 249 1 0 12 -38 25 -84z m3551 -54 c34
-36 36 -41 60 -199 24 -162 55 -272 115 -413 36 -86 44 -117 44 -166 0 -198
-68 -297 -188 -274 -131 24 -149 43 -321 329 l-32 55 17 38 18 39 27 -60 c47
-104 154 -246 232 -307 51 -41 114 -47 146 -15 27 27 51 113 51 182 0 65 -66
339 -111 461 -45 122 -117 254 -161 294 -52 47 -45 64 24 64 44 -1 57 -5 79
-28z m-111 -103 c0 -13 -29 -31 -40 -24 -11 7 -13 35 -3 60 5 15 8 15 24 -6
10 -13 19 -27 19 -30z m-3545 -260 l0 -281 -27 59 c-21 44 -28 74 -28 123 -1
36 -5 85 -10 110 -8 39 -4 60 28 158 20 61 36 112 37 112 0 0 0 -126 0 -281z
m216 32 c24 -111 51 -516 34 -499 -14 13 -59 164 -76 251 -20 100 -25 272 -12
377 l7 55 13 -45 c8 -25 23 -87 34 -139z m3399 112 c72 -149 170 -481 170
-578 0 -48 -25 -129 -46 -145 -35 -30 -107 23 -205 153 -33 44 -77 114 -98
156 l-39 76 35 83 c19 46 37 105 40 132 5 41 3 49 -13 53 -16 4 -15 5 4 6 19
1 22 7 22 41 0 27 4 40 13 40 8 0 24 11 37 25 13 14 29 25 35 25 7 0 27 -30
45 -67z m226 -192 c27 -105 31 -143 8 -91 -18 41 -64 215 -64 239 1 28 30 -50
56 -148z m-399 77 c-3 -8 -6 -5 -6 6 -1 11 2 17 5 13 3 -3 4 -12 1 -19z
m-2657 -2 c0 -16 113 -76 143 -76 19 0 20 -5 13 -145 -8 -152 -18 -203 -63
-301 l-26 -59 -14 95 c-8 52 -34 155 -59 228 l-44 132 16 70 c10 39 21 70 26
70 4 0 8 -6 8 -14z m-129 -129 c14 -35 16 -80 14 -277 -4 -255 4 -313 42 -343
24 -19 31 -47 12 -47 -6 0 -13 9 -16 20 -3 11 -9 20 -13 20 -4 0 -15 19 -25
43 -9 23 -21 50 -27 61 -20 37 -48 220 -48 309 0 87 26 257 39 257 3 0 13 -19
22 -43z m-776 -97 c-9 -71 -56 -216 -100 -305 l-34 -70 6 45 c8 67 39 191 81
318 30 93 38 108 45 90 5 -13 5 -48 2 -78z m1112 -172 c-6 -161 -19 -222 -64
-313 -34 -67 -54 -90 -65 -73 -10 17 -10 101 0 114 14 15 72 154 93 219 11 33
22 93 26 133 10 123 16 79 10 -80z m-997 -87 c0 -42 -5 -122 -12 -178 -11 -97
-13 -103 -34 -103 -22 0 -91 -46 -146 -97 l-27 -25 -9 38 c-26 104 -26 104 37
225 59 113 99 212 122 299 l11 45 29 -64 c24 -52 29 -77 29 -140z m760 74 c10
-44 24 -123 29 -175 11 -91 10 -96 -10 -113 -21 -17 -22 -17 -34 1 -17 23 -39
300 -29 367 6 45 8 48 16 25 5 -14 18 -61 28 -105z m-685 -230 c15 -82 49
-232 76 -333 l49 -184 -15 -65 c-19 -81 -30 -102 -131 -247 l-84 -119 0 84 c0
51 -8 116 -21 169 l-21 87 36 194 c36 194 58 345 71 492 4 43 9 77 10 75 2 -2
15 -70 30 -153z m100 -131 c18 -52 28 -106 31 -168 l4 -91 -15 45 c-8 25 -29
108 -46 185 -17 77 -33 149 -35 160 -10 41 37 -56 61 -131z m475 -11 c14 -27
35 -57 47 -68 19 -18 22 -32 25 -131 3 -90 1 -111 -10 -106 -22 8 -57 -17 -97
-69 -21 -27 -40 -48 -42 -45 -2 2 12 50 31 107 40 115 41 119 23 119 -7 0 -31
-54 -56 -122 -24 -68 -57 -161 -74 -207 l-30 -84 -38 129 c-21 71 -39 136 -39
144 0 17 92 183 156 282 24 37 44 71 44 77 0 8 14 18 30 20 3 1 16 -20 30 -46z
m147 -59 c-2 -3 -12 -1 -22 2 -13 5 -16 14 -11 37 10 50 30 53 34 6 2 -23 1
-43 -1 -45z m-1103 -138 c-123 -135 -173 -314 -174 -616 -1 -241 -3 -249 -191
-749 l-42 -114 -40 79 c-51 100 -65 142 -78 225 -17 112 11 263 93 504 78 229
148 369 347 692 l106 173 17 -67 17 -66 -55 -61z m266 132 c0 -18 -62 -329
-65 -326 -15 17 -64 153 -56 156 19 6 12 32 -9 32 -36 0 -21 27 47 89 69 62
83 70 83 49z m837 -53 c2 -1 0 -141 -5 -311 -4 -170 -8 -280 -10 -244 -1 36
-9 151 -17 255 -8 105 -15 219 -15 254 0 60 1 62 23 55 12 -3 23 -7 24 -9z
m-500 -77 c-2 -18 -4 -6 -4 27 0 33 2 48 4 33 2 -15 2 -42 0 -60z m2778 -258
c15 -91 79 -303 127 -418 l30 -73 -26 -162 c-14 -89 -33 -223 -43 -299 -15
-123 -18 -137 -37 -140 -20 -4 -21 0 -24 111 -3 146 -20 261 -71 481 -54 233
-62 294 -62 432 0 125 14 202 59 333 l27 80 6 -150 c4 -83 10 -170 14 -195z
m-118 270 c-7 -19 -18 -30 -31 -30 -18 0 -17 3 9 30 16 17 30 30 31 30 1 0 -3
-13 -9 -30z m-1419 -106 c11 -172 2 -189 -29 -48 -24 111 -25 121 -11 146 9
15 20 24 24 20 4 -4 11 -57 16 -118z m-1782 22 c-30 -45 -64 -147 -110 -331
-19 -77 -42 -160 -50 -185 -15 -44 -16 -42 -11 81 8 201 51 331 147 443 47 54
63 49 24 -8z m1936 3 c14 -11 31 -19 36 -19 5 0 51 -24 101 -54 50 -29 117
-64 149 -76 31 -12 73 -29 92 -37 19 -9 78 -21 130 -27 l95 -12 -73 -8 c-67
-7 -73 -10 -70 -30 3 -20 8 -21 88 -20 76 1 97 6 205 48 66 26 149 63 184 82
l65 36 -75 -83 c-40 -45 -118 -117 -171 -161 -63 -51 -98 -86 -98 -98 0 -31
36 -24 86 16 32 27 44 32 44 20 0 -35 49 -17 120 47 73 64 187 147 202 147 5
0 -16 -33 -47 -73 -94 -126 -63 -175 48 -76 l58 51 -26 -58 c-74 -164 -82
-216 -36 -222 20 -3 23 0 18 20 -4 15 10 60 38 128 l43 104 6 -49 c9 -63 47
-256 81 -405 25 -105 25 -117 12 -146 -9 -17 -69 -89 -134 -159 -168 -182
-292 -323 -332 -375 -52 -68 -103 -120 -133 -136 -26 -13 -28 -12 -85 53 -111
127 -263 248 -420 334 -71 38 -64 23 -82 204 -16 158 -41 238 -136 432 -57
115 -85 184 -85 206 0 50 49 140 80 147 16 4 25 13 25 25 0 29 -42 32 -71 4
l-24 -22 0 94 c0 52 -3 118 -6 147 l-7 52 39 -16 c21 -9 51 -25 66 -35z
m-1405 -1 c-3 -7 -5 -2 -5 12 0 14 2 19 5 13 2 -7 2 -19 0 -25z m2571 -10
c-18 -24 -58 -73 -87 -110 -52 -65 -161 -166 -116 -107 31 40 227 259 233 259
2 0 -11 -19 -30 -42z m-3014 -105 l36 -91 -50 -224 c-63 -278 -115 -477 -179
-683 -64 -203 -213 -625 -222 -625 -4 0 -12 20 -18 45 -6 25 -30 89 -53 142
l-42 98 52 145 c67 189 115 320 118 317 1 -1 -2 -56 -8 -122 -11 -137 -4 -245
17 -245 7 0 16 12 19 28 7 31 41 371 52 507 4 50 18 128 31 175 14 47 51 184
83 305 59 223 103 346 119 329 5 -5 25 -50 45 -101z m1636 -119 c16 -85 32
-159 34 -163 3 -4 -7 -34 -22 -66 l-28 -58 -36 74 c-68 138 -72 203 -22 338
33 89 32 92 74 -125z m1430 132 c0 -17 -7 -25 -25 -28 -26 -5 -25 2 3 35 20
22 22 22 22 -7z m-2503 -153 l43 -128 -57 -170 -58 -170 -7 115 c-6 108 -33
303 -43 320 -6 10 66 172 73 165 3 -2 25 -62 49 -132z m5194 36 c35 -17 114
-98 105 -106 -2 -3 -23 1 -47 8 -40 13 -169 119 -169 140 0 8 48 -10 111 -42z
m-2701 -6 c-1 -22 -8 -32 -35 -44 l-34 -16 31 43 c17 24 33 44 35 44 2 0 3
-12 3 -27z m-2975 -243 l0 -135 -52 -90 c-87 -152 -138 -300 -163 -480 -9 -65
-24 -109 -82 -233 -39 -83 -73 -151 -74 -149 -2 2 15 54 37 117 106 301 249
812 300 1073 20 103 34 60 34 -103z m5674 112 c47 -23 90 -42 97 -42 19 0 -11
-54 -40 -73 -21 -14 -26 -14 -53 3 -17 10 -40 32 -52 48 -23 32 -56 116 -43
110 4 -2 45 -23 91 -46z m-5324 -86 c21 -127 21 -326 0 -426 -21 -100 -67
-242 -76 -232 -4 4 -19 44 -33 90 -46 147 -35 261 44 445 42 99 50 144 26 153
-13 5 -13 11 1 40 9 18 18 33 19 31 1 -1 9 -47 19 -101z m-104 27 c-12 -20
-14 -14 -5 12 4 9 9 14 11 11 3 -2 0 -13 -6 -23z m1515 -358 c37 -94 61 -197
72 -312 5 -46 7 -83 6 -83 -1 0 -30 13 -66 29 l-64 29 -11 124 c-13 137 -31
216 -69 298 -25 55 -25 55 -8 107 l18 52 45 -82 c24 -45 59 -118 77 -162z
m4407 82 l26 -34 -42 13 c-23 7 -78 22 -122 34 -105 28 -118 41 -66 65 22 9
42 24 45 31 3 8 20 23 38 33 l32 20 31 -64 c18 -36 44 -80 58 -98z m-1033 117
c0 -39 -15 -39 -22 1 -4 20 0 28 20 34 1 1 2 -15 2 -35z m158 16 c32 -8 52
-17 52 -26 0 -8 5 -14 10 -14 6 0 10 -9 10 -19 0 -31 -104 -64 -136 -43 -7 4
-14 33 -15 64 -3 48 -1 57 11 54 8 -2 39 -10 68 -16z m-5255 -217 c-47 -115
-111 -287 -144 -383 -47 -141 -57 -164 -52 -120 6 59 7 61 78 250 25 69 59
169 75 224 20 69 43 119 74 167 26 38 48 69 50 69 3 0 -34 -93 -81 -207z
m5582 168 c3 -5 20 -13 38 -17 17 -4 26 -9 20 -11 -7 -3 -13 -13 -13 -23 0
-14 12 -22 43 -30 46 -13 339 -107 373 -120 11 -4 42 -37 69 -72 26 -34 55
-66 64 -70 20 -7 54 -113 72 -223 21 -129 50 -239 80 -304 16 -35 41 -110 55
-165 14 -56 32 -120 41 -144 9 -23 14 -44 12 -46 -10 -9 -69 8 -69 20 0 8 -18
26 -40 40 -22 15 -40 33 -40 40 0 8 -5 14 -10 14 -6 0 -47 35 -91 77 -93 89
-181 209 -184 250 -1 15 -16 67 -34 115 -40 111 -50 175 -27 184 9 3 16 12 16
19 0 7 14 16 30 20 17 4 30 11 30 16 0 19 -36 49 -60 49 -52 0 -141 28 -196
61 -71 43 -174 141 -174 166 0 13 -13 25 -38 36 -49 22 -64 21 -79 -2 -19 -31
-102 -34 -181 -8 -50 16 -61 23 -42 25 57 7 92 26 125 67 33 39 39 43 73 38
23 -3 48 1 66 11 29 15 56 10 71 -13z m-5091 -324 c33 -177 35 -360 6 -557
-12 -74 -29 -193 -39 -265 -12 -93 -25 -146 -44 -185 l-27 -55 0 48 c0 33 -4
47 -14 47 -10 0 -15 -24 -19 -92 -4 -67 -14 -118 -36 -181 -61 -176 -92 -396
-111 -807 -7 -151 -19 -271 -35 -365 -14 -77 -36 -223 -49 -325 -23 -171 -53
-336 -61 -328 -5 4 39 405 69 638 33 248 63 572 72 765 8 182 -6 330 -47 515
-38 171 -45 243 -29 309 11 47 14 50 36 45 41 -10 30 47 -12 63 -20 8 -20 12
31 158 l53 150 7 -58 c4 -32 5 -109 1 -170 -3 -62 -9 -183 -12 -269 -6 -153
-6 -158 13 -158 18 0 21 9 26 83 3 45 13 132 21 192 20 141 20 309 1 421 -15
84 -15 92 4 164 11 41 29 118 40 170 11 52 42 162 68 245 l48 149 6 -104 c4
-58 18 -167 33 -243z m-374 257 c-64 -220 -87 -393 -100 -754 -10 -295 -19
-353 -75 -500 l-29 -75 -38 116 c-41 128 -68 263 -68 344 0 51 35 191 84 333
34 99 239 613 243 609 1 -2 -6 -35 -17 -73z m6160 -175 c0 -4 17 -20 39 -35
l38 -28 0 -220 -1 -219 -18 54 c-17 46 -54 213 -75 329 -3 19 -13 46 -22 60
-10 14 -23 38 -29 54 -11 24 -17 28 -42 23 -16 -4 -32 -2 -35 3 -3 6 5 10 19
10 19 0 27 7 32 25 l6 25 44 -36 c24 -20 44 -40 44 -45z m-1071 32 c-1 -14 -5
-37 -9 -51 -7 -21 -8 -22 -9 -5 -1 11 -4 37 -7 58 -6 32 -4 36 10 31 10 -4 16
-17 15 -33z m145 -13 c34 -7 63 -13 65 -15 10 -7 -44 -37 -68 -38 -30 -1 -91
34 -91 53 0 15 18 15 94 0z m196 -26 c-24 -8 -30 -23 -30 -80 0 -36 -16 -100
-50 -204 -27 -83 -50 -159 -50 -170 0 -12 -16 -26 -44 -41 -81 -40 -160 -89
-204 -124 -52 -43 -57 -35 -48 80 11 135 27 207 67 309 22 53 39 103 39 111 0
36 11 46 35 35 13 -6 26 -19 28 -29 3 -11 12 -19 21 -19 19 0 165 92 165 104
1 6 11 20 22 32 18 19 25 21 43 12 16 -9 18 -12 6 -16z m164 -147 c5 -14 89
-45 121 -45 19 0 23 -10 38 -87 22 -111 22 -111 -6 -85 -50 47 -129 38 -284
-34 -51 -24 -93 -41 -93 -39 0 2 8 20 17 40 17 36 27 43 38 25 3 -5 15 -10 26
-10 19 0 20 4 14 78 -6 64 -3 89 15 149 23 76 20 98 -11 90 -15 -4 -19 0 -19
25 l0 29 70 -62 c38 -34 71 -68 74 -74z m-5545 -99 l41 -119 -51 -166 c-78
-254 -121 -380 -114 -336 3 22 10 159 15 305 9 252 16 333 42 480 l12 65 7
-55 c4 -31 26 -109 48 -174z m596 -78 c-9 -45 -21 -171 -26 -278 -5 -107 -16
-249 -24 -315 l-14 -120 5 210 c2 116 11 262 18 326 17 142 50 312 54 282 2
-11 -4 -59 -13 -105z m2307 -105 l-7 -66 -87 -51 c-48 -28 -132 -75 -188 -105
-56 -30 -151 -87 -211 -127 -94 -62 -110 -70 -121 -57 -14 17 3 35 60 59 39
17 331 306 458 453 l89 103 7 -72 c4 -40 4 -102 0 -137z m-1332 92 c67 -34 70
-37 70 -71 0 -32 -2 -35 -22 -28 -13 3 -35 13 -50 20 -39 20 -68 18 -68 -5 0
-13 24 -35 73 -67 39 -26 73 -49 75 -50 2 -1 9 -38 16 -81 9 -60 16 -79 29
-81 16 -3 17 3 11 64 -4 40 -3 65 2 63 46 -19 343 -184 336 -187 -15 -5 -319
44 -464 74 -150 32 -139 12 -108 199 11 66 20 135 20 153 0 17 2 32 5 32 3 0
37 -16 75 -35z m290 -161 c73 -47 179 -139 230 -198 34 -38 33 -37 -58 22 -50
33 -146 90 -212 127 l-120 67 0 40 0 40 48 -27 c26 -16 76 -47 112 -71z
m-2279 -279 c7 -60 11 -159 10 -220 -1 -67 6 -158 17 -232 l18 -123 -25 -43
c-34 -57 -144 -214 -176 -252 l-25 -30 6 55 c3 30 24 154 46 275 34 185 41
247 45 391 5 163 4 173 -15 192 l-21 21 47 102 47 101 7 -63 c3 -35 12 -113
19 -174z m3309 198 c0 -5 -15 -16 -33 -26 l-32 -17 30 25 c33 27 35 28 35 18z
m78 -160 c-31 -182 -77 -395 -85 -403 -3 -3 -3 9 0 25 3 17 22 140 43 275 34
226 44 263 70 270 1 0 -12 -75 -28 -167z m1899 3 c-22 -18 -22 -18 -25 9 -2
15 4 49 14 74 l18 46 8 -55 c6 -49 5 -57 -15 -74z m-5645 -155 c23 -86 27
-154 9 -196 -16 -39 -23 -28 -56 100 -24 94 -34 232 -18 249 10 10 39 -60 65
-153z m5574 74 c-9 -14 -21 -25 -27 -25 -7 0 -6 8 3 23 8 12 18 29 23 37 6 10
10 11 13 2 2 -7 -3 -24 -12 -37z m-5359 -150 c-4 -108 -14 -184 -45 -335 -22
-107 -48 -262 -58 -345 l-18 -150 -63 -62 c-62 -62 -98 -78 -109 -49 -3 8 20
82 51 166 30 83 67 192 80 242 23 85 35 116 35 90 0 -7 7 -12 15 -12 19 0 19
23 1 58 -11 21 -12 45 -5 112 5 47 6 112 3 146 -6 58 -4 65 52 189 37 82 60
122 63 110 2 -11 1 -83 -2 -160z m5522 -36 c-16 -25 -29 -52 -29 -58 0 -7 -6
-19 -12 -26 -7 -8 -29 -34 -48 -59 -39 -52 -42 -50 -61 41 -12 59 -12 64 8 85
38 42 56 88 49 129 -5 33 -3 40 22 58 l27 20 36 -72 36 -71 -28 -47z m-139
101 c0 -12 -7 -35 -16 -52 -12 -24 -18 -28 -25 -17 -15 24 -10 67 9 78 25 15
32 13 32 -9z m-106 -95 c8 -40 -1 -65 -15 -44 -11 18 -11 79 0 79 5 0 12 -16
15 -35z m335 -98 l24 -44 -45 -46 c-24 -26 -47 -47 -51 -47 -3 0 0 15 8 34 9
20 12 48 8 70 -5 35 12 90 26 81 3 -2 17 -23 30 -48z m-4522 -24 c-3 -10 -5
-2 -5 17 0 19 2 27 5 18 2 -10 2 -26 0 -35z m-847 -39 c17 -49 20 -71 12 -87
-10 -23 -10 -21 -38 126 -10 48 4 29 26 -39z m5111 -165 l57 -231 -32 -13
c-17 -8 -35 -10 -40 -5 -17 17 -46 148 -56 255 -21 239 -21 225 -2 225 14 0
27 -41 73 -231z m-4458 -84 c25 -77 59 -212 77 -299 l33 -160 -18 -120 c-57
-389 -160 -797 -271 -1068 -64 -158 -158 -337 -171 -325 -2 2 6 55 16 118 22
129 46 366 61 606 8 125 23 227 64 440 75 383 106 640 106 875 0 109 3 136 23
183 l22 55 7 -82 c4 -56 21 -129 51 -223z m4577 192 c-38 -38 -54 -47 -62 -39
-9 9 2 24 45 63 31 28 58 58 58 67 1 9 4 4 6 -12 4 -25 -3 -37 -47 -79z
m-5125 33 c-7 -25 -14 -38 -14 -29 -1 18 20 82 25 77 2 -2 -3 -24 -11 -48z
m4880 -275 c4 -16 16 -58 27 -93 11 -35 18 -64 17 -66 -36 -24 -62 -37 -66
-32 -3 3 -14 96 -26 207 -19 197 -19 203 -2 258 l19 56 12 -150 c7 -82 15
-163 19 -180z m-5431 93 c-15 -81 -87 -309 -119 -378 l-16 -35 5 65 c6 80 42
220 92 358 44 124 63 120 38 -10z m491 -65 c-9 -66 -11 -63 -24 27 -6 44 -5
73 3 89 11 24 11 24 20 -16 5 -23 5 -68 1 -100z m5595 70 c-8 -3 -30 -12 -47
-19 -18 -7 -33 -11 -33 -8 0 7 63 33 80 33 13 -1 13 -1 0 -6z m-755 -209 c12
-109 13 -152 5 -192 -9 -41 -9 -62 3 -104 16 -55 26 -121 31 -199 5 -70 27
-163 42 -174 12 -9 70 -423 62 -447 -6 -18 -148 200 -179 274 -31 76 -36 118
-24 203 5 36 1 74 -13 136 -29 121 -45 289 -39 394 5 67 15 114 41 185 52 143
51 141 54 100 1 -19 9 -98 17 -176z m1548 159 c-14 -38 -65 -103 -120 -152
-64 -57 -95 -69 -45 -18 18 18 32 35 32 37 0 5 133 150 137 150 1 0 0 -8 -4
-17z m-5953 -125 c-13 -138 -59 -480 -66 -487 -13 -14 6 280 27 404 17 102 42
215 47 211 2 -3 -1 -60 -8 -128z m-514 -162 c-4 -70 -19 -217 -35 -325 -35
-229 -52 -407 -86 -886 -26 -359 -34 -440 -42 -431 -3 3 -9 96 -13 208 -7 162
-16 253 -49 453 -54 330 -64 480 -51 702 6 96 15 185 19 197 5 11 45 70 89
130 45 59 98 134 119 167 l38 58 8 -72 c5 -39 6 -130 3 -201z m1701 242 c-3
-8 -6 -5 -6 6 -1 11 2 17 5 13 3 -3 4 -12 1 -19z m10 -40 c-3 -8 -6 -5 -6 6
-1 11 2 17 5 13 3 -3 4 -12 1 -19z m-1620 -80 c-3 -8 -6 -5 -6 6 -1 11 2 17 5
13 3 -3 4 -12 1 -19z m-10 -60 c-3 -8 -6 -5 -6 6 -1 11 2 17 5 13 3 -3 4 -12
1 -19z m5168 -97 c9 -36 19 -72 22 -80 3 -9 -15 16 -40 54 -41 64 -43 71 -29
88 20 23 25 15 47 -62z m-3498 7 c-3 -7 -5 -2 -5 12 0 14 2 19 5 13 2 -7 2
-19 0 -25z m3276 2 c-10 -17 -19 -26 -21 -20 -4 10 25 50 35 50 2 0 -4 -14
-14 -30z m-5654 -166 c22 -37 26 -61 13 -81 -5 -8 -14 12 -24 52 -8 36 -14 65
-13 65 2 0 12 -16 24 -36z m286 -216 c0 -134 3 -279 7 -323 l8 -80 -34 110
c-45 144 -96 283 -135 369 -17 38 -31 72 -31 75 0 4 16 5 35 3 38 -5 116 34
138 69 6 10 12 19 12 19 0 0 0 -109 0 -242z m-119 -163 c72 -209 135 -462 194
-779 28 -148 29 -164 19 -248 -7 -49 -15 -86 -19 -81 -4 4 -17 60 -29 123 -61
315 -149 674 -245 993 -25 82 -43 154 -41 160 3 7 10 26 16 42 l11 30 25 -55
c14 -30 45 -113 69 -185z m901 198 c-3 -10 -5 -4 -5 12 0 17 2 24 5 18 2 -7 2
-21 0 -30z m985 -190 c3 -10 1 -52 -3 -93 -12 -119 -10 -350 6 -545 18 -228
18 -400 0 -590 -19 -199 -47 -416 -53 -410 -3 2 -18 116 -34 252 -48 403 -42
608 32 1141 17 117 30 224 30 237 0 29 15 34 22 8z m-1745 -275 c-3 -8 -6 -5
-6 6 -1 11 2 17 5 13 3 -3 4 -12 1 -19z m4999 -79 c-10 -44 -41 -87 -53 -75
-8 8 49 126 61 126 2 0 -2 -23 -8 -51z m1064 8 c21 -25 22 -27 5 -21 -23 9
-35 23 -35 43 0 8 1 12 3 10 1 -2 13 -17 27 -32z m-807 -41 c54 -77 92 -143
102 -174 7 -23 6 -23 -27 -9 -55 23 -116 65 -133 91 -12 19 -14 38 -9 90 4 36
10 66 15 66 4 0 28 -29 52 -64z m862 -36 c3 -6 -1 -7 -9 -4 -18 7 -21 14 -7
14 6 0 13 -4 16 -10z m-1155 -81 c-16 -36 -20 -40 -20 -19 0 25 28 76 36 67 2
-2 -5 -24 -16 -48z m126 16 c3 -19 12 -35 19 -35 15 0 42 -29 46 -51 5 -21 98
-101 166 -142 30 -19 53 -40 55 -52 4 -23 42 -32 63 -15 8 7 22 10 30 6 44
-16 187 -26 255 -16 91 13 204 61 247 105 19 19 43 35 53 35 13 0 20 7 20 19
0 14 6 17 23 14 19 -4 33 6 65 42 22 25 43 42 46 37 16 -26 27 -158 21 -257
-3 -61 -1 -136 4 -170 9 -49 8 -61 -4 -68 -22 -12 -18 -31 11 -66 14 -17 20
-31 14 -31 -6 0 -28 -16 -48 -35 -56 -52 -123 -99 -116 -81 3 9 2 22 -4 29 -6
6 -22 83 -37 170 -31 185 -31 187 -56 187 -15 0 -19 -7 -19 -39 0 -22 4 -41
10 -43 5 -1 16 -52 25 -112 18 -130 31 -180 50 -200 13 -13 9 -18 -30 -43 -44
-27 -59 -53 -32 -53 8 0 52 23 98 51 l84 50 -35 -36 c-53 -55 -114 -97 -232
-159 -70 -38 -122 -59 -155 -62 -49 -6 -259 31 -336 58 l-39 14 2 214 c0 118
-2 270 -6 337 -6 109 -9 123 -25 123 -17 0 -17 -17 -12 -325 5 -276 4 -325 -8
-325 -47 0 -178 111 -264 225 -28 36 -28 36 -7 50 32 23 44 102 42 288 -1 143
1 168 15 173 25 10 18 34 -10 34 -23 0 -25 3 -25 49 0 66 11 141 21 141 4 0
11 -16 15 -35z m-3909 -157 c-3 -7 -5 -2 -5 12 0 14 2 19 5 13 2 -7 2 -19 0
-25z m5070 -205 c-2 -37 -3 -9 -3 62 0 72 1 102 3 68 2 -34 2 -93 0 -130z
m-417 138 c0 -21 -105 -45 -190 -45 -85 0 -185 18 -195 35 -3 5 51 6 122 3 70
-3 153 -1 183 4 75 13 80 13 80 3z m-801 -148 c0 -133 -18 -246 -35 -235 -7 4
-17 48 -23 97 -6 50 -14 102 -17 116 -4 20 -1 28 14 31 14 4 23 21 32 57 6 28
16 51 21 51 5 0 9 -53 8 -117z m-4372 35 c-3 -8 -6 -5 -6 6 -1 11 2 17 5 13 3
-3 4 -12 1 -19z m5583 -229 c0 -11 -4 -17 -10 -14 -5 3 -10 13 -10 21 0 8 5
14 10 14 6 0 10 -9 10 -21z m132 -195 c20 -26 46 -70 57 -96 l20 -48 -54 58
c-29 31 -78 73 -108 92 -58 36 -71 52 -37 43 16 -4 20 0 20 22 l0 28 33 -25
c17 -14 49 -47 69 -74z m-6261 -67 c-13 -13 -15 33 -3 84 6 32 7 30 10 -20 2
-30 -2 -59 -7 -64z" />
                <path d="M4600 9145 c-10 -13 -11 -48 -2 -179 14 -210 58 -416 87 -416 9 0 16
-17 21 -45 5 -35 10 -45 25 -45 15 0 19 7 19 38 0 58 -27 212 -67 380 l-36
153 21 29 c28 38 28 50 -3 50 -20 0 -25 5 -25 25 0 28 -21 33 -40 10z" />
                <path d="M4996 9024 c-14 -37 3 -637 19 -676 4 -10 13 -18 21 -18 17 0 17 -12
2 388 -9 239 -15 322 -24 322 -6 0 -15 -7 -18 -16z" />
                <path d="M3960 6965 c0 -4 30 -69 68 -146 62 -128 92 -167 92 -120 0 32 -123
265 -142 269 -10 2 -18 0 -18 -3z" />
                <path d="M4730 6735 c0 -15 46 -31 125 -41 42 -6 47 -5 43 12 -6 35 -168 63
-168 29z" />
                <path d="M4105 6401 c-3 -5 -10 -46 -16 -90 -15 -109 7 -171 60 -171 17 0 13
36 -5 51 -13 11 -15 28 -11 94 3 44 8 90 12 103 6 18 4 22 -13 22 -12 0 -23
-4 -27 -9z" />
                <path d="M4620 6322 c0 -5 7 -30 16 -56 20 -59 12 -125 -22 -165 -32 -38 -31
-53 4 -49 38 4 72 73 72 145 0 67 -25 133 -51 133 -10 0 -19 -4 -19 -8z" />
                <path d="M3960 6178 c0 -96 15 -137 55 -154 45 -18 112 -18 131 1 22 22 48 18
82 -10 34 -28 92 -35 92 -10 0 8 -8 15 -18 15 -10 0 -25 9 -35 20 -16 20 -16
20 26 21 55 1 111 21 115 42 4 20 -9 21 -77 5 -45 -10 -53 -9 -70 7 -34 30
-70 -1 -38 -34 8 -9 1 -8 -20 3 -18 9 -52 16 -78 16 -41 0 -45 -2 -45 -24 0
-19 -4 -23 -19 -19 -37 9 -52 38 -58 112 -5 60 -9 71 -24 71 -17 0 -19 -8 -19
-62z" />
                <path d="M4475 6151 c-34 -20 -65 -62 -65 -86 0 -23 36 -18 57 8 11 14 34 26
56 30 55 9 87 47 51 61 -29 11 -69 6 -99 -13z" />
                <path d="M4386 5839 c-39 -21 -100 -22 -191 -4 -27 6 -37 0 -95 -57 -83 -81
-130 -151 -130 -195 0 -32 -1 -33 -40 -33 -33 0 -40 -3 -40 -20 0 -18 7 -20
63 -20 56 0 130 19 220 55 12 5 17 2 17 -8 0 -23 55 -32 185 -32 118 0 196 21
244 66 20 19 27 20 85 10 79 -14 181 -14 207 -1 10 6 19 19 19 29 0 16 -12 19
-112 25 -62 3 -157 9 -210 12 -90 6 -102 4 -167 -21 -50 -20 -77 -26 -98 -20
-64 17 -140 17 -179 0 -21 -9 -67 -27 -102 -40 l-62 -24 16 32 c19 36 71 105
122 158 l34 37 97 -5 c85 -5 102 -3 148 17 39 16 62 21 88 16 63 -12 126 -45
185 -96 55 -48 100 -65 100 -37 0 24 -128 125 -187 147 -85 32 -168 36 -217 9z
m174 -223 c0 -3 -24 -12 -52 -22 -29 -9 -60 -19 -68 -22 -8 -3 -12 -2 -9 2 6
7 108 45 122 46 4 0 7 -2 7 -4z m-275 -36 c14 -6 5 -9 -35 -9 -40 0 -49 3 -35
9 11 5 27 9 35 9 8 0 24 -4 35 -9z" />
                <path d="M4710 5456 c-47 -68 -154 -112 -295 -123 -94 -7 -179 11 -269 57
-106 54 -147 29 -53 -33 52 -34 135 -67 169 -67 28 0 21 -16 -12 -30 -18 -8
-30 -20 -30 -31 0 -23 24 -25 72 -4 20 8 70 18 112 24 63 8 93 6 168 -10 116
-24 120 -24 116 3 -2 18 -15 25 -68 39 -36 9 -58 18 -49 18 9 1 44 15 78 32
67 34 121 94 121 136 0 35 -33 29 -60 -11z" />
                <path d="M2380 6675 c0 -24 5 -35 15 -35 10 0 15 11 15 35 0 24 -5 35 -15 35
-10 0 -15 -11 -15 -35z" />
                <path d="M7530 3820 c-14 -4 -40 -8 -57 -9 -28 -1 -33 -5 -33 -26 0 -22 4 -25
38 -24 57 1 106 22 110 47 4 24 -12 27 -58 12z" />
                <path d="M7715 1084 c14 -170 58 -334 89 -334 19 0 19 0 0 80 -8 36 -24 123
-35 194 -22 142 -23 146 -46 146 -13 0 -14 -12 -8 -86z" />
                <path d="M6768 895 c-1 -129 -2 -252 -2 -272 -1 -28 3 -39 16 -41 31 -6 37 89
24 366 -7 144 -11 182 -22 182 -12 0 -14 -42 -16 -235z" />
                <path d="M7383 1038 c-10 -16 -7 -419 4 -513 7 -63 10 -70 31 -73 24 -4 24 -3
18 80 -18 249 -27 444 -21 479 5 31 4 39 -9 39 -8 0 -18 -6 -23 -12z" />
                <path d="M7524 957 c-6 -17 31 -252 51 -324 12 -42 20 -53 36 -53 17 0 20 4
15 23 -23 88 -47 214 -53 282 -7 64 -11 80 -26 83 -9 2 -20 -3 -23 -11z" />
                <path d="M7474 638 c3 -13 6 -26 6 -30 0 -5 7 -8 15 -8 17 0 18 4 9 38 -4 12
-13 22 -21 22 -11 0 -14 -6 -9 -22z" />
                <path d="M8360 8725 c-13 -14 -28 -25 -34 -25 -19 -1 -112 -73 -193 -150 -253
-242 -420 -495 -442 -670 -21 -161 30 -296 152 -405 56 -51 123 -92 305 -185
95 -49 134 -75 171 -116 93 -101 91 -158 -10 -446 -90 -255 -111 -344 -107
-453 5 -111 19 -140 106 -210 l62 -49 0 -76 c0 -137 12 -240 27 -240 11 0 13
27 12 140 -1 77 1 143 4 146 9 9 89 -49 129 -94 73 -81 78 -161 25 -412 -20
-91 -39 -202 -43 -247 -6 -78 -5 -83 13 -83 18 0 21 9 26 68 3 37 22 148 42
247 31 150 36 195 33 270 -6 130 -38 183 -158 265 -32 22 -61 44 -64 49 -9 14
21 174 54 286 28 99 54 174 165 475 70 189 102 311 110 421 16 192 -45 328
-175 394 -26 13 -130 45 -231 70 -269 68 -343 109 -370 207 -9 34 -8 55 5 106
37 152 147 363 265 510 138 173 146 182 169 182 17 0 22 6 22 25 0 20 -5 25
-23 25 -13 0 -34 -11 -47 -25z m-173 -202 c-70 -92 -116 -168 -173 -287 -85
-179 -106 -305 -64 -392 38 -77 125 -119 374 -179 81 -20 172 -47 201 -60 103
-45 167 -134 184 -258 18 -129 -14 -267 -139 -592 -48 -126 -100 -268 -115
-315 -34 -107 -75 -285 -75 -326 0 -17 -3 -34 -6 -37 -15 -15 -95 58 -121 110
-42 88 -32 152 72 456 77 224 88 262 92 342 5 79 3 97 -17 143 -34 78 -107
138 -274 223 -173 88 -240 133 -298 198 -94 105 -130 241 -94 363 24 83 97
221 173 327 64 89 311 357 320 347 2 -2 -16 -30 -40 -63z" />
                <path d="M8390 5640 c0 -20 5 -30 15 -30 10 0 15 10 15 30 0 20 -5 30 -15 30
-10 0 -15 -10 -15 -30z" />
                <path d="M8400 5555 c0 -8 7 -15 15 -15 8 0 15 7 15 15 0 8 -7 15 -15 15 -8 0
-15 -7 -15 -15z" />
                <path d="M5443 5348 c8 -71 66 -270 128 -435 l50 -135 -17 -98 c-15 -86 -16
-109 -5 -169 13 -73 26 -98 170 -325 111 -173 160 -303 181 -480 6 -51 10
-241 9 -450 -1 -237 2 -385 10 -429 l12 -69 -48 -41 c-78 -70 -90 -77 -122
-77 l-31 0 0 74 c0 93 -16 255 -36 366 -32 180 -65 272 -90 248 -2 -3 6 -70
20 -149 14 -79 29 -207 35 -284 10 -125 22 -889 15 -882 -2 2 -19 82 -38 178
-55 272 -81 521 -111 1051 -6 106 -6 108 19 132 31 28 33 56 5 63 -19 5 -20
10 -14 57 11 80 33 156 61 213 27 53 26 73 -6 73 -43 0 -90 -103 -116 -253
-14 -75 -15 -136 -11 -332 15 -577 78 -1013 202 -1395 45 -140 68 -270 46
-270 -15 0 -14 -25 4 -59 26 -51 35 -151 46 -495 5 -186 14 -347 20 -357 11
-22 42 -25 58 -6 8 11 40 402 41 505 0 15 6 22 20 22 12 0 20 7 20 18 0 11 17
-2 49 -39 27 -30 81 -77 120 -103 39 -26 73 -51 76 -56 9 -15 51 -12 65 4 24
30 7 60 -63 107 -85 57 -128 98 -182 174 -91 128 -105 172 -176 555 l-41 225
5 205 c3 127 10 220 18 245 8 26 37 64 81 108 37 37 71 67 76 67 10 0 98 -351
116 -465 13 -83 13 -102 -6 -235 -26 -188 -28 -418 -5 -513 25 -100 104 -247
133 -247 20 0 18 6 -29 101 -56 111 -72 185 -72 334 0 121 16 299 23 258 2
-14 10 -23 22 -23 27 0 36 73 22 191 -9 79 -9 113 3 185 26 150 24 147 50 88
42 -95 115 -153 142 -111 4 6 8 147 8 312 0 165 4 433 9 595 9 313 0 531 -30
710 -9 52 -18 112 -21 132 -4 27 -10 38 -25 40 -16 2 -24 20 -43 93 -33 130
-72 216 -191 417 -58 97 -118 208 -134 246 -48 113 -58 228 -33 370 4 27 2 32
-15 32 -32 0 -42 -23 -53 -116 -20 -179 12 -284 166 -544 128 -216 166 -298
209 -455 20 -71 47 -159 60 -195 31 -83 46 -267 46 -562 0 -184 -2 -219 -16
-232 -8 -9 -16 -16 -17 -16 -1 0 -3 64 -3 143 -3 323 -70 525 -317 959 -190
333 -312 591 -300 636 10 42 83 226 94 237 5 5 9 19 9 32 0 18 -6 23 -26 23
-22 0 -31 -11 -70 -95 -24 -52 -44 -99 -44 -105 0 -5 -4 -10 -8 -10 -16 0
-181 477 -182 523 0 9 -7 17 -16 17 -14 0 -16 -8 -11 -52z m397 -1034 c29 -54
89 -161 132 -237 220 -385 282 -566 295 -858 8 -195 6 -204 -63 -258 -30 -24
-56 -42 -58 -40 -68 103 -106 169 -106 181 0 9 -5 20 -11 24 -8 4 -9 71 -4
223 8 237 -3 402 -36 529 -27 106 -103 258 -210 424 -51 78 -98 158 -105 177
-14 37 -19 163 -8 174 4 4 32 -49 64 -116 31 -68 81 -168 110 -223z m239
-1405 l20 -36 -28 -27 -29 -28 -5 29 c-3 15 -8 55 -12 88 l-6 60 20 -25 c11
-14 29 -41 40 -61z m256 -276 l1 -316 -23 49 c-12 27 -29 83 -38 123 -14 68
-14 82 5 210 11 75 20 152 20 171 0 28 22 80 33 80 1 0 2 -142 2 -317z m-96
161 l-12 -79 -12 35 c-27 78 -27 77 2 104 15 14 28 24 30 22 2 -2 -2 -38 -8
-82z m-64 -145 l25 -104 -17 -114 c-12 -81 -19 -107 -24 -90 -4 13 -28 102
-54 197 l-46 174 38 33 c28 24 40 30 45 20 4 -7 19 -59 33 -116z" />
                <path d="M6699 5258 c-1 -30 -2 -31 -8 -8 -4 16 -15 26 -30 28 -23 4 -24 2
-18 -46 3 -28 24 -99 47 -159 23 -59 52 -145 65 -190 62 -208 259 -667 292
-680 28 -11 24 9 -22 104 -50 105 -189 443 -182 443 2 0 45 -58 97 -130 51
-71 99 -130 106 -130 26 0 14 38 -43 126 -198 312 -248 417 -263 555 -5 52
-10 100 -10 107 0 6 -7 12 -15 12 -10 0 -15 -11 -16 -32z" />
                <path d="M3490 4425 c0 -78 3 -95 15 -95 12 0 15 17 15 95 0 78 -3 95 -15 95
-12 0 -15 -17 -15 -95z" />
                <path d="M3230 4190 c0 -82 3 -100 15 -100 12 0 15 18 15 100 0 82 -3 100 -15
100 -12 0 -15 -18 -15 -100z" />
                <path d="M1271 3333 c-130 -136 -239 -303 -380 -583 -159 -313 -258 -585 -367
-1007 -44 -169 -150 -645 -163 -733 -4 -26 -19 -62 -34 -81 -37 -49 -115 -210
-172 -353 -48 -123 -125 -403 -125 -456 0 -53 26 -35 40 28 21 97 77 285 115
389 38 101 136 316 141 310 2 -2 -2 -37 -10 -78 -8 -41 -17 -104 -21 -141 -5
-57 -4 -68 8 -68 9 0 21 19 31 48 24 75 56 209 65 271 7 55 7 55 15 -49 13
-183 -25 -482 -89 -706 -30 -102 -31 -124 -6 -124 14 0 23 16 40 73 29 99 67
274 82 377 16 110 16 433 1 530 -12 73 -11 81 32 295 99 482 223 905 361 1225
68 160 226 455 310 581 46 69 120 164 164 210 45 46 81 90 81 97 0 6 -12 12
-27 12 -21 0 -43 -16 -92 -67z" />
                <path d="M2930 2995 c0 -16 6 -25 15 -25 9 0 15 9 15 25 0 16 -6 25 -15 25 -9
0 -15 -9 -15 -25z" />
                <path d="M5400 2692 c0 -27 34 -102 46 -102 18 0 18 6 -2 63 -9 26 -22 47 -30
47 -8 0 -14 -4 -14 -8z" />
                <path d="M5450 2543 c-1 -30 55 -183 67 -183 17 0 17 -1 -14 102 -16 54 -31
88 -40 88 -7 0 -13 -3 -13 -7z" />
                <path d="M4974 2323 c-3 -10 -12 -29 -20 -43 -35 -60 -91 -174 -160 -326 -69
-154 -192 -402 -319 -644 -61 -117 -68 -150 -32 -150 17 1 33 20 71 85 95 163
259 364 489 599 l128 131 -94 -128 c-109 -149 -122 -170 -114 -191 13 -34 43
-14 102 67 33 45 88 111 123 148 36 39 62 75 62 88 0 12 16 46 36 75 41 63 42
90 1 94 -24 3 -49 -18 -193 -160 -91 -90 -211 -215 -267 -278 -55 -63 -105
-119 -110 -125 -5 -5 14 35 41 91 28 56 92 193 142 305 51 112 109 236 131
275 21 39 39 79 39 88 0 23 -49 22 -56 -1z" />
                <path d="M5530 2265 c0 -8 7 -15 15 -15 8 0 15 7 15 15 0 8 -7 15 -15 15 -8 0
-15 -7 -15 -15z" />
                <path d="M5544 2218 c3 -13 6 -29 6 -35 0 -7 7 -13 15 -13 16 0 18 12 9 48 -4
12 -13 22 -21 22 -11 0 -14 -6 -9 -22z" />
                <path d="M3490 2185 c0 -16 6 -25 15 -25 9 0 15 9 15 25 0 16 -6 25 -15 25 -9
0 -15 -9 -15 -25z" />
                <path d="M8105 2143 c-164 -205 -325 -438 -325 -470 0 -7 7 -13 15 -13 14 0
14 -3 0 -30 -20 -38 -19 -50 3 -50 12 0 36 34 77 108 87 158 148 254 226 358
38 51 69 102 69 113 0 33 -32 25 -65 -16z" />
                <path d="M3490 2010 c0 -11 7 -20 15 -20 8 0 15 9 15 20 0 11 -7 20 -15 20 -8
0 -15 -9 -15 -20z" />
                <path d="M5620 1935 c0 -8 7 -15 15 -15 8 0 15 7 15 15 0 8 -7 15 -15 15 -8 0
-15 -7 -15 -15z" />
                <path d="M1160 1251 c0 -29 4 -41 14 -41 8 0 16 6 18 12 7 21 92 -255 188
-612 89 -330 149 -528 177 -582 11 -24 20 -28 53 -28 22 0 40 5 40 10 0 36
-112 495 -165 675 -75 253 -107 335 -131 335 -18 0 -18 -24 1 -60 50 -97 246
-826 232 -864 -6 -16 -65 178 -166 549 -95 348 -148 518 -184 594 -17 36 -28
47 -49 49 -27 3 -28 1 -28 -37z" />
                <path d="M6437 789 c-56 -43 -136 -247 -138 -349 -1 -83 -12 -125 -33 -125
-15 0 -23 -14 -37 -65 -10 -36 -34 -103 -53 -148 -20 -46 -36 -88 -36 -93 0
-5 11 -9 25 -9 19 0 29 10 45 43 11 23 18 34 15 24 -18 -64 -18 -67 4 -67 27
0 38 23 66 132 l22 91 17 -74 c32 -146 34 -149 66 -149 35 0 36 8 14 73 -8 25
-28 112 -43 193 -21 113 -26 160 -20 198 14 87 50 185 93 249 34 52 41 58 44
40 2 -15 10 -23 23 -23 22 0 24 15 7 53 -16 33 -45 35 -81 6z" />
                <path d="M2830 765 c0 -8 7 -15 15 -15 8 0 15 7 15 15 0 8 -7 15 -15 15 -8 0
-15 -7 -15 -15z" />
        </g>
</svg>