<?xml version="1.0" standalone="no"?>
<!DOCTYPE svg PUBLIC "-//W3C//DTD SVG 20010904//EN" "http://www.w3.org/TR/2001/REC-SVG-20010904/DTD/svg10.dtd">
<svg version="1.0" xmlns="http://www.w3.org/2000/svg" width="1024.000000pt" height="1024.000000pt"
    viewBox="0 0 1024.000000 1024.000000" preserveAspectRatio="xMidYMid meet">

    <g transform="translate(0.000000,1024.000000) scale(0.100000,-0.100000)" fill="#000000" stroke="none">
        <path d="M4644 9889 c-143 -24 -258 -75 -579 -256 -376 -212 -494 -291 -620
-418 -143 -144 -252 -323 -359 -589 -20 -48 -62 -123 -94 -169 -73 -101 -115
-175 -144 -253 -19 -54 -22 -86 -28 -379 -8 -335 -13 -380 -68 -615 -20 -88
-27 -141 -27 -225 0 -126 15 -184 72 -267 l34 -52 -18 -33 c-9 -18 -46 -72
-81 -120 -305 -422 -366 -547 -366 -743 0 -126 22 -195 128 -402 46 -90 92
-190 102 -223 26 -88 24 -221 -3 -310 -41 -131 -81 -183 -326 -430 -240 -242
-332 -351 -378 -450 -85 -180 -78 -358 18 -497 l25 -37 -77 -88 c-200 -227
-299 -428 -504 -1016 -174 -500 -268 -835 -415 -1477 -83 -366 -121 -543 -150
-707 l-23 -133 21 0 c20 0 23 10 39 103 37 220 235 1090 308 1355 129 470 271
898 411 1247 129 321 216 464 384 633 61 61 116 112 120 112 5 0 15 -24 22
-52 32 -139 120 -258 282 -383 35 -28 77 -68 92 -90 41 -59 70 -150 76 -235 9
-153 -39 -279 -193 -508 -59 -90 -112 -159 -116 -155 -4 4 -32 51 -62 103 -30
53 -94 156 -142 230 -49 74 -126 195 -172 269 -90 143 -119 182 -161 215 -15
11 -5 -4 21 -34 27 -30 74 -97 105 -150 30 -52 99 -162 152 -245 53 -82 132
-210 175 -282 l78 -133 -37 -69 c-43 -82 -71 -185 -81 -296 -17 -201 74 -388
227 -464 77 -39 103 -40 52 -2 -60 44 -90 81 -121 146 -24 53 -28 72 -28 155
0 106 26 204 72 274 l26 40 28 -56 c16 -31 47 -103 70 -160 41 -101 42 -106
42 -223 0 -76 -8 -172 -22 -260 -69 -439 -71 -704 -9 -1027 9 -52 13 -58 35
-58 19 0 23 4 19 18 -10 31 -35 205 -47 327 -15 150 -6 382 21 565 11 74 25
173 31 220 15 119 15 119 51 69 17 -24 87 -103 156 -176 201 -213 264 -306
316 -472 46 -146 32 -323 -31 -393 -31 -35 4 -17 39 20 47 47 103 148 124 220
25 83 15 181 -24 259 l-32 62 65 -30 c76 -34 210 -74 280 -83 l50 -6 -74 36
c-50 25 -98 60 -153 112 -65 62 -87 91 -123 166 -57 116 -75 189 -74 296 1
121 13 155 23 65 24 -209 131 -391 294 -499 97 -63 150 -88 310 -141 143 -48
210 -85 252 -138 12 -15 26 -24 32 -21 6 4 8 2 5 -3 -4 -6 3 -32 14 -58 28
-63 24 -179 -7 -243 -12 -23 -16 -38 -9 -32 7 6 23 34 36 63 20 44 23 69 24
162 0 106 -1 113 -37 186 -27 58 -58 100 -125 170 -98 103 -133 157 -157 238
-30 101 -13 228 43 339 31 61 130 206 136 200 2 -2 -11 -36 -30 -75 -121 -254
-91 -500 84 -686 66 -71 135 -127 154 -127 6 0 -8 14 -31 31 -123 91 -179 267
-141 451 18 86 83 208 180 339 136 183 183 276 198 394 l7 60 12 -40 c15 -50
15 -167 1 -220 -6 -22 -37 -97 -70 -166 -86 -184 -105 -284 -75 -394 13 -50
42 -115 52 -115 2 0 -2 13 -10 29 -25 47 -28 101 -13 177 17 78 44 138 117
254 116 186 157 303 146 422 -8 90 -31 147 -122 308 -147 257 -187 372 -187
525 1 113 16 159 126 381 47 93 93 194 103 224 10 30 20 57 21 59 1 2 59 -11
130 -28 196 -46 626 -140 675 -146 98 -12 -341 112 -652 185 l-136 32 1 116
c0 159 -21 228 -140 445 -30 55 -37 79 -38 125 -1 55 28 172 43 172 4 0 36
-35 72 -77 167 -197 420 -422 860 -764 128 -100 239 -186 246 -192 29 -23 9
16 -30 59 l-41 45 59 56 c32 31 140 126 239 211 209 181 429 397 503 496 29
38 52 67 52 64 0 -2 -9 -44 -20 -94 -43 -193 -36 -380 20 -544 17 -48 30 -90
30 -93 0 -2 -10 -7 -22 -9 -13 -3 -75 -17 -138 -31 -63 -15 -169 -38 -235 -52
-146 -31 -277 -66 -271 -72 2 -2 37 3 78 11 41 9 182 34 314 56 131 22 253 44
271 49 30 9 34 7 54 -26 12 -19 78 -94 146 -167 185 -196 230 -299 221 -501
-7 -129 -26 -179 -133 -340 -54 -81 -82 -132 -78 -142 4 -11 2 -14 -5 -9 -11
7 -14 3 -16 -26 -1 -7 -5 -16 -10 -19 -17 -13 -12 -171 8 -222 23 -60 31 -57
10 3 -11 31 -15 67 -12 117 6 94 42 167 144 293 98 121 123 162 146 233 32
104 17 238 -37 336 -16 27 -19 38 -9 30 18 -15 66 -107 82 -159 23 -69 31
-172 21 -249 -13 -108 -42 -186 -126 -347 -87 -167 -129 -286 -143 -403 -6
-47 -19 -138 -28 -201 -45 -304 7 -539 162 -737 86 -110 217 -199 320 -218 20
-4 36 -10 36 -14 0 -3 -9 -35 -20 -69 -12 -38 -20 -92 -20 -132 0 -60 -7 -86
-60 -218 -33 -83 -60 -153 -60 -157 0 -3 10 -5 21 -3 17 2 29 22 55 88 46 115
54 133 58 129 2 -2 9 -49 16 -104 6 -55 16 -104 21 -110 6 -6 7 18 2 65 -4 41
-8 147 -8 235 0 184 6 204 108 377 62 106 87 134 87 99 0 -69 24 -115 98 -193
160 -168 370 -261 587 -262 144 0 253 38 415 147 155 103 240 195 240 259 0
15 4 28 8 28 11 0 97 -100 137 -160 49 -73 74 -148 101 -305 14 -77 34 -175
45 -217 19 -70 24 -78 46 -78 20 0 23 4 18 21 -14 45 -45 154 -45 160 0 8 45
-5 200 -60 82 -29 131 -41 171 -41 64 0 87 16 70 48 -18 35 -92 94 -155 123
-93 44 -99 35 -7 -12 86 -43 166 -109 159 -131 -3 -8 -24 -14 -51 -16 -35 -2
-86 10 -214 54 -92 31 -171 59 -175 63 -4 3 -14 53 -24 111 -9 58 -24 131 -34
162 -27 86 -101 198 -181 272 l-70 65 -11 101 c-8 74 -8 146 -1 263 17 243 1
297 -111 385 -36 28 -34 33 63 161 156 208 330 384 434 438 23 12 38 22 34 23
-4 0 -22 -7 -40 -16 -121 -63 -354 -307 -492 -516 -21 -32 -40 -58 -42 -58
-15 0 -113 65 -113 75 0 35 23 124 41 163 15 30 106 125 308 319 l286 276 36
-79 c49 -108 71 -173 119 -354 52 -193 117 -496 180 -835 27 -143 80 -413 118
-600 39 -187 73 -383 77 -435 8 -113 12 -130 31 -130 34 0 10 182 -96 720 -44
223 -105 536 -135 695 -96 497 -177 801 -265 987 l-29 62 108 105 c81 79 112
116 121 146 7 22 32 62 56 88 47 52 69 104 61 144 -3 15 4 47 15 72 27 62 20
116 -25 216 -20 44 -40 101 -46 126 -14 62 -41 444 -41 581 0 62 -5 130 -10
150 -8 27 -49 78 -150 185 -77 81 -139 152 -137 158 2 5 67 44 145 85 175 93
271 155 282 184 4 12 6 38 5 57 -2 18 -4 39 -4 44 -1 6 -20 19 -43 30 -40 19
-72 21 -93 5 -5 -4 -23 -12 -40 -17 -16 -6 -91 -48 -165 -93 -74 -46 -159 -98
-189 -117 -30 -18 -62 -33 -71 -33 -22 0 -118 59 -205 125 -76 58 -158 105
-184 105 -12 0 -20 -16 -29 -53 -28 -122 -2 -201 96 -287 46 -40 59 -57 51
-66 -6 -7 -16 -11 -22 -9 -7 2 -25 6 -40 9 -21 5 -33 17 -47 51 -40 92 -116
87 -180 -13 -13 -20 -20 -22 -56 -16 l-41 6 -6 82 c-10 159 -62 255 -241 445
-132 139 -179 206 -223 317 -26 65 -28 78 -27 219 0 140 2 156 32 248 75 232
99 500 59 646 -60 219 -183 382 -423 561 -55 41 -112 84 -127 95 -25 19 -26
22 -16 75 16 80 4 180 -37 321 -82 282 -99 361 -134 633 -25 198 -41 258 -92
360 -52 104 -86 153 -163 235 -45 49 -74 92 -109 165 -61 131 -136 241 -237
352 -46 50 -108 131 -138 180 -75 124 -200 247 -306 301 -289 149 -969 269
-1251 222z m527 -69 c455 -72 728 -171 873 -316 44 -44 116 -140 116 -155 0
-4 -60 32 -132 80 -131 87 -243 154 -223 134 6 -5 80 -59 165 -119 158 -112
310 -248 405 -364 47 -58 155 -228 155 -244 0 -4 -30 17 -67 46 -102 81 -163
124 -238 167 -63 37 -70 44 -95 104 -36 84 -93 169 -160 237 -30 31 -39 38
-19 16 80 -90 160 -218 183 -293 7 -21 6 -21 -51 6 -32 16 -98 43 -148 61 -49
19 -94 37 -99 41 -5 4 -21 37 -36 73 -29 68 -117 205 -171 266 l-31 35 27 -38
c113 -158 197 -308 182 -323 -3 -4 -44 5 -89 19 -46 14 -121 35 -168 46 -46
11 -86 25 -88 31 -3 9 -6 9 -11 1 -5 -8 -29 -7 -86 4 -44 9 -119 18 -168 22
-51 3 -90 11 -92 17 -1 6 -8 44 -14 84 -11 72 -79 298 -87 290 -2 -3 10 -44
26 -93 31 -92 60 -216 60 -258 l0 -24 -182 -7 c-101 -3 -196 -9 -212 -13 l-29
-6 6 114 c4 63 9 143 11 179 4 48 1 40 -9 -30 -7 -52 -14 -132 -14 -176 l-1
-82 -67 -11 c-76 -13 -288 -60 -309 -68 -48 -18 41 229 154 427 14 25 21 41
15 35 -6 -5 -31 -46 -57 -90 -52 -90 -100 -207 -126 -310 -10 -38 -21 -70 -26
-71 -5 -1 -68 -21 -141 -43 -72 -23 -134 -41 -137 -41 -23 0 115 268 195 380
34 47 51 76 39 65 -62 -56 -171 -247 -250 -442 -5 -13 -15 -23 -22 -23 -7 0
-64 -22 -125 -49 -62 -27 -113 -48 -113 -45 0 2 11 28 24 58 36 80 102 190
168 281 33 44 43 62 23 40 -63 -69 -174 -245 -202 -320 -27 -71 -29 -73 -98
-110 -38 -22 -105 -63 -148 -92 -90 -62 -91 -61 -23 77 46 93 126 217 188 292
23 28 80 73 141 111 114 72 451 267 461 267 4 0 4 -5 0 -12 -4 -7 -3 -8 5 -4
6 4 9 11 6 15 -2 5 48 36 113 69 117 60 217 94 328 112 94 15 289 3 495 -30z
m66 -505 c187 -25 376 -69 563 -133 203 -69 322 -122 312 -137 -2 -3 -2 -9 1
-13 2 -4 2 -1 0 6 -5 21 31 6 134 -56 108 -64 266 -189 258 -202 -3 -6 0 -7 8
-4 17 6 148 -131 219 -231 99 -138 136 -242 163 -460 9 -71 23 -172 31 -223 9
-52 14 -95 12 -98 -5 -4 -50 185 -73 301 l-14 70 6 -60 c8 -83 54 -269 114
-460 28 -88 61 -195 75 -237 19 -60 24 -99 24 -178 0 -55 -3 -100 -7 -100 -11
0 -88 63 -107 88 -18 23 -17 24 5 50 l24 27 -25 -22 -26 -23 -68 96 -67 95 31
36 c38 43 50 73 49 121 -1 36 -2 36 -9 -9 -9 -52 -30 -96 -57 -121 -17 -16
-23 -12 -118 90 -54 59 -144 149 -200 200 -55 52 -99 98 -97 104 1 5 -1 7 -6
4 -5 -3 -56 30 -114 73 l-106 77 35 28 c82 66 90 152 39 404 -19 92 -44 234
-56 316 -19 134 -55 284 -65 274 -2 -2 4 -31 15 -64 10 -34 28 -130 40 -215
12 -85 35 -215 51 -289 17 -74 33 -171 36 -215 5 -69 2 -88 -17 -133 -13 -30
-36 -62 -53 -74 l-31 -22 -113 59 c-62 32 -113 62 -113 66 0 5 11 25 25 45 55
81 57 144 11 332 -19 77 -45 204 -57 283 -12 79 -24 139 -26 133 -7 -21 37
-277 73 -428 46 -194 40 -268 -28 -343 l-21 -22 -46 23 c-25 13 -79 35 -120
50 -41 15 -78 29 -82 32 -5 3 2 20 15 37 54 72 58 153 15 327 -17 69 -46 215
-64 325 -31 183 -61 312 -70 303 -2 -2 5 -34 15 -71 11 -37 31 -143 45 -235
14 -92 42 -234 62 -316 40 -166 41 -232 5 -302 -32 -63 -38 -65 -117 -43 -184
51 -288 63 -540 63 -241 0 -357 -10 -558 -50 -90 -18 -99 -14 -127 51 -35 83
-35 104 10 690 6 72 13 150 16 175 4 25 4 42 0 39 -10 -9 -34 -253 -52 -529
-18 -282 -14 -338 32 -405 28 -42 29 -45 9 -45 -8 0 -68 -17 -133 -39 -200
-66 -355 -152 -546 -305 -48 -39 -96 -70 -105 -69 -10 2 -11 0 -3 -3 8 -4 -33
-53 -115 -137 -130 -134 -294 -342 -393 -500 -45 -72 -59 -87 -80 -87 -60 0
-109 75 -110 167 0 29 11 121 24 205 37 228 40 302 22 488 -22 229 -25 249
-21 140 3 -52 9 -138 15 -190 14 -115 6 -237 -26 -435 -29 -179 -30 -246 -5
-301 21 -45 64 -84 93 -84 11 0 18 -3 16 -8 -83 -193 -92 -210 -110 -201 -44
24 -88 81 -104 135 -16 55 -15 57 20 222 59 274 60 288 61 587 0 273 8 353 35
370 6 3 10 15 10 26 0 54 126 241 289 429 l30 35 -5 -40 c-4 -38 -4 -37 10 10
11 41 27 62 82 113 85 78 248 188 365 248 49 24 91 44 93 44 3 0 3 -8 0 -17
-3 -10 2 -6 10 8 11 19 44 37 133 71 260 101 573 180 768 194 44 4 82 8 84 10
12 11 364 2 468 -11z m-1665 -75 c-65 -87 -143 -217 -179 -302 -32 -73 -48
-93 -140 -186 -115 -113 -117 -112 -42 43 74 155 161 277 276 393 57 56 108
102 113 102 5 0 -7 -22 -28 -50z m1793 -990 c162 -28 191 -37 205 -68 38 -84
130 -154 271 -207 110 -41 146 -64 188 -124 60 -85 62 -86 32 -26 -32 65 -64
99 -156 165 -68 48 -132 106 -146 132 -9 16 -7 17 17 8 15 -6 39 -17 53 -24
14 -8 46 -22 71 -32 25 -11 60 -32 78 -48 36 -31 76 -101 67 -116 -3 -5 4 -24
15 -42 11 -18 30 -62 41 -98 20 -61 69 -262 69 -281 0 -5 -21 8 -47 28 -69 52
-138 81 -227 94 -112 17 -154 4 -398 -118 -230 -115 -282 -154 -311 -234 l-16
-44 5 40 c4 35 3 37 -6 15 -6 -13 -10 -39 -8 -57 l3 -32 140 63 c188 84 229
106 371 192 192 117 248 125 431 57 l72 -27 25 -82 c14 -44 54 -134 88 -200
l63 -119 0 -195 c-1 -292 -27 -412 -137 -635 -32 -66 -52 -111 -43 -101 27 35
102 189 121 248 10 32 19 56 21 54 5 -4 -31 -244 -63 -425 -33 -188 -66 -299
-115 -390 -135 -250 -551 -682 -756 -785 -155 -77 -327 -74 -492 9 -37 18
-129 74 -206 125 -421 278 -600 456 -720 713 -44 96 -138 338 -132 343 1 2 32
-35 67 -82 35 -46 73 -92 83 -102 11 -9 -10 22 -46 70 -156 207 -194 299 -257
633 -26 137 -46 251 -45 253 1 2 22 -10 46 -26 24 -16 65 -36 90 -46 26 -9 55
-26 64 -37 18 -19 17 -20 -11 -52 -24 -26 -24 -28 -3 -9 37 32 56 29 34 -5
l-18 -28 21 19 c31 27 55 15 42 -21 l-10 -28 19 23 c28 33 44 28 36 -10 -7
-33 -7 -33 10 -10 9 12 25 22 36 22 17 0 19 -4 13 -22 -6 -22 -6 -22 13 -5 11
9 29 17 41 17 19 0 22 -4 17 -27 l-6 -28 15 27 c13 22 27 28 88 38 78 13 263
68 255 76 -3 3 -47 -8 -98 -23 -169 -50 -335 -31 -421 48 -37 36 -36 37 57 69
l55 19 16 -37 c34 -82 99 -119 187 -108 77 11 124 39 149 91 12 25 27 45 34
45 22 0 104 -39 104 -49 0 -6 -12 -16 -26 -24 -26 -13 -25 -14 17 -14 24 0 36
1 27 4 -21 5 -23 19 -6 29 6 4 18 -2 26 -12 9 -12 13 -13 10 -4 -6 20 -85 79
-150 112 -84 43 -162 59 -285 60 -109 1 -113 2 -138 28 l-27 28 52 11 c149 32
309 2 441 -84 38 -25 69 -43 69 -40 0 2 -33 28 -72 56 -68 47 -70 51 -38 45
30 -5 31 -5 11 4 -41 18 -242 50 -310 50 -79 0 -183 -23 -230 -51 -19 -11 -43
-18 -53 -15 -15 3 -17 1 -9 -8 8 -10 2 -17 -23 -31 l-34 -19 -39 29 -38 28 39
-40 c37 -40 37 -41 16 -48 -31 -10 -84 2 -104 24 -12 13 -18 45 -22 112 l-7
94 56 58 c112 116 186 125 472 53 232 -58 289 -68 349 -64 l49 3 -48 53 c-54
60 -79 70 -39 15 22 -31 18 -28 -20 12 -26 28 -45 45 -42 39 3 -6 -11 -3 -32
7 -62 30 -347 91 -431 92 -130 2 -222 -61 -284 -191 -16 -35 -31 -62 -32 -60
-2 2 -8 71 -14 153 -13 166 -4 282 23 297 29 16 61 73 76 138 l16 65 90 62
c110 77 156 128 193 218 l29 70 89 38 c176 77 468 143 733 166 149 14 384 5
525 -19z m260 -61 c19 -7 36 -23 45 -43 8 -17 37 -55 64 -85 l51 -54 -45 28
c-60 37 -98 69 -132 112 -42 53 -38 62 17 42z m78 -30 c13 -6 31 -23 40 -38
16 -28 71 -81 137 -134 l35 -28 -63 31 c-68 33 -140 98 -166 149 -18 34 -17
36 17 20z m-1733 -183 c-40 -85 -130 -165 -280 -251 -8 -5 27 35 78 89 54 55
102 115 113 141 14 31 32 52 62 69 51 31 58 19 27 -48z m2129 -35 c10 -20 40
-97 66 -171 87 -246 174 -390 329 -545 86 -85 287 -242 247 -192 -7 9 -9 17
-3 17 12 0 33 -25 26 -32 -2 -3 17 -18 43 -33 26 -16 58 -35 71 -43 43 -28 21
-5 -40 44 -216 167 -371 344 -469 536 -59 116 -146 345 -135 355 4 5 116 -79
183 -137 28 -24 56 -67 91 -138 141 -284 298 -467 618 -720 115 -90 284 -266
347 -360 58 -87 120 -217 143 -298 9 -33 18 -116 21 -189 6 -154 -2 -192 -84
-400 -58 -145 -85 -196 -58 -110 18 61 42 195 51 291 8 89 -9 221 -43 328 -25
79 -97 246 -106 246 -3 0 15 -44 39 -98 116 -259 127 -495 37 -795 l-18 -58 0
153 c0 205 -31 316 -140 503 -98 167 -192 279 -355 418 -332 285 -465 422
-576 592 -104 161 -155 285 -204 499 -34 147 -68 258 -105 343 -28 62 -7 57
24 -6z m-2233 12 c-21 -41 -64 -92 -126 -148 -44 -40 -51 -44 -36 -20 70 111
207 253 162 168z m2368 -133 c90 -284 213 -489 406 -677 52 -51 90 -93 85 -93
-19 0 -157 115 -236 197 -139 145 -238 311 -304 513 -15 47 -38 109 -51 139
-13 29 -24 57 -24 62 0 5 22 -5 49 -23 46 -30 50 -37 75 -118z m-2525 18 c-80
-102 -131 -233 -150 -388 -10 -89 -10 -108 21 -460 7 -78 7 -116 0 -118 -6 -2
-6 -10 1 -23 22 -42 -22 -311 -77 -471 -66 -190 -136 -322 -409 -763 -215
-348 -282 -620 -211 -860 l15 -50 -29 35 c-55 65 -120 208 -136 300 -41 228
14 488 167 786 33 64 55 113 51 110 -18 -11 -152 -294 -181 -381 -45 -135 -65
-276 -58 -409 7 -149 21 -201 89 -333 79 -155 101 -232 101 -357 1 -164 -25
-245 -175 -556 -49 -102 -103 -220 -118 -262 -88 -234 -76 -462 32 -646 20
-35 98 -121 198 -222 175 -175 211 -224 246 -345 23 -80 23 -221 0 -297 -10
-32 -18 -58 -19 -58 -1 0 0 53 2 119 2 97 -1 132 -18 195 -44 160 -97 237
-341 490 -237 248 -302 344 -335 502 -43 201 2 373 179 698 161 294 207 460
177 641 -7 39 -18 120 -26 181 -10 77 -26 140 -50 202 -95 246 -84 502 31 751
49 105 106 195 268 421 77 107 174 244 214 304 168 249 247 470 277 776 8 85
24 189 36 231 17 64 28 83 64 119 l44 43 -30 -74 c-66 -162 -81 -307 -60 -584
5 -63 7 -19 6 145 0 258 4 288 67 444 26 66 42 89 102 147 39 38 72 69 74 69
1 0 -16 -23 -39 -52z m-30 -189 c-5 -23 -16 -53 -24 -68 -15 -31 -45 -59 -45
-43 0 22 64 152 75 152 1 0 -1 -18 -6 -41z m3126 -324 c126 -170 162 -205 337
-331 182 -131 289 -225 351 -306 62 -82 128 -213 153 -303 20 -77 31 -279 15
-289 -7 -5 -11 4 -11 26 0 86 -72 273 -150 389 -106 158 -207 260 -435 441
-193 153 -331 302 -447 483 -45 69 -118 207 -118 222 0 23 208 -204 305 -332z
m-3366 120 c-38 -346 -64 -447 -169 -660 -56 -113 -108 -194 -270 -420 -286
-398 -345 -501 -397 -692 -28 -104 -36 -243 -21 -368 l7 -60 -25 55 c-73 159
-97 335 -70 503 37 225 113 369 330 627 258 306 373 543 405 838 9 80 11 86
64 155 59 77 158 190 162 185 1 -2 -6 -75 -16 -163z m-244 -309 c-9 -44 -32
-121 -51 -171 -67 -173 -143 -292 -349 -550 -144 -180 -185 -240 -236 -350
-66 -141 -82 -217 -83 -395 -1 -127 2 -165 18 -208 29 -86 14 -68 -33 36 -44
100 -71 198 -71 265 0 69 31 191 70 274 46 99 109 197 257 400 138 189 158
224 228 398 63 157 87 202 189 360 l71 110 3 -44 c2 -24 -4 -80 -13 -125z
m-338 -241 c47 -33 48 -39 12 -121 l-20 -49 -20 25 c-33 43 -61 132 -66 210
l-4 75 28 -55 c17 -33 45 -66 70 -85z m3633 -2 c18 -32 72 -121 120 -198 48
-77 97 -159 109 -182 54 -107 91 -247 116 -436 19 -151 20 -492 0 -597 -12
-70 -133 -411 -134 -381 -1 7 12 72 29 145 39 170 67 346 80 504 10 105 9 144
-4 228 -17 115 -67 276 -133 433 -24 58 -62 151 -83 206 -21 55 -61 152 -89
215 -28 63 -51 115 -51 117 0 12 13 -5 40 -54z m-2528 10 c10 -9 18 -22 18
-30 0 -17 -57 -17 -90 2 l-25 14 35 15 c44 19 40 19 62 -1z m2858 -339 c119
-174 216 -378 276 -576 47 -159 72 -376 56 -483 -9 -59 -10 -60 -11 -15 -4
138 -59 348 -147 558 -74 176 -157 325 -364 652 -40 63 -84 133 -98 155 -19
29 6 10 97 -75 89 -83 141 -143 191 -216z m-2945 293 c16 -13 15 -14 -20 -20
-46 -8 -62 0 -38 19 23 17 35 17 58 1z m2626 -149 c27 -69 24 -97 -20 -182
-22 -42 -38 -76 -36 -76 9 0 67 94 80 128 l14 37 0 -43 c1 -40 -61 -256 -79
-276 -5 -4 -16 -4 -26 2 -13 7 -26 6 -46 -4 -32 -17 -34 -24 -13 -64 16 -31 7
-41 -27 -32 -12 3 -16 11 -12 31 2 14 20 145 39 290 20 146 37 267 40 269 2 2
13 -14 24 -37 30 -58 27 -118 -9 -197 -35 -78 -16 -69 24 10 34 68 37 126 8
183 -29 56 -29 90 -1 44 11 -18 29 -56 40 -83z m-2316 77 c0 -13 -6 -19 -18
-19 -26 3 -15 -18 21 -39 28 -16 34 -17 59 -3 16 8 35 26 41 41 10 21 18 26
40 23 59 -7 25 -98 -48 -128 -43 -18 -144 -9 -178 16 -30 23 -70 89 -60 99 13
14 82 24 89 14 4 -6 9 -4 13 6 8 22 41 15 41 -10z m2746 -273 c134 -113 238
-227 313 -341 136 -206 185 -343 193 -536 8 -205 -15 -276 -180 -553 -127
-212 -151 -258 -191 -354 -108 -260 -106 -497 3 -663 22 -33 99 -118 171 -190
208 -205 299 -340 341 -504 16 -61 19 -102 17 -213 -2 -75 -6 -131 -10 -125
-4 6 -7 -2 -6 -18 0 -17 -7 -46 -16 -65 l-15 -35 -1 72 c0 100 -15 165 -60
258 -53 111 -149 226 -327 390 -83 77 -173 165 -198 195 -175 207 -226 452
-144 705 27 87 57 143 167 323 154 251 220 667 157 992 -39 201 -145 457 -274
660 -40 63 -65 108 -55 99 11 -8 62 -52 115 -97z m-3351 -289 c-14 -104 -58
-307 -109 -498 -22 -82 -47 -190 -56 -240 -10 -49 -19 -92 -22 -95 -10 -10 8
236 28 368 22 157 47 281 94 476 19 77 39 173 45 211 6 39 14 84 18 100 12 50
14 -232 2 -322z m3081 135 c102 -230 145 -415 136 -583 -6 -103 -37 -348 -44
-341 -2 2 1 60 6 128 11 136 2 293 -24 420 -8 40 -45 161 -80 269 -60 182 -84
288 -53 234 7 -11 33 -68 59 -127z m-12 -133 c94 -285 117 -485 87 -760 -25
-221 -94 -507 -142 -585 -14 -23 -15 -16 -10 90 3 63 16 182 31 264 14 82 24
153 22 159 -9 29 -61 -322 -65 -443 -4 -118 -7 -141 -29 -184 -22 -44 -26 -47
-40 -33 -39 39 -32 254 11 362 59 145 70 232 70 525 0 288 -10 386 -59 537
-25 80 -30 110 -19 137 10 26 19 19 47 -37 31 -60 71 -210 91 -342 8 -49 14
-74 15 -55 1 50 -32 219 -69 344 -34 118 -46 195 -36 223 11 28 37 -27 95
-202z m165 146 c57 -93 154 -294 201 -415 134 -347 150 -620 53 -894 -39 -112
-55 -142 -148 -287 -257 -399 -342 -587 -370 -820 -26 -216 13 -417 123 -630
35 -69 60 -99 180 -215 158 -153 213 -225 263 -340 67 -153 81 -312 44 -468
-22 -93 -34 -118 -139 -310 -40 -74 -86 -168 -101 -211 -85 -232 -79 -450 16
-632 48 -90 150 -187 231 -219 32 -13 62 -26 66 -30 14 -12 -11 -49 -38 -56
-29 -7 -121 19 -187 52 -65 33 -156 126 -193 196 -16 31 -31 55 -33 53 -2 -2
10 -31 28 -64 64 -119 186 -213 315 -242 58 -13 64 -19 40 -39 -10 -9 -35 -11
-75 -7 -148 13 -292 129 -373 299 -50 104 -63 150 -73 258 -7 89 8 203 43 315
32 100 53 142 143 280 126 195 163 296 162 450 -1 188 -69 327 -262 540 -142
156 -215 276 -270 444 -52 161 -65 247 -64 451 0 281 31 428 147 701 147 346
254 659 298 878 50 247 26 718 -50 960 -10 33 -17 61 -16 61 2 0 20 -26 39
-59z m-3295 -54 c-12 -39 -22 -77 -20 -84 1 -7 -9 -56 -23 -110 -110 -436
-125 -869 -40 -1121 36 -108 131 -300 205 -412 217 -332 260 -580 143 -818
-29 -60 -63 -101 -182 -225 -149 -154 -220 -246 -206 -268 4 -7 3 -9 -4 -5
-15 9 -68 -104 -92 -198 -34 -136 -20 -250 46 -377 38 -71 158 -216 175 -211
6 1 7 -3 3 -9 -4 -7 -3 -9 3 -6 6 4 52 -16 102 -43 302 -164 401 -310 388
-575 -5 -107 -25 -175 -72 -247 -14 -21 -23 -43 -20 -49 4 -5 2 -8 -3 -7 -20
6 -177 -218 -206 -295 -9 -23 -23 -71 -30 -107 l-14 -65 -1 75 c0 93 19 203
51 295 39 108 40 114 12 55 -45 -94 -74 -230 -74 -344 0 -195 41 -294 184
-445 101 -107 154 -195 162 -272 l5 -44 -25 59 c-33 78 -68 120 -152 183 -146
109 -170 131 -206 183 -59 83 -80 150 -86 268 -8 171 20 290 126 532 62 142
81 210 89 322 8 112 -8 191 -58 294 -41 83 -160 237 -167 216 -2 -7 -29 14
-60 45 -36 37 -91 77 -147 108 -49 27 -109 67 -131 88 -78 71 -108 189 -80
310 29 125 89 218 268 423 137 155 204 248 253 349 63 131 79 204 78 360 -1
196 -24 268 -177 550 -96 176 -80 129 23 -69 100 -193 124 -261 141 -398 14
-118 2 -224 -39 -346 -48 -144 -102 -225 -294 -445 -221 -252 -277 -357 -277
-522 0 -122 63 -221 186 -290 120 -67 185 -119 234 -183 74 -100 95 -164 94
-292 0 -155 -34 -237 -193 -470 -162 -238 -191 -412 -104 -615 61 -141 72
-163 116 -220 40 -52 71 -81 162 -150 19 -14 19 -15 -7 -6 -114 41 -265 144
-335 230 -52 64 -114 189 -134 271 -16 71 -16 200 1 270 9 40 39 93 107 193
132 196 185 311 182 391 l-2 31 -4 -30 c-14 -108 -62 -209 -172 -364 -89 -124
-144 -228 -172 -320 -19 -63 -21 -89 -16 -180 7 -140 49 -256 132 -371 18 -25
34 -49 35 -55 0 -5 40 -36 87 -67 47 -32 84 -58 81 -58 -25 0 -181 61 -262
103 -82 41 -116 67 -181 132 -183 183 -229 403 -128 615 28 58 54 94 119 158
47 46 88 80 93 77 5 -3 13 -1 16 5 4 6 59 50 122 97 174 130 236 228 237 373
1 83 -26 167 -79 244 -45 69 -118 130 -240 205 -96 58 -128 101 -147 195 -15
71 1 173 39 254 33 70 122 160 297 302 145 117 213 198 277 325 79 160 90 344
30 522 -41 124 -73 185 -182 348 -108 162 -152 253 -178 367 -28 120 -34 213
-21 329 21 194 71 352 244 774 63 153 81 211 55 175 -9 -12 -9 -11 -3 5 4 11
19 54 33 96 33 95 41 84 10 -14z m141 59 c0 -2 15 -45 34 -95 36 -97 29 -114
-16 -40 -30 48 -49 139 -29 139 6 0 11 -2 11 -4z m2790 -116 c59 -83 95 -241
111 -486 26 -393 -46 -719 -168 -770 -101 -43 -173 64 -218 320 -20 118 -20
259 0 276 19 16 22 8 29 -100 12 -163 61 -333 111 -380 72 -68 141 56 170 305
35 300 5 618 -72 773 -30 61 -34 75 -22 83 24 15 37 10 59 -21z m-2752 -62
c23 -27 42 -51 42 -53 0 -2 9 -27 20 -54 l20 -51 -29 -15 c-29 -14 -30 -14
-50 19 -33 53 -71 163 -70 204 0 33 2 35 12 18 7 -11 31 -41 55 -68z m-267
-94 c-21 -54 -63 -158 -94 -229 -64 -154 -128 -346 -153 -465 -13 -62 -18
-126 -18 -240 1 -242 35 -341 203 -595 143 -215 192 -327 211 -481 13 -101 7
-170 -22 -269 -27 -92 -55 -147 -127 -241 -60 -80 -105 -122 -248 -236 -43
-34 -102 -85 -132 -112 l-55 -51 34 50 c19 28 71 101 116 162 101 139 146 218
173 306 31 103 36 181 16 278 -35 174 -109 313 -277 521 -102 126 -129 171
-158 263 -27 87 -30 245 -6 353 37 168 103 304 316 647 75 121 163 270 196
332 32 61 60 110 61 109 2 -1 -15 -47 -36 -102z m2997 -21 c78 -294 51 -814
-48 -935 -24 -30 -47 -18 -77 42 -32 61 -29 94 21 271 24 85 49 186 55 225 16
91 18 241 7 372 -7 88 -7 102 7 102 10 0 21 -24 35 -77z m-54 -233 c-2 -175
-5 -194 -80 -453 -24 -84 -30 -95 -36 -72 -18 67 -30 225 -25 314 5 77 44 299
83 471 5 22 9 18 32 -35 26 -58 27 -67 26 -225z m-2715 194 c27 -46 27 -54 -8
-117 -39 -69 -65 -157 -96 -325 -15 -75 -33 -159 -41 -186 -26 -89 -46 -229
-47 -329 -1 -113 -9 -108 -38 25 -34 153 -17 325 60 603 16 55 37 132 47 170
11 43 20 61 22 48 2 -12 -4 -50 -13 -84 -8 -34 -13 -64 -11 -66 5 -5 34 86 57
175 10 40 15 49 20 35 5 -13 8 -7 8 19 1 33 9 68 16 68 2 0 12 -16 24 -36z
m141 -46 c0 -5 -14 -27 -30 -48 -41 -52 -66 -110 -89 -213 -59 -250 -43 -545
39 -740 45 -105 87 -147 147 -147 44 0 104 55 132 121 34 77 80 265 87 352 6
67 9 75 22 65 12 -10 14 -31 9 -113 -22 -397 -180 -628 -349 -510 -136 96
-200 296 -199 623 1 253 62 493 149 586 39 41 82 54 82 24z m-21 -181 c15
-108 0 -225 -52 -417 -39 -144 -42 -152 -49 -115 -13 73 -8 280 8 366 24 131
66 261 79 247 2 -1 8 -38 14 -81z m40 -18 c39 -151 61 -317 61 -453 0 -117
-31 -450 -42 -462 -3 -2 -18 8 -33 23 -38 38 -82 135 -100 218 -16 79 -13 103
40 294 52 189 67 376 38 460 -4 12 -3 13 5 6 7 -6 20 -44 31 -86z m83 -76 c28
-60 68 -139 90 -176 39 -67 40 -72 45 -185 9 -199 -39 -386 -118 -457 -21 -19
-44 -35 -49 -35 -14 0 -12 50 5 210 21 193 19 391 -6 525 -24 135 -34 225 -25
225 4 0 30 -48 58 -107z m3656 -185 c-8 -80 10 -203 41 -283 40 -104 103 -192
244 -342 135 -144 184 -224 207 -336 13 -67 7 -89 -9 -31 -24 87 -83 166 -252
334 -223 221 -250 268 -269 463 l-9 92 4 -95 c8 -178 72 -331 211 -507 128
-163 263 -359 264 -383 0 -3 -32 -3 -70 -2 -43 2 -76 -1 -85 -8 -10 -9 -32 3
-102 57 -199 153 -282 281 -319 494 -28 162 1 311 96 497 22 44 40 84 40 91 0
6 3 11 6 11 4 0 4 -23 2 -52z m-1414 -171 c12 -91 13 -131 4 -175 -10 -55 -5
-222 8 -269 8 -28 -9 -30 -35 -4 -25 25 -42 110 -52 256 l-7 120 3 -140 c2
-77 8 -155 14 -174 6 -19 9 -37 7 -39 -3 -2 -14 27 -26 65 -14 45 -23 107 -27
184 -7 136 6 209 43 238 13 10 24 24 24 30 0 18 25 53 27 39 1 -7 9 -66 17
-131z m-2593 -162 c14 -139 40 -239 82 -324 22 -43 36 -87 40 -127 4 -34 19
-99 34 -145 15 -46 27 -90 26 -98 -1 -8 48 -71 109 -140 237 -269 306 -424
296 -658 -4 -86 -11 -127 -36 -201 -34 -100 -124 -286 -203 -420 -142 -240
-190 -400 -168 -556 5 -38 21 -91 34 -119 14 -27 24 -52 22 -54 -3 -2 -32 37
-66 86 -110 161 -153 304 -155 516 -1 234 33 361 191 698 35 75 73 172 83 214
46 177 9 381 -103 578 -22 39 -40 77 -41 85 0 8 -24 49 -52 90 -67 98 -107
171 -136 245 -21 54 -23 76 -23 220 1 137 4 174 25 255 l25 95 2 -65 c2 -36 8
-114 14 -175z m2498 -205 c11 -36 21 -66 21 -66 0 -1 -20 6 -45 15 -52 18 -50
4 -35 201 15 202 24 217 31 55 5 -100 13 -158 28 -205z m-1873 215 c23 -145
14 -275 -32 -451 -63 -243 -67 -264 -68 -399 -1 -98 4 -150 19 -210 10 -44 20
-87 21 -95 3 -38 -5 -27 141 -192 71 -81 100 -134 123 -225 48 -186 16 -320
-151 -638 -114 -218 -158 -345 -160 -467 -1 -53 -1 -53 -11 -18 -16 56 -4 263
22 355 12 44 51 147 86 229 96 221 117 297 118 436 0 94 -4 129 -23 190 -22
73 -111 263 -119 256 -2 -2 13 -36 32 -75 79 -157 113 -309 96 -431 -21 -150
-67 -243 -228 -458 -114 -153 -154 -225 -186 -332 l-25 -85 0 96 c-1 153 28
247 158 516 140 289 164 366 164 528 1 127 -15 211 -55 289 -12 23 -22 50 -23
61 -2 11 -34 65 -73 120 -84 118 -129 225 -144 338 -14 106 -6 157 26 157 35
0 108 54 144 108 57 85 94 223 117 440 4 35 9 62 11 60 2 -2 11 -49 20 -103z
m34 -4 c30 -113 43 -270 37 -431 -7 -152 -23 -239 -76 -418 -36 -120 -47 -211
-32 -267 l10 -40 -3 50 c-4 78 12 176 50 298 51 167 68 307 60 507 -5 144 -20
265 -42 333 -4 12 -2 17 4 13 15 -9 71 -168 88 -249 18 -87 18 -274 0 -369
-15 -74 -37 -145 -100 -321 -39 -106 -52 -200 -39 -262 8 -33 9 -24 10 55 0
113 13 152 100 302 94 163 129 264 139 408 6 78 -10 213 -33 278 -5 14 -2 13
16 -4 31 -29 40 -76 47 -239 8 -185 -13 -297 -82 -429 -141 -269 -137 -260
-142 -346 -4 -78 -3 -84 32 -153 l37 -72 -35 40 c-19 22 -43 56 -53 75 -10 19
-24 39 -30 43 -7 4 -13 17 -13 27 0 11 -6 19 -12 17 -8 -1 -21 30 -35 83 -20
75 -23 103 -19 240 3 135 8 170 35 270 67 246 65 237 65 405 0 88 -5 180 -11
204 -7 27 -8 40 -1 33 5 -5 18 -42 28 -81z m1748 -33 c-19 -156 -16 -481 6
-602 32 -176 86 -313 168 -424 l39 -53 -38 -47 c-67 -82 -245 -254 -470 -455
-120 -107 -235 -213 -257 -235 l-39 -41 -96 76 c-394 313 -684 569 -840 742
l-70 78 39 79 c22 43 47 106 55 139 22 86 37 286 29 384 -8 99 -17 100 131
-18 254 -203 421 -259 595 -201 86 29 215 97 292 156 128 96 358 357 443 502
11 17 21 30 23 28 2 -2 -2 -51 -10 -108z m-1659 20 c43 -37 79 -119 98 -225
20 -106 9 -223 -33 -349 -22 -68 -93 -209 -101 -201 -1 2 7 32 18 67 50 159
66 312 48 445 -12 96 -46 222 -74 275 -19 36 -10 34 44 -12z m2457 -54 c-44
-163 -139 -414 -261 -689 -111 -251 -169 -468 -181 -680 -7 -133 12 -275 55
-403 28 -85 28 -86 5 -57 -106 133 -159 357 -136 577 23 219 63 330 261 725
137 276 214 446 251 556 12 38 24 67 26 65 2 -3 -7 -44 -20 -94z m599 -18
c-37 -152 -48 -248 -42 -360 7 -119 26 -195 72 -291 49 -101 87 -146 206 -241
124 -98 202 -179 252 -261 48 -78 90 -207 84 -253 -2 -20 -29 -88 -60 -151
l-55 -114 -1 63 c-1 75 -38 193 -83 267 -40 66 -156 202 -227 266 -99 91 -170
181 -216 274 -61 122 -78 195 -77 330 0 124 18 224 64 353 30 87 96 227 103
220 2 -1 -7 -47 -20 -102z m-1127 -71 c15 -27 41 -59 59 -70 24 -15 32 -27 33
-50 0 -16 4 -47 9 -68 5 -21 6 -37 3 -35 -4 2 -40 17 -80 33 -65 27 -73 33
-81 65 -18 67 -23 143 -16 219 l7 76 19 -60 c11 -33 31 -82 47 -110z m1187
-136 c41 -162 137 -299 294 -419 101 -77 116 -95 135 -162 20 -71 61 -119 124
-146 47 -21 49 -23 54 -69 3 -26 3 -68 -1 -93 l-6 -45 -24 50 c-38 78 -149
181 -276 256 -133 78 -216 157 -267 254 -84 161 -115 363 -82 535 l18 95 8
-96 c3 -53 14 -125 23 -160z m-161 76 c-95 -286 -83 -511 42 -725 38 -65 99
-136 226 -263 121 -121 158 -166 207 -257 46 -86 71 -178 71 -265 0 -51 -8
-76 -61 -191 -37 -81 -73 -144 -93 -163 l-33 -32 0 103 c0 239 -85 401 -352
668 -92 92 -170 180 -190 214 -108 182 -92 443 43 716 38 75 168 301 172 297
1 -1 -13 -47 -32 -102z m-4567 -111 c14 -210 -56 -328 -337 -562 -239 -200
-358 -346 -406 -497 -11 -35 -13 -36 -13 -13 -1 39 41 147 85 215 48 75 88
123 271 322 84 91 153 171 153 176 -1 6 -15 -6 -32 -25 -17 -19 -92 -102 -167
-184 -205 -224 -260 -301 -302 -423 -40 -117 -35 -304 12 -396 16 -30 18 -42
9 -51 -13 -13 -29 5 -61 67 -86 165 -51 367 97 567 56 76 432 460 447 457 15
-3 103 125 139 200 43 90 58 155 59 258 l1 90 20 -60 c11 -33 22 -96 25 -141z
m3779 9 l-1 -128 -57 30 c-61 32 -68 43 -68 116 0 46 1 47 35 53 19 4 47 18
62 31 16 13 28 25 29 25 0 0 0 -57 0 -127z m1511 -258 c30 -57 63 -154 63
-182 0 -25 -20 -13 -34 22 -20 47 -118 189 -207 300 -83 104 -159 206 -159
215 0 4 69 -61 153 -144 115 -113 161 -166 184 -211z m-613 85 c9 -36 36 -106
61 -156 60 -122 126 -189 280 -284 66 -41 145 -97 175 -126 65 -62 124 -154
122 -192 -1 -15 -14 -67 -30 -117 l-29 -89 -22 74 c-45 150 -137 270 -309 403
-151 116 -218 210 -261 367 -25 88 -36 222 -25 286 l8 49 7 -75 c3 -41 14
-104 23 -140z m-1165 120 c83 -32 168 -68 189 -79 49 -25 102 -69 102 -84 0
-7 -26 -61 -57 -122 l-56 -110 -12 55 c-14 70 -50 141 -88 177 l-30 28 32 -48
c29 -43 71 -144 71 -171 0 -5 -15 4 -32 21 -40 37 -201 148 -280 193 l-58 32
0 93 0 93 34 -9 c19 -5 102 -36 185 -69z m3084 -27 c26 -9 47 -23 47 -30 0 -7
-4 -13 -10 -13 -5 0 -10 -5 -10 -11 0 -5 5 -7 10 -4 13 8 9 -32 -5 -56 -16
-26 -54 -41 -86 -34 -21 5 -29 12 -26 23 2 10 9 16 15 14 13 -2 7 40 -9 68 -6
10 -7 5 -3 -13 4 -16 1 -33 -7 -43 -12 -14 -14 -13 -21 6 -12 32 24 109 52
110 3 0 26 -8 53 -17z m-5478 -99 l32 -6 6 -106 c5 -101 27 -192 66 -273 16
-33 -59 51 -114 127 -48 66 -98 200 -109 293 l-7 54 47 -41 c25 -23 61 -44 79
-48z m5357 61 c-7 -37 5 -71 37 -108 l30 -33 -95 -47 c-52 -26 -94 -43 -94
-38 0 5 9 30 20 56 32 74 22 67 -18 -14 l-37 -74 -100 -52 c-55 -28 -140 -73
-188 -98 -49 -26 -96 -47 -104 -47 -9 0 -42 12 -75 27 l-60 27 22 18 c12 10
118 75 234 145 116 70 258 157 316 194 58 37 108 68 111 68 3 1 4 -10 1 -24z
m-701 -47 c98 -70 138 -103 135 -113 -2 -5 -22 -10 -45 -9 -31 1 -56 11 -98
40 -81 55 -93 69 -93 109 l0 36 28 -15 c15 -8 48 -30 73 -48z m-5737 -103 c1
-171 -35 -280 -181 -543 -159 -285 -199 -412 -190 -602 10 -227 62 -315 382
-650 219 -228 268 -301 306 -447 21 -83 25 -220 9 -290 -23 -101 -52 -154
-141 -261 -200 -240 -248 -430 -171 -684 l29 -97 -35 27 c-19 14 -57 54 -84
87 -102 126 -141 253 -120 391 14 92 39 152 111 269 104 170 141 240 171 316
117 303 22 548 -330 847 -136 115 -200 187 -249 281 -120 232 -115 464 14 721
53 105 104 177 219 312 146 168 206 277 229 416 10 54 13 60 21 40 5 -13 9
-72 10 -133z m5702 19 c69 -49 125 -67 161 -53 38 14 56 11 91 -15 l33 -24
-98 -60 c-67 -41 -103 -57 -113 -52 -35 19 -112 95 -134 133 -29 49 -41 106
-31 144 l7 28 12 -30 c8 -17 38 -48 72 -71z m-5493 -21 c129 -193 169 -307
170 -483 1 -173 -33 -269 -175 -487 -160 -248 -203 -362 -202 -538 1 -118 20
-179 91 -283 l45 -67 -72 70 c-122 119 -185 227 -214 368 -20 95 -20 141 -1
253 22 128 35 162 161 429 127 271 160 361 176 480 13 95 1 207 -31 299 -11
31 -18 56 -16 56 1 0 32 -44 68 -97z m3861 -118 c-9 -28 -18 -102 -21 -166 -7
-143 11 -235 68 -347 58 -115 126 -199 272 -333 278 -255 372 -380 412 -550
32 -136 15 -233 -70 -404 -51 -105 -185 -329 -191 -322 -2 2 4 25 12 52 8 28
18 97 21 155 13 247 -70 464 -253 661 -38 41 -108 116 -156 166 -138 147 -206
259 -254 420 -48 160 -34 343 38 488 31 62 131 235 134 232 2 -2 -4 -25 -12
-52z m-3701 -77 c168 -216 247 -414 233 -588 -11 -140 -56 -238 -198 -435
-188 -260 -221 -334 -222 -500 -1 -88 3 -117 17 -143 18 -32 18 -33 -1 -23
-28 15 -96 92 -126 144 -43 73 -57 132 -57 242 0 168 39 270 189 502 159 246
187 322 187 508 0 127 -16 199 -70 321 -13 30 -22 54 -20 54 2 0 33 -37 68
-82z m5233 57 c18 -15 18 -15 -7 -10 -14 4 -44 0 -67 -8 -39 -14 -41 -13 -32
3 17 32 73 40 106 15z m-5777 -37 c-15 -30 -83 -110 -188 -222 -231 -248 -321
-425 -321 -632 0 -88 -1 -92 -26 -109 -32 -21 -37 -15 -60 64 -12 38 -15 80
-12 145 3 80 8 101 40 169 77 161 158 254 383 438 72 59 143 121 159 138 35
37 41 39 25 9z m5781 -3 c7 -9 11 -17 9 -19 -2 -2 -35 -7 -73 -10 -63 -6 -67
-5 -55 10 28 34 98 45 119 19z m-234 -39 c77 -12 88 -26 55 -67 -18 -22 -25
-24 -106 -22 -104 3 -166 26 -189 71 -8 16 -12 33 -8 36 8 9 152 -2 248 -18z
m828 -34 c21 -26 86 -98 144 -161 l107 -114 6 -161 c4 -89 10 -215 14 -281 4
-66 5 -118 2 -115 -2 3 -30 104 -62 225 -88 340 -81 321 -119 352 -19 15 -96
54 -170 87 -114 49 -138 63 -151 89 -8 17 -14 31 -13 32 26 16 186 94 193 94
6 0 27 -21 49 -47z m-339 -74 c94 -47 223 -109 287 -138 64 -29 126 -62 137
-74 13 -13 31 -63 47 -127 14 -57 54 -212 89 -344 61 -226 76 -273 139 -420
27 -64 33 -123 15 -157 -10 -19 -12 -19 -41 13 -19 22 -27 27 -22 14 38 -103
45 -131 39 -154 -8 -31 -52 -101 -64 -101 -5 0 -15 15 -22 33 -12 31 -13 30
-19 -43 -7 -93 -25 -125 -117 -205 -250 -219 -769 -727 -823 -806 l-23 -34 29
28 c31 28 51 36 37 15 -4 -7 -8 -89 -8 -183 0 -165 -20 -433 -34 -447 -3 -4
-51 -20 -106 -35 -82 -22 -120 -27 -210 -27 -128 1 -206 19 -310 71 -104 52
-98 42 -91 163 3 58 7 225 8 373 1 221 4 263 14 240 l12 -28 1 25 c0 14 -6 50
-14 80 -22 83 -44 255 -51 398 -9 178 11 254 137 549 l19 44 42 -22 c53 -27
122 -23 196 13 l54 26 -25 -27 c-51 -55 -117 -154 -117 -176 0 -24 5 -27 70
-41 90 -19 165 13 280 122 74 70 76 71 150 83 41 6 97 19 125 28 46 15 50 15
60 -2 5 -10 25 -35 43 -57 37 -46 35 -38 19 -103 -13 -49 -14 -50 -97 -93 -47
-23 -134 -58 -195 -78 -342 -111 -499 -210 -579 -368 -15 -28 -21 -43 -14 -32
92 134 165 204 268 256 30 15 139 56 240 90 102 34 225 80 273 103 92 42 106
42 107 -5 0 -22 40 -131 46 -125 2 2 -3 23 -11 47 -20 56 -21 218 -2 226 8 3
42 -12 76 -32 34 -20 64 -34 67 -32 3 3 -17 22 -44 42 -71 51 -182 172 -182
197 0 16 -4 19 -16 15 -39 -15 -165 -45 -215 -51 -52 -6 -61 -12 -138 -86 -87
-81 -138 -113 -206 -125 l-39 -7 32 40 c40 52 52 83 52 142 0 39 6 57 33 92
18 24 43 60 54 79 34 55 63 77 128 95 33 10 123 42 201 71 78 30 150 54 160
54 29 0 54 -20 224 -180 140 -131 245 -216 308 -249 49 -26 30 -2 -37 47 -38
27 -147 124 -242 215 -171 161 -218 197 -258 197 -11 0 -54 -13 -95 -30 -42
-16 -133 -49 -204 -74 -70 -24 -138 -49 -149 -57 -12 -7 -38 -38 -57 -69 -47
-74 -67 -92 -149 -134 -54 -28 -80 -36 -120 -35 l-52 0 30 22 c63 46 115 104
115 128 -1 22 -2 21 -15 -8 -15 -36 -121 -123 -148 -123 -26 0 -57 18 -57 34
0 20 189 201 199 190 5 -5 12 -18 15 -29 3 -11 4 -4 2 16 -4 34 2 43 75 122
71 76 91 91 192 143 61 31 180 94 264 140 95 53 163 84 181 84 45 0 100 -47
252 -215 169 -188 316 -335 332 -335 7 0 5 5 -5 11 -10 6 -85 91 -166 189
-164 196 -176 218 -206 395 -8 50 -18 98 -21 108 -4 12 0 17 16 17 12 0 18 5
15 10 -3 6 -16 10 -28 10 -26 0 -235 113 -323 174 -57 40 -68 44 -195 64 -228
36 -314 73 -345 149 -19 44 -18 45 19 23 17 -10 61 -23 97 -29 103 -16 170 7
185 66 l6 25 112 -4 112 -4 170 -86z m-2189 -227 c-20 -139 -20 -344 -1 -477
23 -161 98 -368 177 -489 11 -16 -12 3 -52 43 -81 83 -126 166 -161 297 -27
99 -37 342 -20 455 14 93 61 293 68 287 2 -3 -3 -55 -11 -116z m1683 77 c0 -7
-9 -31 -18 -53 l-18 -40 -4 53 c-4 48 -2 52 19 52 12 0 22 -6 21 -12z m225
-28 c4 0 -20 -22 -55 -49 l-63 -49 -38 30 c-48 38 -50 41 -39 71 l9 24 89 -13
c48 -8 92 -14 97 -14z m-6012 -28 c-39 -55 -112 -211 -134 -288 -32 -111 -32
-277 0 -387 49 -170 123 -274 308 -433 149 -128 241 -230 287 -319 26 -51 31
-74 35 -150 3 -75 0 -100 -18 -149 -34 -90 -155 -242 -288 -361 -187 -167
-242 -254 -282 -445 -15 -71 -18 -78 -19 -43 -1 55 24 182 49 250 54 145 115
235 264 392 124 129 160 182 182 263 27 103 14 200 -43 313 -33 64 -122 189
-130 181 -3 -2 17 -30 43 -63 64 -78 111 -181 125 -273 10 -64 9 -85 -5 -140
-22 -88 -62 -147 -186 -280 -121 -129 -177 -205 -227 -309 -44 -93 -83 -245
-83 -322 0 -73 38 -195 85 -274 l36 -60 -51 50 c-62 61 -106 148 -120 238 -9
58 -8 80 9 152 47 196 142 378 305 582 107 134 156 210 156 244 0 8 -13 -13
-29 -46 -15 -33 -70 -112 -121 -175 -153 -189 -233 -327 -296 -514 -29 -87
-33 -94 -28 -51 8 76 42 184 76 245 17 30 79 127 138 215 122 181 159 249 190
353 19 63 21 87 16 185 -8 163 -11 179 -30 209 -10 15 -15 31 -12 36 6 9 -57
66 -160 144 -176 135 -264 311 -264 527 0 110 20 191 69 289 36 71 153 242
167 242 3 0 -4 -12 -14 -28z m6082 -1 c16 -18 16 -25 3 -104 -8 -46 -31 -123
-50 -171 -20 -48 -41 -112 -48 -141 l-12 -54 -131 -68 c-135 -70 -146 -79
-305 -247 -35 -37 -65 -65 -68 -62 -3 3 32 83 77 178 54 112 105 240 145 363
56 170 92 273 101 284 2 2 22 -13 44 -33 22 -20 44 -36 48 -36 5 0 39 25 77
55 75 60 93 65 119 36z m-1748 -271 c51 -166 114 -264 289 -450 230 -244 300
-351 346 -525 30 -113 31 -299 2 -408 -18 -65 -91 -212 -101 -202 -2 1 4 29
12 61 24 93 29 173 17 261 -31 218 -135 395 -334 569 -134 118 -218 258 -268
452 -28 106 -35 278 -18 405 l13 102 8 -90 c4 -49 19 -128 34 -175z m1948 150
c74 -41 138 -82 141 -90 2 -8 14 -65 25 -127 11 -61 23 -119 27 -130 3 -10
-23 10 -60 45 -101 96 -149 110 -230 67 l-47 -25 0 87 c0 49 -5 106 -11 127
-11 41 -4 130 10 124 5 -2 70 -37 145 -78z m-163 -168 c1 -51 0 -95 -3 -97 -9
-9 -29 147 -23 176 12 54 24 17 26 -79z m-27 -63 c7 -46 6 -47 -30 -68 -20
-12 -39 -20 -41 -17 -3 3 7 42 22 87 30 89 36 89 49 -2z m-4660 -116 c-104
-230 -147 -365 -165 -516 -28 -241 21 -471 138 -645 24 -36 42 -67 40 -68 -2
-2 -27 12 -56 31 -29 19 -57 32 -62 29 -16 -10 -134 73 -177 125 -161 190
-190 403 -86 616 19 39 31 61 28 50 -30 -93 -44 -158 -43 -205 2 -53 2 -53 10
20 11 110 66 249 134 340 21 29 255 277 262 279 2 1 -9 -25 -23 -56z m450
-470 c-111 -262 -134 -349 -134 -507 0 -108 24 -247 51 -298 8 -15 8 -19 0
-13 -19 11 -79 138 -97 206 -35 129 -16 316 43 434 15 30 145 215 150 215 2 0
-4 -17 -13 -37z m-315 -199 c-41 -122 -55 -233 -41 -327 23 -152 51 -198 206
-331 80 -69 126 -153 152 -276 22 -107 20 -277 -5 -372 -24 -94 -43 -132 -123
-245 -68 -95 -122 -203 -144 -286 -21 -78 -18 -222 5 -290 11 -32 18 -57 16
-57 -2 0 -22 28 -44 61 -58 86 -85 182 -85 294 1 153 36 251 173 473 91 148
111 201 111 302 0 135 -50 233 -201 395 -117 125 -134 166 -134 315 0 95 4
127 24 185 22 66 107 245 115 245 2 0 -9 -39 -25 -86z m4089 11 c-3 -25 -17
-63 -31 -84 -29 -43 -81 -71 -99 -53 -9 9 -1 26 28 69 85 125 110 141 102 68z
m-3952 -62 c-8 -22 -20 -76 -26 -119 -25 -161 19 -329 127 -490 70 -105 77
-108 -101 45 -107 93 -136 144 -136 241 0 70 19 149 52 215 24 48 92 155 95
151 2 -2 -3 -21 -11 -43z m2750 -145 c11 -42 15 -83 11 -124 -11 -110 -40
-166 -185 -349 -26 -33 -55 -71 -65 -85 l-18 -25 12 25 c7 14 36 57 65 95 151
202 185 353 128 580 -2 11 5 3 16 -17 11 -21 28 -66 36 -100z m109 1 c118
-176 151 -335 106 -511 -24 -92 -67 -179 -161 -323 -245 -377 -294 -720 -143
-1008 63 -119 212 -258 303 -282 14 -3 -3 9 -37 28 -85 47 -136 89 -187 155
-151 197 -190 453 -111 727 20 69 31 66 16 -5 -18 -82 -14 -227 9 -315 32
-127 84 -219 170 -306 85 -86 152 -123 251 -141 35 -6 65 -12 67 -13 4 -3 -64
-107 -86 -132 -11 -12 -17 -25 -13 -29 7 -8 -25 1 -96 28 -121 45 -240 155
-319 294 -100 177 -130 409 -83 637 30 150 50 203 156 415 53 106 94 195 91
197 -3 3 -13 -14 -23 -37 -10 -24 -46 -92 -78 -152 -33 -60 -76 -143 -94 -185
-33 -73 -34 -74 -28 -31 12 87 57 207 136 363 114 226 132 285 133 427 1 117
-17 197 -61 285 l-16 30 26 -24 c15 -13 47 -55 72 -92z m-2718 -96 c1 -174 36
-273 185 -532 101 -177 118 -225 117 -330 l-1 -76 -13 61 c-17 77 -41 124
-107 210 -75 98 -184 278 -202 332 -31 95 -37 260 -12 332 3 8 10 34 16 58 6
23 12 42 13 42 2 0 3 -44 4 -97z m-1074 -39 c123 -75 171 -116 223 -187 104
-141 110 -322 15 -460 -39 -58 -80 -93 -209 -179 -129 -86 -254 -209 -299
-294 -34 -64 -62 -162 -64 -229 -2 -37 -2 -35 -9 15 -21 154 42 344 160 485
177 212 225 306 236 464 11 150 -38 291 -148 421 -38 46 -49 64 -30 48 18 -15
74 -53 125 -84z m4388 -26 c-9 -68 -79 -216 -235 -496 -182 -329 -226 -566
-147 -801 25 -74 26 -82 9 -61 -27 33 -71 122 -94 190 -14 41 -19 83 -19 165
1 136 21 214 105 398 33 71 57 134 53 140 -3 5 -2 7 3 4 5 -3 31 34 58 81 27
48 83 141 126 207 42 66 92 148 111 182 18 34 35 60 37 59 1 -2 -2 -32 -7 -68z
m-4630 -65 c15 -50 21 -94 21 -163 0 -151 -40 -254 -205 -523 -107 -175 -141
-300 -119 -432 19 -115 67 -200 184 -324 57 -60 123 -138 148 -172 25 -35 77
-90 115 -122 91 -76 117 -125 123 -232 2 -47 -1 -106 -9 -140 l-13 -60 -9 55
c-37 229 -120 374 -360 628 -193 204 -223 271 -215 492 6 154 36 255 138 465
192 398 210 455 174 578 -3 9 -3 17 0 17 3 0 15 -30 27 -67z m4600 -186 c-36
-84 -54 -201 -48 -312 6 -113 29 -190 82 -277 19 -31 35 -63 35 -72 0 -8 -18
-25 -41 -36 l-40 -21 -19 23 c-40 47 -88 157 -100 230 -15 84 -8 204 16 293 8
33 41 119 72 190 l57 130 3 -51 c2 -34 -4 -66 -17 -97z m-3786 -17 c64 -96 79
-139 73 -215 -7 -80 -50 -169 -160 -325 -114 -163 -152 -230 -187 -325 -40
-110 -53 -193 -49 -298 2 -47 0 -83 -4 -79 -15 15 -38 129 -38 187 0 133 45
244 176 436 189 277 222 471 115 674 -37 71 -37 73 -2 40 18 -16 52 -59 76
-95z m3805 -60 c-18 -124 -9 -246 25 -335 20 -54 25 -84 23 -135 l-3 -65 -29
48 c-65 110 -88 262 -62 414 16 91 44 179 54 169 3 -3 -1 -46 -8 -96z m35
-152 c8 -75 15 -152 14 -170 l-1 -33 -15 35 c-24 55 -36 162 -28 247 4 43 9
74 11 68 2 -5 10 -72 19 -147z m-3252 -50 c64 -130 68 -234 14 -364 -46 -113
-83 -155 -57 -65 23 82 31 191 20 289 -12 110 -27 165 -64 243 l-27 54 39 -42
c22 -24 56 -75 75 -115z m3061 71 c-11 -52 -14 -106 -11 -184 5 -127 27 -200
84 -284 l37 -53 -42 -35 c-23 -19 -55 -56 -70 -81 -26 -46 -27 -52 -32 -242
l-5 -195 -50 51 c-95 96 -147 243 -147 414 0 118 19 209 70 339 36 91 172 355
179 348 1 -2 -4 -37 -13 -78z m-3279 -18 c64 -103 81 -233 44 -344 -22 -67
-47 -105 -34 -52 29 115 20 279 -19 377 -13 32 -22 58 -20 58 2 0 15 -18 29
-39z m-1411 -112 c-31 -61 -72 -155 -90 -208 -18 -53 -35 -89 -37 -81 -3 8
-15 56 -27 105 l-22 90 63 55 c35 30 86 76 114 102 27 26 51 48 52 48 2 0 -22
-50 -53 -111z m4465 -14 c-158 -329 -145 -576 41 -808 31 -40 78 -87 104 -106
49 -37 55 -56 40 -130 -6 -26 -10 -30 -28 -25 -63 20 -118 55 -176 113 -117
118 -164 241 -164 431 0 145 31 266 105 413 53 107 127 237 134 237 2 0 -23
-56 -56 -125z m-3332 31 c-11 -163 -50 -265 -167 -441 -40 -60 -86 -137 -101
-170 -94 -209 -101 -392 -19 -544 28 -51 29 -53 6 -32 -32 30 -80 122 -102
196 -26 87 -24 245 5 350 31 114 97 242 197 380 92 129 158 249 169 308 12 64
18 40 12 -47z m19 -76 c-10 -108 -34 -191 -101 -344 -98 -226 -134 -397 -115
-548 21 -166 85 -268 237 -376 101 -72 161 -129 183 -172 10 -19 1 -14 -31 18
-24 24 -73 57 -109 74 -36 17 -97 46 -137 64 -98 47 -179 128 -229 230 l-39
78 0 131 c1 111 4 140 24 195 35 95 84 191 164 314 38 60 80 134 92 165 23 55
55 191 55 231 0 11 3 20 6 20 4 0 3 -36 0 -80z m577 22 c85 -113 116 -242 80
-337 -11 -27 -43 -90 -72 -139 -28 -48 -50 -90 -48 -92 2 -2 20 26 41 61 21
36 40 65 42 65 7 0 -27 -61 -72 -131 -55 -83 -83 -146 -105 -234 l-17 -70 -1
50 c-1 79 25 167 89 304 32 70 64 149 70 175 24 107 9 237 -40 351 -11 25 -16
45 -12 45 4 0 24 -22 45 -48z m-1894 -221 c12 -76 21 -156 19 -177 l-3 -39
-14 30 c-83 178 -101 220 -101 234 0 18 56 91 69 91 5 0 18 -62 30 -139z
m5036 -193 c-103 -81 -119 -158 -53 -261 105 -164 354 -259 599 -227 161 21
281 67 371 142 81 67 110 166 69 234 -19 31 -88 92 -128 113 -27 14 -33 57 -7
47 37 -14 127 -81 159 -119 51 -59 58 -98 46 -238 -13 -141 -13 -315 -1 -384
21 -112 23 -151 7 -181 -42 -81 -270 -242 -432 -304 -50 -19 -78 -23 -170 -23
-186 1 -335 53 -493 173 -87 65 -158 144 -168 187 -4 14 1 80 11 146 18 119
23 282 16 468 -3 81 0 101 17 135 23 44 90 112 142 143 l35 21 3 -25 c2 -19
-4 -32 -23 -47z m-3555 -39 c-7 -11 -14 -18 -17 -15 -3 3 0 12 7 21 18 21 23
19 10 -6z m-785 -1024 c0 -87 -3 -107 -27 -157 -27 -57 -86 -149 -73 -113 4
11 21 58 38 105 28 75 31 98 32 195 0 61 -3 121 -7 135 -4 14 2 5 15 -20 18
-38 22 -62 22 -145z" />
        <path d="M4692 9730 c0 -14 2 -19 5 -12 2 6 2 18 0 25 -3 6 -5 1 -5 -13z" />
        <path d="M5362 9578 c17 -35 44 -101 59 -148 30 -91 40 -90 13 1 -16 54 -90
209 -99 209 -3 0 9 -28 27 -62z" />
        <path d="M6307 9093 c21 -39 39 -70 41 -68 5 4 -43 96 -62 120 -9 11 1 -12 21
-52z" />
        <path d="M6350 9005 c0 -5 5 -17 10 -25 5 -8 10 -10 10 -5 0 6 -5 17 -10 25
-5 8 -10 11 -10 5z" />
        <path d="M4971 9274 c0 -11 3 -14 6 -6 3 7 2 16 -1 19 -3 4 -6 -2 -5 -13z" />
        <path d="M5291 9268 c-1 -4 6 -37 14 -73 9 -37 22 -148 30 -248 8 -100 24
-236 36 -302 20 -115 22 -229 4 -305 l-6 -25 12 25 c22 50 23 179 1 310 -12
69 -26 190 -32 270 -12 149 -32 289 -49 331 -5 13 -10 21 -10 17z" />
        <path d="M4986 9150 c5 -113 19 -331 34 -525 5 -66 7 -154 5 -195 l-4 -75 10
70 c8 50 8 112 0 215 -6 80 -16 222 -22 315 -13 212 -30 355 -23 195z" />
        <path d="M4665 8895 c-4 -189 -4 -375 1 -412 6 -48 10 53 12 345 1 226 1 412
-2 412 -2 0 -7 -155 -11 -345z" />
        <path d="M5830 9109 c1 -15 59 -181 60 -168 0 16 -46 159 -55 167 -3 3 -5 3
-5 1z" />
        <path d="M4036 9032 c-32 -143 -57 -636 -37 -732 11 -52 58 -147 67 -137 3 3
-6 21 -20 41 -42 62 -49 145 -37 409 12 242 25 375 42 441 6 21 8 40 6 43 -3
2 -12 -27 -21 -65z" />
        <path d="M3741 8944 c0 -11 3 -14 6 -6 3 7 2 16 -1 19 -3 4 -6 -2 -5 -13z" />
        <path d="M3727 8890 c-23 -129 -46 -536 -39 -695 4 -81 37 -166 74 -186 20
-11 18 -7 -9 24 -55 62 -57 86 -44 437 6 173 16 342 22 374 5 32 8 64 6 70 -2
6 -7 -5 -10 -24z" />
        <path d="M3491 8864 c0 -11 3 -14 6 -6 3 7 2 16 -1 19 -3 4 -6 -2 -5 -13z" />
        <path d="M6355 8825 c2 -16 18 -132 35 -257 21 -159 41 -263 66 -350 60 -207
57 -289 -14 -349 -37 -31 -37 -31 -6 -15 43 21 74 87 74 157 0 35 -15 108 -40
195 -29 101 -47 194 -66 339 -14 110 -31 225 -39 255 -8 30 -12 42 -10 25z" />
        <path d="M3476 8813 c-7 -27 -29 -715 -27 -817 1 -62 32 -126 70 -149 42 -25
50 -21 10 6 -65 43 -72 69 -63 262 5 94 7 256 5 360 -2 109 2 226 9 274 11 82
9 118 -4 64z" />
        <path d="M6531 8674 c0 -11 3 -14 6 -6 3 7 2 16 -1 19 -3 4 -6 -2 -5 -13z" />
        <path d="M6543 8615 c0 -22 2 -30 4 -17 2 12 2 30 0 40 -3 9 -5 -1 -4 -23z" />
        <path d="M3212 8530 c-1 -41 3 -151 10 -245 10 -155 9 -186 -10 -356 -19 -166
-20 -193 -8 -240 15 -56 60 -109 94 -109 10 0 5 6 -14 16 -44 21 -76 83 -76
147 0 29 8 113 17 187 18 136 17 250 -5 570 -6 102 -7 103 -8 30z" />
        <path d="M6552 8540 c-3 -63 26 -233 63 -372 64 -246 85 -364 74 -421 -5 -28
-17 -59 -26 -69 -9 -10 -14 -20 -11 -23 9 -10 37 42 48 88 12 56 3 110 -59
363 -42 169 -67 300 -84 439 -4 28 -4 28 -5 -5z" />
        <path d="M6712 8470 c0 -19 2 -27 5 -17 2 9 2 25 0 35 -3 9 -5 1 -5 -18z" />
        <path d="M6721 8405 c-1 -46 24 -177 84 -437 31 -131 60 -264 65 -296 l9 -57
-3 55 c-2 31 -32 175 -65 320 -34 146 -68 306 -75 355 -8 50 -14 77 -15 60z" />
        <path d="M4681 8389 c0 -13 4 -33 9 -44 7 -14 8 -8 3 20 -7 46 -13 59 -12 24z" />
        <path d="M3011 8298 c0 -32 6 -133 14 -225 16 -169 12 -284 -16 -453 -29 -181
9 -291 101 -289 l35 1 -37 7 c-95 19 -115 93 -84 309 25 167 28 252 16 397 -7
77 -16 178 -20 225 -6 75 -7 78 -9 28z" />
        <path d="M6832 8240 c0 -14 2 -19 5 -12 2 6 2 18 0 25 -3 6 -5 1 -5 -13z" />
        <path d="M6842 8165 c0 -16 2 -22 5 -12 2 9 2 23 0 30 -3 6 -5 -1 -5 -18z" />
        <path d="M7011 7344 c0 -11 3 -14 6 -6 3 7 2 16 -1 19 -3 4 -6 -2 -5 -13z" />
        <path d="M6991 7293 c-10 -26 -10 -27 4 -9 8 11 15 23 15 28 0 15 -7 8 -19
-19z" />
        <path d="M5950 7997 c46 -48 86 -87 88 -87 13 0 -35 53 -99 109 l-74 65 85
-87z" />
        <path d="M5131 7220 c0 -19 4 -42 9 -50 8 -12 10 -11 9 5 -1 11 -5 34 -9 50
l-8 30 -1 -35z" />
        <path d="M5976 7206 c-14 -23 -19 -24 -53 -14 -128 35 -442 -53 -558 -157
l-40 -36 48 31 c50 33 63 28 23 -9 -13 -12 -38 -43 -56 -69 l-32 -47 43 50
c70 81 119 124 173 150 64 31 182 61 276 71 l72 7 -16 -31 c-19 -36 -58 -62
-64 -43 -3 9 -7 8 -16 -3 -6 -8 -40 -21 -76 -30 -120 -29 -226 -90 -316 -180
-45 -45 -86 -91 -93 -103 -11 -21 -10 -23 16 -23 21 0 24 3 14 9 -12 8 -13 12
-2 25 10 12 17 14 27 5 8 -6 11 -15 8 -20 -3 -5 -1 -9 5 -9 18 0 21 17 6 30
-24 20 -19 27 46 75 l62 45 29 -40 c38 -51 76 -71 147 -77 101 -8 182 55 197
153 l6 45 77 -6 c42 -4 77 -8 79 -10 9 -8 -67 -90 -110 -120 -79 -53 -163 -76
-308 -84 l-125 -7 107 -8 c59 -4 120 -5 137 -1 22 5 32 2 40 -12 9 -15 10 -16
11 -2 0 28 41 31 68 6 l24 -22 -7 28 c-6 22 -4 27 12 27 10 0 24 -5 30 -11 9
-9 10 -7 6 10 -6 23 7 27 36 12 14 -8 17 -6 17 12 -1 17 4 21 20 20 17 -2 21
2 17 17 -6 23 15 27 50 9 21 -11 21 -11 -2 14 -21 23 -22 27 -7 33 9 3 26 4
39 1 21 -6 21 -6 -3 13 l-24 18 46 44 c25 23 67 62 94 84 27 23 57 56 68 74
l18 32 -44 -26 c-39 -22 -138 -51 -138 -40 0 3 11 22 25 44 34 54 31 68 -5 26
-29 -33 -31 -34 -69 -22 -50 15 -55 20 -41 45 15 29 6 26 -14 -3z m-36 -46 c0
-11 -33 -37 -57 -44 -27 -9 -31 9 -8 40 10 15 22 20 40 17 14 -3 25 -9 25 -13z
m98 -15 c9 -9 -5 -16 -49 -26 -49 -11 -55 -8 -37 21 10 17 20 20 47 16 18 -3
36 -8 39 -11z m-208 -162 c0 -43 -38 -110 -76 -134 -43 -26 -135 -30 -180 -6
-33 17 -64 56 -64 81 0 17 54 38 76 29 9 -3 14 0 12 7 -5 20 29 37 44 22 11
-11 9 -16 -10 -31 -27 -20 -17 -34 29 -46 34 -8 77 28 83 70 2 17 5 31 5 33 1
1 19 2 41 2 37 0 40 -2 40 -27z" />
        <path d="M4499 7158 c33 -49 51 -67 51 -48 0 6 -18 30 -41 53 l-41 42 31 -47z" />
        <path d="M4660 6911 c49 -64 88 -138 107 -201 l13 -45 -5 40 c-6 56 -56 152
-110 210 l-46 50 41 -54z" />
        <path d="M5475 6705 c17 -8 37 -14 45 -14 8 0 -1 7 -20 14 -46 18 -64 17 -25
0z" />
        <path d="M4790 6347 c0 -2 -5 -29 -10 -60 -9 -45 -8 -63 4 -91 8 -20 18 -36
21 -36 3 0 0 10 -6 22 -7 14 -10 48 -6 95 3 40 4 73 1 73 -2 0 -4 -1 -4 -3z" />
        <path d="M5330 6251 c17 -33 15 -87 -4 -116 -9 -14 -33 -34 -54 -44 -20 -11
-31 -20 -24 -21 24 0 70 29 91 59 27 38 27 92 0 122 l-20 24 11 -24z" />
        <path d="M4656 6204 c-11 -29 -6 -109 9 -130 15 -22 73 -54 97 -54 7 1 -3 9
-22 19 -61 33 -75 56 -74 122 1 62 0 69 -10 43z" />
        <path d="M5135 6105 c-41 -41 -47 -66 -9 -36 14 11 42 23 63 27 79 14 97 44
26 44 -37 0 -50 -5 -80 -35z" />
        <path d="M4765 6086 c-27 -19 -15 -28 49 -37 32 -4 70 -18 92 -33 40 -27 78
-33 104 -16 11 7 6 10 -20 10 -24 0 -52 12 -91 40 -67 47 -106 57 -134 36z" />
        <path d="M5008 6063 c7 -3 16 -2 19 1 4 3 -2 6 -13 5 -11 0 -14 -3 -6 -6z" />
        <path d="M5085 5810 c-16 -11 -39 -20 -50 -21 -16 -1 -17 -2 -3 -6 18 -4 72
20 83 37 9 14 4 13 -30 -10z" />
        <path d="M4000 5816 c0 -2 8 -10 18 -17 15 -13 16 -12 3 4 -13 16 -21 21 -21
13z" />
        <path d="M5210 5806 c56 -21 142 -66 180 -93 l35 -24 -35 31 c-39 34 -138 85
-185 94 -27 6 -27 5 5 -8z" />
        <path d="M4944 5795 c11 -8 31 -15 45 -14 26 1 23 3 -34 20 -28 8 -29 8 -11
-6z" />
        <path d="M4804 5742 c-41 -38 -81 -82 -73 -82 2 0 31 27 63 60 67 68 72 79 10
22z" />
        <path d="M5107 5624 c-62 -23 -72 -24 -127 -12 l-59 12 -117 -53 c-99 -44
-124 -52 -167 -49 -55 3 -77 -16 -30 -26 18 -4 55 3 102 19 88 29 128 31 223
8 67 -16 75 -16 160 1 49 10 131 31 183 47 71 21 115 28 177 28 82 -1 130 10
143 30 12 20 -25 24 -46 5 -30 -27 -118 -29 -238 -5 -124 25 -119 25 -204 -5z
m173 -4 c23 -7 24 -8 5 -15 -11 -4 -47 -18 -80 -31 -34 -13 -85 -28 -114 -34
-66 -12 -176 -13 -146 0 16 6 8 10 -33 15 -29 4 -55 11 -57 15 -3 4 13 15 34
24 33 13 48 13 96 3 53 -11 62 -10 128 15 71 26 100 27 167 8z" />
        <path d="M5380 5401 c-89 -92 -142 -112 -311 -118 -149 -6 -201 6 -279 68 -27
21 -47 32 -44 25 9 -24 109 -96 161 -116 26 -11 43 -19 37 -20 -5 0 -19 -7
-30 -15 -17 -14 -17 -14 11 -4 17 6 111 14 210 17 99 3 173 7 165 10 -10 4 -1
12 25 24 22 10 32 16 23 14 -10 -3 -41 -8 -70 -11 l-53 -6 50 27 c56 29 139
105 161 147 8 15 13 26 12 26 -2 -1 -32 -31 -68 -68z" />
        <path d="M7360 6440 c6 -11 13 -20 16 -20 2 0 0 9 -6 20 -6 11 -13 20 -16 20
-2 0 0 -9 6 -20z" />
        <path d="M3513 6920 c0 -30 2 -43 4 -27 2 15 2 39 0 55 -2 15 -4 2 -4 -28z" />
        <path d="M2970 5970 c-6 -11 -8 -20 -6 -20 3 0 10 9 16 20 6 11 8 20 6 20 -3
0 -10 -9 -16 -20z" />
        <path d="M6653 5550 c0 -36 2 -50 4 -32 2 17 2 47 0 65 -2 17 -4 3 -4 -33z" />
        <path d="M6642 5440 c0 -19 2 -27 5 -17 2 9 2 25 0 35 -3 9 -5 1 -5 -18z" />
        <path d="M6731 1344 c0 -11 3 -14 6 -6 3 7 2 16 -1 19 -3 4 -6 -2 -5 -13z" />
        <path d="M6741 1274 c0 -11 3 -14 6 -6 3 7 2 16 -1 19 -3 4 -6 -2 -5 -13z" />
        <path d="M6751 1239 c-1 -18 20 -82 25 -77 2 2 -3 24 -11 48 -7 25 -14 38 -14
29z" />
        <path d="M3411 4994 c0 -11 3 -14 6 -6 3 7 2 16 -1 19 -3 4 -6 -2 -5 -13z" />
        <path d="M3421 4960 c-1 -20 25 -106 39 -128 10 -15 11 -15 5 3 -4 11 -15 47
-25 80 -10 33 -19 53 -19 45z" />
        <path d="M2959 1649 c-126 -186 -137 -454 -27 -644 16 -27 57 -78 91 -113 63
-64 154 -138 162 -130 2 2 -25 26 -62 54 -115 86 -195 195 -232 318 -26 84
-28 233 -6 321 18 72 66 173 102 215 14 17 23 33 20 36 -3 3 -24 -23 -48 -57z" />
        <path d="M3777 1615 c-24 -50 -20 -58 4 -12 11 22 19 41 17 43 -3 2 -12 -12
-21 -31z" />
        <path d="M6520 5479 c0 -5 5 -7 10 -4 6 3 10 8 10 11 0 2 -4 4 -10 4 -5 0 -10
-5 -10 -11z" />
        <path d="M3618 5163 c6 -2 18 -2 25 0 6 3 1 5 -13 5 -14 0 -19 -2 -12 -5z" />
        <path d="M3630 5109 c-22 -18 -22 -19 -3 -10 12 6 25 16 28 21 9 15 3 12 -25
-11z" />
        <path d="M3827 4793 c-4 -3 -7 -11 -7 -17 0 -6 5 -5 12 2 6 6 9 14 7 17 -3 3
-9 2 -12 -2z" />
        <path d="M6082 5400 c0 -19 2 -27 5 -17 2 9 2 25 0 35 -3 9 -5 1 -5 -18z" />
        <path d="M6072 5330 c0 -19 2 -27 5 -17 2 9 2 25 0 35 -3 9 -5 1 -5 -18z" />
        <path d="M3700 4536 c0 -2 8 -10 18 -17 15 -13 16 -12 3 4 -13 16 -21 21 -21
13z" />
        <path d="M4080 4091 c0 -5 7 -15 17 -22 15 -13 15 -12 4 9 -12 23 -21 28 -21
13z" />
        <path d="M9256 4791 c-8 -13 4 -41 17 -41 8 0 8 3 0 11 -6 6 -9 18 -6 25 6 16
-3 19 -11 5z" />
        <path d="M8893 4498 c-15 -20 -25 -38 -20 -38 3 0 12 11 21 25 17 26 16 35 -1
13z" />
        <path d="M8367 2825 c-15 -14 -71 -50 -123 -81 -108 -63 -127 -84 -26 -29 66
37 192 122 192 131 0 10 -17 2 -43 -21z" />
        <path d="M7605 1962 c8 -53 36 -104 83 -149 66 -64 72 -52 9 17 -32 34 -64 82
-77 112 -16 41 -20 46 -15 20z" />
        <path d="M2535 2815 c4 -11 16 -45 27 -75 11 -30 24 -75 28 -100 6 -37 8 -40
9 -14 1 36 -32 147 -55 184 -10 17 -13 19 -9 5z" />
        <path d="M2592 2510 c0 -19 2 -27 5 -17 2 9 2 25 0 35 -3 9 -5 1 -5 -18z" />
        <path d="M8135 3770 c11 -5 36 -9 55 -9 19 0 44 4 55 9 14 6 -4 9 -55 9 -51 0
-69 -3 -55 -9z" />
        <path d="M3342 2940 c-4 -111 68 -272 174 -388 36 -40 76 -77 87 -83 12 -7 -5
15 -39 47 -129 125 -202 272 -217 434 -3 29 -4 28 -5 -10z" />
        <path d="M6796 2215 c-9 -26 -7 -32 5 -12 6 10 9 21 6 23 -2 3 -7 -2 -11 -11z" />
        <path d="M6998 623 c7 -3 16 -2 19 1 4 3 -2 6 -13 5 -11 0 -14 -3 -6 -6z" />
        <path d="M7343 1260 c0 -25 2 -35 4 -22 2 12 2 32 0 45 -2 12 -4 2 -4 -23z" />
        <path d="M8475 1128 c-4 -90 -5 -183 -3 -208 1 -25 7 47 11 159 4 112 6 206 3
208 -2 2 -7 -69 -11 -159z" />
        <path d="M7352 1175 c0 -16 2 -22 5 -12 2 9 2 23 0 30 -3 6 -5 -1 -5 -18z" />
        <path d="M8422 1180 c0 -14 2 -19 5 -12 2 6 2 18 0 25 -3 6 -5 1 -5 -13z" />
        <path d="M7357 1008 c-4 -68 -14 -152 -22 -188 -21 -94 -16 -108 7 -20 17 68
38 330 26 330 -3 0 -8 -55 -11 -122z" />
        <path d="M7464 945 c0 -106 -5 -206 -12 -244 -7 -34 -11 -65 -9 -68 21 -20 45
326 30 432 -6 46 -8 17 -9 -120z" />
        <path d="M8423 1050 c0 -41 2 -58 4 -37 2 20 2 54 0 75 -2 20 -4 3 -4 -38z" />
        <path d="M8302 955 c-2 -128 9 -279 24 -363 12 -61 15 -25 4 44 -6 38 -14 157
-19 264 l-8 195 -1 -140z" />
        <path d="M8146 805 c1 -143 7 -278 13 -300 10 -40 10 -40 4 10 -3 28 -9 163
-13 300 l-8 250 4 -260z" />
        <path d="M7661 900 c-1 -137 -16 -294 -37 -400 -4 -19 -4 -32 0 -29 26 24 58
366 47 499 -7 79 -8 74 -10 -70z" />
        <path d="M7988 808 c2 -106 7 -231 11 -278 5 -51 6 14 3 165 -2 138 -7 262
-11 278 -3 15 -5 -59 -3 -165z" />
        <path d="M8423 810 c0 -36 2 -50 4 -32 2 17 2 47 0 65 -2 17 -4 3 -4 -33z" />
        <path d="M8482 840 c0 -19 2 -27 5 -17 2 9 2 25 0 35 -3 9 -5 1 -5 -18z" />
        <path d="M8492 770 c0 -14 2 -19 5 -12 2 6 2 18 0 25 -3 6 -5 1 -5 -13z" />
        <path d="M8501 714 c0 -11 3 -14 6 -6 3 7 2 16 -1 19 -3 4 -6 -2 -5 -13z" />
        <path d="M7431 604 c0 -11 3 -14 6 -6 3 7 2 16 -1 19 -3 4 -6 -2 -5 -13z" />
        <path d="M9077 8093 c-46 -165 -48 -287 -7 -483 67 -321 36 -419 -200 -625
-176 -155 -233 -230 -265 -350 -51 -197 28 -425 214 -618 109 -113 153 -144
279 -197 117 -48 173 -95 212 -175 21 -42 25 -65 25 -140 0 -82 -4 -99 -39
-185 -27 -65 -40 -116 -44 -160 -5 -70 16 -194 43 -252 15 -32 15 -30 11 64
-5 123 11 202 62 304 94 189 101 294 30 440 -43 89 -77 125 -187 199 -115 77
-188 149 -226 224 -59 118 -82 300 -50 407 25 86 68 138 163 200 196 127 262
237 262 435 0 112 -19 172 -127 407 -101 220 -133 333 -134 469 0 51 -2 93 -3
93 -2 0 -11 -26 -19 -57z m23 -169 c15 -90 44 -171 125 -350 41 -88 83 -190
95 -225 54 -159 28 -341 -68 -467 -14 -18 -69 -62 -123 -98 -119 -78 -155
-114 -186 -182 -46 -99 -49 -234 -7 -372 41 -137 107 -218 255 -316 115 -76
156 -119 200 -210 24 -52 33 -87 37 -141 6 -89 -7 -142 -63 -263 -60 -128 -79
-207 -72 -294 3 -37 4 -66 2 -64 -3 2 -12 42 -21 89 -20 108 -13 170 33 279
28 68 36 102 40 171 7 123 -12 175 -91 255 -51 51 -76 66 -156 98 -115 46
-160 78 -271 193 -98 101 -157 194 -194 305 -49 147 -43 261 18 388 32 66 76
114 299 325 171 162 198 273 134 550 -33 147 -41 243 -27 348 14 107 25 138
29 82 1 -22 7 -67 12 -101z" />
        <path d="M4465 3664 c11 -9 164 -87 340 -174 176 -87 375 -189 443 -225 67
-37 122 -64 122 -62 0 6 -127 79 -271 155 -145 77 -657 324 -634 306z" />
        <path d="M5812 3383 c-145 -74 -261 -137 -258 -140 6 -6 473 231 506 257 14
11 23 19 20 19 -3 -1 -123 -62 -268 -136z" />
        <path d="M5865 1833 c-55 -59 -230 -253 -389 -432 -366 -414 -416 -471 -387
-446 13 11 148 160 300 330 252 284 498 559 560 628 14 15 23 27 20 27 -2 0
-49 -48 -104 -107z" />
        <path d="M1957 1420 c18 -179 89 -521 169 -811 55 -201 186 -585 206 -604 8
-7 9 -4 3 10 -139 365 -262 814 -340 1245 -38 208 -48 249 -38 160z" />
    </g>
</svg>