<?xml version="1.0" standalone="no"?>
<!DOCTYPE svg PUBLIC "-//W3C//DTD SVG 20010904//EN" "http://www.w3.org/TR/2001/REC-SVG-20010904/DTD/svg10.dtd">
<svg version="1.0" xmlns="http://www.w3.org/2000/svg" width="1024.000000pt" height="1024.000000pt"
    viewBox="0 0 1024.000000 1024.000000" preserveAspectRatio="xMidYMid meet">

    <g transform="translate(0.000000,1024.000000) scale(0.100000,-0.100000)" fill="#000000" stroke="none">
        <path d="M6489 9775 c-112 -41 -190 -113 -243 -225 -28 -59 -31 -74 -31 -162
0 -54 -1 -98 -2 -98 -2 0 -24 15 -50 34 -156 112 -494 271 -698 329 -248 71
-447 58 -660 -42 -44 -21 -102 -55 -129 -75 l-48 -37 -62 25 c-134 56 -308 83
-437 66 -109 -13 -242 -60 -363 -126 -120 -67 -163 -97 -318 -226 -65 -54
-119 -98 -122 -98 -2 0 -6 17 -10 39 -8 53 -83 151 -156 205 -110 81 -234 110
-345 81 -66 -17 -155 -73 -185 -115 -13 -19 -37 -31 -82 -44 -97 -27 -174 -73
-265 -159 -90 -85 -157 -178 -195 -271 l-25 -58 -6 47 c-4 25 -2 76 3 113 18
132 58 211 150 295 65 61 68 73 7 31 -49 -33 -120 -129 -148 -202 -20 -51 -23
-77 -25 -235 -1 -98 -5 -181 -8 -184 -10 -10 -44 79 -56 145 -18 104 12 242
75 342 51 81 148 159 207 165 39 5 115 24 143 36 13 6 -4 8 -51 6 -98 -6 -196
-51 -264 -123 -126 -134 -171 -359 -104 -524 l14 -35 -48 50 c-66 67 -95 145
-96 248 -1 64 -3 74 -13 60 -53 -71 -11 -259 81 -361 l37 -41 -48 -6 c-122
-17 -213 -71 -263 -157 -50 -88 -62 -204 -26 -253 10 -13 12 -7 12 37 1 69 29
123 99 191 68 67 158 116 227 124 l53 5 -36 -31 c-47 -39 -107 -129 -137 -206
-14 -33 -44 -81 -67 -106 -205 -220 -217 -498 -31 -698 40 -44 57 -71 74 -126
24 -76 87 -169 143 -211 77 -58 130 -77 221 -82 93 -5 150 5 231 40 66 29 53
33 -19 6 -45 -17 -81 -22 -154 -23 -87 0 -100 2 -149 30 -99 54 -194 168 -215
257 -6 27 -5 27 21 17 16 -6 62 -43 103 -83 124 -121 228 -160 423 -160 l118
0 -59 -60 c-143 -147 -228 -292 -258 -440 -48 -233 89 -448 281 -445 l60 2
-55 7 c-145 19 -219 124 -207 296 13 176 132 430 260 553 l36 34 -6 -169 c-13
-394 52 -637 257 -956 l92 -143 -46 -145 c-151 -482 -160 -680 -42 -936 55
-118 111 -189 301 -384 167 -171 186 -194 228 -278 59 -119 71 -177 64 -327
-9 -199 -80 -364 -191 -446 -22 -16 -35 -29 -29 -29 7 0 39 25 71 55 104 96
170 254 179 431 10 188 -33 363 -121 481 -23 32 -90 111 -148 175 -236 262
-286 386 -275 693 6 160 20 248 67 423 12 45 25 82 29 82 3 0 38 -60 76 -132
87 -165 158 -260 278 -374 73 -70 112 -99 178 -131 81 -39 89 -46 147 -126 67
-92 171 -195 288 -283 l76 -57 -54 -28 c-187 -101 -242 -323 -123 -499 19 -29
35 -58 35 -66 0 -8 14 -81 31 -162 43 -211 40 -333 -11 -432 -10 -19 -48 -68
-84 -109 -65 -73 -93 -132 -83 -172 4 -15 -24 -33 -156 -100 -89 -45 -210 -99
-270 -121 -122 -43 -462 -136 -722 -197 -217 -51 -372 -98 -531 -161 -165 -66
-205 -87 -300 -157 -95 -71 -174 -156 -255 -277 -177 -262 -255 -532 -334
-1151 -43 -339 -117 -833 -140 -932 -4 -19 -1 -23 18 -23 22 0 26 7 40 83 24
123 73 444 92 597 82 693 153 1019 273 1257 57 112 169 267 245 339 69 66 165
140 171 132 2 -1 9 -38 15 -81 20 -124 85 -309 197 -557 26 -58 82 -193 126
-300 44 -107 77 -182 73 -166 -11 50 -105 296 -177 461 -107 244 -176 434
-202 550 -13 58 -23 105 -22 105 1 0 47 20 103 44 153 66 385 139 593 186 565
127 836 217 1090 359 l90 51 32 -37 c117 -138 361 -311 581 -412 370 -172 892
-209 1340 -96 161 41 357 124 467 198 84 56 213 172 263 234 l51 63 70 -40
c228 -129 389 -199 761 -330 366 -130 705 -259 802 -305 210 -102 356 -252
478 -492 120 -237 209 -688 245 -1248 12 -186 33 -397 51 -517 11 -72 13 -78
35 -78 29 0 29 5 9 138 -16 111 -39 339 -55 557 -24 330 -84 706 -145 917 -74
256 -219 490 -391 629 -134 109 -269 172 -719 333 -497 179 -554 200 -699 262
-82 36 -212 99 -287 142 -119 66 -138 80 -139 102 -1 45 -45 133 -122 248 -42
62 -85 136 -95 165 -27 77 -24 231 6 376 37 179 20 264 -69 345 -23 20 -68 49
-101 63 l-60 26 29 31 c107 112 121 315 31 460 -16 27 -28 51 -25 53 12 12
109 -105 143 -174 l38 -77 -1 -130 c0 -108 -4 -141 -22 -191 -15 -41 -17 -54
-7 -40 50 65 70 252 40 370 -20 76 -45 116 -118 191 -68 70 -68 89 -2 82 61
-7 146 -67 187 -131 28 -44 33 -61 33 -114 0 -68 10 -64 20 8 11 78 -17 154
-79 216 -29 29 -65 54 -81 58 -69 15 -69 13 -19 95 39 63 54 79 90 94 87 36
171 101 299 230 94 95 148 160 195 233 36 56 68 102 71 103 22 1 25 -213 5
-311 -29 -137 -86 -244 -254 -481 -88 -123 -146 -240 -163 -326 -29 -155 7
-351 93 -497 50 -85 158 -200 213 -226 31 -15 34 -15 15 -2 -60 40 -169 162
-199 221 -79 156 -84 351 -14 546 49 137 93 208 279 458 163 218 208 330 208
518 0 112 -9 164 -51 303 -30 101 -32 91 37 272 105 278 130 368 156 575 25
201 13 399 -36 594 -15 61 -26 113 -24 115 5 6 133 -111 216 -197 53 -56 87
-102 114 -158 35 -71 39 -86 38 -154 0 -82 -22 -138 -73 -194 -23 -25 -23 -27
-5 -17 39 19 103 102 125 160 16 43 20 73 17 131 -5 112 -46 189 -162 306 -50
50 -103 99 -119 110 l-27 19 93 0 c84 0 98 3 157 32 70 35 127 84 166 143 19
28 36 41 70 50 64 18 146 81 187 143 58 86 72 144 72 287 0 148 -19 229 -75
322 -31 52 -39 79 -50 158 -19 142 -63 244 -149 344 -23 26 -41 50 -41 53 0
13 81 -12 143 -44 84 -44 159 -110 195 -172 23 -39 27 -57 26 -116 0 -46 -6
-81 -17 -102 -10 -18 -13 -33 -8 -33 5 0 25 30 43 67 29 60 33 77 32 148 0
135 -59 227 -180 282 -61 28 -170 53 -234 53 l-45 0 32 20 c94 57 173 184 173
278 0 53 -19 114 -39 126 -5 4 -3 -10 5 -31 30 -70 5 -155 -69 -239 -42 -48
-122 -105 -166 -119 -22 -7 -23 -5 -17 16 52 181 10 369 -105 473 -63 56 -131
80 -209 73 -47 -4 -140 -38 -140 -51 0 -2 20 2 43 9 48 14 116 7 164 -19 43
-22 128 -116 157 -174 31 -62 56 -153 55 -202 0 -31 -2 -33 -12 -16 -81 129
-200 246 -321 315 -204 115 -458 127 -672 31 -107 -48 -212 -128 -268 -205
-13 -18 -13 -12 -1 46 28 135 76 222 165 302 57 51 120 77 194 78 l51 1 -30
13 c-38 18 -159 18 -206 0z m41 -31 c-61 -34 -115 -87 -161 -158 -48 -73 -75
-158 -84 -265 -8 -85 -18 -97 -42 -50 -26 50 -6 204 36 288 47 92 154 180 245
202 52 12 53 10 6 -17z m-1208 -98 c83 -18 198 -54 303 -96 137 -54 416 -195
514 -260 131 -87 289 -244 390 -385 46 -64 81 -118 79 -120 -2 -2 -38 36 -80
85 -146 168 -372 342 -560 430 -121 56 -122 49 -2 -13 187 -97 328 -199 464
-336 69 -69 134 -142 144 -161 23 -40 25 -41 -65 32 -61 50 -247 167 -336 211
-95 48 -215 97 -346 141 -142 47 -161 45 -27 -3 176 -64 260 -100 379 -162
283 -148 469 -304 560 -471 l35 -62 -50 29 c-140 82 -283 133 -602 214 -321
82 -439 124 -589 213 -278 164 -508 237 -711 225 -105 -6 -176 -27 -227 -67
-43 -34 -42 -36 8 -15 23 9 68 15 119 15 191 0 371 -87 561 -271 53 -52 97
-91 97 -87 0 3 -34 42 -75 86 -154 164 -381 282 -552 286 -82 2 -35 15 76 21
163 10 327 -33 541 -140 237 -119 325 -182 509 -360 336 -326 546 -685 657
-1119 26 -101 71 -392 75 -481 3 -54 -38 -203 -51 -188 -4 4 -5 58 -2 118 l5
110 18 -50 c24 -69 23 -34 -6 138 -42 253 -95 426 -191 627 -53 111 -140 260
-151 260 -3 0 1 -10 9 -22 137 -213 266 -533 287 -710 14 -123 22 -397 12
-443 l-8 -40 -32 69 c-18 38 -43 112 -56 165 -59 235 -189 557 -345 854 -74
138 -51 81 47 -120 110 -226 210 -469 246 -593 40 -140 40 -162 -1 -50 -55
151 -147 321 -254 470 -25 36 -49 88 -70 155 -97 316 -249 608 -376 726 l-36
34 27 -35 c149 -194 253 -398 338 -664 33 -105 81 -247 106 -316 42 -116 130
-298 175 -363 11 -16 17 -31 13 -35 -9 -9 -163 152 -229 241 -73 98 -164 258
-227 400 -29 64 -54 115 -56 113 -5 -5 61 -157 119 -268 28 -56 89 -157 135
-225 90 -134 80 -146 -20 -23 -128 158 -222 322 -302 528 -15 39 -30 70 -32
68 -8 -8 88 -240 132 -323 83 -152 198 -311 268 -369 30 -25 31 -26 7 -20 -14
3 -45 8 -70 12 -25 4 -96 31 -159 60 -100 48 -123 64 -203 141 -113 110 -269
304 -324 403 -23 41 -57 112 -75 157 -18 46 -34 81 -36 79 -9 -9 75 -212 138
-336 71 -140 173 -287 260 -375 27 -28 49 -54 49 -57 0 -11 -71 17 -130 52
-82 48 -154 113 -238 215 -89 107 -107 126 -64 65 70 -97 150 -186 220 -242
40 -32 70 -58 67 -58 -23 0 -115 69 -201 153 -117 112 -211 247 -306 437 -32
63 -58 109 -58 102 -1 -77 194 -556 271 -669 17 -24 32 -52 33 -60 2 -9 12
-24 24 -34 27 -22 27 -26 0 -39 -21 -10 -21 -10 -5 3 15 13 9 15 -60 19 -127
8 -218 66 -322 207 -83 112 -143 219 -198 355 -29 72 -53 125 -53 118 0 -26
73 -201 127 -302 144 -271 267 -390 407 -390 l29 0 -47 -41 c-68 -60 -112
-160 -87 -198 10 -16 10 -16 93 48 23 18 30 21 15 7 -15 -14 -26 -26 -23 -26
3 0 74 30 158 66 199 85 303 114 443 121 l110 6 70 -36 c39 -19 81 -44 94 -54
l24 -20 -57 -6 c-40 -4 -81 -19 -140 -50 -78 -41 -90 -45 -187 -51 -129 -10
-155 -10 -249 -1 -255 24 -465 -155 -494 -422 l-10 -92 -25 7 c-14 4 -66 7
-116 6 -85 -1 -106 -6 -206 -48 -13 -6 -18 1 -23 36 -11 69 -70 179 -128 240
-63 65 -134 104 -227 124 -161 34 -294 1 -429 -105 -50 -40 -52 -41 -64 -21
-7 11 -20 20 -29 20 -9 0 -36 11 -60 24 -47 26 -98 40 -194 51 l-60 7 35 29
c62 52 155 74 310 73 115 -1 347 -21 457 -39 25 -4 32 -2 35 12 10 44 -45 118
-112 153 -35 18 -123 38 -190 42 -31 3 -39 10 -68 58 -18 30 -44 91 -59 135
-42 130 -45 402 -6 610 3 17 3 27 0 24 -9 -7 -23 -82 -49 -259 -16 -107 -21
-197 -22 -342 -1 -109 -2 -198 -3 -198 -7 0 -33 75 -47 137 -24 105 -31 256
-17 354 17 114 62 301 105 433 20 60 36 112 36 115 -1 15 -33 -57 -85 -194
-32 -82 -68 -171 -81 -197 -32 -63 -89 -256 -110 -369 -10 -52 -20 -166 -23
-253 -4 -104 -10 -161 -17 -163 -14 -5 -58 111 -75 196 -18 92 -7 370 20 487
27 122 73 249 132 366 55 109 62 131 23 74 -78 -115 -174 -375 -219 -596 -10
-47 -23 -173 -29 -280 l-12 -195 -14 80 c-21 110 -19 358 3 450 27 115 28 123
8 64 -37 -108 -76 -417 -76 -601 0 -93 -1 -168 -1 -168 -6 0 -25 147 -34 263
-11 128 -6 242 15 390 l5 32 -9 -30 c-28 -89 -43 -252 -47 -499 l-3 -259 -28
-29 c-19 -20 -29 -25 -34 -16 -4 7 -20 69 -35 138 -38 175 -44 405 -15 570 11
63 18 116 17 118 -8 8 -46 -175 -56 -268 -13 -130 -18 -476 -7 -550 5 -30 6
-52 3 -49 -3 2 -19 83 -37 179 -42 229 -43 393 -5 652 37 255 90 423 196 625
120 230 252 404 452 598 122 120 203 178 343 248 132 67 202 87 319 94 109 6
116 -1 31 -32 -79 -27 -213 -102 -293 -162 -216 -161 -408 -416 -531 -705 -55
-131 -51 -136 9 -11 105 222 232 409 377 557 234 238 510 380 623 321 17 -9
30 -12 30 -7 0 15 -34 40 -84 63 -128 56 -346 4 -581 -139 -49 -30 -135 -74
-190 -98 -227 -99 -338 -188 -586 -470 -144 -164 -323 -344 -342 -344 -15 0
53 182 119 319 41 84 71 157 68 162 -12 20 140 257 246 384 69 83 189 196 295
278 166 128 560 229 768 197 96 -15 203 -68 262 -131 25 -26 45 -44 45 -39 0
5 -24 33 -52 63 -86 87 -192 127 -338 127 -151 0 -357 -44 -511 -110 -38 -16
-69 -27 -69 -25 0 9 190 130 259 165 178 89 370 120 529 86 80 -17 230 -61
249 -74 9 -6 5 -25 -14 -75 -28 -70 -38 -80 -48 -48 -10 32 -103 111 -161 137
-87 38 -84 28 5 -17 63 -31 91 -53 123 -92 22 -28 44 -63 50 -76 l9 -25 18 30
c35 56 118 122 212 168 135 65 227 87 399 95 133 6 140 7 86 15 -199 29 -517
-73 -653 -209 -35 -35 -63 -62 -63 -61 0 11 52 132 62 144 41 49 165 122 273
161 112 40 297 52 417 27z m2140 -53 c78 -42 124 -117 153 -246 12 -56 15 -96
10 -142 -9 -91 -25 -92 -25 -2 0 169 -96 341 -225 404 l-50 25 44 -7 c25 -3
67 -18 93 -32z m-622 -45 c-121 -53 -178 -88 -244 -149 -78 -73 -134 -163
-156 -251 -7 -27 -15 -48 -19 -48 -4 0 -33 26 -65 59 -54 54 -57 60 -46 82 56
108 177 211 303 259 84 33 183 58 227 59 l25 0 -25 -11z m287 -30 c66 -27 206
-108 200 -115 -3 -2 -26 1 -51 8 -65 16 -215 6 -298 -20 -92 -30 -208 -109
-275 -190 -65 -78 -89 -123 -117 -214 l-21 -67 -54 70 -53 70 39 83 c22 45 60
104 84 132 33 37 37 44 14 27 -43 -34 -101 -114 -121 -169 -21 -58 -38 -81
-28 -38 48 204 168 343 366 425 66 28 81 30 163 27 68 -3 105 -10 152 -29z
m-4096 -88 c36 -10 73 -26 84 -35 13 -9 1 -7 -30 6 -76 33 -204 37 -293 10
-38 -11 -86 -34 -107 -51 -51 -40 -57 -38 -14 6 87 91 206 112 360 64z m-1
-39 c65 -25 112 -61 148 -114 27 -39 62 -126 62 -153 0 -6 -28 16 -63 50 -113
111 -265 171 -418 164 -73 -3 -77 -2 -62 14 50 55 234 77 333 39z m4235 8
c122 -22 189 -79 264 -223 43 -80 41 -86 -17 -79 -56 6 -133 -8 -212 -39 -185
-72 -399 -288 -481 -486 -23 -55 -34 -64 -43 -34 -4 10 -26 49 -51 87 -25 37
-45 80 -45 94 0 68 165 265 284 339 98 61 209 100 320 112 l71 7 -61 2 c-82 1
-198 -30 -297 -80 -108 -56 -257 -202 -301 -296 l-30 -63 -39 72 c-34 61 -39
77 -34 115 8 73 60 164 132 232 74 69 115 93 230 132 44 16 73 28 64 29 -26 0
-159 -48 -207 -76 -25 -15 -66 -45 -91 -68 -41 -37 -43 -38 -23 -10 30 44 125
129 175 158 74 43 211 81 303 85 17 0 57 -4 89 -10z m-4016 -136 c17 -21 38
-59 47 -86 15 -45 15 -49 -2 -68 -9 -10 -20 -19 -24 -19 -4 0 -12 24 -18 54
-6 30 -25 82 -42 116 -27 53 -28 60 -11 51 11 -6 33 -28 50 -48z m-406 26 c40
-6 96 -20 125 -31 63 -24 199 -122 237 -172 27 -36 27 -37 9 -59 -52 -61 -52
-61 -80 -28 -68 82 -232 153 -426 187 -85 14 -99 14 -185 -1 -105 -19 -121
-30 -25 -17 34 5 105 5 157 2 79 -6 107 -14 171 -44 42 -20 94 -50 115 -67 39
-31 139 -156 139 -174 0 -12 -87 -135 -95 -135 -3 0 -19 15 -36 34 -116 133
-394 224 -572 187 -74 -16 -184 -71 -222 -112 -33 -36 -30 -35 43 15 205 137
506 103 712 -83 l64 -58 -38 -74 c-56 -108 -51 -105 -105 -57 -58 51 -188 114
-266 129 -128 24 -362 -8 -454 -62 -18 -11 -35 -18 -37 -16 -8 7 28 133 42
149 9 9 13 21 10 27 -4 6 4 32 18 59 62 123 123 157 331 188 l90 14 -87 -5
c-57 -2 -111 -12 -157 -28 -65 -23 -70 -23 -61 -6 12 21 98 89 114 89 7 0 7 3
-1 8 -20 13 87 77 177 107 132 44 187 50 293 34z m5016 -71 c-37 -72 -154
-168 -206 -168 -34 0 -22 13 43 45 30 15 81 53 112 85 66 67 66 67 51 38z
m-4872 -129 c34 -16 85 -51 113 -77 l51 -47 -27 -37 -27 -37 -28 43 c-45 68
-105 131 -157 166 -42 29 -44 32 -17 25 17 -3 58 -20 92 -36z m4566 -18 c8 -8
-2 -11 -35 -11 -32 0 -67 -11 -119 -37 -94 -46 -243 -192 -314 -306 -74 -120
-135 -323 -135 -448 0 -27 -4 -49 -10 -49 -5 0 -10 7 -10 15 0 8 -27 67 -61
130 -58 111 -60 118 -49 153 47 147 213 357 358 453 140 92 332 143 375 100z
m54 -58 l45 -37 -4 -71 c-11 -155 -141 -349 -353 -523 l-40 -33 35 18 c57 30
243 221 289 298 48 79 45 53 -5 -47 -60 -119 -139 -207 -289 -321 -85 -64
-246 -147 -292 -150 l-28 -2 2 100 c6 272 160 566 377 719 63 45 154 85 194
85 13 1 44 -16 69 -36z m268 1 c134 -33 229 -111 260 -216 18 -60 21 -161 4
-118 -71 174 -169 255 -369 305 -61 15 -110 31 -110 35 0 22 114 18 215 -6z
m-176 -68 c37 -45 16 -251 -43 -407 -18 -49 -32 -89 -30 -89 2 0 15 23 29 51
45 87 67 192 69 317 l1 113 37 -43 c21 -24 54 -75 74 -115 32 -62 36 -78 31
-116 -32 -231 -266 -548 -510 -690 -101 -59 -150 -80 -244 -101 -41 -9 -65
-11 -69 -4 -7 11 -33 116 -34 136 0 6 10 12 23 12 64 0 258 76 344 134 55 38
37 32 -58 -18 -90 -47 -208 -90 -276 -100 -40 -6 -42 -5 -53 29 -18 54 -11 66
50 84 110 34 313 172 410 278 138 150 220 331 220 482 0 61 7 73 29 47z
m-4019 -79 c-9 -7 -44 -34 -78 -60 -34 -27 -60 -53 -56 -58 3 -6 -21 -38 -53
-72 -243 -254 -460 -643 -525 -941 -12 -53 -16 -61 -43 -68 -85 -24 -177 -6
-232 45 -43 39 -31 67 53 122 89 59 341 311 403 403 23 34 40 62 37 62 -2 0
-34 -38 -70 -84 -123 -157 -263 -265 -356 -274 -48 -4 -50 -4 -50 21 0 45 19
78 73 125 116 103 204 193 297 302 115 135 294 313 364 360 91 62 292 162 236
117z m-1710 -172 c33 -33 60 -66 60 -73 0 -12 -19 -18 -88 -26 -24 -2 -69 -17
-100 -32 -64 -31 -169 -130 -195 -184 -16 -35 -17 -35 -17 -7 0 43 43 118 97
168 62 58 142 90 231 90 l64 1 -28 17 c-40 25 -90 83 -119 141 -35 70 -31 86
6 20 16 -30 57 -82 89 -115z m3752 132 c87 -39 261 -93 468 -146 240 -61 373
-106 478 -161 86 -45 132 -80 132 -103 0 -56 -104 -103 -206 -94 -188 18 -565
207 -750 377 -55 50 -119 104 -143 120 -54 36 -49 38 21 7z m-3082 -137 c69
-23 230 -123 230 -143 0 -6 -12 -43 -27 -81 -23 -58 -29 -66 -38 -51 -56 99
-231 240 -351 284 l-59 21 90 -4 c57 -2 114 -12 155 -26z m-180 -18 c116 -45
241 -140 311 -236 35 -48 35 -74 0 -150 l-27 -59 -56 70 c-143 177 -383 318
-540 318 -93 0 -49 19 55 23 144 6 276 -36 407 -130 l55 -39 -44 41 c-114 105
-339 172 -476 140 -22 -5 -41 -7 -43 -5 -7 7 72 36 133 50 76 16 142 9 225
-23z m5440 -103 c30 -156 -85 -493 -217 -640 -19 -21 -36 -46 -37 -56 -4 -22
-99 -75 -200 -109 -68 -23 -98 -27 -186 -27 -139 0 -187 13 -198 56 -5 18 -8
35 -6 38 2 3 27 9 56 12 62 6 211 68 283 117 121 81 233 189 332 316 47 59 99
166 130 266 15 48 28 86 30 84 2 -1 7 -27 13 -57z m-5626 5 c163 -55 335 -188
445 -343 19 -26 20 -32 7 -62 -7 -19 -23 -76 -36 -126 -12 -51 -27 -93 -34
-93 -32 1 -142 33 -185 54 -166 85 -334 282 -402 471 -10 28 -18 43 -18 34 -1
-21 31 -114 59 -169 37 -75 130 -189 204 -252 80 -67 202 -130 289 -149 61
-13 71 -32 20 -37 -49 -5 -151 26 -246 75 -103 53 -221 158 -279 247 -70 108
-112 294 -73 326 12 10 15 10 16 -1 0 -8 5 -3 12 10 10 21 16 23 58 18 130
-16 307 -130 459 -297 49 -55 90 -97 90 -94 0 16 -76 107 -147 175 -129 126
-267 206 -388 225 -46 7 -48 8 -20 14 40 9 86 1 169 -26z m3854 -87 c184 -107
397 -187 497 -187 45 0 98 17 139 45 32 22 35 22 26 5 -15 -29 -87 -67 -159
-86 -97 -24 -222 -4 -341 56 -74 37 -203 134 -265 200 -57 59 -53 58 103 -33z
m-4098 -162 c45 -120 138 -235 258 -317 103 -71 302 -142 348 -124 18 7 17 -1
-1 -97 -8 -43 -15 -106 -15 -139 l0 -61 -63 5 c-77 7 -218 66 -343 144 -46 29
-84 51 -84 49 0 -12 117 -90 195 -131 50 -25 81 -43 70 -40 -103 28 -201 64
-255 92 -122 64 -222 163 -274 274 -28 58 -31 75 -31 155 1 80 4 99 34 169 37
86 42 85 55 -5 9 -60 78 -195 135 -262 56 -66 147 -144 208 -179 77 -45 71
-32 -11 22 -181 122 -325 338 -326 491 0 59 3 71 32 110 l33 44 6 -70 c4 -38
17 -97 29 -130z m5970 40 c10 -22 26 -75 34 -117 41 -201 -2 -397 -110 -498
l-37 -35 40 50 c54 66 71 103 89 183 25 123 13 233 -41 362 -14 33 -25 76 -25
97 1 36 1 37 16 18 9 -11 24 -38 34 -60z m-1704 -63 c192 -96 368 -85 488 30
27 26 51 48 52 48 1 0 8 -15 15 -32 18 -43 15 -165 -6 -215 -25 -60 -82 -112
-144 -129 -138 -41 -342 40 -412 163 -17 30 -65 99 -105 153 l-73 98 62 -43
c34 -23 89 -56 123 -73z m1613 22 c-14 -148 -74 -284 -170 -384 -69 -72 -105
-87 -47 -18 86 101 156 242 193 390 29 114 34 117 24 12z m77 -76 c56 -171 24
-361 -78 -473 -43 -47 -93 -85 -112 -85 -2 0 6 30 19 68 13 37 26 90 29 117 5
46 5 47 -5 15 -5 -19 -18 -65 -29 -101 -21 -70 -52 -119 -76 -119 -22 0 -9 39
54 167 36 73 59 108 64 100 5 -7 8 -2 8 15 0 15 9 50 20 77 23 58 55 185 65
254 3 26 8 47 10 47 2 0 16 -37 31 -82z m-6244 -140 c-33 -62 -66 -138 -72
-169 -12 -55 -10 -202 4 -244 3 -11 0 -6 -9 12 -8 18 -20 63 -26 101 -9 57 -9
83 4 146 18 88 74 210 120 263 53 61 44 15 -21 -109z m5168 81 c6 -23 12 -69
12 -103 -1 -110 -95 -375 -169 -473 -15 -20 -22 -33 -15 -29 8 5 33 38 57 75
47 72 89 185 125 329 13 51 24 91 26 89 1 -1 8 -41 14 -89 26 -195 -55 -448
-188 -590 -25 -27 -40 -48 -34 -48 25 0 138 156 177 244 13 30 27 71 31 92 13
73 23 69 17 -6 -7 -100 -55 -285 -96 -373 -41 -88 -108 -176 -181 -239 l-54
-48 -7 98 c-4 53 -11 124 -16 157 -13 86 -12 89 25 109 19 10 49 34 68 54 28
30 25 28 -25 -12 -65 -51 -84 -57 -92 -23 -3 12 -14 60 -24 107 -11 47 -23 92
-26 101 -5 13 5 21 44 34 65 21 150 98 197 177 19 33 33 62 32 64 -2 2 -27
-33 -56 -76 -29 -44 -68 -91 -87 -106 -39 -30 -132 -67 -139 -56 -2 4 -17 44
-32 87 -14 44 -53 136 -85 204 -33 68 -59 125 -59 126 0 2 35 -15 78 -36 91
-46 179 -63 255 -49 70 14 106 38 145 94 37 56 39 52 11 -31 -22 -66 -70 -129
-132 -174 -22 -16 -37 -29 -32 -29 19 0 107 75 133 115 32 48 67 153 77 228 3
26 8 47 10 47 2 0 9 -19 15 -41z m-5137 -186 c-4 -97 -1 -159 9 -208 9 -46 12
-103 8 -165 l-5 -94 -33 41 c-43 55 -58 94 -71 183 -16 117 5 221 66 331 16
27 29 49 30 49 0 0 -1 -62 -4 -137z m57 23 c0 -7 20 -55 45 -106 153 -314 456
-489 697 -404 l38 13 0 -83 0 -83 -37 -11 c-141 -41 -280 -40 -413 4 -47 16
-91 28 -97 27 -7 0 -10 3 -7 8 3 5 1 9 -4 9 -27 0 -112 95 -145 162 -72 146
-91 219 -93 361 -1 74 2 125 7 121 5 -3 9 -11 9 -18z m5945 -120 c-77 -152
-181 -250 -325 -305 -92 -36 -205 -55 -272 -46 l-47 7 -19 61 c-10 34 -17 63
-16 65 1 2 34 -8 74 -22 119 -43 270 -30 369 31 48 31 192 156 203 177 6 12
-16 -4 -48 -35 -144 -135 -250 -188 -376 -189 -68 0 -169 29 -223 64 -37 24
-30 37 13 22 62 -22 137 -27 227 -16 173 21 280 74 405 200 36 36 67 64 69 63
2 -1 -13 -36 -34 -77z m-4931 23 c-22 -25 -153 -119 -165 -119 -10 0 -1 56 13
82 4 9 25 20 46 23 20 4 55 13 77 20 22 7 42 14 44 14 2 1 -4 -9 -15 -20z
m4175 -119 c11 -52 25 -140 32 -195 13 -94 14 -97 19 -50 l5 50 14 -30 c78
-172 59 -552 -36 -739 -26 -50 -26 -50 -34 -24 -4 14 -19 49 -34 76 l-27 50
35 88 c20 49 43 114 51 144 17 59 36 219 35 285 -1 22 -8 -16 -15 -84 -15
-140 -41 -242 -84 -338 -17 -37 -32 -69 -35 -71 -2 -2 -17 4 -33 14 l-30 17
35 54 c33 53 84 171 82 196 0 6 -10 -15 -23 -48 -12 -34 -39 -91 -59 -128
l-38 -67 -55 0 c-30 0 -69 -7 -85 -16 -28 -14 -32 -14 -49 1 -10 9 -24 14 -30
10 -7 -4 -3 -12 10 -23 20 -17 20 -17 1 -45 l-18 -29 -6 24 c-12 53 -1 91 34
117 172 127 287 387 294 661 1 63 3 137 4 165 2 71 17 46 40 -65z m-4864 -125
c149 -73 213 -93 349 -107 71 -8 115 -16 113 -23 -5 -16 -71 -34 -145 -41 -58
-5 -80 -2 -162 25 -115 37 -200 91 -276 174 -73 81 -89 112 -33 63 24 -21 94
-62 154 -91z m3128 -151 c46 -49 115 -108 160 -137 l79 -52 -46 -11 c-25 -7
-64 -21 -86 -33 -22 -12 -43 -21 -45 -21 -8 0 -66 94 -112 180 -35 64 -113
255 -113 276 0 3 19 -22 41 -56 23 -34 78 -100 122 -146z m2426 158 c-7 -22
-17 -32 -31 -32 -18 0 -19 2 -7 18 46 60 56 64 38 14z m-4905 -47 c22 -4 63
-1 90 5 27 6 50 9 52 7 2 -2 -4 -54 -13 -116 l-17 -113 -34 6 c-71 11 -180
137 -200 232 l-9 42 45 -29 c24 -15 63 -31 86 -34z m822 -117 c-1 -152 2 -182
22 -251 12 -43 34 -100 47 -128 l25 -49 -22 0 c-20 0 -108 -29 -172 -55 -19
-8 -19 -4 -13 111 7 129 26 253 58 373 18 69 51 171 55 171 0 0 1 -78 0 -172z
m-1782 10 c29 -149 62 -224 128 -291 52 -52 29 -46 -32 9 -71 64 -122 180
-135 307 -6 58 0 116 11 104 2 -2 15 -60 28 -129z m932 -51 c30 -30 62 -51 88
-59 53 -15 60 -21 52 -52 -8 -33 -29 -33 -92 -1 -42 22 -45 22 -25 5 14 -12
44 -26 68 -33 l43 -11 0 -139 c0 -160 20 -315 56 -429 14 -44 24 -82 21 -84
-10 -10 -105 65 -140 111 -123 160 -222 496 -203 690 3 33 8 88 12 122 l6 61
34 -66 c18 -37 54 -88 80 -115z m4914 143 c0 -5 -28 -38 -62 -73 -76 -78 -135
-101 -248 -102 -62 0 -83 4 -119 25 l-44 25 69 6 c93 8 143 23 239 72 44 23
89 45 100 48 31 11 65 10 65 -1z m40 -1 c0 -15 -135 -149 -149 -149 -7 0 5 15
26 33 48 41 70 65 88 100 16 27 35 36 35 16z m-5820 -151 c0 -13 -18 -9 -34 8
-9 8 -16 25 -16 37 0 20 2 20 25 -8 13 -16 24 -33 25 -37z m3809 -102 c16 -19
-3 -30 -28 -17 -21 12 -96 99 -126 146 -13 20 7 7 62 -42 44 -40 86 -79 92
-87z m542 -9 c39 -65 82 -148 96 -185 28 -74 54 -162 47 -162 -2 0 -22 12 -44
26 -21 14 -75 38 -119 54 -64 22 -93 39 -148 88 l-68 61 45 -10 c74 -17 121
-42 209 -113 46 -37 85 -65 88 -62 9 8 -29 56 -40 49 -6 -3 -7 -1 -3 6 4 6 -8
39 -27 74 -46 81 -122 251 -136 302 l-10 40 20 -25 c11 -14 51 -78 90 -143z
m1036 59 c243 -182 336 -334 308 -503 l-9 -48 -8 67 c-19 158 -69 226 -347
476 -44 41 -81 80 -81 88 0 20 17 10 137 -80z m-3487 -204 c53 -101 57 -106
110 -121 49 -14 136 -56 144 -69 2 -4 -21 5 -53 20 -72 35 -162 58 -222 58
-40 0 -48 3 -53 23 -12 45 -18 186 -11 253 l8 69 18 -78 c11 -44 37 -113 59
-155z m3368 98 c27 -113 44 -229 45 -309 1 -110 -58 -294 -139 -431 -20 -34
-34 -64 -31 -67 7 -6 74 114 108 195 15 37 36 99 46 137 l18 70 3 -59 c6 -112
-40 -330 -90 -431 -35 -70 -104 -169 -143 -205 l-26 -25 10 28 c6 15 20 78 30
138 11 61 24 116 28 122 5 7 6 75 3 152 l-7 139 34 74 c63 135 76 206 77 399
1 95 4 169 7 165 4 -4 16 -45 27 -92z m-5041 30 c126 -48 281 -56 393 -21 82
26 80 26 80 -9 0 -26 -5 -31 -42 -42 -25 -7 -97 -12 -168 -13 -119 0 -128 2
-200 33 -64 27 -136 71 -120 72 3 0 29 -9 57 -20z m1233 -62 c0 -46 29 -168
55 -232 l25 -61 -49 -47 c-27 -26 -57 -61 -67 -78 -19 -32 -50 -48 -65 -33
-13 13 -31 201 -24 257 12 93 16 93 45 3 15 -48 38 -101 50 -119 l21 -33 -6
35 c-20 117 -16 383 6 349 5 -8 9 -26 9 -41z m-678 -218 c29 -89 87 -203 140
-275 40 -54 79 -86 163 -131 30 -16 24 -40 -14 -66 -60 -40 -76 -80 -75 -186
l1 -93 -34 33 c-19 18 -50 56 -70 85 -20 29 -38 53 -40 53 -10 0 38 -68 90
-128 31 -37 60 -78 63 -92 3 -14 14 -61 25 -104 10 -44 19 -84 19 -90 0 -19
-92 79 -140 149 -127 188 -180 362 -185 620 -2 91 -1 136 4 115 12 -49 12 -25
1 128 -10 152 -3 197 17 106 7 -32 23 -88 35 -124z m-82 145 c0 -8 -30 -47
-66 -87 -117 -130 -201 -277 -240 -418 -24 -87 -24 -241 -1 -294 13 -30 14
-36 2 -26 -50 42 -79 240 -50 349 34 133 144 309 259 419 77 73 96 84 96 57z
m3621 -126 c90 -30 107 -40 171 -106 56 -58 114 -155 103 -173 -4 -6 18 -10
54 -10 60 0 84 16 41 27 -11 3 -20 6 -20 7 0 1 7 27 16 57 21 73 34 83 35 29
1 -25 2 -64 3 -87 1 -23 -2 -39 -7 -36 -5 3 -7 -16 -5 -43 l3 -49 -47 -8 -47
-9 5 -42 c9 -62 -13 -206 -43 -289 -81 -227 -220 -417 -423 -580 -100 -81
-167 -111 -223 -102 -154 26 -415 146 -547 252 -101 81 -208 205 -249 288 -43
88 -81 227 -81 299 0 81 24 188 56 253 109 223 381 304 620 184 l73 -37 53 54
c128 131 295 175 459 121z m-3176 -262 c30 -118 31 -129 6 -151 -19 -17 -20
-17 -31 23 -14 53 -32 319 -23 335 4 6 11 -16 15 -49 4 -33 19 -104 33 -158z
m149 134 c3 -22 17 -61 30 -88 l25 -48 -25 -13 c-14 -8 -28 -11 -31 -8 -18 17
-31 212 -14 202 4 -3 11 -23 15 -45z m2559 42 c4 -4 -5 -19 -19 -34 l-26 -28
-55 27 c-42 21 -50 28 -36 34 23 9 128 10 136 1z m1129 -49 c74 -55 118 -166
118 -293 0 -128 -52 -426 -79 -453 -7 -8 -131 247 -176 363 -24 61 -25 65 -9
111 22 67 58 108 96 108 39 0 64 -15 82 -48 l15 -27 1 26 c0 35 -60 89 -98 89
-37 0 -95 -41 -123 -87 l-23 -37 -13 50 c-17 68 -16 103 6 144 28 55 77 83
132 78 25 -3 57 -13 71 -24z m-2699 -89 c176 -37 308 -163 361 -344 21 -71 21
-224 0 -305 -58 -225 -258 -494 -476 -639 -195 -130 -259 -133 -453 -21 -180
105 -343 254 -449 412 -78 117 -106 180 -137 309 l-23 92 -40 3 -41 3 0 45 0
45 41 3 42 3 4 47 c10 100 97 220 195 271 60 30 145 41 241 30 99 -11 175 -38
236 -85 l46 -35 57 47 c70 57 158 100 244 119 81 17 72 17 152 0z m2574 -390
c23 -49 67 -144 100 -210 150 -303 209 -481 219 -660 12 -201 -39 -326 -241
-599 -200 -269 -272 -433 -282 -646 -7 -132 -21 -122 -30 21 -11 161 35 292
166 474 240 333 300 503 272 771 -16 144 -50 295 -99 429 -22 61 -61 170 -88
243 -26 72 -49 131 -51 129 -1 -2 38 -120 87 -262 50 -142 89 -262 88 -266 -2
-5 -21 40 -42 99 -21 59 -70 168 -108 242 -70 135 -124 263 -158 373 l-18 57
28 15 c27 14 29 14 38 -13 6 -20 8 -5 5 53 l-3 80 38 -120 c22 -66 57 -160 79
-210z m-3753 78 c-11 -47 -24 -63 -49 -63 -29 0 -31 10 -10 50 24 47 69 57 59
13z m3561 -87 c4 -46 4 -108 1 -137 -20 -160 -125 -664 -192 -922 -78 -302
-134 -401 -338 -601 -324 -317 -658 -570 -834 -632 -86 -29 -223 -41 -307 -25
-105 20 -188 67 -583 328 -193 128 -285 199 -408 316 -205 194 -330 418 -469
845 -7 19 3 15 48 -21 109 -87 274 -167 344 -167 61 0 127 28 240 102 166 109
302 251 382 398 22 42 55 86 72 99 63 47 104 196 70 259 -18 33 -13 69 12 87
12 9 53 25 91 37 54 16 84 20 145 15 42 -3 84 -8 93 -12 21 -8 31 -37 30 -90
-1 -76 57 -225 88 -225 5 0 47 -39 92 -86 155 -161 333 -272 549 -345 134 -45
191 -48 257 -15 102 52 279 214 386 357 92 120 206 396 206 496 0 13 4 23 9
23 5 0 12 -38 16 -84z m-1650 28 c22 -5 41 -31 31 -41 -3 -3 -21 0 -42 7 -57
19 -187 8 -261 -22 -59 -24 -63 -24 -63 -7 0 24 22 35 117 59 75 19 153 20
218 4z m2216 -135 c-34 -100 -90 -221 -125 -268 l-26 -34 -15 36 c-8 20 -15
42 -15 50 0 7 34 56 75 108 41 52 87 117 102 146 15 28 29 51 30 49 2 -1 -10
-40 -26 -87z m-472 -44 c45 -115 42 -142 -18 -209 -52 -57 -65 -93 -59 -157
l3 -34 24 42 c21 36 32 45 77 58 31 9 61 25 72 40 11 14 23 25 26 25 11 0 46
-83 46 -108 0 -40 -134 -227 -189 -264 -28 -19 -96 -24 -120 -9 -18 11 -12 67
30 280 26 130 59 365 59 421 0 26 18 -4 49 -85z m-3687 23 c18 -15 48 -113 47
-155 0 -15 -6 -46 -13 -68 l-13 -40 -17 38 c-13 29 -56 209 -56 233 0 9 37 3
52 -8z m-61 -247 l68 -67 -11 -37 c-6 -20 -15 -37 -19 -37 -21 0 -229 348
-229 383 0 4 27 -33 61 -83 33 -50 92 -121 130 -159z m1665 76 c-9 -28 -27
-65 -40 -82 l-25 -30 24 65 c13 36 30 85 37 110 11 40 13 42 16 17 2 -15 -4
-51 -12 -80z m474 -15 c0 -2 -5 0 -10 3 -14 9 -50 81 -50 101 0 13 59 -90 60
-104z m1700 -2 c11 -21 20 -46 20 -54 0 -22 -49 -56 -82 -56 -16 0 -38 -5 -49
-10 -32 -18 -22 6 26 60 25 28 48 62 51 75 3 14 8 25 10 25 2 0 13 -18 24 -40z
m-3674 -66 l22 -49 -65 -200 c-107 -333 -143 -510 -143 -698 0 -158 49 -355
126 -509 31 -62 33 -70 14 -53 -35 31 -138 189 -171 261 -51 114 -63 176 -63
324 -1 187 19 280 155 701 38 118 72 230 75 248 9 42 24 35 50 -25z m3929 -44
c-4 -12 -9 -19 -12 -17 -3 3 -2 15 2 27 4 12 9 19 12 17 3 -3 2 -15 -2 -27z
m-3754 -266 c38 -79 60 -112 100 -148 46 -41 54 -55 80 -138 16 -51 29 -94 29
-96 0 -1 -18 7 -40 18 -46 24 -93 83 -182 235 -36 61 -86 143 -111 183 -25 41
-44 79 -42 85 2 7 9 31 15 55 l11 42 46 -67 c25 -38 67 -114 94 -169z m3636
31 c-2 -16 -20 -65 -40 -107 -20 -43 -34 -78 -32 -78 3 0 23 35 45 78 32 60
40 70 35 43 -6 -42 -82 -183 -124 -231 l-30 -35 35 68 c19 37 33 67 31 67 -2
0 -23 -30 -47 -66 -60 -93 -152 -188 -238 -246 -68 -46 -141 -84 -147 -76 -1
2 2 17 7 33 5 19 26 42 59 65 74 51 162 151 204 231 20 39 35 72 33 74 -2 2
-18 -24 -36 -58 -17 -34 -51 -87 -75 -117 -43 -54 -153 -148 -162 -138 -3 3 6
20 19 39 95 133 156 237 156 269 0 8 -20 -25 -44 -75 -24 -49 -60 -108 -79
-130 l-35 -40 14 60 c8 33 22 95 31 137 l16 77 66 -5 c57 -5 71 -2 103 18 44
27 112 105 165 188 l38 59 18 -37 c9 -20 16 -50 14 -67z m-3780 -8 l15 -30
-31 22 c-17 13 -31 31 -31 43 0 17 2 19 16 7 8 -7 22 -26 31 -42z m266 -129
c9 -29 15 -54 12 -56 -9 -9 -78 76 -101 123 -36 76 -29 84 24 32 34 -33 53
-64 65 -99z m-252 75 c31 -32 87 -109 124 -172 79 -132 120 -177 194 -212 48
-23 55 -30 72 -79 10 -29 17 -55 15 -58 -5 -5 -93 81 -130 128 -18 23 -16 19
6 -14 18 -27 58 -71 88 -99 80 -72 105 -121 48 -91 -18 9 -86 70 -151 136 -65
65 -105 101 -89 81 48 -62 206 -209 249 -234 39 -22 70 -56 60 -66 -16 -15
-166 98 -259 195 -107 113 -248 327 -232 353 4 8 3 9 -5 5 -15 -10 -71 112
-71 154 0 44 18 38 81 -27z m3412 -482 c-47 -43 -181 -127 -189 -119 -2 3 0
16 6 30 8 16 28 31 58 41 26 10 72 33 102 51 71 44 74 44 23 -3z m-238 -368
c40 -20 74 -52 91 -85 20 -39 18 -39 -26 4 -45 42 -109 78 -139 78 -22 0 -35
13 -24 24 9 9 60 -2 98 -21z m-124 -146 c20 -45 24 -68 24 -167 0 -63 -4 -123
-10 -132 -7 -12 -10 16 -10 95 0 109 -1 114 -37 190 -21 44 -35 83 -32 89 10
15 40 -20 65 -75z m-29 -62 c37 -119 22 -283 -32 -355 -16 -21 -21 -23 -61
-14 l-44 9 2 60 c2 76 48 352 64 389 l13 27 18 -23 c10 -13 28 -54 40 -93z
m-166 -107 c-16 -77 -50 -340 -61 -470 l-7 -77 -56 -21 c-83 -31 -181 -56
-337 -86 -187 -36 -483 -45 -655 -20 -148 22 -360 76 -458 118 l-77 33 -3 129
-3 129 70 -65 c185 -175 324 -266 451 -294 92 -21 146 -11 287 56 187 88 389
242 708 537 109 102 151 135 153 122 2 -9 -4 -50 -12 -91z m-2841 -41 c199
-228 231 -272 268 -366 24 -59 15 -63 -13 -6 -32 66 -100 155 -189 248 -76 79
-130 154 -165 227 l-17 35 28 -35 c15 -19 55 -65 88 -103z m954 24 c11 -7 -1
-17 -45 -39 -70 -36 -122 -87 -164 -162 -17 -30 -28 -44 -25 -30 24 90 96 183
167 219 49 24 48 24 67 12z m31 -26 c0 -2 -18 -28 -39 -57 -44 -58 -67 -130
-58 -186 6 -31 2 -40 -34 -79 -46 -50 -69 -98 -69 -145 l0 -33 -20 25 c-31 38
-53 124 -45 173 9 55 47 139 85 187 45 57 180 143 180 115z m38 -23 c9 -7 7
-13 -9 -28 -30 -27 -48 -65 -68 -147 -10 -40 -22 -72 -27 -72 -16 0 -16 84 0
133 15 44 69 122 84 122 4 0 13 -4 20 -8z m67 -53 c31 -27 35 -37 35 -78 l0
-47 -72 -19 c-40 -11 -79 -21 -86 -23 -10 -3 -12 6 -7 35 9 53 63 163 80 163
8 0 30 -14 50 -31z m41 -172 c3 -8 4 -53 2 -102 l-3 -88 -37 35 c-21 19 -38
30 -38 23 0 -7 25 -36 55 -64 175 -166 700 -276 1093 -229 l112 14 29 -31 c38
-39 48 -61 72 -148 17 -61 19 -65 13 -24 -8 69 -30 126 -65 170 -16 20 -28 37
-25 37 25 0 256 55 314 75 84 28 93 26 141 -32 17 -21 31 -32 31 -26 0 7 -17
31 -39 53 l-39 41 59 29 c60 31 129 91 129 113 -1 8 -5 7 -13 -3 -14 -18 -72
-60 -82 -60 -8 0 2 144 13 197 l7 32 81 -28 c179 -62 244 -146 231 -301 -3
-36 -20 -126 -38 -200 -33 -142 -44 -299 -23 -349 8 -17 9 2 6 69 -3 60 -1 91
5 87 6 -4 13 -24 17 -46 10 -62 40 -123 127 -258 115 -177 116 -221 7 -337
l-48 -51 6 46 c11 83 -44 232 -103 281 -9 7 0 -10 20 -38 51 -70 67 -123 67
-214 0 -77 0 -78 -38 -112 -21 -19 -58 -48 -83 -65 l-46 -32 1 92 c0 80 -17
177 -30 164 -3 -2 0 -17 6 -33 13 -32 16 -164 5 -212 -5 -26 -19 -37 -93 -75
-48 -25 -127 -59 -175 -76 -104 -36 -247 -74 -254 -67 -3 3 -1 19 5 36 17 47
24 142 13 175 -8 26 -9 21 -10 -37 -1 -69 -15 -153 -30 -176 -33 -53 -659 -65
-823 -16 -18 5 -26 28 -44 134 l-13 75 5 -74 c3 -40 10 -84 16 -97 6 -13 9
-26 7 -29 -8 -7 -181 41 -257 71 -134 54 -222 103 -233 132 -6 15 -9 70 -7
122 3 93 5 99 65 225 83 172 92 225 68 401 -38 285 -30 360 45 428 43 39 40
50 -4 15 -15 -11 -37 -40 -49 -62 -19 -37 -22 -57 -22 -162 0 -66 6 -175 14
-241 18 -161 8 -221 -66 -377 -63 -135 -82 -223 -66 -306 6 -28 8 -51 5 -51
-9 0 -224 147 -262 178 -34 29 -34 31 -35 108 0 91 9 117 79 229 27 44 58 105
69 135 26 73 25 189 -2 344 -34 195 -26 272 37 340 l27 30 -25 -15 c-14 -9
-35 -35 -47 -59 -30 -57 -30 -146 -2 -317 14 -86 20 -157 17 -214 -4 -95 -15
-122 -113 -288 -49 -83 -50 -86 -50 -168 0 -46 -2 -83 -5 -83 -8 0 -94 91
-114 120 -19 28 -21 92 -4 123 6 12 33 46 60 75 135 149 156 278 97 580 -20
103 -30 176 -27 214 7 101 66 160 212 214 72 27 85 28 92 11z" />
        <path d="M4452 9499 c15 -11 39 -35 54 -52 14 -18 21 -22 15 -11 -11 22 -77
84 -89 84 -4 0 5 -10 20 -21z" />
        <path d="M4995 9476 c-78 -18 -149 -43 -205 -71 -65 -33 -166 -111 -191 -148
-22 -32 -22 -32 12 3 50 52 94 83 184 128 126 63 226 87 375 87 69 0 150 -3
180 -7 45 -6 50 -6 25 3 -49 18 -310 21 -380 5z" />
        <path d="M4541 9390 c14 -31 19 -36 19 -24 0 6 -7 19 -16 30 -14 18 -14 18 -3
-6z" />
        <path d="M5059 9390 c-42 -4 -101 -13 -130 -20 -61 -15 -196 -72 -249 -105
-46 -29 -123 -112 -115 -124 3 -6 32 6 64 25 91 54 184 84 266 84 62 0 91 -5
195 -34 l25 -7 -26 15 c-14 8 -62 22 -108 31 -70 15 -93 15 -144 5 -73 -14
-143 -41 -198 -76 -22 -14 -43 -23 -45 -21 -3 3 10 20 28 39 54 57 195 120
358 160 102 24 406 14 525 -19 11 -3 17 -2 14 1 -17 18 -304 60 -369 55 -8 -1
-49 -5 -91 -9z" />
        <path d="M4062 9341 c-7 -4 22 -6 65 -3 144 7 290 -39 379 -120 26 -23 42 -34
36 -23 -30 57 -126 114 -233 140 -68 16 -225 20 -247 6z" />
        <path d="M3987 9220 c-84 -22 -180 -69 -227 -109 -30 -26 -24 -24 45 14 208
117 424 134 605 47 62 -30 63 -14 0 18 -102 52 -293 66 -423 30z" />
        <path d="M3547 9136 c-141 -78 -234 -151 -388 -305 -121 -121 -239 -264 -227
-276 2 -3 27 28 56 68 86 121 282 311 422 411 69 48 151 101 183 117 31 16 57
31 57 34 0 8 0 8 -103 -49z" />
        <path d="M4935 9095 c50 -12 113 -31 140 -40 98 -33 300 -153 455 -270 74 -56
94 -65 45 -21 -68 62 -306 217 -400 262 -91 43 -259 94 -305 94 -14 -1 16 -12
65 -25z" />
        <path d="M4679 9039 c69 -40 211 -183 281 -284 30 -44 85 -138 122 -210 37
-71 68 -125 68 -119 0 26 -154 315 -201 378 -95 125 -259 266 -308 266 -9 0 8
-14 38 -31z" />
        <path d="M4380 8983 c-157 -103 -373 -403 -465 -646 -40 -106 -29 -102 19 8
114 264 278 495 438 615 88 67 92 78 8 23z" />
        <path d="M4495 8933 c-35 -85 -163 -486 -190 -595 -66 -265 -80 -371 -80 -598
1 -174 4 -219 22 -295 40 -169 39 -155 8 -112 -42 61 -93 175 -115 260 -27
110 -43 284 -36 399 14 230 144 613 284 841 23 37 39 67 37 67 -25 0 -255
-439 -322 -614 -44 -116 -87 -281 -113 -431 -29 -165 -29 -429 -1 -565 11 -52
23 -103 26 -112 6 -16 0 -18 -59 -18 -61 0 -66 2 -79 28 -13 24 -33 102 -53
202 -4 19 -10 89 -14 155 l-7 120 -1 -100 c-3 -159 37 -364 79 -406 16 -16 31
-19 82 -17 62 3 62 3 61 33 0 17 -7 75 -14 130 -17 124 -17 372 -1 485 12 83
81 364 88 357 1 -2 -2 -41 -8 -87 -17 -121 -6 -346 20 -445 27 -103 117 -285
176 -355 25 -30 50 -56 55 -58 5 -2 -6 29 -25 70 -47 101 -75 266 -75 451 0
207 33 406 103 622 l32 100 2 -105 c3 -146 21 -351 38 -429 33 -154 101 -317
191 -452 75 -114 231 -246 324 -274 21 -7 18 -1 -20 42 -53 59 -125 187 -167
298 -51 134 -50 149 3 70 105 -156 227 -282 321 -329 61 -31 57 -16 -7 28 -77
52 -201 177 -257 261 -139 207 -222 463 -242 750 -9 134 -21 178 -21 78 0
-212 70 -581 147 -778 45 -115 123 -273 165 -333 l32 -47 -33 21 c-118 75
-221 202 -307 379 -86 179 -128 360 -141 616 -8 164 30 452 82 618 15 45 24
85 22 87 -3 3 -8 -3 -12 -13z" />
        <path d="M4701 8892 c-2 -43 38 -216 74 -322 41 -121 107 -291 111 -287 2 2
-25 86 -60 188 -35 101 -76 238 -90 304 -31 137 -34 149 -35 117z" />
        <path d="M4191 8248 c-12 -57 -23 -132 -26 -168 -4 -60 -3 -58 9 20 7 47 21
121 30 164 10 43 16 80 13 82 -2 3 -14 -42 -26 -98z" />
        <path d="M4751 8294 c0 -11 3 -14 6 -6 3 7 2 16 -1 19 -3 4 -6 -2 -5 -13z" />
        <path d="M4761 8262 c-2 -30 111 -344 158 -443 55 -116 152 -278 209 -349 56
-69 134 -150 144 -150 6 0 -20 32 -57 72 -165 179 -294 413 -401 728 -29 85
-53 149 -53 142z" />
        <path d="M4154 7875 c0 -71 1 -99 3 -62 2 37 2 96 0 130 -2 34 -3 4 -3 -68z" />
        <path d="M5780 7925 c0 -5 5 -17 10 -25 5 -8 10 -10 10 -5 0 6 -5 17 -10 25
-5 8 -10 11 -10 5z" />
        <path d="M4163 7705 c0 -22 2 -30 4 -17 2 12 2 30 0 40 -3 9 -5 -1 -4 -23z" />
        <path d="M4171 7639 c-1 -33 44 -212 59 -236 10 -16 11 -16 5 2 -4 11 -18 70
-31 130 -29 129 -32 139 -33 104z" />
        <path d="M5091 7169 c-28 -50 -42 -106 -34 -136 9 -38 20 -26 26 30 3 28 15
73 26 100 25 58 13 62 -18 6z" />
        <path d="M4130 7092 c0 -4 22 -30 50 -57 27 -27 55 -64 61 -82 13 -40 32 -44
23 -5 -11 43 -30 75 -66 108 -33 32 -68 50 -68 36z" />
        <path d="M7048 9323 c7 -3 16 -2 19 1 4 3 -2 6 -13 5 -11 0 -14 -3 -6 -6z" />
        <path d="M2398 9153 c7 -3 16 -2 19 1 4 3 -2 6 -13 5 -11 0 -14 -3 -6 -6z" />
        <path d="M3474 8698 c-63 -68 -134 -154 -164 -198 -30 -45 -16 -31 55 55 32
39 85 98 119 133 33 34 56 62 50 62 -6 0 -33 -24 -60 -52z" />
        <path d="M1820 7959 c-1 -43 67 -196 122 -277 43 -62 133 -149 202 -194 62
-40 198 -89 244 -87 19 0 12 5 -23 13 -131 33 -253 102 -338 193 -99 103 -143
176 -183 298 -13 39 -23 63 -24 54z" />
        <path d="M2661 7544 c0 -11 3 -14 6 -6 3 7 2 16 -1 19 -3 4 -6 -2 -5 -13z" />
        <path d="M2671 7504 c0 -11 3 -14 6 -6 3 7 2 16 -1 19 -3 4 -6 -2 -5 -13z" />
        <path d="M2695 7428 c10 -37 105 -226 120 -238 8 -6 -6 24 -31 67 -24 43 -54
104 -66 136 -20 56 -35 78 -23 35z" />
        <path d="M2652 6900 c0 -14 2 -19 5 -12 2 6 2 18 0 25 -3 6 -5 1 -5 -13z" />
        <path d="M2661 6854 c0 -11 3 -14 6 -6 3 7 2 16 -1 19 -3 4 -6 -2 -5 -13z" />
        <path d="M2670 6823 c0 -21 51 -156 82 -213 26 -50 97 -143 98 -129 0 3 -14
24 -31 45 -39 48 -83 136 -120 234 -15 41 -28 70 -29 63z" />
        <path d="M2671 6704 c0 -11 3 -14 6 -6 3 7 2 16 -1 19 -3 4 -6 -2 -5 -13z" />
        <path d="M2680 6674 c0 -15 42 -116 46 -111 2 2 -7 30 -21 63 -13 32 -24 54
-25 48z" />
        <path d="M2730 6541 c0 -6 4 -13 10 -16 6 -3 7 1 4 9 -7 18 -14 21 -14 7z" />
        <path d="M5969 7057 c-97 -33 -152 -75 -221 -170 -12 -16 -20 -13 -113 34
-122 62 -191 72 -307 44 -163 -40 -250 -120 -299 -276 -23 -75 -25 -208 -4
-298 20 -84 104 -244 169 -321 107 -128 314 -258 524 -330 165 -56 216 -43
380 101 211 183 347 404 396 641 60 289 -59 520 -299 583 -81 21 -148 18 -226
-8z m282 -34 c160 -74 239 -205 239 -399 0 -150 -69 -359 -168 -509 -59 -89
-259 -291 -342 -344 -91 -59 -107 -60 -247 -13 -211 71 -381 171 -507 301
l-49 50 18 37 c16 34 16 39 1 71 -9 18 -16 46 -16 60 0 27 -25 63 -43 63 -6 0
-30 9 -53 20 -42 21 -43 22 -54 92 -29 172 32 349 150 430 61 43 122 64 213
73 l62 7 -52 -36 c-65 -45 -127 -122 -163 -201 -44 -96 -45 -117 -1 -32 53
105 100 164 173 214 66 46 103 53 147 29 l25 -14 -30 -6 c-65 -14 -194 -123
-241 -203 -53 -90 -88 -227 -74 -282 7 -23 9 -21 20 23 23 94 106 246 134 246
4 0 7 -28 7 -62 0 -114 76 -222 183 -263 140 -53 328 36 367 173 18 67 12 162
-14 219 l-24 52 37 -14 c55 -19 135 -61 149 -78 10 -11 10 -26 2 -62 -37 -164
-133 -270 -292 -320 -65 -20 -99 -25 -191 -25 -62 0 -129 5 -150 11 -60 16
-56 2 5 -16 29 -10 90 -20 136 -22 69 -5 85 -9 97 -26 l15 -21 0 22 c0 19 5
22 40 22 25 0 40 -5 41 -12 0 -7 4 -3 10 10 7 18 14 22 29 17 12 -4 20 -2 20
5 0 8 9 10 25 6 18 -5 25 -2 25 9 0 18 11 19 29 3 8 -8 11 -8 8 -2 -10 18 20
37 48 32 13 -3 22 -1 19 4 -9 14 38 60 53 53 8 -2 13 1 11 8 -3 15 45 67 63
67 10 0 10 3 2 11 -19 19 5 59 36 59 23 1 24 2 9 11 -26 15 -25 102 1 128 13
13 16 21 8 24 -7 2 -1 10 12 17 30 16 121 100 121 111 0 5 -12 4 -26 -1 -52
-20 -60 -12 -24 25 39 41 38 42 -15 15 -22 -11 -59 -20 -83 -20 l-44 0 36 40
c46 51 46 66 0 35 -42 -29 -80 -32 -105 -9 -16 15 -16 17 3 50 24 40 12 45
-22 9 -20 -21 -30 -24 -55 -19 -44 9 -46 13 -28 41 24 36 48 43 138 40 63 -3
94 -10 146 -34z m-317 -7 c-10 -8 -21 -12 -24 -10 -5 6 21 24 34 24 6 0 1 -6
-10 -14z m-54 -51 c-7 -8 -19 -15 -27 -15 -13 0 -13 3 -3 15 7 8 19 15 27 15
13 0 13 -3 3 -15z m84 -1 c26 -10 18 -24 -14 -24 -22 0 -28 4 -24 15 7 16 14
18 38 9z m96 -43 c0 -5 -9 -7 -20 -4 -11 3 -20 7 -20 9 0 2 9 4 20 4 11 0 20
-4 20 -9z m-215 -95 c68 -29 104 -164 70 -266 -50 -150 -221 -215 -352 -134
-89 55 -147 181 -127 276 7 34 16 46 46 62 33 17 43 18 77 7 22 -6 42 -19 45
-29 3 -10 19 -23 36 -29 22 -8 30 -18 30 -35 0 -49 -46 -64 -77 -25 -20 25
-50 25 -55 -1 -7 -32 10 -84 38 -113 65 -68 182 -51 234 34 55 89 24 198 -68
247 l-37 19 53 1 c29 0 68 -6 87 -14z m-745 -540 c4 -20 6 -36 4 -36 -5 0 -34
70 -34 83 0 23 22 -11 30 -47z m50 19 c15 -18 9 -50 -9 -50 -8 0 -18 12 -22
27 -10 38 7 52 31 23z m30 -94 c9 -22 9 -34 0 -50 -14 -27 -25 -20 -50 29 -25
50 -25 50 9 50 22 0 31 -6 41 -29z" />
        <path d="M6861 6670 c0 -14 4 -42 10 -63 5 -20 14 -72 19 -115 l9 -77 -5 85
c-4 84 -31 219 -33 170z" />
        <path d="M4001 6825 c-74 -21 -152 -67 -203 -120 -23 -25 -46 -45 -50 -45 -4
0 -35 20 -68 44 -89 66 -156 88 -265 88 -123 0 -190 -26 -265 -101 -45 -45
-60 -69 -78 -124 -57 -174 4 -420 155 -622 159 -213 477 -439 618 -439 90 0
255 103 406 253 136 136 225 296 266 475 20 87 24 126 19 182 -11 137 -82 279
-171 343 -94 67 -255 96 -364 66z m202 -20 c162 -34 271 -145 306 -313 15 -74
14 -161 -2 -168 -7 -2 -30 -25 -50 -49 -33 -39 -38 -52 -41 -107 -3 -35 0 -77
6 -93 13 -38 -5 -77 -90 -191 -124 -167 -388 -364 -488 -364 -72 0 -329 146
-417 238 -34 35 -43 55 -82 198 -76 270 -118 435 -112 441 3 3 30 -4 59 -15
29 -12 66 -24 83 -27 28 -6 28 -7 10 -18 -19 -11 -18 -12 10 -17 23 -4 36 -16
57 -55 l27 -50 -21 -16 c-20 -15 -20 -16 11 -11 35 5 39 -3 14 -30 -17 -19
-16 -19 9 -13 39 10 53 -3 31 -27 -18 -21 -18 -21 5 -9 27 15 45 5 39 -20 -4
-15 -2 -17 13 -9 21 11 46 -12 34 -32 -6 -10 -4 -10 8 0 13 10 22 11 37 2 12
-6 21 -14 21 -18 0 -4 15 -7 33 -7 23 0 31 -4 29 -15 -3 -12 -1 -13 9 -2 19
18 59 15 59 -5 0 -15 1 -15 13 -1 6 9 33 18 60 21 41 4 47 2 47 -14 0 -11 5
-19 10 -19 6 0 10 9 10 19 0 13 11 23 36 31 19 7 37 10 38 8 2 -1 8 -12 14
-23 11 -19 11 -19 12 6 0 21 9 30 48 48 26 12 58 31 72 41 19 15 6 12 -48 -10
-212 -86 -416 -57 -542 76 -56 59 -89 123 -90 170 0 54 126 174 207 198 l22 7
-20 -58 c-25 -72 -23 -179 6 -238 69 -141 244 -196 385 -119 88 48 136 127
142 232 1 23 5 42 8 42 3 0 24 -27 45 -60 21 -33 41 -58 43 -55 11 10 -34 112
-74 164 -89 119 -233 203 -374 219 l-65 7 26 26 c24 25 29 26 80 18 133 -21
279 -111 361 -223 15 -21 28 -35 28 -29 0 24 -86 125 -142 168 -83 63 -128 84
-200 97 -33 6 -56 14 -51 18 15 15 138 49 178 49 22 0 71 -6 108 -14z m-665
-46 c18 -6 37 -20 43 -30 9 -17 4 -22 -38 -40 -45 -19 -50 -20 -76 -5 -28 15
-28 15 -12 -6 14 -21 13 -24 -16 -54 -27 -28 -35 -31 -62 -23 -17 5 -32 7 -34
5 -7 -6 49 -46 63 -46 23 0 16 -16 -11 -28 -42 -19 -112 -15 -135 8 -49 49 3
196 82 230 28 12 150 5 196 -11z m-310 -71 l-13 -23 -3 23 c-4 28 21 66 26 39
2 -9 -3 -26 -10 -39z m-12 -88 l15 -45 -36 35 c-45 43 -50 63 -28 96 l18 28 8
-35 c4 -19 15 -54 23 -79z m448 81 c-2 -3 -12 3 -22 13 -16 17 -16 18 5 5 12
-7 20 -15 17 -18z m-51 -22 c-15 -13 -71 -20 -78 -9 -10 16 56 41 73 28 7 -6
9 -14 5 -19z m-108 -39 c3 -6 -6 -15 -20 -20 -37 -14 -40 -13 -20 10 20 22 31
25 40 10z m-369 -72 c23 -76 26 -288 5 -352 l-14 -39 -15 28 c-13 25 -13 42
-3 123 7 52 10 96 7 100 -3 3 -6 -5 -6 -17 0 -12 -5 -43 -12 -69 -12 -46 -12
-46 -19 -17 -14 63 -10 209 8 258 9 26 20 47 23 47 3 0 15 -28 26 -62z m704
17 c-10 -12 -9 -16 3 -21 8 -3 21 -19 27 -35 8 -17 20 -29 31 -29 23 0 52 -42
43 -64 -15 -40 -76 -37 -89 3 -5 17 -10 19 -26 11 -24 -13 -24 -43 1 -97 48
-106 188 -112 263 -11 27 36 33 114 14 161 -9 20 -14 37 -11 37 14 0 62 -31
83 -54 22 -23 23 -32 19 -95 -10 -137 -106 -230 -238 -231 -138 0 -249 111
-250 250 0 106 30 166 90 180 51 12 54 11 40 -5z m-561 -59 l71 -34 -31 -11
c-42 -15 -109 -4 -109 18 0 9 -3 26 -6 39 -4 12 -4 22 -1 22 3 0 37 -15 76
-34z m-12 -84 c-23 -5 -47 4 -47 17 0 6 13 5 33 -2 23 -8 27 -12 14 -15z m-43
-204 c13 -46 32 -117 41 -158 9 -41 23 -96 32 -123 22 -69 13 -74 -31 -16 -38
51 -39 56 -46 155 -4 70 -11 110 -23 127 -18 28 -23 97 -7 97 5 0 20 -37 34
-82z m1279 31 l-7 -44 -7 40 c-4 26 -3 43 4 47 17 10 18 5 10 -43z m-29 -25
c8 -20 -1 -34 -20 -34 -8 0 -14 8 -14 18 0 33 23 44 34 16z m-1 -89 c-16 -49
-36 -55 -41 -13 -3 27 20 58 43 58 11 0 11 -8 -2 -45z m-1263 -56 c0 -55 -9
-61 -39 -23 -23 30 -27 65 -10 97 l12 21 18 -23 c13 -16 19 -39 19 -72z" />
        <path d="M3123 6485 c0 -27 2 -38 4 -22 2 15 2 37 0 50 -2 12 -4 0 -4 -28z" />
        <path d="M6661 6635 c-1 -15 60 -197 65 -192 2 2 -12 48 -30 103 -19 54 -35
95 -35 89z" />
        <path d="M4644 6033 c-3 -16 -13 -54 -21 -87 -8 -32 -12 -60 -10 -63 8 -7 36
75 43 126 7 54 -1 70 -12 24z" />
        <path d="M4516 5778 c-23 -54 -30 -112 -17 -150 13 -40 66 -98 89 -98 9 0 6 7
-12 21 -53 42 -70 115 -45 202 14 53 5 70 -15 25z" />
        <path d="M4780 5801 c-36 -5 -41 -8 -24 -14 21 -7 99 5 111 17 7 7 -22 6 -87
-3z" />
        <path d="M4955 5661 c-35 -21 -65 -62 -65 -88 1 -17 1 -17 10 -1 6 9 26 26 45
38 29 18 44 21 80 15 37 -5 46 -3 52 11 15 41 -68 58 -122 25z" />
        <path d="M4580 5625 c-6 -8 -10 -22 -8 -32 3 -15 12 -17 56 -15 47 3 58 0 102
-32 61 -44 65 -34 8 20 -78 74 -129 94 -158 59z" />
        <path d="M5085 5620 c-10 -11 -16 -22 -13 -25 8 -9 36 5 42 20 9 23 -10 26
-29 5z" />
        <path d="M4980 5243 c-24 -10 -57 -14 -107 -11 -86 4 -97 -8 -16 -18 57 -7
155 14 168 36 8 13 -3 11 -45 -7z" />
        <path d="M5562 5238 c-7 -7 -12 -18 -12 -24 0 -17 -115 -71 -176 -83 -27 -5
-91 -12 -143 -16 -76 -5 -111 -13 -185 -43 -87 -35 -95 -37 -193 -34 -81 2
-116 -1 -169 -17 -66 -21 -133 -26 -167 -12 -15 5 -5 18 58 71 41 36 101 83
133 104 31 22 49 36 40 33 -34 -12 -100 -59 -179 -127 -82 -71 -99 -77 -136
-48 -7 5 -17 7 -23 3 -11 -7 -14 -44 -2 -46 122 -21 186 -21 277 1 73 18 106
21 175 15 81 -6 89 -5 175 28 58 23 116 37 165 41 133 12 223 28 274 48 53 20
146 77 146 88 0 10 -23 30 -35 30 -6 0 -16 -5 -23 -12z" />
        <path d="M5310 5210 c30 -10 66 -19 80 -18 31 0 -45 25 -99 33 -29 4 -25 1 19
-15z" />
        <path d="M5305 4914 c-41 -35 -157 -90 -229 -108 -32 -9 -97 -18 -145 -22 -73
-5 -96 -3 -150 15 -35 12 -65 20 -68 17 -7 -7 79 -53 122 -65 93 -25 271 1
359 53 46 27 167 135 151 135 -5 0 -23 -11 -40 -25z" />
        <path d="M3225 5470 c25 -33 48 -60 51 -60 3 0 -16 27 -41 60 -25 33 -48 60
-51 60 -3 0 16 -27 41 -60z" />
        <path d="M6092 4063 c15 -10 35 -32 45 -50 9 -18 19 -31 21 -29 2 2 -4 18 -12
34 -16 31 -52 62 -71 62 -5 0 2 -8 17 -17z" />
        <path d="M6163 3683 c-12 -186 -8 -250 17 -321 19 -51 21 -32 4 23 -13 42 -15
86 -9 268 3 119 5 217 3 217 -2 0 -9 -84 -15 -187z" />
        <path d="M4831 3817 c-11 -24 -23 -65 -26 -92 l-5 -50 13 55 c7 31 22 72 34
93 12 20 18 37 14 37 -5 0 -19 -19 -30 -43z" />
        <path d="M4791 3637 c0 -21 6 -120 15 -220 19 -213 14 -314 -21 -482 -14 -66
-24 -133 -23 -150 l1 -30 4 30 c2 17 15 80 29 142 36 165 45 259 34 376 -6 56
-15 156 -21 222 -11 137 -16 166 -18 112z" />
        <path d="M6006 3556 c-8 -98 -3 -215 11 -255 5 -11 7 48 5 132 -4 215 -6 235
-16 123z" />
        <path d="M5576 3468 c-15 -225 -4 -373 39 -499 28 -84 25 -60 -8 51 -19 68
-21 95 -20 308 1 127 1 232 -1 232 -2 0 -6 -41 -10 -92z" />
        <path d="M6060 3181 c0 -6 4 -13 10 -16 6 -3 7 1 4 9 -7 18 -14 21 -14 7z" />
        <path d="M6090 3130 c6 -11 13 -20 16 -20 2 0 0 9 -6 20 -6 11 -13 20 -16 20
-2 0 0 -9 6 -20z" />
        <path d="M4250 2580 c42 -34 171 -96 263 -129 116 -41 258 -69 382 -75 l100
-5 -108 13 c-231 30 -397 79 -567 167 -52 27 -84 40 -70 29z" />
        <path d="M5785 2453 c-129 -50 -322 -101 -466 -122 -71 -11 -106 -20 -82 -20
63 -1 186 17 298 45 99 25 321 107 340 125 11 11 16 13 -90 -28z" />
        <path d="M4620 2298 c171 -69 411 -106 590 -90 81 7 75 8 -100 14 -203 7 -318
27 -464 78 -109 39 -122 38 -26 -2z" />
        <path d="M8290 2202 c0 -46 -40 -202 -76 -298 -14 -38 -90 -206 -169 -374
-134 -284 -230 -508 -223 -516 2 -2 32 61 68 139 35 78 110 239 168 357 168
349 209 454 237 618 18 100 18 112 5 112 -5 0 -10 -17 -10 -38z" />
        <path d="M2480 1229 c0 -53 22 -285 30 -319 9 -33 9 -33 5 10 -2 25 -7 104
-11 175 -3 72 -10 137 -15 145 -6 11 -8 9 -9 -11z" />
        <path d="M2221 1174 c1 -36 2 -37 8 -10 5 28 10 21 58 -80 28 -60 58 -125 67
-144 10 -22 14 -26 10 -10 -11 47 -106 248 -125 266 -18 17 -19 16 -18 -22z" />
        <path d="M2376 1138 c19 -61 43 -122 43 -112 1 14 -40 134 -46 134 -2 0 -1
-10 3 -22z" />
        <path d="M2230 1127 c0 -23 60 -168 103 -247 28 -52 66 -124 85 -160 21 -42
31 -55 27 -35 -3 17 -39 92 -80 167 -40 75 -85 167 -100 205 -26 66 -35 83
-35 70z" />
        <path d="M7686 1028 c-10 -40 -19 -122 -21 -183 l-4 -110 14 123 c7 67 18 145
25 172 7 27 10 55 8 61 -2 6 -12 -22 -22 -63z" />
        <path d="M2533 1030 c0 -25 2 -35 4 -22 2 12 2 32 0 45 -2 12 -4 2 -4 -23z" />
        <path d="M7924 1005 c-27 -38 -89 -162 -98 -195 -4 -14 13 16 38 65 24 50 51
99 59 110 16 20 16 20 17 -1 1 -54 -55 -186 -150 -354 -27 -47 -28 -51 -7 -26
68 79 171 323 165 392 l-3 39 -21 -30z" />
        <path d="M7806 985 c-9 -26 -7 -32 5 -12 6 10 9 21 6 23 -2 3 -7 -2 -11 -11z" />
        <path d="M7757 843 c-19 -59 -40 -132 -47 -160 -7 -29 -16 -50 -21 -47 -19 11
-8 -54 36 -210 40 -143 70 -274 89 -389 5 -28 12 -37 26 -37 26 0 26 21 0 141
-20 101 -51 208 -102 356 -36 105 -38 78 27 317 19 72 33 132 31 134 -3 2 -20
-45 -39 -105z" />
        <path d="M2465 875 c2 -16 9 -73 16 -125 l12 -95 -42 -103 c-60 -148 -116
-325 -134 -417 -27 -140 -27 -135 -2 -135 20 0 24 7 34 68 16 91 61 259 122
448 27 87 52 178 54 203 l5 46 -14 -40 -13 -40 -8 62 c-4 34 -13 84 -21 110
-8 26 -12 35 -9 18z" />
    </g>
</svg>