<?xml version="1.0" standalone="no"?>
<!DOCTYPE svg PUBLIC "-//W3C//DTD SVG 20010904//EN" "http://www.w3.org/TR/2001/REC-SVG-20010904/DTD/svg10.dtd">
<svg version="1.0" xmlns="http://www.w3.org/2000/svg" width="1024.000000pt" height="1024.000000pt"
    viewBox="0 0 1024.000000 1024.000000" preserveAspectRatio="xMidYMid meet">

    <g transform="translate(0.000000,1024.000000) scale(0.100000,-0.100000)" fill="#000000" stroke="none">
        <path d="M6466 9381 c-92 -48 -101 -50 -137 -41 -51 14 -115 2 -150 -27 -16
-14 -45 -58 -64 -99 -25 -52 -41 -74 -54 -74 -37 0 -140 -62 -189 -114 -40
-42 -55 -68 -69 -116 -15 -55 -19 -61 -37 -55 -127 43 -197 54 -327 54 -97 1
-151 -4 -190 -15 -55 -16 -131 -55 -160 -80 -14 -12 -22 -11 -62 11 -62 35
-163 55 -285 55 -158 0 -304 -36 -487 -120 l-82 -38 -27 64 c-43 99 -178 213
-253 214 -15 0 -30 15 -51 53 -16 28 -46 68 -67 87 -34 33 -40 35 -98 34 -34
0 -74 -4 -88 -8 -20 -6 -36 -1 -70 22 -62 41 -101 52 -184 52 -77 0 -153 -19
-225 -55 -35 -18 -50 -20 -70 -13 -14 5 -77 8 -140 6 -98 -3 -123 -8 -173 -31
-128 -58 -233 -199 -244 -328 -6 -61 -8 -65 -59 -111 -97 -89 -142 -183 -149
-308 -3 -41 -7 -93 -11 -114 -13 -78 28 -199 103 -305 45 -62 47 -68 48 -135
2 -168 145 -342 298 -362 34 -5 60 -17 90 -41 48 -41 116 -77 173 -92 33 -9
50 -8 83 4 49 17 50 14 21 -71 -52 -151 -90 -431 -90 -666 0 -228 23 -327 125
-544 61 -130 114 -211 194 -297 55 -59 59 -66 70 -134 10 -64 8 -83 -15 -190
-50 -231 -42 -393 31 -611 36 -108 80 -199 239 -502 115 -218 141 -255 57 -80
-33 69 -71 154 -84 190 -14 36 -50 130 -80 210 -57 149 -92 293 -103 423 -7
81 3 210 15 202 8 -4 12 -19 46 -165 31 -132 73 -193 154 -221 32 -11 33 -14
86 -266 56 -262 183 -480 421 -720 l141 -143 7 -92 c24 -326 18 -421 -33 -590
-40 -134 -55 -163 -118 -242 -159 -198 -321 -314 -616 -440 -155 -66 -151 -66
-171 -14 -40 100 -128 146 -261 134 -95 -8 -130 -19 -206 -65 -62 -37 -68 -39
-129 -34 -160 13 -318 -56 -405 -176 -32 -44 -35 -45 -134 -67 -170 -38 -299
-85 -456 -164 -187 -95 -251 -137 -334 -221 -110 -111 -210 -299 -486 -909
-51 -113 -103 -227 -116 -253 l-24 -49 34 -27 34 -28 -62 -263 c-56 -240 -66
-300 -41 -260 10 16 90 341 90 365 0 25 17 18 123 -48 56 -35 147 -90 202
-122 55 -32 156 -91 224 -132 l123 -74 100 3 100 3 -306 200 c-169 110 -363
236 -432 281 -69 45 -132 88 -140 96 -14 14 -10 28 40 132 31 64 56 118 56
121 0 25 313 673 378 781 81 136 185 242 296 301 164 89 295 151 381 180 94
33 306 86 312 79 2 -2 -1 -23 -6 -47 -5 -24 -21 -156 -36 -294 -14 -137 -35
-304 -45 -370 -11 -66 -22 -172 -25 -235 -4 -63 -12 -151 -20 -195 -51 -295
-74 -513 -62 -582 7 -41 5 -64 -7 -100 -9 -27 -22 -90 -28 -140 -7 -51 -16
-93 -20 -93 -4 0 -8 12 -8 28 0 91 -205 1044 -280 1302 -53 181 -116 374 -131
400 -17 31 -9 -14 41 -211 27 -108 84 -345 125 -526 42 -180 105 -449 141
-596 36 -147 64 -274 62 -282 -2 -8 -56 87 -122 210 -65 124 -120 225 -123
225 -2 0 55 -118 128 -261 125 -246 133 -266 138 -333 5 -64 8 -71 28 -74 20
-3 23 1 23 35 0 70 31 266 50 314 17 42 17 52 5 99 -10 38 -11 66 -4 108 5 31
23 158 40 282 17 123 33 228 35 232 2 4 8 71 13 150 6 79 19 209 30 288 11 80
34 258 51 395 16 138 34 266 40 287 13 46 108 136 182 172 63 30 174 47 241
37 44 -7 52 -5 110 31 146 90 334 101 407 23 22 -24 23 -27 8 -36 -52 -29 -79
-123 -108 -372 -27 -234 -34 -293 -59 -457 -12 -74 -30 -214 -41 -310 -24
-218 -96 -713 -110 -760 -5 -19 -15 -73 -21 -120 -17 -140 -39 -246 -65 -322
-28 -84 -27 -78 -11 -78 11 0 30 52 63 174 8 27 21 102 29 165 9 64 24 159 35
211 17 84 33 191 84 570 8 58 18 130 21 160 8 72 30 234 61 446 13 93 24 188
24 209 0 45 12 38 30 -18 7 -21 14 -37 16 -34 2 2 -5 30 -16 63 -18 49 -20 72
-14 142 7 84 17 103 29 54 15 -59 110 -302 152 -385 127 -255 310 -477 544
-659 213 -167 518 -342 734 -422 106 -39 327 -93 440 -107 130 -17 452 -16
580 0 105 14 329 60 405 84 148 48 343 140 467 223 112 75 287 218 347 285
214 237 409 566 482 814 l18 60 13 -60 c7 -33 13 -76 14 -95 1 -33 -46 -162
-91 -250 -11 -22 -18 -40 -15 -40 6 0 90 173 110 225 4 11 9 16 11 10 6 -18
62 -348 69 -410 7 -63 87 -524 130 -755 35 -185 101 -436 129 -490 67 -128 88
-165 98 -169 20 -7 -7 59 -60 144 -41 66 -98 278 -150 560 -61 325 -119 662
-127 730 -9 76 -114 662 -155 860 -19 95 -41 171 -59 207 l-29 57 22 15 c35
22 104 38 139 31 51 -10 159 -46 200 -67 21 -10 56 -35 78 -55 30 -27 43 -33
51 -25 20 20 151 15 215 -8 86 -30 190 -96 209 -132 16 -31 34 -120 80 -393
14 -82 40 -231 59 -330 40 -216 81 -466 95 -590 12 -101 48 -328 80 -513 18
-102 21 -153 18 -307 -2 -102 0 -185 5 -185 4 0 7 25 7 56 0 30 4 63 10 73 5
10 40 43 77 74 37 31 88 75 113 98 l45 42 -50 -38 c-46 -35 -44 -32 26 41 41
43 82 88 90 98 37 50 -35 -12 -156 -133 -71 -72 -133 -131 -136 -131 -16 0 15
96 66 205 89 187 185 398 184 404 0 4 -54 -102 -120 -234 -65 -132 -118 -232
-119 -222 0 9 27 117 59 240 98 370 163 706 201 1050 29 266 36 382 22 373 -7
-4 -12 -19 -12 -34 0 -33 -51 -361 -91 -582 -60 -330 -79 -428 -118 -595 -21
-93 -47 -213 -56 -265 -18 -98 -35 -139 -35 -83 0 17 -11 89 -25 159 -14 71
-36 215 -50 319 -35 268 -71 499 -100 646 -14 69 -41 220 -60 334 -20 114 -40
226 -45 249 -5 22 -10 56 -10 74 0 39 10 40 118 12 95 -24 174 -56 311 -125
223 -112 380 -225 461 -334 73 -98 189 -335 280 -576 41 -110 162 -402 186
-450 l15 -30 -5 37 c-3 20 -36 113 -75 205 -38 92 -95 233 -126 313 -80 205
-204 453 -262 525 -66 81 -161 158 -284 232 -221 131 -415 214 -567 244 -59
11 -64 15 -83 51 -22 44 -106 103 -198 140 -45 18 -77 23 -161 24 -103 1 -107
2 -150 34 -87 63 -248 117 -322 107 -56 -8 -126 -45 -145 -78 -10 -16 -23 -29
-31 -29 -18 0 -436 209 -536 268 -120 72 -232 208 -316 385 -75 157 -96 277
-112 613 l-10 241 60 72 c97 116 190 285 242 440 21 62 35 134 46 233 23 214
22 208 47 208 40 1 106 38 127 72 11 18 28 59 38 90 9 32 20 58 25 58 21 0
-16 -354 -52 -487 -9 -34 -91 -244 -135 -346 -9 -20 -14 -37 -12 -37 8 0 116
188 146 255 67 149 110 269 124 348 23 127 30 309 15 407 -17 112 -15 162 11
240 14 43 24 116 32 220 10 152 11 156 45 208 57 87 130 250 166 372 82 271
89 567 20 813 -14 51 -81 238 -107 298 -6 13 4 17 61 22 90 9 180 53 229 113
29 35 48 48 92 60 70 21 141 85 173 157 28 63 31 171 6 230 l-16 38 34 38 c52
57 105 202 105 286 0 51 -24 139 -46 173 -12 18 -17 44 -17 81 2 85 -26 147
-104 224 -37 37 -81 73 -99 82 -28 13 -32 21 -37 67 -10 80 -58 169 -125 228
-66 59 -112 83 -202 106 -70 18 -197 15 -257 -6 -27 -10 -38 -8 -75 11 -35 19
-64 24 -148 27 l-106 4 -98 -51z m342 -2 c145 -70 244 -209 287 -402 l6 -29
-43 27 c-79 49 -147 76 -260 104 -137 34 -152 41 -253 131 -44 40 -92 79 -107
88 -16 9 -28 20 -28 24 0 11 133 77 178 88 61 15 150 3 220 -31z m337 -8 c81
-21 101 -30 172 -83 66 -48 98 -95 125 -183 40 -128 25 -297 -37 -428 -27 -59
-109 -156 -121 -145 -4 5 1 17 11 28 10 11 15 20 11 20 -4 0 -2 9 4 20 6 11
16 17 22 14 7 -4 8 -3 4 4 -4 7 -3 12 2 12 14 0 60 82 83 147 26 78 23 92 -5
17 -24 -66 -57 -123 -92 -161 -12 -13 -30 -40 -39 -59 -15 -33 -35 -38 -35 -9
0 8 18 48 40 90 22 42 40 86 39 98 0 21 -1 21 -11 -3 -49 -113 -72 -160 -78
-160 -4 0 -15 16 -25 35 -19 34 -19 35 4 75 13 23 20 44 17 47 -3 4 -6 2 -6
-3 0 -5 -10 -24 -21 -43 -17 -28 -23 -32 -30 -20 -5 10 1 38 18 79 21 54 25
74 20 125 -6 54 -35 161 -42 153 -2 -2 3 -28 11 -58 19 -73 18 -180 -2 -230
-19 -47 -27 -49 -51 -13 -15 22 -17 44 -15 113 7 173 -45 319 -158 443 -35 37
-60 70 -58 73 8 8 90 22 133 23 22 0 72 -8 110 -18z m-803 -55 c63 -20 80 -29
137 -80 l48 -43 -74 -67 c-85 -79 -125 -142 -148 -238 -10 -37 -21 -68 -26
-68 -5 0 -9 -11 -9 -25 0 -34 -18 -31 -56 10 -35 38 -43 67 -46 159 l-2 61 -5
-70 -6 -70 -25 60 c-18 44 -25 79 -25 131 0 61 5 80 38 147 53 106 93 125 199
93z m-2911 -116 c35 -11 74 -28 86 -38 l23 -17 -94 -94 c-109 -111 -139 -130
-266 -171 -52 -17 -112 -42 -133 -56 -22 -14 -41 -24 -43 -21 -7 7 63 57 124
89 31 16 46 26 32 23 -49 -13 -116 -59 -186 -127 -45 -44 -75 -65 -79 -58 -14
22 6 60 62 122 32 35 46 54 33 43 -14 -10 -40 -35 -58 -55 -24 -26 -32 -30
-28 -15 3 11 8 38 12 60 6 33 23 56 105 138 97 97 92 103 -9 12 -29 -26 -52
-42 -52 -37 0 18 87 129 118 151 91 64 242 86 353 51z m3163 -60 c29 -22 68
-45 87 -51 56 -19 58 -24 43 -82 -16 -62 -22 -140 -23 -302 l-1 -120 -82 -40
c-45 -22 -85 -41 -89 -43 -4 -2 -19 18 -33 45 -14 26 -25 44 -25 38 -1 -5 10
-29 24 -53 26 -45 22 -52 -25 -49 -34 3 -84 79 -111 169 -30 99 -24 249 13
329 21 46 148 199 165 199 2 0 28 -18 57 -40z m-3581 14 c31 -6 34 -16 12 -34
-31 -26 -104 -157 -129 -230 -31 -94 -43 -231 -26 -318 9 -50 8 -67 -1 -78
-10 -12 -14 -12 -20 -2 -7 10 -9 10 -9 -2 0 -9 -20 -35 -44 -59 l-44 -43 -26
44 c-31 52 -35 42 -4 -13 l22 -39 -22 -38 c-11 -20 -23 -37 -26 -37 -3 0 -30
31 -60 70 -102 127 -147 277 -129 424 14 106 43 162 123 242 107 105 233 143
383 113z m737 -12 c14 -11 43 -48 65 -83 39 -61 40 -67 40 -149 0 -71 -5 -94
-26 -140 -28 -58 -30 -58 -49 19 -6 23 -13 41 -15 39 -2 -2 3 -30 11 -62 9
-33 12 -70 9 -85 -7 -23 -10 -19 -30 39 -21 63 -52 130 -59 130 -2 0 12 -37
30 -82 36 -90 42 -129 20 -147 -11 -9 -15 -1 -25 46 -24 125 -104 238 -229
325 l-43 30 33 37 c88 101 198 135 268 83z m2365 -211 c34 -81 66 -129 145
-211 57 -61 96 -117 88 -126 -3 -2 -31 16 -64 40 -57 41 -103 87 -152 151 -13
17 -19 21 -13 9 6 -12 26 -40 46 -63 19 -24 35 -45 35 -47 0 -7 -70 47 -70 55
0 3 -10 17 -21 31 l-20 25 16 -32 c17 -36 11 -41 -23 -17 -29 20 -68 98 -87
172 l-15 57 4 -59 c3 -36 15 -78 30 -107 l24 -47 -51 23 c-68 32 -99 78 -105
154 -4 53 -2 61 28 94 38 43 91 78 134 86 l31 7 7 -66 c3 -36 18 -94 33 -129z
m733 109 c74 -21 173 -66 225 -102 19 -14 27 -28 27 -50 0 -29 -1 -30 -17 -16
-20 17 -78 48 -90 48 -4 0 17 -15 47 -33 46 -28 56 -38 58 -65 2 -18 0 -32 -4
-32 -4 0 -39 25 -78 54 -78 61 -140 91 -201 100 l-40 6 40 -13 c195 -66 394
-282 446 -486 25 -98 25 -205 -1 -273 -36 -96 -169 -235 -243 -253 l-27 -7 0
95 c0 52 -3 110 -6 128 -5 33 -5 33 11 14 8 -11 30 -57 47 -102 17 -46 35 -83
39 -83 18 0 20 73 4 147 -37 166 -100 307 -247 551 -87 144 -110 190 -103 202
3 6 1 10 -4 10 -16 0 -13 60 2 66 8 3 12 16 9 32 -4 29 12 82 25 82 5 0 41 -9
81 -20z m-3372 -66 c56 -37 130 -112 164 -164 31 -48 57 -130 63 -196 9 -94
-25 -242 -79 -346 l-15 -29 -50 44 c-44 38 -203 127 -227 127 -5 0 -12 55 -14
123 -5 116 -21 188 -73 319 -5 12 8 24 55 49 34 18 76 48 93 66 17 18 34 33
38 33 3 0 24 -12 45 -26z m488 -22 c70 -38 158 -145 181 -219 5 -19 0 -25 -31
-38 -20 -8 -38 -15 -40 -15 -2 0 -5 17 -5 38 l-1 37 -8 -38 c-4 -20 -9 -38
-11 -40 -2 -1 -23 -13 -46 -25 -40 -22 -43 -22 -44 -5 0 13 -3 11 -10 -7 -5
-14 -19 -31 -30 -39 -20 -12 -21 -11 -15 6 4 10 10 32 12 48 3 17 -4 6 -14
-24 -17 -45 -59 -98 -70 -87 -1 2 -29 -24 -62 -58 -55 -57 -60 -59 -60 -35 0
36 19 86 35 93 23 8 92 137 115 215 19 61 22 86 16 153 -7 79 -7 80 16 73 13
-4 45 -19 72 -33z m3626 -50 c64 -64 81 -87 94 -132 19 -63 21 -173 4 -221
-13 -38 -80 -154 -113 -195 -24 -31 -26 -30 -94 24 l-24 19 47 57 c25 31 53
71 61 89 8 17 10 24 3 13 -44 -64 -110 -146 -118 -146 -25 0 -18 26 16 61 21
21 35 41 32 44 -3 3 -22 -13 -43 -36 -27 -30 -40 -38 -48 -30 -8 8 -5 17 10
33 33 38 37 56 4 21 -17 -18 -35 -33 -40 -33 -25 0 -20 24 12 59 20 22 41 50
47 63 7 14 0 9 -17 -12 -61 -76 -78 -90 -92 -81 -12 8 -9 16 16 44 95 108 129
190 139 337 4 55 11 100 17 100 5 0 44 -35 87 -78z m-1967 -33 c233 -47 435
-134 637 -275 215 -149 240 -184 220 -308 -6 -36 -12 -73 -15 -83 -3 -10 2 -2
11 17 9 19 19 62 22 94 l5 59 19 -22 c27 -34 22 -61 -22 -132 -36 -57 -37 -60
-10 -29 18 19 41 53 52 75 l21 40 21 -45 c16 -36 21 -66 21 -145 0 -55 -3
-118 -7 -140 l-7 -40 16 35 c20 43 28 160 15 218 -5 23 -8 42 -6 42 6 0 68
-94 102 -155 19 -33 31 -51 27 -41 -6 19 -5 19 13 3 68 -62 223 -320 253 -422
10 -33 18 -53 19 -45 2 35 76 -146 141 -345 30 -93 59 -278 59 -378 0 -125
-34 -349 -71 -466 -27 -83 -151 -361 -161 -361 -9 0 5 126 14 138 7 8 7 12 -1
12 -21 0 -11 70 18 128 33 66 58 140 66 197 3 25 -3 11 -18 -36 -26 -86 -69
-189 -78 -189 -17 0 -16 33 1 62 22 38 70 163 70 181 -1 6 -16 -24 -34 -68
-47 -114 -58 -130 -97 -129 l-32 1 -3 154 -3 154 34 55 c31 52 65 125 65 139
-1 3 -10 -12 -22 -34 -11 -22 -34 -62 -51 -89 l-31 -49 -38 239 c-46 289 -88
440 -196 704 -121 294 -270 513 -490 714 -133 123 -116 87 29 -61 230 -235
323 -378 458 -708 97 -238 149 -450 196 -800 24 -176 27 -221 22 -375 -3 -96
-13 -222 -23 -280 -10 -61 -17 -160 -17 -235 -1 -117 4 -150 42 -325 l43 -195
-5 -165 c-3 -105 -11 -187 -21 -225 -21 -76 -87 -267 -92 -262 -2 2 8 55 21
118 37 171 44 392 16 564 -22 142 -45 221 -97 334 -34 73 -44 143 -24 156 6 3
10 -1 10 -9 0 -8 16 -50 36 -93 20 -43 47 -109 60 -148 23 -69 23 -70 24 -28
0 23 -9 78 -19 122 -11 43 -25 121 -31 173 -7 51 -16 107 -20 123 -18 67 -10
-57 11 -171 11 -64 18 -118 16 -121 -4 -3 -36 68 -78 173 l-11 29 -18 -50
c-10 -27 -19 -72 -19 -100 -1 -27 -5 -57 -11 -65 -5 -9 -9 27 -9 100 0 82 -8
152 -26 245 -52 262 -58 314 -54 465 6 250 2 462 -11 545 -20 136 -78 369
-121 487 -45 123 -156 361 -184 393 -9 11 -5 -2 10 -30 92 -174 219 -548 261
-770 28 -150 26 -579 -5 -755 -11 -69 -21 -140 -21 -159 0 -47 -9 -34 -26 38
-18 78 -110 262 -186 372 -59 85 -59 86 -69 185 -16 164 -66 392 -113 514 -35
90 -32 70 8 -63 19 -61 37 -137 41 -167 3 -30 13 -77 20 -105 15 -53 30 -163
40 -285 3 -41 9 -88 12 -105 3 -16 2 -27 -2 -23 -4 4 -14 41 -21 82 -8 41 -22
92 -31 113 l-17 38 -7 -70 c-4 -38 -11 -115 -15 -170 l-8 -100 -7 80 c-27 316
-35 369 -90 610 -14 63 -17 68 -11 25 11 -87 5 -397 -10 -484 -17 -106 -38
-113 -38 -14 0 78 -21 216 -47 311 -23 85 -26 63 -4 -39 25 -116 44 -273 39
-318 -3 -30 -1 -36 15 -36 14 0 17 -5 12 -22 -6 -17 -4 -20 4 -12 23 21 41
130 48 274 4 95 9 136 14 120 16 -50 49 -322 49 -405 l0 -85 -72 1 c-40 0 -86
-4 -103 -9 -21 -6 2 -8 78 -4 l107 5 1 -39 c1 -21 3 -30 6 -19 3 11 11 39 19
63 8 23 14 61 14 82 0 25 5 40 13 40 9 0 9 2 0 8 -7 5 -9 29 -6 76 4 48 9 63
15 52 11 -19 39 -178 33 -184 -2 -3 2 -14 10 -26 24 -34 18 -45 -27 -49 l-43
-4 48 -1 c34 -2 47 -6 47 -17 0 -17 9 -19 30 -5 13 9 13 10 -1 10 -11 0 -16
12 -18 42 -2 40 -1 41 16 26 10 -8 29 -21 43 -27 25 -12 25 -12 4 6 -12 10
-33 27 -47 38 -20 16 -26 31 -30 74 l-4 55 28 -35 c29 -36 114 -172 124 -201
6 -15 3 -16 -24 -5 -17 6 -31 17 -31 24 0 7 -5 13 -11 13 -5 0 -7 -4 -4 -10 3
-5 -2 -10 -12 -11 -10 0 8 -10 39 -21 53 -20 58 -25 81 -77 14 -31 33 -89 43
-128 22 -86 44 -98 44 -25 0 43 29 216 35 210 2 -2 8 -46 14 -98 7 -52 25
-167 41 -255 17 -88 33 -212 37 -275 7 -101 10 -115 26 -114 22 2 22 -32 2
-176 -8 -58 -21 -157 -29 -220 -32 -256 -67 -504 -82 -581 -37 -194 -121 -362
-291 -578 -129 -164 -509 -537 -614 -603 -108 -68 -294 -110 -494 -112 -256
-2 -353 37 -660 265 -212 158 -425 361 -527 504 -82 117 -174 292 -197 376
-74 270 -133 562 -155 769 -9 80 -18 161 -20 180 -4 30 -3 32 7 17 35 -54 36
-54 37 -2 0 28 -4 109 -10 180 -27 342 -41 513 -46 540 -6 38 10 22 25 -27 15
-45 94 -165 99 -149 4 12 -4 73 -38 301 -14 97 -20 181 -19 295 l1 160 13 -77
c47 -276 142 -499 261 -608 65 -60 71 -43 40 102 -13 62 -23 115 -20 119 7 12
161 32 246 31 80 0 183 -19 341 -63 22 -6 40 -9 41 -7 2 2 -13 16 -33 32 -20
17 -30 24 -23 16 6 -8 12 -17 12 -20 0 -4 -55 6 -122 22 -68 16 -140 32 -160
37 -38 8 -203 -8 -271 -27 l-35 -10 -4 40 c-3 37 -1 43 27 60 48 30 74 33 90
12 7 -11 17 -16 21 -12 4 4 1 14 -5 22 -19 23 4 30 119 34 140 6 308 -15 320
-39 6 -9 16 -23 23 -31 7 -7 32 -37 55 -66 23 -30 42 -50 42 -46 0 10 -46 72
-83 112 -21 21 -26 32 -16 32 11 0 14 10 11 42 -8 82 30 445 59 571 16 67 27
106 24 87 -34 -270 -37 -322 -31 -490 8 -195 11 -216 33 -225 13 -4 14 -3 4 9
-8 10 -9 21 -3 33 5 10 17 72 27 138 9 66 21 137 26 158 6 21 28 131 50 245
38 199 97 453 98 422 1 -8 -4 -54 -9 -102 -22 -188 -50 -871 -35 -856 7 7 23
94 45 251 11 76 31 193 44 260 44 224 116 640 116 668 0 8 3 9 9 4 5 -6 14
-73 20 -150 19 -233 105 -596 182 -762 16 -34 38 -88 50 -120 32 -85 43 -89
15 -5 -14 40 -35 117 -46 170 -12 53 -28 122 -37 152 -9 30 -26 108 -39 175
-12 66 -23 109 -23 95 -1 -14 8 -77 19 -140 34 -195 18 -169 -39 65 -49 199
-71 349 -78 527 -6 165 -16 203 -28 110 -6 -40 -26 -163 -51 -302 -3 -19 -19
-105 -36 -190 -16 -85 -45 -249 -64 -365 l-34 -210 5 250 c3 138 11 309 20
380 17 146 27 291 19 260 -102 -375 -159 -626 -200 -885 -14 -91 -30 -172 -35
-180 -5 -9 -8 61 -9 170 0 152 5 222 30 390 16 113 40 252 54 310 28 121 40
190 32 190 -12 0 -106 -358 -145 -550 -32 -159 -51 -336 -51 -484 0 -57 -4
-96 -10 -96 -6 0 -10 29 -10 68 0 37 -5 74 -11 82 -7 11 -8 -8 -4 -64 l7 -79
-25 7 c-67 16 -182 27 -267 24 l-95 -3 -17 70 c-33 135 -41 222 -35 399 6 202
31 353 88 551 22 77 42 147 45 155 3 10 2 11 -4 5 -10 -10 -54 -142 -91 -271
-33 -112 -61 -299 -67 -439 -6 -131 1 -181 63 -461 4 -17 -1 -22 -21 -26 -14
-3 -30 0 -34 6 -17 23 -91 193 -102 234 -17 65 -30 41 -25 -46 4 -53 2 -71 -4
-57 -5 11 -10 54 -12 95 -1 41 -5 107 -9 145 -6 50 -7 24 -5 -90 2 -88 8 -176
14 -195 5 -19 12 -66 15 -103 l5 -68 -51 -57 c-29 -31 -55 -58 -59 -60 -9 -4
-47 114 -88 271 -52 201 -57 371 -20 651 9 72 7 98 -6 84 -6 -6 -26 -174 -50
-436 -22 -227 -16 -429 18 -629 13 -79 20 -143 16 -143 -17 0 -80 149 -100
235 -24 105 -28 119 -33 114 -8 -10 47 -667 64 -769 11 -63 20 -128 20 -145
l0 -30 -21 34 c-83 136 -181 389 -213 547 -52 261 -48 669 10 959 52 259 111
409 279 710 88 158 142 238 244 365 107 135 116 149 47 75 -153 -163 -294
-371 -421 -626 -83 -164 -128 -291 -170 -474 l-7 -30 -28 55 c-16 30 -29 51
-30 46 0 -4 11 -30 25 -58 24 -47 32 -97 19 -111 -10 -9 -71 124 -110 238 -42
121 -36 69 7 -67 17 -54 45 -118 61 -143 34 -51 34 -53 3 -215 -10 -51 -17
-145 -18 -235 -1 -124 2 -165 20 -240 12 -49 30 -137 39 -195 9 -57 19 -111
22 -120 11 -32 -182 169 -230 240 -52 77 -54 70 -11 -35 35 -85 85 -172 132
-228 39 -47 52 -85 67 -189 l5 -43 -47 50 c-63 67 -126 165 -180 282 -118 254
-145 445 -109 784 26 248 58 395 117 548 l33 85 8 -120 c4 -65 12 -142 18
-170 9 -46 72 -194 82 -194 2 0 -12 39 -31 87 -38 95 -62 226 -62 340 0 57 6
84 29 135 24 54 113 177 184 253 24 26 85 120 119 184 l28 51 46 -35 c41 -32
149 -73 160 -62 3 3 -16 12 -42 21 -66 22 -132 63 -139 86 -13 39 95 200 215
321 189 190 458 353 695 419 128 36 292 49 390 31 87 -16 195 -60 195 -78 0
-8 7 -36 15 -62 9 -25 22 -68 30 -96 l15 -50 -6 45 c-3 25 -15 71 -26 102 -11
32 -18 64 -15 72 8 20 113 73 180 91 79 21 241 19 360 -6z m-2382 -60 c20 -57
49 -198 49 -239 0 -46 -60 -208 -151 -411 -45 -101 -99 -233 -119 -292 l-36
-109 -45 35 c-29 22 -43 40 -41 53 2 14 0 16 -6 6 -12 -18 -62 42 -100 118
-24 49 -27 66 -27 155 0 90 3 107 32 173 90 207 226 357 388 426 32 13 34 16
10 11 -76 -16 -207 -101 -259 -170 -15 -19 -31 -35 -37 -35 -20 0 -8 55 19 84
25 29 25 29 1 8 -33 -29 -39 -28 -39 7 0 51 155 175 275 219 52 19 68 11 86
-39z m-761 -133 c0 -51 49 -193 86 -249 13 -20 47 -62 74 -92 28 -30 50 -59
50 -63 0 -4 -23 -20 -51 -37 -28 -16 -73 -54 -100 -83 l-49 -54 -40 32 c-93
74 -149 171 -150 258 0 58 29 157 63 212 26 42 96 120 108 120 5 0 9 -20 9
-44z m4269 -72 c21 -47 20 -64 -3 -64 -12 0 -26 48 -26 93 0 28 8 20 29 -29z
m1000 -139 c1 -101 -53 -276 -80 -259 -20 12 -30 56 -17 73 12 14 11 15 -5 2
-31 -25 -40 6 -13 43 39 53 41 63 3 21 -26 -30 -38 -37 -47 -29 -9 9 -3 23 25
60 46 61 91 149 101 200 l8 39 12 -40 c7 -22 13 -72 13 -110z m-948 34 c7 -18
35 -68 62 -113 88 -145 96 -168 107 -276 6 -55 9 -104 6 -109 -3 -4 -6 -58 -7
-120 -1 -61 -3 -111 -4 -111 -2 0 -12 18 -24 40 -36 68 -67 114 -152 221 -99
123 -279 362 -279 369 0 6 251 128 266 129 6 1 17 -13 25 -30z m540 -28 c102
-66 236 -238 285 -368 33 -88 35 -184 5 -246 -35 -71 -96 -135 -143 -147 -22
-6 -42 -10 -43 -8 -2 2 0 21 6 43 30 130 19 380 -22 491 -22 59 -97 179 -106
170 -3 -3 1 -14 10 -24 25 -27 72 -138 93 -217 23 -88 27 -347 5 -410 -43
-130 -176 -225 -313 -225 -32 0 -40 5 -53 30 l-16 30 33 1 c18 0 49 7 68 15
21 8 25 12 10 9 -14 -3 -46 -8 -72 -12 -40 -5 -48 -3 -48 11 0 11 9 16 33 17
17 0 41 4 52 9 12 4 -6 6 -42 3 -51 -5 -63 -3 -63 9 0 9 20 17 64 25 94 16
187 65 259 135 l62 60 -62 -55 c-78 -69 -146 -103 -248 -122 -74 -15 -81 -14
-92 2 -21 27 -16 33 30 34 23 0 58 7 77 15 20 8 24 12 10 9 -14 -3 -51 -9 -82
-12 -50 -5 -58 -3 -58 11 0 9 6 16 13 17 10 0 10 2 0 6 -15 6 -17 71 -3 107 6
18 17 26 33 26 60 0 210 140 256 240 35 75 39 170 13 273 -23 88 -19 92 49 48z
m-4028 -155 c132 -49 257 -125 257 -154 0 -27 -152 -275 -203 -332 -72 -80
-138 -171 -160 -219 l-20 -45 -18 23 c-27 34 -48 113 -59 221 -12 130 1 220
51 334 22 50 50 115 61 144 11 28 22 52 24 52 2 0 32 -11 67 -24z m-910 -168
l69 -67 -25 -61 -24 -61 -33 38 c-57 64 -104 178 -108 258 l-4 70 29 -55 c15
-30 59 -85 96 -122z m351 72 c-10 -34 -14 -82 -11 -127 4 -66 2 -74 -19 -94
-13 -12 -35 -58 -50 -101 -23 -69 -26 -92 -22 -167 4 -57 12 -102 26 -133 12
-27 20 -48 17 -48 -2 0 -25 9 -51 20 -138 60 -210 161 -208 295 2 157 96 289
274 384 30 16 56 29 57 28 1 -1 -5 -27 -13 -57z m43 -297 c61 -110 132 -169
276 -227 20 -8 40 -23 43 -33 4 -10 16 -38 27 -63 11 -25 19 -48 19 -52 -1 -5
3 -8 9 -8 5 0 7 -5 3 -11 -4 -7 -20 -8 -43 -4 -86 15 -86 15 -51 1 19 -8 45
-15 58 -15 24 -1 27 -8 13 -29 -7 -11 -27 -8 -105 16 -53 16 -94 26 -91 22 3
-4 45 -20 95 -36 49 -16 90 -31 90 -34 0 -3 -4 -12 -10 -20 -8 -12 -14 -13
-47 -1 -51 18 -170 74 -213 101 l-35 22 30 -27 c39 -34 125 -78 198 -101 31
-10 56 -23 54 -28 -2 -6 -32 -15 -67 -19 -100 -12 -196 29 -284 122 -53 58
-82 115 -91 181 l-6 45 33 -60 c64 -116 254 -286 319 -285 8 0 -15 16 -51 35
-113 61 -243 206 -285 318 -15 41 -16 55 -6 100 14 62 56 157 70 157 6 0 27
-30 48 -67z m298 -78 c0 -74 0 -135 -1 -135 -14 0 -94 34 -94 41 0 16 82 229
89 229 3 0 6 -61 6 -135z m875 -1210 c7 -22 25 -64 41 -92 16 -29 29 -56 29
-60 0 -5 -20 -17 -45 -29 l-45 -21 0 76 c0 42 -3 101 -6 131 -7 63 6 60 26 -5z
m-67 -311 c-50 -31 -53 -39 -7 -16 l42 21 22 -115 c13 -63 20 -117 17 -120 -5
-6 -113 113 -139 154 -17 27 -17 27 35 86 49 56 52 58 58 35 5 -20 -1 -28 -28
-45z m3072 -54 c19 -37 19 -117 0 -256 -9 -60 -22 -167 -30 -239 -7 -71 -19
-154 -26 -184 l-11 -54 -14 32 c-30 72 -47 193 -41 296 7 118 20 163 42 145 8
-7 15 -22 16 -34 1 -11 7 4 15 34 27 110 17 174 -25 163 -17 -4 -18 0 -9 53 5
32 14 62 21 66 24 15 47 7 62 -22z m-3577 -289 c1 -3 -9 -6 -23 -6 -23 1 -91
71 -185 190 -8 11 35 -25 95 -79 61 -53 111 -101 113 -105z m-3 -31 c4 -6 15
-47 26 -91 18 -76 18 -84 3 -142 -19 -75 -34 -95 -34 -46 0 18 -9 85 -20 146
-11 62 -17 119 -14 128 7 17 30 20 39 5z m119 -377 c-93 -198 -120 -313 -110
-478 7 -127 25 -208 89 -393 26 -72 44 -132 41 -132 -10 0 -92 187 -130 296
-37 107 -38 112 -42 279 -3 166 -2 174 38 370 22 110 46 224 52 253 l12 52 38
-96 39 -96 -27 -55z m3302 -170 c19 -97 18 -146 -6 -222 -34 -109 -68 -150
-140 -171 l-33 -9 7 37 c16 89 36 251 36 291 0 34 3 42 15 38 20 -8 60 43 81
105 15 43 19 48 22 28 2 -14 10 -57 18 -97z m-3298 -44 c6 -14 29 -47 51 -73
26 -30 41 -57 41 -75 0 -15 11 -85 25 -156 13 -71 23 -131 21 -133 -7 -6 -60
25 -82 50 -36 39 -51 79 -89 229 l-37 144 18 65 18 65 12 -45 c6 -25 16 -57
22 -71z m2727 -1734 c3 -41 13 -98 21 -127 21 -81 18 -100 -19 -126 -17 -12
-57 -42 -87 -67 -84 -69 -392 -218 -525 -254 -244 -67 -382 -82 -590 -62 -231
21 -584 140 -689 231 -36 32 -37 35 -30 79 4 25 10 85 13 133 l6 87 138 -102
c76 -56 180 -132 230 -169 221 -163 387 -215 587 -184 161 25 271 73 432 189
130 93 208 161 358 312 74 74 138 135 141 135 4 0 10 -34 14 -75z m69 -336
c22 -73 25 -93 15 -105 -25 -31 -257 -179 -345 -220 -107 -51 -328 -127 -434
-149 -166 -34 -513 -35 -695 -1 -174 32 -415 127 -522 205 -46 33 -50 47 -33
110 5 20 12 49 15 64 l6 28 39 -31 c62 -49 214 -115 365 -159 221 -63 240 -66
470 -65 l210 0 155 41 c85 23 191 55 235 73 128 50 293 146 390 226 50 40 93
73 96 74 3 0 18 -41 33 -91z m77 -181 c90 -179 178 -278 316 -357 100 -56 481
-243 575 -281 52 -21 58 -27 64 -59 5 -32 21 -108 55 -276 10 -48 9 -57 -36
-175 -210 -552 -542 -943 -990 -1168 -379 -189 -867 -258 -1331 -188 -108 16
-313 73 -409 113 -331 138 -709 391 -917 612 -84 89 -210 270 -281 401 -78
145 -197 464 -197 529 0 25 4 28 73 45 165 42 411 152 567 254 95 63 261 224
314 305 19 28 44 78 56 110 12 31 23 57 26 57 2 0 25 -15 51 -34 106 -75 282
-149 456 -191 101 -25 354 -50 426 -43 23 2 41 0 41 -4 0 -5 -10 -8 -21 -8
-33 0 -105 -78 -119 -128 -21 -80 31 -192 97 -208 32 -8 39 1 18 23 -28 28
-47 83 -41 118 8 41 54 84 98 91 42 7 90 -15 114 -52 24 -36 21 -109 -6 -146
-28 -38 -20 -46 22 -21 74 43 99 150 55 233 -26 49 -57 75 -111 94 -38 13 -37
13 57 20 206 15 520 121 706 238 76 47 221 159 221 171 0 19 13 0 51 -75z
m-1028 -372 c42 -17 93 -76 108 -124 14 -47 -1 -109 -36 -149 l-24 -28 14 41
c27 79 -17 163 -97 185 -31 8 -46 6 -82 -10 -67 -29 -96 -101 -71 -173 13 -39
13 -39 -6 -22 -10 9 -26 41 -36 70 -13 44 -14 60 -5 92 31 103 140 158 235
118z" />
        <path d="M6890 9183 c135 -97 172 -123 160 -108 -17 21 -126 98 -160 114 l-25
12 25 -18z" />
        <path d="M7235 8654 c-9 -14 -15 -27 -13 -30 2 -2 12 10 22 26 21 37 15 40 -9
4z" />
        <path d="M6261 8844 c0 -11 3 -14 6 -6 3 7 2 16 -1 19 -3 4 -6 -2 -5 -13z" />
        <path d="M2969 8833 l-24 -28 28 24 c25 23 32 31 24 31 -2 0 -14 -12 -28 -27z" />
        <path d="M2933 8788 c-15 -18 -35 -58 -29 -58 2 0 13 16 25 35 20 35 22 46 4
23z" />
        <path d="M6641 8614 c0 -11 3 -14 6 -6 3 7 2 16 -1 19 -3 4 -6 -2 -5 -13z" />
        <path d="M6540 8555 c0 -5 5 -17 10 -25 5 -8 10 -10 10 -5 0 6 -5 17 -10 25
-5 8 -10 11 -10 5z" />
        <path d="M2826 8868 c-3 -13 -5 -32 -5 -43 1 -11 5 -2 10 19 10 42 6 62 -5 24z" />
        <path d="M2812 8775 c0 -16 2 -22 5 -12 2 9 2 23 0 30 -3 6 -5 -1 -5 -18z" />
        <path d="M2812 8630 c0 -19 2 -27 5 -17 2 9 2 25 0 35 -3 9 -5 1 -5 -18z" />
        <path d="M2822 8570 c0 -14 3 -34 8 -45 l9 -20 -1 20 c0 11 -4 31 -8 45 l-8
25 0 -25z" />
        <path d="M2615 8555 c8 -38 54 -140 60 -133 2 2 -11 40 -31 84 -20 43 -33 66
-29 49z" />
        <path d="M6950 8936 c0 -2 7 -7 16 -10 8 -3 12 -2 9 4 -6 10 -25 14 -25 6z" />
        <path d="M6980 8707 c46 -48 86 -87 88 -87 10 0 -76 91 -121 129 -37 32 -28
19 33 -42z" />
        <path d="M3371 8654 c0 -11 3 -14 6 -6 3 7 2 16 -1 19 -3 4 -6 -2 -5 -13z" />
        <path d="M3382 8570 c0 -19 2 -27 5 -17 2 9 2 25 0 35 -3 9 -5 1 -5 -18z" />
        <path d="M3516 8365 c-9 -26 -7 -32 5 -12 6 10 9 21 6 23 -2 3 -7 -2 -11 -11z" />
        <path d="M3586 8345 c-9 -26 -7 -32 5 -12 6 10 9 21 6 23 -2 3 -7 -2 -11 -11z" />
        <path d="M3901 8884 c0 -11 3 -14 6 -6 3 7 2 16 -1 19 -3 4 -6 -2 -5 -13z" />
        <path d="M3911 8844 c0 -11 3 -14 6 -6 3 7 2 16 -1 19 -3 4 -6 -2 -5 -13z" />
        <path d="M3922 8720 c0 -14 2 -19 5 -12 2 6 2 18 0 25 -3 6 -5 1 -5 -13z" />
        <path d="M7661 8667 c-3 -49 -128 -267 -152 -267 -5 0 -9 -5 -9 -12 0 -19 48
32 90 95 43 64 83 162 77 186 -4 13 -5 13 -6 -2z" />
        <path d="M5308 8833 c7 -3 16 -2 19 1 4 3 -2 6 -13 5 -11 0 -14 -3 -6 -6z" />
        <path d="M5268 8823 c7 -3 16 -2 19 1 4 3 -2 6 -13 5 -11 0 -14 -3 -6 -6z" />
        <path d="M5200 8800 c-19 -11 -30 -19 -25 -19 6 0 26 8 45 19 19 11 31 19 25
19 -5 0 -26 -8 -45 -19z" />
        <path d="M5301 8794 c-57 -15 -144 -58 -162 -80 -6 -7 16 1 48 19 32 17 92 41
133 54 83 24 67 30 -19 7z" />
        <path d="M4653 8783 c9 -2 23 -2 30 0 6 3 -1 5 -18 5 -16 0 -22 -2 -12 -5z" />
        <path d="M4800 8746 c30 -12 70 -30 88 -40 17 -9 32 -14 32 -11 0 8 -145 75
-162 75 -7 -1 12 -11 42 -24z" />
        <path d="M4940 8725 c35 -19 74 -48 87 -63 12 -15 22 -22 23 -16 0 19 -65 71
-116 93 -70 31 -67 25 6 -14z" />
        <path d="M5333 8709 c-57 -10 -160 -46 -168 -59 -3 -5 23 3 57 17 34 13 105
31 158 38 57 8 77 13 50 13 -25 0 -68 -4 -97 -9z" />
        <path d="M5274 8649 c-34 -10 -67 -26 -74 -34 -11 -13 -3 -12 38 4 27 11 81
27 119 35 65 14 66 14 23 15 -25 0 -73 -9 -106 -20z" />
        <path d="M5270 8598 c-25 -5 -49 -15 -55 -20 -7 -8 -4 -9 10 -4 37 13 163 25
217 21 38 -3 46 -2 28 4 -33 12 -144 11 -200 -1z" />
        <path d="M4988 8561 c39 -19 66 -39 71 -53 6 -13 10 -18 10 -11 2 37 -46 76
-109 87 -28 5 -23 1 28 -23z" />
        <path d="M4808 8573 c6 -2 18 -2 25 0 6 3 1 5 -13 5 -14 0 -19 -2 -12 -5z" />
        <path d="M4897 8551 c28 -11 57 -22 62 -26 6 -3 11 -3 11 0 0 9 -83 45 -105
44 -11 0 3 -8 32 -18z" />
        <path d="M5155 8560 c-4 -6 -11 -8 -16 -5 -11 8 -11 -63 1 -90 6 -14 7 -6 3
23 -4 33 -2 47 12 62 10 11 15 20 12 20 -3 0 -9 -5 -12 -10z" />
        <path d="M5246 8544 c-69 -22 -50 -28 25 -8 46 11 90 15 154 12 50 -3 79 -2
65 3 -44 13 -193 8 -244 -7z" />
        <path d="M4635 8510 c-38 -10 -74 -19 -79 -19 -5 -1 -7 -3 -4 -6 3 -3 36 2 74
11 73 17 216 23 299 12 l50 -7 -40 14 c-59 20 -216 18 -300 -5z" />
        <path d="M4983 8506 c0 -8 9 -17 20 -20 18 -4 18 -4 1 15 -21 23 -21 23 -21 5z" />
        <path d="M5258 8495 c-26 -9 -50 -21 -54 -27 -5 -8 -1 -9 12 -4 63 24 155 38
224 32 96 -7 168 -26 303 -80 59 -24 107 -41 107 -39 0 9 -148 72 -230 98
-106 35 -286 44 -362 20z" />
        <path d="M4830 8461 c30 -4 73 -11 95 -14 34 -6 36 -5 15 4 -14 6 -56 12 -95
14 -68 4 -68 4 -15 -4z" />
        <path d="M5305 8410 c-16 -4 15 -5 71 -2 153 7 287 -29 493 -133 99 -49 263
-174 369 -282 107 -107 85 -68 -28 50 -168 177 -411 315 -634 361 -79 16 -216
20 -271 6z" />
        <path d="M4705 8399 c-143 -19 -375 -120 -505 -218 -36 -27 -99 -84 -140 -127
l-75 -78 80 73 c158 144 295 225 490 290 170 57 326 66 440 25 15 -5 17 -4 9
5 -14 15 -138 41 -194 40 -25 -1 -72 -5 -105 -10z" />
        <path d="M3790 8168 c-14 -6 -50 -14 -80 -19 l-55 -8 55 3 c30 2 71 10 90 19
39 17 30 22 -10 5z" />
        <path d="M3857 8119 c-10 -6 -64 -16 -120 -24 -101 -13 -101 -13 -36 -14 65
-1 163 21 174 39 8 12 5 12 -18 -1z" />
        <path d="M3673 8053 c9 -2 23 -2 30 0 6 3 -1 5 -18 5 -16 0 -22 -2 -12 -5z" />
        <path d="M3778 8033 c6 -2 18 -2 25 0 6 3 1 5 -13 5 -14 0 -19 -2 -12 -5z" />
        <path d="M6771 7934 c0 -11 3 -14 6 -6 3 7 2 16 -1 19 -3 4 -6 -2 -5 -13z" />
        <path d="M6786 7865 c4 -27 10 -90 15 -140 l8 -90 -4 110 c-2 61 -9 124 -14
140 -9 26 -10 23 -5 -20z" />
        <path d="M6872 7710 c0 -14 2 -19 5 -12 2 6 2 18 0 25 -3 6 -5 1 -5 -13z" />
        <path d="M3414 7682 c6 -33 55 -146 62 -140 1 2 -13 42 -32 88 -20 47 -33 70
-30 52z" />
        <path d="M5090 7647 c0 -54 29 -378 35 -392 6 -13 -4 158 -11 205 -11 67 4 24
31 -90 55 -232 155 -481 274 -682 58 -98 95 -138 113 -120 10 10 8 23 -6 60
-59 152 -123 348 -161 497 -40 157 -64 287 -52 275 3 -3 28 -71 56 -152 28
-81 69 -189 92 -240 44 -102 191 -387 220 -429 10 -14 16 -29 12 -33 -3 -3 1
-6 9 -6 11 0 -14 56 -83 188 -150 285 -270 585 -324 812 -15 63 -29 117 -32
120 -19 18 48 -399 92 -570 25 -99 135 -430 157 -473 11 -22 18 -41 15 -43
-17 -17 -142 198 -222 380 -86 197 -150 415 -189 640 -18 102 -26 119 -26 53z" />
        <path d="M6882 7600 c0 -14 2 -19 5 -12 2 6 2 18 0 25 -3 6 -5 1 -5 -13z" />
        <path d="M5242 7440 c0 -14 2 -19 5 -12 2 6 2 18 0 25 -3 6 -5 1 -5 -13z" />
        <path d="M5645 7404 c4 -16 22 -76 41 -134 41 -128 106 -381 100 -388 -3 -2
-11 8 -17 24 -36 87 -60 137 -63 133 -2 -2 2 -44 10 -94 7 -49 20 -155 29
-235 15 -136 15 -145 -1 -157 -34 -25 -6 -23 42 3 42 22 44 25 17 19 l-31 -6
-7 68 c-12 134 -26 258 -31 278 -2 11 9 -9 26 -45 17 -35 33 -75 37 -88 11
-46 12 -14 2 79 -6 51 -30 166 -54 254 -24 88 -42 161 -40 163 4 5 55 -132
118 -318 52 -155 80 -271 91 -384 9 -86 19 -64 12 26 -10 125 -92 394 -211
690 -46 115 -84 176 -70 112z" />
        <path d="M5252 7390 c0 -14 2 -19 5 -12 2 6 2 18 0 25 -3 6 -5 1 -5 -13z" />
        <path d="M4881 7251 c-13 -71 -21 -138 -19 -148 2 -10 14 46 27 125 12 79 21
146 18 148 -2 2 -14 -54 -26 -125z" />
        <path d="M6973 7335 c0 -27 2 -38 4 -22 2 15 2 37 0 50 -2 12 -4 0 -4 -28z" />
        <path d="M5262 7340 c0 -14 2 -19 5 -12 2 6 2 18 0 25 -3 6 -5 1 -5 -13z" />
        <path d="M5270 7299 c-1 -43 115 -467 126 -456 2 2 -3 24 -11 48 -9 24 -38
130 -65 234 -27 105 -49 183 -50 174z" />
        <path d="M6001 7294 c0 -11 3 -14 6 -6 3 7 2 16 -1 19 -3 4 -6 -2 -5 -13z" />
        <path d="M6012 7250 c0 -14 2 -19 5 -12 2 6 2 18 0 25 -3 6 -5 1 -5 -13z" />
        <path d="M6963 7225 c0 -22 2 -30 4 -17 2 12 2 30 0 40 -3 9 -5 -1 -4 -23z" />
        <path d="M6061 7184 c0 -11 3 -14 6 -6 3 7 2 16 -1 19 -3 4 -6 -2 -5 -13z" />
        <path d="M6952 7160 c0 -14 2 -19 5 -12 2 6 2 18 0 25 -3 6 -5 1 -5 -13z" />
        <path d="M6076 7130 c2 -19 11 -73 19 -120 8 -47 19 -130 24 -185 7 -90 8 -93
9 -35 2 73 -20 237 -43 320 -8 30 -12 39 -9 20z" />
        <path d="M3143 7110 c0 -25 2 -35 4 -22 2 12 2 32 0 45 -2 12 -4 2 -4 -23z" />
        <path d="M5490 7128 c0 -3 34 -76 76 -164 42 -87 94 -204 116 -259 21 -55 36
-86 33 -70 -11 51 -75 204 -147 350 -67 134 -78 155 -78 143z" />
        <path d="M4851 7064 c0 -11 3 -14 6 -6 3 7 2 16 -1 19 -3 4 -6 -2 -5 -13z" />
        <path d="M7072 7021 c-5 -119 -39 -284 -87 -416 -6 -16 -5 -17 4 -5 41 56 98
331 89 425 l-5 40 -1 -44z" />
        <path d="M3151 7034 c0 -11 3 -14 6 -6 3 7 2 16 -1 19 -3 4 -6 -2 -5 -13z" />
        <path d="M3105 6915 c2 -55 9 -113 14 -130 9 -27 10 -25 5 15 -3 25 -9 83 -14
130 l-9 85 4 -100z" />
        <path d="M3946 6905 c6 -92 37 -233 60 -273 8 -15 12 -18 8 -7 -21 60 -46 174
-59 261 l-14 99 5 -80z" />
        <path d="M6262 6950 c0 -14 2 -19 5 -12 2 6 2 18 0 25 -3 6 -5 1 -5 -13z" />
        <path d="M6277 6815 c3 -60 7 -112 9 -114 7 -8 2 134 -6 179 -5 29 -6 7 -3
-65z" />
        <path d="M6602 6608 c-1 -172 2 -338 6 -368 4 -30 6 109 5 309 -2 200 -4 366
-6 368 -3 2 -5 -137 -5 -309z" />
        <path d="M3580 6790 c-9 -149 1 -314 25 -410 21 -86 43 -153 44 -140 1 3 -11
55 -25 115 -21 89 -27 148 -33 305 -4 108 -9 166 -11 130z" />
        <path d="M6330 6712 c0 -67 4 -102 11 -102 8 0 9 29 4 98 -4 53 -9 99 -11 101
-2 2 -4 -41 -4 -97z" />
        <path d="M4012 6755 c0 -16 2 -22 5 -12 2 9 2 23 0 30 -3 6 -5 -1 -5 -18z" />
        <path d="M3813 6730 c0 -25 2 -35 4 -22 2 12 2 32 0 45 -2 12 -4 2 -4 -23z" />
        <path d="M3131 6738 c-2 -41 87 -278 104 -278 2 0 -9 29 -26 65 -16 36 -40
102 -53 147 -14 46 -25 75 -25 66z" />
        <path d="M4172 6710 c-2 -52 15 -171 25 -181 5 -5 3 30 -3 78 -19 135 -21 143
-22 103z" />
        <path d="M3721 6694 c0 -11 3 -14 6 -6 3 7 2 16 -1 19 -3 4 -6 -2 -5 -13z" />
        <path d="M4291 6654 c0 -32 4 -77 9 -99 6 -28 7 -11 3 55 -6 108 -13 133 -12
44z" />
        <path d="M4027 6640 c3 -36 12 -80 20 -98 19 -40 28 -36 12 4 -7 16 -18 58
-25 94 l-13 65 6 -65z" />
        <path d="M6648 6515 c2 -104 8 -266 12 -360 7 -133 7 -104 4 135 -3 168 -8
330 -13 360 -5 34 -6 -19 -3 -135z" />
        <path d="M3821 6645 c-2 -71 41 -276 55 -262 3 3 -2 29 -11 59 -8 30 -22 97
-29 149 -9 58 -14 79 -15 54z" />
        <path d="M6966 6565 c-9 -26 -7 -32 5 -12 6 10 9 21 6 23 -2 3 -7 -2 -11 -11z" />
        <path d="M6000 6525 c-41 -19 -68 -35 -58 -35 16 0 138 58 138 66 0 6 0 6 -80
-31z" />
        <path d="M5828 6513 c-18 -15 -57 -49 -86 -75 -32 -29 -76 -56 -113 -69 -75
-27 -72 -36 4 -11 54 18 74 33 185 134 58 52 64 65 10 21z" />
        <path d="M5562 6488 c-11 -13 -30 -44 -41 -70 -27 -63 -36 -62 -12 2 11 27 15
47 9 44 -15 -10 -38 -70 -38 -100 l0 -27 19 24 c10 14 26 42 35 64 9 22 27 50
38 62 12 13 19 23 16 23 -2 0 -14 -10 -26 -22z" />
        <path d="M6036 6495 c-16 -12 -17 -15 -4 -15 9 0 18 7 22 15 7 18 6 18 -18 0z" />
        <path d="M5643 6444 c-42 -40 -47 -47 -18 -26 73 56 100 81 88 82 -7 0 -38
-25 -70 -56z" />
        <path d="M3412 6470 c0 -14 2 -19 5 -12 2 6 2 18 0 25 -3 6 -5 1 -5 -13z" />
        <path d="M5858 6445 c-21 -14 -54 -29 -75 -34 -33 -8 -34 -9 -10 -10 15 -1 44
6 65 16 20 9 44 16 52 15 11 -1 11 0 2 4 -10 5 -10 9 -1 20 16 20 9 17 -33
-11z" />
        <path d="M4474 6441 c20 -22 26 -25 26 -13 0 4 -10 13 -22 21 -23 14 -23 14
-4 -8z" />
        <path d="M4650 6416 c0 -2 8 -10 18 -17 15 -13 16 -12 3 4 -13 16 -21 21 -21
13z" />
        <path d="M5536 6395 c-3 -9 -6 -22 -5 -28 0 -7 5 -1 10 12 5 13 8 26 5 28 -2
2 -6 -3 -10 -12z" />
        <path d="M3421 6390 c-1 -23 45 -303 64 -385 20 -88 87 -306 92 -301 3 2 -7
41 -22 87 -37 119 -71 267 -100 442 -26 153 -33 185 -34 157z" />
        <path d="M4049 6385 c-30 -7 -64 -17 -75 -24 -21 -13 -21 -13 76 9 25 5 65 10
90 10 34 1 40 3 25 10 -26 11 -47 10 -116 -5z" />
        <path d="M7111 6348 c-6 -18 -29 -64 -51 -102 -22 -38 -34 -63 -26 -57 19 16
101 179 94 187 -3 3 -11 -10 -17 -28z" />
        <path d="M4675 6333 c18 -42 25 -52 25 -34 0 14 -28 71 -35 71 -3 0 2 -17 10
-37z" />
        <path d="M3481 6329 c-2 -74 92 -590 105 -576 2 2 -5 48 -16 101 -19 92 -58
318 -78 451 -7 45 -10 51 -11 24z" />
        <path d="M3210 6330 c19 -36 88 -138 99 -144 8 -5 -94 152 -106 164 -3 3 0 -6
7 -20z" />
        <path d="M6783 6300 c0 -25 2 -35 4 -22 2 12 2 32 0 45 -2 12 -4 2 -4 -23z" />
        <path d="M6766 6153 c-4 -43 -9 -96 -11 -118 l-5 -40 9 35 c11 41 26 200 19
200 -3 0 -8 -35 -12 -77z" />
        <path d="M5895 6191 c11 -5 28 -10 38 -10 9 -1 56 -16 102 -35 47 -18 85 -32
85 -30 0 14 -144 73 -190 78 -37 4 -49 3 -35 -3z" />
        <path d="M5705 6154 c-50 -33 -110 -89 -138 -129 -11 -16 11 0 51 37 40 37 93
79 119 92 32 17 41 25 28 26 -11 0 -38 -12 -60 -26z" />
        <path d="M6723 6145 c0 -22 2 -30 4 -17 2 12 2 30 0 40 -3 9 -5 -1 -4 -23z" />
        <path d="M5876 6139 c-101 -11 -179 -54 -286 -156 -81 -77 -107 -113 -81 -113
20 0 41 13 35 21 -3 5 -2 19 1 30 l7 21 15 -21 c8 -12 20 -21 26 -20 9 0 9 2
0 6 -39 15 10 88 87 128 l30 16 0 -31 c0 -17 7 -47 15 -67 19 -45 20 -41 -12
-46 -16 -2 4 -5 42 -5 101 -2 238 23 310 57 56 26 67 28 108 18 41 -9 49 -8
101 22 31 18 56 34 56 35 0 2 -20 3 -43 3 -31 1 -71 15 -138 49 -70 35 -106
47 -141 48 -27 1 -48 4 -48 9 0 4 -3 6 -7 6 -5 -1 -39 -5 -77 -10z m180 -85
c32 -19 63 -39 68 -44 10 -10 -94 -62 -149 -76 l-29 -7 21 34 c14 25 18 42 12
64 -18 77 -9 81 77 29z m-248 -9 c-13 -29 -28 -33 -28 -7 0 22 8 32 26 32 11
0 11 -5 2 -25z m97 5 c0 -22 -29 -18 -33 3 -3 14 1 18 15 15 10 -2 18 -10 18
-18z" />
        <path d="M4209 6106 c-65 -25 -120 -57 -114 -66 4 -6 -1 -13 -9 -16 -9 -3 -13
-11 -9 -17 3 -6 1 -7 -5 -3 -6 3 -19 -2 -29 -13 -26 -27 -78 -51 -110 -51
l-28 0 35 -23 c28 -18 49 -22 112 -22 43 0 70 3 62 8 -8 4 -14 12 -14 17 0 18
61 78 95 94 19 9 35 21 35 26 0 6 9 10 20 10 19 0 20 -2 5 -30 -22 -43 -20
-115 5 -140 l20 -20 -22 -1 c-13 -1 2 -5 32 -8 30 -3 98 -3 150 0 52 3 85 6
73 7 -21 2 -21 3 -7 37 7 19 14 50 14 70 0 19 2 35 5 35 13 0 85 -41 114 -65
23 -20 31 -35 31 -60 0 -27 5 -34 25 -39 27 -7 45 -1 45 14 0 16 -111 114
-183 162 -98 65 -152 82 -241 75 -39 -3 -93 -13 -121 -21 -87 -25 -101 -27
-60 -7 54 26 202 50 281 45 96 -5 140 -22 202 -78 46 -42 51 -45 31 -18 -13
19 -46 50 -74 70 l-49 37 -141 2 c-98 2 -151 -2 -176 -11z m153 -92 c10 -9 -3
-42 -18 -48 -17 -6 -29 17 -20 39 5 15 27 20 38 9z m92 -23 c3 -5 0 -13 -7
-19 -15 -13 -42 1 -33 17 9 13 33 15 40 2z m256 -133 c0 -4 -7 -8 -15 -8 -10
0 -15 10 -15 28 1 26 1 26 15 8 8 -11 15 -23 15 -28z" />
        <path d="M6711 6079 c0 -15 -3 -42 -6 -60 l-5 -34 11 34 c5 18 8 45 6 60 l-4
26 -2 -26z" />
        <path d="M6128 5963 c7 -3 16 -2 19 1 4 3 -2 6 -13 5 -11 0 -14 -3 -6 -6z" />
        <path d="M5301 5924 c0 -11 3 -14 6 -6 3 7 2 16 -1 19 -3 4 -6 -2 -5 -13z" />
        <path d="M4081 5886 c8 -9 99 -45 99 -40 0 2 -21 14 -46 24 -45 20 -62 24 -53
16z" />
        <path d="M4175 5870 c11 -5 27 -9 35 -9 9 0 8 4 -5 9 -11 5 -27 9 -35 9 -9 0
-8 -4 5 -9z" />
        <path d="M5291 5864 c0 -11 3 -14 6 -6 3 7 2 16 -1 19 -3 4 -6 -2 -5 -13z" />
        <path d="M5718 5773 c7 -3 16 -2 19 1 4 3 -2 6 -13 5 -11 0 -14 -3 -6 -6z" />
        <path d="M5808 5763 c18 -2 45 -2 60 0 15 2 0 4 -33 4 -33 0 -45 -2 -27 -4z" />
        <path d="M4370 5700 l-45 -7 50 -1 c28 0 61 4 75 8 24 8 24 8 -5 8 -16 -1 -50
-4 -75 -8z" />
        <path d="M3580 5678 c0 -7 5 -20 10 -28 8 -11 9 -9 8 13 -2 26 -18 40 -18 15z" />
        <path d="M4942 5645 c0 -16 2 -22 5 -12 2 9 2 23 0 30 -3 6 -5 -1 -5 -18z" />
        <path d="M5473 5123 c-4 -10 -1 -19 6 -21 32 -11 51 -43 51 -86 0 -53 -30 -99
-51 -78 -7 6 -28 12 -47 12 -27 0 -44 -10 -85 -50 l-52 -50 40 20 c21 11 52
20 67 20 37 0 88 22 111 47 42 47 38 125 -8 162 -16 12 -22 22 -15 26 14 9 37
-11 56 -46 22 -43 18 -101 -11 -143 -27 -40 -26 -42 15 -21 37 19 50 43 50 93
0 38 -37 110 -53 104 -4 -1 -15 4 -23 13 -20 20 -43 19 -51 -2z m95 -53 c-2
-7 -10 1 -17 16 -12 27 -11 28 4 12 10 -9 16 -21 13 -28z m-9 -134 l-22 -21
17 25 c9 13 17 45 18 70 l2 45 3 -49 c4 -41 0 -53 -18 -70z" />
        <path d="M4747 5075 c-23 -48 -22 -112 3 -152 24 -40 34 -44 14 -5 -16 32 -19
119 -4 158 16 40 6 39 -13 -1z" />
        <path d="M4970 4956 c0 -2 8 -10 18 -17 15 -13 16 -12 3 4 -13 16 -21 21 -21
13z" />
        <path d="M6470 4930 c-12 -16 -19 -30 -16 -30 2 0 14 14 26 30 12 17 19 30 16
30 -2 0 -14 -13 -26 -30z" />
        <path d="M5855 4902 c27 -29 51 -52 52 -52 13 0 -5 22 -50 59 l-52 44 50 -51z" />
        <path d="M4871 4917 c-56 -28 -33 -46 74 -57 39 -4 79 -10 90 -14 14 -5 11 0
-10 19 -59 51 -117 71 -154 52z" />
        <path d="M6429 4873 c-13 -16 -12 -17 4 -4 9 7 17 15 17 17 0 8 -8 3 -21 -13z" />
        <path d="M3850 4830 c17 -22 34 -40 37 -40 2 0 -10 18 -27 40 -17 22 -34 40
-37 40 -2 0 10 -18 27 -40z" />
        <path d="M4479 4813 c-13 -16 -12 -17 4 -4 16 13 21 21 13 21 -2 0 -10 -8 -17
-17z" />
        <path d="M5155 4790 c8 -13 35 -13 55 0 11 7 5 10 -23 10 -23 0 -36 -4 -32
-10z" />
        <path d="M5996 4705 c20 -50 29 -59 20 -20 -4 17 -14 37 -22 45 -12 12 -12 8
2 -25z" />
        <path d="M5262 4610 c0 -19 2 -27 5 -17 2 9 2 25 0 35 -3 9 -5 1 -5 -18z" />
        <path d="M5100 4617 c0 -24 31 -57 53 -56 l22 0 -23 9 c-12 5 -27 21 -32 35
-10 27 -20 33 -20 12z" />
        <path d="M5846 4585 c-3 -8 -26 -20 -50 -26 -25 -6 -44 -15 -41 -19 8 -13
-131 -61 -247 -84 -62 -13 -156 -36 -208 -51 -88 -25 -100 -27 -165 -16 -38 6
-124 17 -190 26 -207 26 -255 35 -293 52 l-37 17 95 7 c99 9 314 46 270 48
-14 0 -64 -6 -113 -14 -48 -8 -132 -17 -186 -21 -83 -6 -103 -4 -122 10 -32
22 -72 21 -67 -1 2 -10 14 -19 28 -21 14 -2 57 -14 97 -27 75 -25 104 -31 323
-65 74 -11 160 -25 191 -30 47 -7 73 -4 150 16 52 13 145 35 208 49 62 13 152
37 200 52 47 15 91 28 96 28 6 0 21 8 35 18 14 9 40 22 58 28 18 6 32 17 32
25 0 19 -56 18 -64 -1z" />
        <path d="M5325 4555 c-27 -7 -70 -22 -95 -33 -45 -21 -45 -21 -115 -1 -38 10
-79 19 -90 19 -11 -1 21 -12 70 -25 l90 -24 60 27 c59 27 63 27 260 26 188 -2
193 -1 80 6 -66 5 -140 11 -165 13 -25 3 -67 0 -95 -8z" />
        <path d="M5609 4293 l-24 -28 28 24 c25 23 32 31 24 31 -2 0 -14 -12 -28 -27z" />
        <path d="M4750 4286 c0 -2 8 -10 18 -17 15 -13 16 -12 3 4 -13 16 -21 21 -21
13z" />
        <path d="M5530 4239 c-121 -80 -349 -111 -510 -70 -47 12 -119 37 -160 56 -51
24 -67 29 -50 15 37 -31 107 -65 175 -86 84 -26 275 -26 365 0 82 24 178 67
210 94 35 29 23 26 -30 -9z" />
        <path d="M5056 4109 c16 -4 67 -7 114 -7 47 0 98 3 114 7 17 3 -35 6 -114 6
-79 0 -130 -3 -114 -6z" />
        <path d="M5102 4019 c-76 -15 -59 -21 27 -10 40 5 88 8 107 5 108 -13 109 -13
92 -3 -26 14 -166 19 -226 8z" />
        <path d="M2959 8653 c-13 -16 -12 -17 4 -4 9 7 17 15 17 17 0 8 -8 3 -21 -13z" />
        <path d="M3105 8581 c-27 -16 -59 -39 -70 -51 -16 -18 -11 -17 25 7 25 17 61
40 80 52 53 32 22 25 -35 -8z" />
        <path d="M2935 8438 l-60 -63 63 60 c58 55 67 65 59 65 -1 0 -29 -28 -62 -62z" />
        <path d="M2921 7874 c0 -11 3 -14 6 -6 3 7 2 16 -1 19 -3 4 -6 -2 -5 -13z" />
        <path d="M6870 8191 c0 -6 4 -13 10 -16 6 -3 7 1 4 9 -7 18 -14 21 -14 7z" />
        <path d="M6891 8155 c0 -5 6 -21 14 -35 8 -14 14 -20 14 -15 0 6 -6 21 -14 35
-8 14 -14 21 -14 15z" />
        <path d="M6820 8095 c23 -27 53 -69 67 -92 14 -24 27 -43 30 -43 12 0 -48 89
-91 134 l-48 51 42 -50z" />
        <path d="M6922 8085 c0 -5 6 -26 13 -45 7 -19 14 -28 14 -20 0 8 -6 29 -14 45
-7 17 -13 26 -13 20z" />
        <path d="M6951 7984 c0 -11 3 -14 6 -6 3 7 2 16 -1 19 -3 4 -6 -2 -5 -13z" />
        <path d="M6920 7945 c0 -5 5 -17 10 -25 5 -8 10 -10 10 -5 0 6 -5 17 -10 25
-5 8 -10 11 -10 5z" />
        <path d="M7048 7793 c-21 -2 -38 -8 -38 -14 0 -13 30 -10 65 6 17 7 26 13 20
13 -5 -1 -27 -3 -47 -5z" />
        <path d="M7286 7634 c-26 -19 -76 -43 -110 -54 -48 -16 -53 -19 -21 -14 45 6
145 56 171 85 23 25 18 23 -40 -17z" />
        <path d="M3171 7814 c-7 -26 -14 -77 -16 -113 l-5 -66 14 80 c7 44 16 95 20
113 12 50 0 38 -13 -14z" />
        <path d="M3211 7794 c0 -11 3 -14 6 -6 3 7 2 16 -1 19 -3 4 -6 -2 -5 -13z" />
        <path d="M3192 7709 c-7 -36 -12 -79 -11 -95 1 -16 7 9 15 55 8 47 13 90 11
95 -2 6 -9 -19 -15 -55z" />
        <path d="M2520 8033 c-17 -26 -30 -52 -30 -57 0 -6 12 9 26 34 14 25 30 51 36
57 6 7 8 13 4 13 -4 0 -20 -21 -36 -47z" />
        <path d="M3045 7575 c17 -7 48 -16 70 -19 l40 -6 -40 14 c-22 7 -53 16 -70 19
l-30 6 30 -14z" />
        <path d="M2880 7566 c0 -3 9 -10 20 -16 11 -6 20 -8 20 -6 0 3 -9 10 -20 16
-11 6 -20 8 -20 6z" />
        <path d="M6940 2204 c-372 -80 -397 -84 -805 -128 -154 -17 -223 -40 -285 -97
-25 -23 -34 -34 -20 -25 142 91 159 95 455 106 253 10 323 19 550 74 145 36
250 71 260 87 9 14 -30 10 -155 -17z" />
        <path d="M3750 2025 c91 -31 460 -66 740 -71 296 -6 322 -11 404 -72 28 -21
73 -48 99 -60 l48 -22 -15 21 c-23 34 -116 107 -166 131 -42 20 -65 23 -310
29 -146 4 -310 12 -365 18 -55 6 -165 15 -245 21 -80 5 -165 12 -190 15 l-45
5 45 -15z" />
        <path d="M5200 1705 c0 -18 49 -45 79 -44 35 0 35 1 11 11 -14 5 -40 16 -57
24 -18 7 -33 12 -33 9z" />
        <path d="M2772 2210 c0 -14 2 -19 5 -12 2 6 2 18 0 25 -3 6 -5 1 -5 -13z" />
        <path d="M2761 2144 c0 -11 3 -14 6 -6 3 7 2 16 -1 19 -3 4 -6 -2 -5 -13z" />
        <path d="M2751 2094 c0 -11 3 -14 6 -6 3 7 2 16 -1 19 -3 4 -6 -2 -5 -13z" />
        <path d="M2742 2040 c0 -14 2 -19 5 -12 2 6 2 18 0 25 -3 6 -5 1 -5 -13z" />
        <path d="M2732 1975 c0 -16 2 -22 5 -12 2 9 2 23 0 30 -3 6 -5 -1 -5 -18z" />
        <path d="M2722 1915 c0 -16 2 -22 5 -12 2 9 2 23 0 30 -3 6 -5 -1 -5 -18z" />
        <path d="M2712 1845 c0 -16 2 -22 5 -12 2 9 2 23 0 30 -3 6 -5 -1 -5 -18z" />
        <path d="M3250 1865 c0 -5 5 -17 10 -25 5 -8 10 -10 10 -5 0 6 -5 17 -10 25
-5 8 -10 11 -10 5z" />
        <path d="M3271 1815 c0 -5 6 -21 14 -35 8 -14 14 -20 14 -15 0 6 -6 21 -14 35
-8 14 -14 21 -14 15z" />
        <path d="M2702 1775 c0 -16 2 -22 5 -12 2 9 2 23 0 30 -3 6 -5 -1 -5 -18z" />
        <path d="M7922 1770 c0 -14 2 -19 5 -12 2 6 2 18 0 25 -3 6 -5 1 -5 -13z" />
        <path d="M7932 1710 c0 -14 2 -19 5 -12 2 6 2 18 0 25 -3 6 -5 1 -5 -13z" />
        <path d="M3350 1650 c6 -11 13 -20 16 -20 2 0 0 9 -6 20 -6 11 -13 20 -16 20
-2 0 0 -9 6 -20z" />
        <path d="M7942 1650 c0 -14 2 -19 5 -12 2 6 2 18 0 25 -3 6 -5 1 -5 -13z" />
        <path d="M3415 1540 c19 -35 123 -180 176 -245 69 -86 252 -264 336 -328 34
-26 101 -70 150 -98 97 -57 323 -172 323 -165 0 2 -69 40 -152 84 -193 100
-269 149 -388 249 -150 128 -262 251 -374 413 -58 83 -87 121 -71 90z" />
        <path d="M2662 1420 c0 -19 2 -27 5 -17 2 9 2 25 0 35 -3 9 -5 1 -5 -18z" />
        <path d="M7181 1357 c-111 -165 -177 -235 -391 -421 -25 -21 -36 -33 -25 -25
123 83 302 264 396 400 76 110 82 119 75 119 -3 0 -28 -33 -55 -73z" />
        <path d="M2653 1315 c0 -27 2 -38 4 -22 2 15 2 37 0 50 -2 12 -4 0 -4 -28z" />
        <path d="M2643 1205 c0 -22 2 -30 4 -17 2 12 2 30 0 40 -3 9 -5 -1 -4 -23z" />
        <path d="M2632 1120 c0 -19 2 -27 5 -17 2 9 2 25 0 35 -3 9 -5 1 -5 -18z" />
        <path d="M2623 1035 c0 -22 2 -30 4 -17 2 12 2 30 0 40 -3 9 -5 -1 -4 -23z" />
        <path d="M2612 965 c0 -16 2 -22 5 -12 2 9 2 23 0 30 -3 6 -5 -1 -5 -18z" />
        <path d="M8082 930 c0 -14 2 -19 5 -12 2 6 2 18 0 25 -3 6 -5 1 -5 -13z" />
        <path d="M6719 883 c-13 -16 -12 -17 4 -4 16 13 21 21 13 21 -2 0 -10 -8 -17
-17z" />
        <path d="M8091 884 c0 -11 3 -14 6 -6 3 7 2 16 -1 19 -3 4 -6 -2 -5 -13z" />
        <path d="M6669 849 l-24 -20 28 17 c15 9 27 18 27 20 0 8 -8 4 -31 -17z" />
        <path d="M6564 784 c-18 -14 -18 -15 4 -4 12 6 22 13 22 15 0 8 -5 6 -26 -11z" />
        <path d="M6514 754 c-18 -14 -18 -15 4 -4 12 6 22 13 22 15 0 8 -5 6 -26 -11z" />
        <path d="M6370 680 c-52 -27 -92 -49 -87 -49 10 -1 187 88 187 94 0 7 5 9
-100 -45z" />
        <path d="M2571 704 c0 -11 3 -14 6 -6 3 7 2 16 -1 19 -3 4 -6 -2 -5 -13z" />
        <path d="M4417 689 c7 -7 15 -10 18 -7 3 3 -2 9 -12 12 -14 6 -15 5 -6 -5z" />
        <path d="M2562 640 c0 -14 2 -19 5 -12 2 6 2 18 0 25 -3 6 -5 1 -5 -13z" />
        <path d="M4523 640 c95 -52 332 -123 536 -160 94 -16 155 -20 340 -19 124 0
246 4 271 7 25 4 -72 6 -215 4 -232 -4 -274 -2 -388 18 -159 26 -345 77 -463
125 -117 47 -126 50 -81 25z" />
        <path d="M6230 615 c-14 -8 -20 -14 -15 -14 6 0 21 6 35 14 14 8 21 14 15 14
-5 0 -21 -6 -35 -14z" />
        <path d="M2552 580 c0 -14 2 -19 5 -12 2 6 2 18 0 25 -3 6 -5 1 -5 -13z" />
        <path d="M6105 569 c-27 -10 -37 -17 -21 -14 31 7 97 33 81 33 -5 0 -32 -8
-60 -19z" />
        <path d="M6005 540 c-13 -5 -14 -9 -5 -9 8 0 24 4 35 9 13 5 14 9 5 9 -8 0
-24 -4 -35 -9z" />
        <path d="M5958 523 c7 -3 16 -2 19 1 4 3 -2 6 -13 5 -11 0 -14 -3 -6 -6z" />
        <path d="M9441 465 c-97 -88 -188 -155 -433 -315 -114 -74 -207 -138 -207
-142 -1 -5 36 -8 82 -8 l83 0 179 116 c99 64 242 157 318 207 76 49 139 88
141 86 2 -2 17 -93 34 -202 17 -109 33 -201 36 -204 16 -16 16 15 1 114 -9 59
-23 152 -30 206 -8 54 -19 105 -24 115 -11 21 -46 53 -82 76 -27 17 -27 17
-98 -49z" />
        <path d="M5845 505 c-36 -8 -48 -13 -30 -13 17 0 53 6 80 13 64 16 28 16 -50
0z" />
        <path d="M5733 483 c9 -2 25 -2 35 0 9 3 1 5 -18 5 -19 0 -27 -2 -17 -5z" />
        <path d="M1825 230 c21 -22 41 -40 44 -40 3 0 -13 18 -34 40 -21 22 -41 40
-44 40 -3 0 13 -18 34 -40z" />
        <path d="M1905 160 c10 -11 20 -20 23 -20 3 0 -3 9 -13 20 -10 11 -20 20 -23
20 -3 0 3 -9 13 -20z" />
    </g>
</svg>