<?xml version="1.0" standalone="no"?>
<!DOCTYPE svg PUBLIC "-//W3C//DTD SVG 20010904//EN" "http://www.w3.org/TR/2001/REC-SVG-20010904/DTD/svg10.dtd">
<svg version="1.0" xmlns="http://www.w3.org/2000/svg" width="4267.000000pt" height="3877.000000pt"
    viewBox="0 0 4267.000000 3877.000000" preserveAspectRatio="xMidYMid meet">

    <g transform="translate(0.000000,3877.000000) scale(0.100000,-0.100000)" fill="#000000">
        <path d="M21805 36760 c-193 -12 -358 -48 -407 -91 l-23 -20 50 5 c28 2 129
16 226 30 144 21 510 61 626 68 46 2 -175 16 -262 15 -44 0 -138 -3 -210 -7z" />
        <path d="M22500 36711 c0 -15 39 -23 96 -19 75 5 59 23 -23 26 -45 2 -73 -1
-73 -7z" />
        <path d="M22738 36683 c-27 -7 -22 -22 10 -30 36 -9 62 -7 76 7 22 22 -34 37
-86 23z" />
        <path d="M21240 36623 c-33 -17 -56 -36 -59 -47 -3 -17 1 -18 34 -13 43 7 117
55 112 71 -7 20 -32 17 -87 -11z" />
        <path d="M20963 36482 c-127 -77 -306 -222 -291 -237 7 -7 154 84 240 148 108
81 141 112 137 126 -3 8 -32 -5 -86 -37z" />
        <path d="M21675 36504 c-434 -65 -956 -296 -1283 -568 -98 -81 -167 -155 -190
-203 -34 -71 19 -55 129 40 304 260 780 495 1139 563 115 22 584 31 758 15
415 -39 790 -174 1434 -516 918 -489 1338 -783 2237 -1568 300 -262 683 -586
861 -729 58 -47 339 -271 625 -499 792 -632 970 -785 1280 -1094 555 -556 894
-1058 1150 -1706 32 -79 71 -171 88 -204 28 -53 32 -57 35 -34 10 82 -236 656
-423 984 -350 616 -860 1128 -2385 2390 -441 365 -891 749 -1230 1051 -633
563 -1114 914 -1770 1291 -636 365 -1148 592 -1589 703 -243 61 -395 82 -626
85 -115 2 -223 1 -240 -1z" />
        <path d="M18335 36450 c28 -5 140 -8 250 -8 110 0 223 3 250 8 30 4 -71 7
-250 7 -179 0 -280 -3 -250 -7z" />
        <path d="M19130 36432 c0 -15 167 -89 345 -153 203 -73 362 -147 471 -218 l79
-52 -50 47 c-117 109 -283 204 -520 298 -150 59 -325 101 -325 78z" />
        <path d="M17902 36418 c3 -9 24 -13 61 -13 79 0 77 19 -2 23 -48 2 -62 0 -59
-10z" />
        <path d="M17665 36378 c-312 -76 -960 -388 -1250 -602 -242 -178 -636 -566
-914 -900 -252 -302 -492 -657 -491 -723 1 -25 56 39 133 152 204 303 666 846
807 950 33 24 50 45 58 73 28 94 364 358 752 592 186 112 474 244 775 355 161
59 255 99 255 110 0 8 -82 4 -125 -7z" />
        <path d="M18410 36341 c-115 -12 -39 -26 142 -26 148 0 192 5 177 19 -8 9
-254 14 -319 7z" />
        <path d="M17958 36303 c-27 -7 -21 -21 11 -28 33 -7 101 3 101 15 0 15 -73 23
-112 13z" />
        <path d="M18958 36303 c-27 -7 -21 -21 11 -28 33 -7 101 3 101 15 0 15 -73 23
-112 13z" />
        <path d="M17725 36261 c-7 -13 27 -31 57 -31 30 0 52 15 44 29 -9 13 -92 15
-101 2z" />
        <path d="M19146 36262 c-15 -24 99 -72 170 -72 24 0 44 5 44 11 0 30 -198 87
-214 61z" />
        <path d="M19421 36172 c-21 -38 -71 -47 -389 -67 -450 -28 -657 -77 -1045
-249 -193 -86 -476 -228 -627 -316 -749 -435 -1532 -1131 -2034 -1811 -56 -75
-151 -208 -213 -295 -297 -420 -766 -978 -1518 -1804 -671 -737 -893 -1025
-1113 -1445 -107 -204 -151 -308 -223 -525 -97 -295 -135 -499 -127 -684 6
-129 18 -175 30 -111 4 22 7 60 7 84 2 118 84 429 172 651 102 257 301 622
442 810 81 109 234 287 351 407 108 112 146 141 146 112 0 -15 -74 -127 -192
-291 -215 -296 -329 -478 -454 -728 -132 -264 -197 -430 -342 -870 -122 -370
-131 -423 -142 -790 -10 -311 -18 -902 -14 -897 2 2 8 84 14 182 33 573 75
1002 116 1200 66 318 200 679 404 1090 184 369 349 639 610 993 74 101 155
214 180 251 25 37 61 88 81 112 38 46 179 254 179 264 0 8 -182 -137 -285
-228 -49 -43 -188 -176 -307 -295 -120 -119 -218 -212 -218 -206 0 28 255 319
780 889 955 1040 1062 1164 1503 1750 577 767 655 858 992 1160 528 473 972
789 1460 1041 386 199 863 375 1125 413 118 18 585 25 747 12 153 -12 225 -30
349 -87 116 -53 154 -66 154 -51 0 24 -254 195 -430 290 -105 56 -154 68 -169
39z" />
        <path d="M21145 36051 c-121 -44 -338 -172 -303 -179 30 -6 280 106 346 155
58 44 40 54 -43 24z" />
        <path d="M21588 35819 c-59 -5 -162 -17 -228 -29 -67 -11 -125 -20 -128 -20
-4 0 1 -5 11 -11 12 -7 195 -14 510 -19 601 -11 619 -13 834 -96 129 -50 230
-77 238 -64 7 12 -137 82 -246 119 -309 107 -638 147 -991 120z" />
        <path d="M20566 35690 c-41 -45 -85 -95 -98 -113 l-23 -32 45 35 c66 51 180
164 180 178 0 28 -33 7 -104 -68z" />
        <path d="M19710 35580 c0 -14 76 -67 116 -80 52 -17 63 -8 29 25 -49 46 -145
82 -145 55z" />
        <path d="M22895 35550 c9 -15 104 -78 250 -165 72 -43 220 -138 330 -210 238
-157 230 -152 219 -133 -42 71 -454 358 -683 475 -81 41 -130 55 -116 33z" />
        <path d="M18900 35421 l-45 -6 34 -8 c44 -9 350 -8 376 2 44 17 -254 27 -365
12z" />
        <path d="M18535 35378 c-369 -90 -904 -374 -1271 -674 -93 -76 -374 -359 -383
-386 -2 -7 54 40 125 103 493 439 894 682 1427 865 120 42 227 88 227 99 0 8
-82 4 -125 -7z" />
        <path d="M21046 35211 c-18 -7 -18 -8 5 -14 33 -9 219 -7 243 2 18 7 18 8 -5
14 -33 9 -219 7 -243 -2z" />
        <path d="M21610 35116 c231 -78 326 -117 515 -215 438 -226 776 -491 1315
-1030 248 -249 403 -419 560 -616 135 -169 243 -290 248 -276 9 27 -264 389
-521 691 -162 190 -507 538 -680 686 -288 245 -496 384 -828 552 -307 156
-504 233 -658 258 -151 24 -140 14 49 -50z" />
        <path d="M23800 34966 c0 -17 103 -132 132 -147 36 -19 31 0 -13 57 -39 51
-96 104 -112 104 -4 0 -7 -6 -7 -14z" />
        <path d="M19243 34893 c-32 -6 -29 -18 7 -33 23 -10 37 -10 55 -2 31 14 32 28
3 36 -24 6 -29 6 -65 -1z" />
        <path d="M19060 34840 c0 -17 46 -33 74 -26 14 3 26 13 26 21 0 11 -13 15 -50
15 -27 0 -50 -5 -50 -10z" />
        <path d="M18780 34753 c-92 -32 -238 -101 -335 -158 -412 -241 -894 -642
-1168 -970 -55 -66 -109 -130 -120 -142 -11 -13 -16 -23 -11 -23 5 0 99 87
210 193 500 479 823 728 1225 942 255 137 348 210 199 158z" />
        <path d="M20825 34693 c32 -49 78 -106 158 -193 178 -193 353 -427 491 -657
43 -72 94 -148 113 -169 l34 -39 -6 30 c-42 195 -532 879 -734 1023 -57 41
-80 43 -56 5z" />
        <path d="M21705 34647 c273 -202 549 -440 795 -687 439 -438 750 -870 1084
-1508 102 -195 187 -343 226 -392 l20 -25 0 26 c0 59 -302 619 -546 1011 -393
631 -1031 1285 -1513 1552 -91 50 -113 58 -66 23z" />
        <path d="M19508 34462 c-31 -32 -81 -97 -110 -143 -148 -231 -343 -619 -311
-619 14 0 90 124 199 323 57 103 131 231 165 285 34 53 75 118 92 144 45 71
28 76 -35 10z" />
        <path d="M20835 34430 c-4 -6 -1 -18 7 -27 21 -26 110 -94 116 -89 10 11 -89
126 -109 126 -4 0 -11 -5 -14 -10z" />
        <path d="M20980 34250 c0 -35 107 -190 131 -190 29 0 -23 109 -81 168 -33 33
-50 40 -50 22z" />
        <path d="M19920 34170 c0 -57 24 -71 35 -20 8 37 -2 70 -21 70 -10 0 -14 -13
-14 -50z" />
        <path d="M18854 34125 c-479 -328 -1233 -1209 -1623 -1899 -56 -100 -101 -189
-101 -203 0 -19 59 53 124 152 40 60 131 197 201 304 377 572 858 1130 1305
1516 91 78 174 152 184 164 35 39 -6 24 -90 -34z" />
        <path d="M19887 34054 c-11 -11 -8 -104 3 -104 12 0 30 34 30 57 0 24 -23 57
-33 47z" />
        <path d="M21140 34002 c0 -44 79 -166 97 -149 11 11 -15 82 -47 125 -32 45
-50 53 -50 24z" />
        <path d="M14870 33920 c-23 -23 -35 -63 -25 -87 11 -29 55 29 55 73 0 39 -3
41 -30 14z" />
        <path d="M19836 33824 c-9 -34 2 -86 17 -81 18 6 28 52 18 80 -13 34 -27 34
-35 1z" />
        <path d="M21270 33801 c0 -24 92 -231 172 -388 84 -166 169 -305 175 -287 13
38 -264 603 -328 669 -13 13 -19 15 -19 6z" />
        <path d="M19806 33663 c-9 -10 -7 -141 3 -147 14 -9 21 20 21 84 0 55 -9 78
-24 63z" />
        <path d="M19042 33608 c-58 -121 -144 -413 -176 -598 -14 -84 -13 -108 4 -80
17 27 156 472 196 628 13 52 15 75 7 83 -7 7 -16 -1 -31 -33z" />
        <path d="M21674 33473 c11 -48 133 -286 165 -323 30 -34 30 -35 31 -10 0 29
-104 248 -150 315 -35 51 -55 59 -46 18z" />
        <path d="M19758 33363 c-3 -50 1 -114 8 -133 4 -13 6 -13 14 0 11 17 13 130 4
154 -11 28 -24 17 -26 -21z" />
        <path d="M21875 33051 c-15 -25 48 -151 76 -151 14 0 11 48 -7 85 -20 42 -60
80 -69 66z" />
        <path d="M19727 32987 c-10 -26 -9 -249 2 -265 18 -29 28 159 13 243 -6 30 -9
36 -15 22z" />
        <path d="M21673 32930 c5 -41 49 -110 69 -110 19 0 1 79 -27 115 -35 47 -49
45 -42 -5z" />
        <path d="M18802 32689 c4 -79 23 -81 23 -2 0 37 -4 58 -13 61 -10 3 -12 -11
-10 -59z" />
        <path d="M25510 32721 c0 -19 120 -242 197 -366 45 -71 172 -296 283 -500 457
-835 784 -1392 1155 -1965 682 -1055 968 -1581 1195 -2195 34 -93 83 -213 108
-265 45 -92 46 -94 50 -59 8 89 -197 606 -439 1109 -158 328 -421 771 -851
1436 -348 538 -639 1017 -833 1374 -349 643 -823 1440 -855 1440 -6 0 -10 -4
-10 -9z" />
        <path d="M27520 32626 c0 -7 34 -50 77 -97 159 -176 295 -381 470 -709 92
-171 287 -614 560 -1269 211 -508 265 -647 261 -684 -3 -32 -4 -31 -129 98
-216 223 -618 671 -803 894 -107 129 -392 509 -626 836 -300 418 -400 549
-400 521 0 -41 270 -443 617 -920 383 -526 510 -670 1176 -1344 650 -658 1302
-1193 1867 -1533 171 -102 353 -198 473 -248 139 -57 107 -17 -68 87 -55 33
-166 99 -247 146 -470 278 -1203 813 -1471 1075 -128 124 -261 400 -612 1271
-315 780 -457 1076 -683 1419 -66 99 -74 121 -43 121 55 0 561 -464 923 -846
320 -337 469 -537 681 -907 107 -187 177 -297 189 -297 20 0 -92 243 -173 377
-183 299 -490 704 -751 991 -189 207 -373 370 -723 642 -88 69 -183 143 -211
166 -76 61 -285 199 -322 212 -25 9 -32 8 -32 -2z" />
        <path d="M26720 32548 c0 -25 48 -113 74 -137 l26 -24 0 27 c0 33 -24 82 -58
119 -28 29 -42 34 -42 15z" />
        <path d="M18758 32433 c-2 -38 2 -97 8 -103 18 -17 32 77 18 114 -10 25 -24
19 -26 -11z" />
        <path d="M14783 32310 c-39 -52 -142 -207 -228 -345 -186 -296 -274 -410 -535
-691 -402 -431 -863 -1026 -1131 -1456 -116 -187 -190 -326 -257 -484 -138
-322 -287 -784 -253 -784 14 0 52 89 139 320 93 247 142 360 246 567 227 454
542 908 972 1401 162 185 275 300 281 285 2 -6 -77 -170 -176 -365 -190 -372
-314 -637 -376 -803 -48 -129 -114 -390 -210 -840 -228 -1067 -353 -1408 -900
-2460 -355 -683 -613 -1200 -688 -1376 -159 -377 -318 -926 -381 -1319 -89
-546 -102 -1454 -24 -1648 l11 -27 9 30 c5 17 6 151 2 316 -7 284 -2 378 17
348 15 -24 29 9 29 71 0 61 -12 92 -26 69 -16 -27 -24 47 -14 146 5 55 14 159
20 230 49 587 251 1308 556 1983 105 230 219 456 432 851 516 960 952 1820
952 1878 0 13 -9 9 -33 -15 -37 -36 -57 -41 -57 -13 0 10 24 117 54 237 57
228 158 659 247 1044 113 496 186 678 537 1340 265 501 742 1374 782 1430 30
42 81 151 77 163 -2 6 -35 -31 -74 -83z" />
        <path d="M18386 32365 c-10 -27 -7 -103 5 -110 17 -11 24 4 24 55 0 52 -17 85
-29 55z" />
        <path d="M18330 32103 c-13 -77 -71 -237 -125 -343 -15 -30 -87 -154 -160
-275 -208 -348 -305 -540 -430 -860 -184 -468 -339 -1086 -389 -1545 -36 -331
-53 -1147 -33 -1619 11 -265 -10 -245 -73 69 -71 351 -83 583 -77 1401 5 627
9 711 47 971 31 205 111 513 205 788 75 218 88 368 20 224 -74 -156 -425
-1171 -705 -2039 -181 -562 -324 -1029 -447 -1460 -132 -465 -201 -655 -238
-655 -22 0 -19 72 11 273 74 500 241 1336 375 1887 53 215 99 438 99 477 0 63
-37 -5 -83 -152 -35 -114 -122 -461 -221 -885 -126 -542 -141 -603 -191 -783
-85 -312 -220 -674 -372 -1007 -235 -510 -664 -1326 -896 -1705 -112 -181
-137 -227 -137 -249 0 -19 0 -19 21 0 67 59 334 480 602 950 48 83 100 169
117 192 29 41 55 53 62 31 2 -6 14 -5 33 5 45 24 88 20 118 -9 46 -46 59 -143
82 -595 53 -1057 165 -1782 414 -2685 321 -1167 744 -2183 1110 -2667 87 -116
104 -147 89 -165 -8 -10 -17 -8 -42 9 -47 34 -200 164 -401 341 l-180 158 198
-195 c285 -282 482 -449 700 -595 105 -70 135 -103 115 -128 -24 -30 221 -116
411 -143 144 -22 137 -14 -128 125 -200 104 -364 200 -466 273 -60 42 -76 61
-114 128 -24 44 -71 122 -106 174 -177 271 -428 784 -632 1290 -153 380 -437
1292 -505 1623 -20 95 -7 95 212 -11 95 -45 129 -67 138 -86 7 -15 44 -155 82
-312 233 -941 423 -1436 732 -1899 170 -256 345 -463 615 -724 189 -185 305
-312 337 -372 16 -28 30 -77 37 -124 6 -43 21 -114 34 -159 63 -218 100 -552
125 -1116 19 -424 8 -1384 -15 -1442 -22 -55 -121 23 -254 199 -128 170 -176
259 -226 423 -130 417 -452 1330 -637 1805 -124 318 -169 454 -158 476 15 27
27 25 137 -25 108 -48 202 -81 209 -73 12 12 -126 91 -466 267 -413 213 -521
289 -785 554 -320 321 -446 495 -714 985 -148 269 -216 372 -197 296 12 -48
113 -264 183 -390 282 -512 668 -972 1059 -1261 40 -30 153 -103 252 -164 145
-89 183 -117 196 -144 19 -40 325 -864 503 -1356 140 -386 333 -956 333 -982
0 -38 -37 -17 -87 50 -93 124 -347 495 -467 682 -201 312 -412 693 -612 1107
-108 223 -206 404 -230 424 -20 16 -18 9 17 -84 83 -216 533 -1090 745 -1447
140 -236 552 -791 768 -1035 174 -197 459 -494 560 -584 61 -54 165 -147 231
-206 258 -230 562 -461 660 -500 l40 -16 -31 28 c-17 15 -105 86 -195 158
-216 171 -501 409 -577 482 -99 95 -99 95 -112 1003 -14 1029 -26 1319 -65
1580 -57 381 -59 400 -48 411 16 16 28 8 308 -199 665 -494 1004 -717 1350
-890 358 -178 611 -237 1020 -236 257 1 421 20 630 74 563 145 1321 623 2285
1440 280 238 398 330 422 330 24 0 24 11 -11 -285 -57 -477 -91 -1051 -100
-1660 l-6 -500 -142 -300 c-210 -447 -287 -635 -398 -970 -122 -367 -192 -674
-240 -1050 -14 -110 -30 -234 -36 -275 -15 -117 -36 -790 -24 -778 3 3 17 81
30 174 48 341 114 634 238 1060 57 193 79 303 60 291 -9 -6 -48 -104 -139
-351 -51 -140 -104 -218 -88 -128 17 93 147 560 189 677 32 90 48 153 52 203
5 57 10 75 24 83 14 7 19 21 19 52 0 55 16 110 40 139 l19 23 1 -22 c0 -34 12
-28 47 25 41 63 63 117 63 155 l0 31 -33 -32 c-18 -18 -37 -32 -41 -32 -18 0
6 83 59 208 233 554 515 1050 1200 2112 476 739 762 1207 1013 1662 151 273
362 711 349 724 -11 11 -65 -78 -230 -381 -258 -474 -433 -766 -982 -1641
-440 -700 -482 -765 -503 -772 -32 -10 -2 105 104 399 76 212 200 482 644
1404 787 1634 956 2157 1075 3315 80 789 91 1273 35 1685 -11 83 -20 169 -20
193 0 94 32 62 434 -441 448 -561 559 -725 735 -1088 154 -319 237 -537 346
-909 20 -69 45 -143 55 -165 l18 -40 1 35 c2 98 -58 460 -100 603 -11 38 -23
100 -26 139 -6 68 -7 70 -20 44 -13 -25 -16 -26 -36 -13 -14 9 -53 83 -103
193 -97 216 -183 370 -341 609 -223 337 -431 600 -848 1074 -128 147 -328 365
-337 369 -14 6 -373 395 -420 454 -26 33 -65 72 -85 88 -75 55 -942 946 -1348
1385 -81 88 -218 246 -304 350 -158 192 -296 345 -313 345 -4 0 -2 -13 7 -29
31 -61 398 -514 657 -811 173 -200 237 -282 238 -307 0 -30 -12 -29 -122 11
-707 256 -1417 870 -1951 1686 -264 404 -383 672 -538 1207 -58 203 -107 343
-120 343 -24 0 0 -171 62 -437 203 -875 587 -1669 1114 -2302 40 -49 133 -151
205 -227 138 -145 167 -180 156 -191 -20 -20 -537 367 -818 614 -937 822
-1616 1892 -1878 2957 -22 88 -55 250 -75 358 -19 109 -40 210 -47 225 l-11
28 -10 -34 c-25 -80 30 -479 123 -901 147 -662 343 -1219 626 -1780 144 -287
294 -533 525 -865 74 -107 291 -379 330 -415 37 -33 179 -213 174 -219 -19
-18 -409 357 -606 584 -481 554 -893 1178 -1094 1655 -76 182 -182 461 -241
635 -89 258 -136 429 -233 835 l-20 85 5 -205 c11 -446 77 -882 215 -1435 140
-559 295 -1016 499 -1475 77 -173 103 -250 85 -250 -4 0 -23 14 -42 31 -19 16
-38 28 -41 25 -7 -8 93 -170 145 -234 24 -30 43 -60 43 -68 0 -61 -321 256
-605 597 -620 744 -1130 1680 -1314 2415 -33 132 -90 454 -117 659 -9 71 -20
139 -25 150 -11 29 -11 -450 1 -661 30 -524 112 -1076 224 -1509 128 -493 272
-883 521 -1410 107 -226 135 -295 121 -295 -9 0 -75 68 -120 123 -21 26 -41
46 -43 43 -2 -2 7 -28 21 -57 13 -30 31 -81 40 -114 9 -35 24 -67 37 -77 29
-25 69 -23 76 2 3 11 10 20 15 20 16 0 49 -89 51 -136 2 -42 4 -44 25 -39 26
6 44 -10 124 -111 64 -80 154 -175 136 -144 -8 14 -40 68 -70 120 -308 526
-537 1034 -728 1610 -116 347 -192 668 -275 1155 -43 252 -50 311 -37 319 17
10 29 -14 95 -194 85 -229 118 -305 232 -528 204 -403 517 -879 790 -1202 329
-389 997 -1073 1142 -1170 95 -62 111 -27 28 58 -33 33 -59 71 -65 92 -6 19
-34 63 -64 98 -61 72 -68 85 -132 242 -25 63 -73 174 -107 245 -186 403 -261
585 -368 902 -115 340 -217 715 -283 1035 -48 231 -28 238 60 22 120 -297 236
-527 417 -829 199 -333 445 -676 663 -925 66 -75 132 -153 147 -173 38 -50 70
-125 64 -148 -4 -15 0 -19 18 -19 58 0 239 -158 228 -199 -3 -11 -43 -62 -89
-112 -176 -191 -287 -367 -389 -619 -26 -63 -54 -123 -63 -132 -25 -29 -66
-21 -203 37 -140 59 -287 107 -387 126 -108 20 -369 6 -542 -30 -165 -34 -219
-52 -365 -117 -71 -31 -112 -44 -127 -40 -17 5 -38 37 -85 134 -64 131 -214
369 -325 515 -35 45 -116 142 -180 216 -109 124 -137 169 -105 172 6 1 27 0
45 -1 40 -2 47 14 32 68 -11 42 -54 102 -72 102 -6 0 -16 -7 -23 -17 -17 -23
-43 -10 -50 24 -17 80 -29 106 -76 157 -28 31 -57 56 -65 56 -8 0 -14 -1 -14
-2 0 -2 7 -25 15 -52 8 -27 15 -55 15 -63 0 -30 -44 -9 -132 65 -51 43 -99 81
-105 85 -7 5 10 -29 37 -75 54 -89 61 -118 31 -118 -29 0 -188 69 -242 105
-43 29 -55 33 -121 33 -47 0 -115 10 -193 30 -66 16 -151 33 -189 37 -51 5
-92 18 -159 51 -114 55 -132 57 -124 10 11 -71 -47 -69 -81 2 l-17 37 -80 0
c-87 0 -105 6 -105 35 0 10 6 21 13 24 18 7 -17 32 -80 56 -36 13 -78 20 -127
20 -72 0 -74 -1 -100 -35 -24 -31 -32 -35 -71 -35 -62 0 -100 34 -99 88 1 41
37 102 61 102 19 0 16 11 -13 53 -14 21 -30 65 -37 98 -32 172 78 902 222
1474 85 336 166 578 298 890 141 330 385 789 436 817 44 24 49 -2 67 -357 49
-966 210 -1641 560 -2350 243 -493 651 -1091 921 -1350 127 -122 95 -44 -70
175 -230 303 -275 365 -384 530 -394 597 -658 1230 -812 1945 -80 373 -85 447
-95 1345 -5 421 -9 766 -9 768 -1 1 -5 2 -10 2 -4 0 -14 -35 -21 -77z m-1399
-2775 c-13 -173 -14 -578 -2 -864 13 -300 -3 -395 -73 -453 -8 -7 -14 -17 -11
-21 2 -4 -21 -17 -53 -28 -90 -34 -179 -91 -257 -167 -75 -72 -115 -127 -115
-157 0 -31 54 -21 168 31 136 62 281 112 332 114 73 3 119 -74 74 -124 -9 -11
-85 -54 -168 -95 -243 -123 -338 -184 -546 -353 -146 -120 -147 -121 67 559
304 970 543 1699 571 1740 l17 25 3 -29 c2 -16 -1 -96 -7 -178z m4396 57 c346
-626 470 -793 991 -1343 90 -96 142 -159 142 -172 0 -12 -18 -48 -41 -81 -108
-160 -72 -194 70 -68 74 66 89 65 167 -18 35 -38 64 -76 64 -85 0 -18 -50 -58
-194 -154 -118 -78 -149 -80 -212 -9 -55 62 -104 143 -104 173 0 30 21 70 88
167 31 44 47 73 37 65 -11 -8 -50 -41 -88 -72 -82 -68 -116 -82 -145 -62 -70
48 -439 727 -638 1170 -110 246 -234 569 -234 610 0 33 38 -15 97 -121z m1479
-958 c64 -70 197 -243 218 -285 30 -57 0 -95 -53 -67 -36 18 -86 93 -160 242
-90 179 -91 205 -5 110z m291 -457 c4 -15 14 -20 39 -20 27 0 37 -5 43 -22 5
-13 7 -26 4 -30 -10 -19 19 -47 56 -53 22 -4 46 -13 53 -22 18 -23 -23 -53
-73 -53 -40 0 -44 5 -168 171 -11 15 -11 22 -1 34 18 21 41 19 47 -5z m-6152
-39 c-10 -16 -25 -3 -25 22 0 20 1 20 16 5 9 -9 13 -21 9 -27z m481 -56 c108
-19 221 -52 230 -67 17 -28 -68 -49 -263 -64 -65 -5 -92 -3 -127 10 -73 28
-70 82 7 117 51 23 44 22 153 4z m5990 -177 c11 -18 -26 -38 -72 -38 -51 0
-63 13 -32 34 26 19 94 21 104 4z m-5187 -32 c374 -48 651 -142 900 -306 418
-275 674 -624 825 -1124 249 -819 -68 -1782 -764 -2323 -241 -187 -557 -340
-845 -408 -320 -76 -664 -74 -972 5 -534 138 -1030 502 -1298 952 -168 282
-330 833 -354 1201 -12 184 -12 183 -137 189 -92 4 -98 6 -121 33 -23 26 -25
35 -21 103 3 68 6 76 35 102 24 21 48 30 104 39 187 29 204 45 284 271 73 208
196 437 329 613 135 179 226 255 480 397 208 116 326 158 326 116 0 -22 -53
-58 -180 -121 -187 -92 -298 -173 -451 -325 -188 -187 -302 -362 -402 -616
-134 -340 -177 -797 -111 -1179 135 -786 671 -1418 1405 -1659 387 -127 736
-137 1105 -31 459 132 834 375 1106 715 351 440 522 955 487 1476 -47 709
-496 1360 -1127 1634 -347 150 -709 203 -1232 179 -280 -13 -335 -9 -335 22 0
19 86 46 182 58 115 14 634 5 782 -13z m4625 -132 c9 -3 16 -17 16 -30 0 -25
-36 -53 -145 -113 -33 -19 -92 -56 -131 -82 -82 -57 -134 -67 -134 -25 0 50
78 114 254 207 91 48 110 54 140 43z m-568 -419 c11 -29 -6 -61 -87 -160 -312
-381 -459 -793 -459 -1290 0 -337 67 -640 206 -934 258 -544 868 -1021 1459
-1140 447 -91 944 -21 1369 191 458 229 747 553 959 1074 118 289 178 541 195
827 8 129 19 164 45 138 16 -16 15 -312 -2 -436 -34 -249 -98 -456 -212 -685
-119 -238 -239 -408 -424 -599 -368 -380 -814 -590 -1340 -631 -389 -30 -845
67 -1192 256 -627 340 -1003 895 -1124 1659 -20 125 -17 447 5 585 33 204 133
525 213 685 86 173 242 393 316 446 45 32 65 36 73 14z m-6474 -386 c27 -121
-68 -408 -163 -494 -55 -49 -99 -44 -99 13 0 42 162 418 216 500 20 30 37 24
46 -19z m5212 -289 c375 -78 584 -173 626 -284 12 -33 -1 -56 -31 -56 -11 0
-60 21 -110 46 -127 63 -243 109 -327 128 -57 13 -130 16 -369 16 -390 0 -394
-1 -611 -138 -110 -70 -134 -73 -140 -21 -9 79 154 186 405 268 74 24 169 44
303 64 63 10 119 5 254 -23z m35 -211 c144 -28 250 -63 355 -117 116 -59 176
-115 176 -163 0 -48 -26 -130 -61 -195 -32 -61 -36 -76 -14 -68 22 9 52 -50
64 -125 6 -36 20 -133 31 -216 11 -82 32 -201 46 -263 61 -274 -28 -54 -132
325 -21 79 -43 143 -48 143 -9 0 -2 -135 15 -263 24 -184 109 -384 219 -515
70 -82 146 -197 208 -309 126 -232 408 -519 682 -695 424 -273 927 -406 1393
-370 599 48 1105 311 1521 792 159 183 240 307 323 493 127 285 195 523 218
768 9 89 20 180 25 203 9 39 31 66 55 66 6 0 53 -43 104 -95 82 -83 92 -97 87
-122 -70 -358 -222 -988 -366 -1518 -94 -345 -246 -958 -360 -1445 -313 -1340
-511 -1828 -958 -2365 -315 -378 -1148 -1076 -1858 -1558 -559 -380 -950 -558
-1365 -624 -166 -26 -765 -26 -887 0 -258 56 -628 245 -1106 567 -608 409
-1156 860 -1666 1370 -290 289 -391 405 -525 605 -276 413 -427 854 -795 2325
-97 386 -151 583 -270 985 -95 321 -127 441 -118 450 13 13 42 -13 116 -108
85 -109 249 -274 347 -348 423 -324 939 -476 1515 -448 240 12 388 41 589 116
299 111 498 245 795 533 214 208 304 322 472 595 26 44 79 120 116 169 116
153 198 336 233 517 16 87 21 274 6 283 -4 3 -18 -45 -30 -107 -26 -133 -84
-341 -118 -416 -36 -82 -46 -54 -22 59 36 169 58 310 65 414 6 102 21 146 49
146 14 0 14 3 0 29 -8 17 -29 51 -46 76 -46 68 -48 109 -9 167 65 97 236 213
374 253 134 39 364 41 555 4z m5414 -937 c51 -95 72 -262 83 -687 10 -370 -19
-954 -57 -1138 -16 -76 -90 -223 -154 -305 -124 -159 -295 -252 -462 -252 -30
0 -45 5 -49 15 -4 8 80 358 185 777 198 792 291 1183 343 1448 30 154 48 205
71 197 7 -2 25 -27 40 -55z m-10759 -175 c54 -291 135 -602 326 -1242 210
-703 281 -986 260 -1025 -6 -11 -20 -20 -31 -20 -56 0 -249 132 -299 205 -36
52 -66 153 -124 418 -55 249 -81 400 -73 421 14 35 49 15 159 -91 122 -118
127 -118 29 2 -84 104 -176 247 -200 310 -29 78 -57 293 -85 650 -21 265 -30
507 -21 541 l8 29 13 -31 c7 -18 24 -93 38 -167z m10763 -2074 c7 -18 -12
-145 -67 -448 -157 -862 -317 -1302 -950 -2605 -343 -707 -507 -1091 -681
-1598 -189 -552 -340 -892 -395 -892 -26 0 -34 49 -34 213 0 570 117 1736 204
2037 30 104 98 220 235 403 267 355 402 594 556 982 129 326 217 631 350 1208
61 264 88 364 102 379 14 13 47 23 115 32 224 32 390 121 489 264 31 44 65 55
76 25z" />
        <path d="M22556 27634 c-20 -20 -21 -53 -1 -60 18 -7 63 20 72 43 12 31 -44
44 -71 17z" />
        <path d="M22408 27591 c-46 -29 -86 -76 -75 -88 3 -3 22 -3 40 1 38 7 127 79
127 102 0 23 -43 16 -92 -15z" />
        <path d="M22010 23379 c-6 -11 -15 -52 -20 -92 -10 -85 -31 -137 -98 -234 -72
-104 -71 -106 7 -23 103 110 172 256 156 329 -8 37 -31 47 -45 20z" />
        <path d="M19795 23290 c-24 -38 38 -202 96 -257 29 -26 109 -61 109 -47 0 3
-24 39 -54 82 -29 42 -72 112 -96 155 -23 42 -43 77 -45 77 -2 0 -7 -5 -10
-10z" />
        <path d="M20215 23212 c-70 -45 -88 -90 -50 -128 26 -26 28 -26 128 -20 93 6
108 4 172 -19 112 -41 145 -49 156 -38 18 18 -17 69 -74 112 -130 97 -266 135
-332 93z" />
        <path d="M21402 23210 c-93 -33 -150 -78 -171 -132 -22 -59 24 -78 82 -34 45
33 66 36 170 24 78 -9 98 -8 130 5 31 13 37 21 37 45 0 60 -71 112 -152 112
-23 -1 -67 -9 -96 -20z" />
        <path d="M21087 21905 c-104 -36 -184 -95 -129 -95 50 0 250 82 267 110 11 18
-67 10 -138 -15z" />
        <path d="M21500 21871 c0 -15 82 -71 122 -83 73 -22 58 14 -27 63 -49 28 -95
38 -95 20z" />
        <path d="M20254 21844 c-17 -8 -75 -58 -130 -110 l-99 -95 90 59 c142 94 198
143 177 156 -4 2 -21 -2 -38 -10z" />
        <path d="M21712 21758 c8 -23 354 -312 478 -398 30 -21 32 -22 20 -4 -46 64
-398 360 -481 404 -17 10 -20 9 -17 -2z" />
        <path d="M19886 21549 c-56 -58 -113 -121 -126 -140 -24 -33 -23 -33 30 11 92
76 199 181 206 202 14 45 -12 27 -110 -73z" />
        <path d="M21215 21249 c-76 -17 -479 -23 -598 -10 -179 21 -229 9 -802 -191
l-210 -73 -215 0 c-259 -1 -250 0 -250 -25 0 -51 130 -77 305 -60 140 13 198
23 365 66 179 46 295 52 540 28 275 -26 986 -26 1307 0 268 23 360 17 573 -34
264 -63 439 -67 563 -13 20 9 37 22 37 29 0 25 -70 36 -293 45 -320 12 -442
36 -757 149 -195 70 -328 100 -433 99 -51 -1 -110 -5 -132 -10z m-530 -72
c130 -44 250 -44 430 2 163 41 274 41 395 -2 86 -31 108 -51 84 -78 -8 -9 -25
-19 -37 -22 -287 -66 -484 -97 -610 -97 -132 0 -441 50 -596 96 -44 13 -52 18
-49 37 4 26 58 59 143 87 73 24 115 20 240 -23z" />
        <path d="M19795 20345 c216 -203 550 -334 935 -365 373 -31 881 56 1148 195
84 44 203 137 191 149 -3 3 -55 -15 -115 -40 -170 -72 -259 -103 -384 -134
-475 -120 -1012 -95 -1450 67 -86 32 -262 115 -350 165 -28 16 -24 9 25 -37z" />
        <path d="M15677 31788 c-25 -35 -104 -162 -178 -283 -73 -121 -229 -373 -347
-560 -640 -1013 -816 -1329 -1019 -1825 -184 -448 -354 -1025 -423 -1433 -12
-70 -20 -144 -18 -165 3 -37 3 -36 25 28 12 36 54 189 92 341 214 844 449
1429 864 2154 75 131 398 655 702 1140 223 355 365 609 365 652 0 27 -20 11
-63 -49z" />
        <path d="M23126 31171 c-15 -23 44 -141 70 -141 24 0 16 53 -16 103 -29 46
-43 56 -54 38z" />
        <path d="M25503 31084 c3 -11 8 -28 11 -39 2 -11 44 -148 91 -305 285 -939
609 -1904 861 -2567 242 -635 644 -1516 678 -1483 7 8 -77 214 -173 425 -296
645 -503 1204 -1022 2750 -333 996 -415 1226 -438 1233 -9 3 -11 -2 -8 -14z" />
        <path d="M23236 30880 c85 -367 767 -1763 1191 -2441 561 -899 1455 -1954
2087 -2464 281 -227 192 -113 -318 404 -257 262 -343 355 -358 390 -27 62 -54
89 -113 116 -106 47 -388 371 -791 905 -333 442 -691 1038 -1034 1720 -159
318 -184 372 -382 820 -145 330 -277 610 -289 610 -4 0 -1 -27 7 -60z" />
        <path d="M22052 30439 c4 -79 23 -81 23 -2 0 37 -4 58 -13 61 -10 3 -12 -11
-10 -59z" />
        <path d="M14781 29531 c-52 -81 -157 -288 -205 -403 -39 -93 -40 -98 -28 -98
30 0 292 517 279 553 -2 7 -23 -17 -46 -52z" />
        <path d="M26700 29446 c-1 -19 277 -386 553 -730 231 -287 364 -477 702 -1000
66 -102 123 -186 127 -186 20 0 -174 374 -282 546 -145 231 -404 571 -744 979
-181 217 -355 408 -356 391z" />
        <path d="M29061 29019 c13 -12 67 -53 119 -92 52 -39 127 -95 166 -124 118
-88 222 -204 283 -318 257 -473 517 -875 939 -1447 482 -654 692 -979 882
-1363 135 -275 281 -651 280 -724 -1 -26 -27 13 -63 94 -178 398 -369 725
-614 1050 -248 329 -822 987 -895 1026 -17 9 -16 5 5 -38 37 -73 174 -500 277
-863 298 -1053 392 -1353 650 -2085 248 -702 343 -1026 434 -1490 64 -327 116
-795 89 -795 -16 0 -30 42 -69 210 -70 301 -160 618 -237 831 -51 140 -109
278 -272 649 -297 677 -466 980 -381 686 32 -109 85 -427 131 -786 105 -819
166 -1185 266 -1625 211 -917 305 -1583 329 -2329 8 -270 3 -546 -21 -984 -9
-161 -9 -226 -1 -234 25 -25 56 169 84 532 20 263 17 966 -5 1175 -50 468
-134 973 -322 1937 -118 603 -190 1041 -240 1459 -36 304 -42 389 -26 389 57
0 325 -663 499 -1235 108 -351 155 -531 208 -790 33 -162 52 -225 67 -222 9 1
13 -117 17 -525 3 -289 8 -529 12 -533 8 -8 22 63 42 210 59 425 70 887 31
1250 -65 614 -209 1173 -660 2574 -290 901 -685 2187 -685 2231 0 12 7 20 18
20 33 0 292 -283 518 -566 392 -491 565 -787 779 -1336 46 -119 73 -167 85
-148 6 9 11 1 18 -26 11 -43 52 -445 77 -754 9 -107 20 -242 25 -300 6 -70 7
52 4 370 -7 650 -18 763 -106 1039 -185 582 -545 1216 -1221 2151 -322 445
-652 965 -784 1235 -38 79 -42 91 -28 104 17 17 37 10 300 -112 308 -141 725
-290 798 -285 l42 3 -28 19 c-15 10 -111 47 -214 83 -410 140 -663 265 -1223
600 -343 205 -442 258 -379 202z" />
        <path d="M14481 28892 c-170 -335 -563 -1504 -655 -1951 -29 -144 -38 -211
-27 -211 17 0 62 142 206 660 93 330 265 855 365 1110 150 383 205 576 111
392z" />
        <path d="M19210 28735 c0 -50 56 -135 80 -120 26 16 -37 145 -71 145 -5 0 -9
-11 -9 -25z" />
        <path d="M26106 28558 c23 -100 94 -227 94 -168 0 33 -48 169 -71 202 -32 44
-38 33 -23 -34z" />
        <path d="M19298 28544 c-23 -22 120 -304 154 -304 26 0 -36 153 -101 249 -44
64 -44 64 -53 55z" />
        <path d="M12337 28432 c-22 -57 -37 -139 -40 -224 -2 -71 5 -100 19 -85 17 17
46 152 51 238 6 106 -5 133 -30 71z" />
        <path d="M26210 28296 c0 -117 374 -903 643 -1350 291 -486 627 -925 1083
-1416 337 -363 871 -839 1157 -1031 85 -56 117 -70 117 -49 0 12 -185 167
-360 300 -166 128 -300 242 -338 289 -45 55 -61 94 -109 251 -25 80 -47 147
-50 150 -3 3 -3 -51 -1 -120 2 -106 1 -125 -13 -128 -25 -5 -331 306 -495 503
-251 303 -464 594 -501 688 -11 26 -27 43 -52 55 -41 19 -59 59 -21 47 33 -11
21 16 -19 40 -64 39 -118 95 -146 152 -15 32 -47 83 -71 113 -133 171 -463
769 -614 1108 -92 210 -185 397 -200 407 -5 3 -10 -1 -10 -9z" />
        <path d="M17435 28211 c-45 -12 -77 -31 -72 -44 2 -7 37 -18 78 -26 41 -7 87
-18 102 -24 l29 -10 -29 -12 c-28 -11 -28 -12 -6 -23 12 -7 32 -12 45 -12 59
0 91 26 47 37 -16 4 -17 8 -7 14 19 12 163 11 312 -3 128 -12 128 -12 155 -45
23 -29 32 -33 72 -33 51 0 102 -23 232 -104 42 -27 79 -47 82 -44 3 2 -6 19
-19 37 -25 33 -25 61 -1 61 7 0 50 -25 95 -55 45 -30 89 -55 97 -55 7 0 18 11
25 24 17 38 36 39 99 6 64 -33 99 -38 99 -15 0 28 39 15 71 -25 24 -30 36 -37
48 -30 22 11 51 -6 51 -30 0 -24 22 -26 40 -5 7 8 28 17 47 21 28 5 42 1 83
-27 47 -32 90 -90 90 -122 0 -9 14 -17 38 -20 28 -5 51 -20 92 -62 30 -30 58
-55 62 -55 4 0 8 13 8 29 0 43 -80 144 -165 208 -172 131 -333 186 -880 302
-154 33 -302 63 -330 66 -27 4 -93 15 -145 25 -224 44 -481 68 -545 51z" />
        <path d="M15046 28068 c-8 -13 -18 -36 -22 -53 -10 -42 -162 -435 -352 -911
-751 -1877 -846 -2257 -866 -3469 l-5 -300 24 325 c41 553 68 772 145 1160
119 602 290 1134 622 1928 364 874 521 1311 479 1336 -5 4 -17 -4 -25 -16z" />
        <path d="M31015 28081 c31 -32 268 -95 472 -126 116 -17 263 -20 263 -5 0 20
-177 60 -402 90 -84 11 -180 25 -213 30 -128 22 -130 22 -120 11z" />
        <path d="M17797 28053 c-27 -26 19 -97 50 -77 25 16 26 28 3 57 -21 26 -40 34
-53 20z" />
        <path d="M12267 27980 c-10 -35 -8 -242 2 -258 18 -30 28 180 12 253 l-7 30
-7 -25z" />
        <path d="M19600 27920 c0 -52 115 -247 135 -228 17 17 -68 191 -114 232 -21
19 -21 19 -21 -4z" />
        <path d="M20975 27743 c11 -45 35 -90 63 -120 26 -27 27 -27 30 -7 4 29 -19
81 -52 122 -34 40 -51 42 -41 5z" />
        <path d="M25180 27672 c0 -33 201 -344 360 -557 96 -128 150 -188 150 -168 0
30 -204 341 -365 558 -110 147 -145 188 -145 167z" />
        <path d="M28180 27327 c0 -22 128 -369 190 -518 127 -302 170 -334 77 -56 -84
248 -214 545 -251 576 -13 11 -16 11 -16 -2z" />
        <path d="M13636 27274 c-9 -24 -7 -117 3 -133 7 -11 12 -3 21 28 17 65 -4 158
-24 105z" />
        <path d="M28507 27254 c-10 -11 -8 -67 3 -84 9 -13 11 -13 20 0 21 32 0 107
-23 84z" />
        <path d="M28549 27079 c-12 -22 -4 -89 10 -89 17 0 31 59 21 85 -12 30 -16 31
-31 4z" />
        <path d="M13596 26953 c-9 -10 -7 -141 3 -147 14 -9 21 20 21 84 0 55 -9 78
-24 63z" />
        <path d="M13027 26641 c-493 -517 -1238 -1855 -1547 -2780 -83 -248 -165 -591
-142 -591 17 0 82 179 167 459 50 164 145 428 215 601 97 239 442 932 578
1162 83 140 95 102 32 -97 -178 -561 -275 -1202 -287 -1895 -6 -381 1 -498 53
-885 62 -465 66 -485 154 -705 43 -107 115 -294 160 -415 94 -253 137 -340
167 -340 30 0 60 -31 100 -102 35 -64 61 -92 51 -57 -173 607 -223 943 -223
1489 1 352 11 480 61 780 43 259 166 714 208 770 27 35 33 3 40 -194 27 -756
60 -1275 116 -1781 39 -358 45 -465 45 -855 0 -592 -41 -961 -161 -1443 -88
-356 -218 -686 -466 -1182 -330 -661 -568 -1004 -1058 -1522 -75 -79 -146
-159 -160 -177 l-24 -34 30 7 c50 12 147 63 198 106 26 22 55 40 62 40 25 0
126 56 209 115 374 267 989 845 1208 1135 75 100 90 114 140 135 43 18 70 63
92 157 17 73 19 108 5 108 -19 0 -85 -79 -206 -245 -166 -228 -299 -382 -533
-615 -262 -261 -562 -518 -707 -605 -106 -64 -101 -42 28 110 416 493 794
1136 1075 1830 133 329 249 715 292 975 98 590 96 1531 -5 2345 -74 600 -125
1624 -93 1875 6 55 35 161 80 299 39 117 69 220 67 230 -8 35 -202 -342 -283
-549 -140 -356 -259 -828 -314 -1247 -63 -477 -54 -813 38 -1373 41 -246 43
-267 33 -274 -22 -14 -78 124 -157 384 -189 627 -242 1065 -216 1777 32 879
151 1540 381 2118 109 272 187 419 400 745 184 283 182 281 177 286 -2 2 -38
-31 -80 -75z" />
        <path d="M13763 26615 c-9 -23 -9 -102 0 -111 14 -15 27 11 27 54 0 57 -15 87
-27 57z" />
        <path d="M28092 26316 c6 -66 43 -153 63 -145 18 7 6 100 -19 155 -34 75 -50
71 -44 -10z" />
        <path d="M13716 26344 c-8 -29 2 -94 14 -94 11 0 20 27 20 60 0 58 -23 80 -34
34z" />
        <path d="M13676 26098 c-9 -34 -7 -101 4 -118 7 -11 11 -9 19 13 17 44 11 127
-9 127 -4 0 -10 -10 -14 -22z" />
        <path d="M25920 26087 c0 -18 18 -38 66 -75 71 -54 75 -37 8 37 -45 50 -74 65
-74 38z" />
        <path d="M28180 26043 c1 -70 72 -323 91 -323 24 0 -12 196 -57 309 -19 47
-34 53 -34 14z" />
        <path d="M26278 25765 c86 -98 499 -440 737 -611 171 -122 692 -424 1027 -594
335 -170 458 -244 458 -275 0 -19 2 -19 45 6 48 29 81 23 286 -44 180 -60 234
-73 223 -56 -10 16 -109 61 -404 182 -328 135 -434 183 -720 328 -546 275
-1077 614 -1434 914 -236 199 -299 241 -218 150z" />
        <path d="M26876 25721 c-3 -5 3 -19 13 -32 23 -30 111 -94 111 -81 0 15 -69
101 -90 112 -23 12 -27 12 -34 1z" />
        <path d="M28295 25619 c-8 -25 2 -89 14 -89 17 0 31 59 21 85 -12 30 -26 32
-35 4z" />
        <path d="M27040 25595 c0 -26 112 -126 126 -112 10 10 -82 112 -104 115 -12 2
-22 1 -22 -3z" />
        <path d="M27170 24920 c0 -18 103 -110 123 -110 13 0 -56 91 -85 111 -33 24
-38 24 -38 -1z" />
        <path d="M14967 24814 c-37 -71 -142 -457 -191 -709 -87 -444 -122 -794 -96
-960 4 -27 8 -48 9 -45 1 3 10 70 21 150 48 360 142 900 211 1220 74 344 84
414 46 344z" />
        <path d="M27310 24762 c0 -39 143 -242 170 -242 20 0 9 30 -39 102 -52 76
-131 161 -131 140z" />
        <path d="M27556 24410 c31 -115 260 -528 272 -491 13 39 -175 405 -249 484
-29 31 -30 31 -23 7z" />
        <path d="M29756 24375 c-9 -25 -7 -68 4 -85 16 -23 31 7 28 54 -3 41 -21 59
-32 31z" />
        <path d="M29157 24183 c-10 -3 -16 -10 -14 -16 5 -17 56 -27 85 -16 26 10 26
11 8 25 -20 14 -44 16 -79 7z" />
        <path d="M29338 24143 c-34 -5 -36 -20 -4 -34 30 -14 76 -4 76 16 0 8 -4 15
-9 15 -5 0 -15 2 -23 3 -7 2 -25 2 -40 0z" />
        <path d="M28564 24055 c21 -332 28 -547 34 -1092 5 -437 11 -626 19 -634 16
-16 30 60 44 233 27 329 -18 1337 -67 1496 -26 86 -36 85 -30 -3z" />
        <path d="M14636 24075 c-9 -25 -7 -98 4 -115 13 -22 33 36 26 79 -6 42 -21 59
-30 36z" />
        <path d="M29735 24050 c-3 -6 4 -14 17 -19 27 -11 80 -65 98 -101 13 -23 14
-24 21 -5 13 34 10 89 -7 113 -12 18 -25 22 -69 22 -30 0 -57 -5 -60 -10z" />
        <path d="M27843 23806 c8 -47 83 -216 112 -252 l24 -29 0 30 c1 17 -14 66 -32
110 -59 145 -118 225 -104 141z" />
        <path d="M29880 23710 c0 -54 14 -65 31 -26 14 30 4 76 -16 76 -11 0 -15 -13
-15 -50z" />
        <path d="M14595 23576 c-8 -111 2 -296 16 -275 5 8 9 88 9 179 0 190 -14 244
-25 96z" />
        <path d="M29925 23471 c-7 -34 3 -101 16 -101 12 0 22 64 14 99 -8 39 -21 40
-30 2z" />
        <path d="M29974 23265 c-11 -24 -11 -152 0 -162 22 -23 36 114 16 162 l-8 20
-8 -20z" />
        <path d="M13846 23194 c-9 -24 -7 -132 3 -138 14 -9 21 20 21 84 0 58 -12 85
-24 54z" />
        <path d="M14603 23034 c-12 -28 -7 -370 6 -509 19 -192 59 -509 68 -531 15
-39 18 50 11 316 -12 468 -33 699 -67 733 -7 7 -13 5 -18 -9z" />
        <path d="M30017 22933 c-9 -9 -8 -163 2 -187 7 -18 8 -18 14 5 4 13 7 56 7 94
0 68 -9 102 -23 88z" />
        <path d="M29267 22631 c-9 -43 -9 -198 0 -230 12 -46 22 7 22 119 0 116 -11
168 -22 111z" />
        <path d="M30057 22438 c-9 -68 -9 -139 0 -208 10 -87 22 -32 22 110 1 135 -12
188 -22 98z" />
        <path d="M15672 22189 c11 -100 251 -640 274 -616 22 21 -216 610 -262 648
-16 13 -17 10 -12 -32z" />
        <path d="M30560 22203 c0 -4 -5 -37 -10 -73 -5 -36 -14 -162 -20 -280 -38
-776 -143 -1361 -415 -2315 -148 -519 -235 -889 -235 -997 0 -98 41 16 121
336 113 454 307 1135 331 1163 29 35 34 17 53 -182 50 -524 182 -1111 392
-1750 154 -470 311 -856 538 -1325 203 -420 321 -697 435 -1020 95 -269 119
-374 130 -569 12 -212 12 -747 0 -1006 -10 -223 -21 -277 -89 -439 -23 -54
-50 -133 -60 -175 -23 -88 -46 -239 -38 -247 8 -8 75 108 108 188 74 180 136
472 160 752 16 200 7 833 -15 991 -66 472 -174 797 -468 1410 -309 644 -471
1050 -647 1621 -172 560 -268 985 -317 1409 -13 111 -18 227 -18 445 0 278 2
317 42 680 75 684 89 790 110 790 43 -1 127 -204 293 -700 220 -661 292 -978
334 -1465 15 -180 45 -649 45 -707 0 -17 2 -29 5 -27 8 9 -14 808 -25 929 -50
517 -162 946 -418 1600 -139 356 -269 760 -297 922 -5 32 -25 64 -25 41z" />
        <path d="M29307 22088 c-9 -68 -9 -139 0 -219 10 -100 22 -43 22 111 1 143
-11 201 -22 108z" />
        <path d="M28557 22124 c-4 -4 -7 -34 -7 -66 0 -78 24 -76 28 2 3 50 -6 78 -21
64z" />
        <path d="M28517 21914 c-4 -4 -7 -34 -7 -66 0 -73 23 -77 28 -5 3 47 -8 84
-21 71z" />
        <path d="M11978 21834 c-11 -10 -10 -244 1 -244 4 0 11 21 15 46 11 86 1 216
-16 198z" />
        <path d="M27596 21825 c-9 -25 -7 -98 4 -115 13 -21 25 12 24 68 -1 47 -17 74
-28 47z" />
        <path d="M12136 21805 c-9 -25 -7 -138 4 -155 14 -23 25 15 24 88 -1 64 -15
99 -28 67z" />
        <path d="M14715 21751 c-7 -42 2 -111 15 -111 11 0 20 38 20 82 0 72 -24 93
-35 29z" />
        <path d="M28467 21714 c-10 -10 -8 -76 2 -93 7 -11 11 -9 21 8 21 39 2 109
-23 85z" />
        <path d="M13636 21674 c-16 -41 -1 -187 16 -158 12 21 19 89 12 129 -6 46 -17
57 -28 29z" />
        <path d="M15124 21626 c-8 -22 40 -122 65 -135 19 -11 21 -9 21 15 0 62 -71
160 -86 120z" />
        <path d="M27567 21623 c-19 -19 -42 -90 -99 -318 -127 -508 -315 -998 -618
-1610 -220 -445 -433 -817 -735 -1285 -489 -759 -658 -1068 -852 -1565 -57
-147 -76 -185 -95 -185 -18 0 -1 91 57 289 150 520 397 1057 832 1808 36 62
63 118 61 125 -5 15 -76 -70 -251 -305 -174 -233 -395 -501 -613 -742 -304
-337 -503 -587 -741 -935 -151 -222 -200 -301 -358 -585 -202 -363 -394 -763
-382 -798 8 -26 97 127 314 538 117 221 188 341 207 348 43 17 63 -55 136
-473 61 -347 129 -587 270 -941 44 -110 86 -233 95 -274 43 -210 -18 -1257
-101 -1715 -25 -140 -115 -523 -130 -552 -15 -28 -288 -207 -523 -342 -806
-464 -1664 -668 -2625 -626 -803 35 -1288 176 -2216 646 -419 212 -519 285
-559 407 -35 108 -49 218 -96 782 -14 165 -32 360 -40 433 -20 180 -20 202 3
202 33 0 339 -359 501 -589 220 -310 368 -596 491 -946 54 -156 94 -245 109
-245 68 0 -91 633 -254 1014 -90 212 -223 461 -443 831 -333 561 -470 855
-544 1165 -19 82 -22 123 -23 306 0 220 4 244 44 244 9 0 113 -48 231 -106
312 -154 515 -242 527 -230 10 10 -188 133 -407 251 -1022 553 -1952 1428
-2675 2515 -205 308 -328 519 -477 817 -162 325 -188 356 -133 158 40 -148
202 -570 266 -695 15 -30 37 -79 48 -108 32 -80 308 -626 412 -812 121 -217
239 -405 346 -548 201 -271 483 -610 632 -759 165 -165 110 -74 -125 207 -258
310 -465 585 -592 787 -201 319 -507 883 -537 991 -19 66 54 -12 180 -195 224
-324 491 -646 852 -1028 385 -408 697 -693 1013 -927 63 -47 123 -94 132 -104
11 -12 45 -134 87 -309 91 -383 144 -546 279 -861 131 -304 288 -610 530
-1029 182 -317 412 -777 412 -826 0 -27 -25 7 -113 154 -137 228 -238 366
-507 697 -167 204 -273 348 -426 576 -69 104 -137 200 -150 214 -23 23 -24 24
-24 4 0 -11 41 -103 91 -204 128 -259 135 -291 164 -785 44 -739 129 -1322
280 -1910 215 -839 529 -1531 974 -2142 108 -149 171 -249 171 -272 0 -67
-491 571 -805 1048 -376 569 -790 1428 -1088 2256 -87 242 -132 384 -227 708
-43 150 -92 306 -107 347 -25 68 -28 72 -31 42 -8 -80 81 -403 253 -917 138
-414 219 -635 325 -885 392 -926 832 -1686 1307 -2255 117 -141 442 -473 618
-631 123 -111 144 -133 145 -152 0 -21 -35 -6 -150 66 -220 137 -529 362 -749
545 -945 788 -1693 1805 -2201 2997 -100 235 -211 542 -329 910 -130 408 -144
449 -165 486 l-16 29 6 -50 c24 -202 352 -1302 439 -1475 14 -27 26 -66 27
-87 2 -23 10 -43 22 -52 10 -8 29 -37 42 -65 13 -28 37 -67 53 -86 16 -19 69
-109 117 -200 367 -693 746 -1239 1248 -1795 276 -306 332 -446 495 -1235 136
-657 136 -661 136 -1670 0 -942 -8 -1077 -79 -1413 -51 -243 -83 -327 -123
-327 -28 0 -8 -66 169 -569 343 -978 405 -1169 368 -1146 -5 3 -158 302 -339
663 -180 361 -419 832 -530 1046 -111 214 -209 405 -217 425 -10 23 -24 144
-39 346 -14 170 -27 326 -30 345 -3 19 -14 136 -25 259 -11 124 -23 227 -25
230 -3 2 -5 -58 -5 -135 0 -259 -20 -1008 -30 -1169 -59 -895 -221 -1557 -533
-2168 -302 -594 -711 -1077 -1461 -1727 -231 -199 -345 -284 -362 -268 -9 10
56 92 193 245 78 87 159 181 181 208 383 480 546 699 647 869 60 100 109 206
97 206 -11 0 -88 -105 -217 -295 -135 -198 -313 -451 -373 -528 -91 -115 -82
-59 27 177 96 208 116 256 174 416 118 326 199 674 252 1084 33 247 51 351 74
420 18 50 18 57 5 71 -42 41 -99 1 -132 -93 -72 -206 -94 -262 -158 -392 -93
-190 -144 -279 -279 -485 -187 -286 -381 -531 -621 -787 -151 -160 -357 -354
-385 -363 -34 -11 -49 12 -49 76 0 33 -4 59 -9 59 -25 0 -70 -179 -141 -560
-123 -663 -240 -1108 -426 -1618 -41 -111 -74 -209 -74 -217 0 -10 11 -15 35
-15 42 0 51 15 129 223 180 478 294 906 411 1537 30 162 60 307 66 322 6 14
99 109 207 211 571 536 841 878 1147 1447 72 134 92 163 108 153 16 -9 0 -151
-38 -338 -105 -519 -364 -1189 -595 -1538 -144 -216 -373 -479 -607 -695 -68
-63 -123 -120 -123 -128 0 -17 -4 -18 65 6 79 27 142 65 193 116 26 27 58 47
83 54 132 36 612 414 1013 799 408 391 683 715 871 1026 231 383 472 1013 590
1544 48 220 71 360 106 646 16 137 34 254 39 259 7 7 15 5 24 -4 8 -8 82 -155
165 -327 104 -214 151 -323 151 -346 0 -41 -112 -377 -181 -542 -28 -66 -89
-200 -135 -297 -88 -183 -104 -231 -86 -265 13 -24 6 -36 -35 -57 -24 -12 -32
-24 -35 -48 -2 -26 -11 -36 -41 -52 -26 -13 -56 -47 -96 -105 -56 -82 -181
-294 -181 -306 0 -3 37 25 82 62 89 74 161 155 244 278 30 44 62 91 71 105
117 173 293 487 424 756 87 180 112 225 126 222 19 -3 50 -63 335 -643 143
-291 346 -664 385 -707 8 -9 23 -65 33 -124 22 -126 78 -304 129 -406 48 -96
61 -99 54 -11 -15 192 -213 850 -488 1623 -266 749 -270 777 -155 1364 56 288
74 505 85 1016 7 320 -8 874 -30 1128 -40 463 -94 774 -229 1322 -62 248 -67
290 -37 290 11 0 88 -55 173 -122 275 -219 545 -406 948 -656 268 -166 337
-206 510 -291 149 -73 254 -111 268 -96 11 11 -63 69 -181 143 -60 37 -142 92
-182 122 -595 445 -1221 1397 -1574 2390 -132 372 -316 1103 -290 1151 20 37
51 25 289 -111 354 -203 787 -394 1230 -541 113 -37 249 -80 303 -93 294 -76
733 -116 1276 -116 325 0 448 11 713 65 740 150 1331 379 1838 714 121 80 153
94 163 67 3 -7 -5 -71 -19 -142 -107 -576 -189 -1226 -254 -2034 -18 -213 -24
-897 -11 -1130 38 -680 132 -1326 361 -2485 54 -275 108 -561 119 -635 43
-287 61 -615 82 -1470 l11 -465 -97 -305 c-280 -876 -384 -1324 -437 -1865
-20 -214 -15 -598 11 -815 46 -391 94 -680 121 -731 9 -15 15 -18 23 -10 8 8
8 30 0 83 -82 528 -88 600 -87 1018 0 244 5 378 18 494 67 631 193 1134 476
1911 109 298 202 583 197 598 -2 7 -27 -34 -56 -90 -39 -79 -56 -103 -71 -103
-11 0 -21 1 -21 3 -1 1 -5 236 -9 522 -4 286 -13 576 -19 645 -35 383 -112
857 -316 1945 -163 871 -217 1415 -217 2185 -1 713 55 1360 188 2180 114 709
334 1715 500 2287 19 67 34 137 32 155 -3 32 -4 31 -39 -37 -20 -38 -44 -91
-54 -117 -9 -26 -26 -55 -38 -65 l-20 -18 6 180 c34 938 59 1289 123 1705 143
929 466 1713 1127 2735 599 925 751 1199 995 1785 180 433 377 1032 438 1330
15 78 16 199 1 183z m-2006 -3614 c-7 -22 -51 -131 -97 -242 -243 -576 -363
-984 -368 -1255 -1 -86 -5 -105 -19 -113 -23 -13 -44 -94 -57 -219 -19 -178
-40 -311 -65 -405 -32 -118 -41 -178 -65 -430 -21 -226 -35 -314 -50 -329 -20
-20 -49 31 -93 164 -89 269 -169 625 -207 915 -11 88 -34 239 -51 335 -38 215
-36 252 20 356 79 145 289 422 639 843 240 287 396 451 413 434 10 -10 10 -21
0 -54z m-6721 -13214 c0 -43 -129 -343 -137 -319 -3 10 79 244 108 307 13 29
29 36 29 12z" />
        <path d="M24886 16354 c-7 -72 2 -187 14 -179 22 14 22 245 0 245 -4 0 -10
-30 -14 -66z" />
        <path d="M28427 21553 c-11 -10 -8 -91 2 -98 13 -7 31 27 31 58 0 25 -22 52
-33 40z" />
        <path d="M29356 21544 c-14 -35 -25 -306 -26 -599 0 -695 -59 -1434 -169
-2140 -30 -195 -71 -501 -71 -536 0 -10 4 -19 9 -19 35 0 194 921 220 1275 40
540 76 1957 52 2019 -7 19 -8 19 -15 0z" />
        <path d="M16100 21248 c0 -47 77 -164 96 -145 9 9 -16 77 -43 119 -30 45 -53
56 -53 26z" />
        <path d="M12176 21194 c-3 -9 -6 -31 -6 -49 0 -67 25 -89 36 -31 11 60 -13
124 -30 80z" />
        <path d="M13677 21158 c-6 -42 4 -168 13 -168 5 0 11 27 15 60 11 95 -14 194
-28 108z" />
        <path d="M11970 20840 c0 -55 4 -100 9 -100 14 0 24 102 17 155 -12 79 -26 49
-26 -55z" />
        <path d="M12214 20916 c-8 -22 0 -91 11 -91 15 0 29 49 21 79 -7 28 -23 34
-32 12z" />
        <path d="M16390 20748 c0 -26 50 -117 74 -137 43 -36 25 49 -25 117 -34 47
-49 53 -49 20z" />
        <path d="M12257 20754 c-11 -12 -8 -82 4 -90 17 -10 30 17 27 55 -3 33 -17 49
-31 35z" />
        <path d="M13725 20660 c30 -358 77 -633 170 -995 144 -561 393 -1232 603
-1625 366 -687 975 -1413 1432 -1708 93 -60 165 -95 182 -90 12 4 -130 124
-279 236 -300 227 -697 664 -985 1087 -270 395 -538 947 -696 1435 -130 399
-253 899 -356 1440 -35 181 -57 273 -68 285 -6 6 -7 -18 -3 -65z" />
        <path d="M12006 20579 c-7 -45 1 -109 15 -109 21 0 24 140 3 147 -7 2 -14 -14
-18 -38z" />
        <path d="M16380 20387 c0 -14 66 -95 105 -130 77 -68 72 -26 -7 58 -67 72 -98
95 -98 72z" />
        <path d="M27295 20369 c-8 -25 2 -89 14 -89 17 0 31 59 21 85 -12 30 -26 32
-35 4z" />
        <path d="M12047 20334 c-10 -11 -8 -67 3 -84 9 -13 11 -13 20 0 21 32 0 107
-23 84z" />
        <path d="M27256 20165 c-8 -23 -7 -68 3 -83 14 -22 33 12 29 54 -3 40 -21 56
-32 29z" />
        <path d="M12086 20114 c-8 -30 1 -84 14 -84 16 0 30 60 20 85 -12 32 -26 32
-34 -1z" />
        <path d="M27217 20004 c-11 -12 -8 -82 4 -90 17 -10 30 17 27 55 -3 33 -17 49
-31 35z" />
        <path d="M29086 19985 c-7 -29 2 -75 15 -75 15 0 30 49 23 76 -8 31 -30 31
-38 -1z" />
        <path d="M27177 19843 c-11 -10 -8 -91 2 -98 13 -7 31 27 31 58 0 25 -22 52
-33 40z" />
        <path d="M29047 19792 c-40 -100 -95 -462 -70 -462 25 0 103 356 103 470 0 41
-15 38 -33 -8z" />
        <path d="M27136 19655 c-15 -41 1 -132 20 -112 12 12 10 105 -2 117 -8 8 -13
7 -18 -5z" />
        <path d="M27095 19408 c-55 -187 -196 -938 -259 -1383 -48 -335 -67 -537 -86
-925 -10 -206 -34 -1609 -28 -1616 2 -2 10 166 17 374 13 418 35 905 52 1142
31 470 109 1069 220 1699 77 438 122 761 106 761 -3 0 -13 -23 -22 -52z" />
        <path d="M28924 19216 c-7 -38 3 -96 16 -96 13 0 23 64 15 99 -9 41 -23 39
-31 -3z" />
        <path d="M28893 19019 c-32 -73 -136 -642 -183 -999 -38 -292 -50 -486 -62
-1008 -13 -588 1 -1471 27 -1782 67 -791 216 -1363 782 -2995 234 -674 440
-1283 508 -1496 25 -80 53 -155 61 -165 14 -18 15 -15 10 31 -9 95 -177 613
-681 2100 -316 933 -373 1125 -449 1506 -107 537 -188 1195 -216 1744 -13 256
-13 812 0 1070 22 439 76 952 155 1460 45 297 67 475 63 521 -4 39 -4 39 -15
13z" />
        <path d="M14674 18600 c15 -79 224 -473 459 -865 193 -322 320 -500 550 -770
137 -162 537 -561 667 -667 152 -123 313 -228 328 -213 8 7 6 9 -208 185 -688
564 -1073 1049 -1570 1975 -111 207 -175 316 -213 365 l-20 25 7 -35z" />
        <path d="M29847 18373 c-34 -109 -38 -145 -52 -443 -15 -336 -38 -1480 -30
-1488 3 -3 5 15 5 39 0 46 23 576 40 934 19 398 30 560 51 734 20 162 19 241
0 241 -5 0 -11 -8 -14 -17z" />
        <path d="M12923 18278 c-6 -7 -16 -31 -23 -53 -45 -144 -202 -475 -313 -660
-179 -299 -418 -586 -699 -841 -185 -167 -224 -208 -202 -212 43 -10 216 132
439 360 249 253 383 426 525 672 84 145 209 407 255 531 50 135 61 257 18 203z" />
        <path d="M29061 18125 c-54 -128 -258 -1004 -249 -1072 3 -21 11 -5 36 72 74
226 238 944 229 1004 l-3 26 -13 -30z" />
        <path d="M31296 18114 c-8 -30 1 -84 14 -84 16 0 30 60 20 85 -12 32 -26 32
-34 -1z" />
        <path d="M13311 17638 c-201 -212 -389 -397 -497 -486 -233 -194 -502 -371
-824 -542 -183 -98 -350 -199 -350 -213 0 -12 50 0 122 30 224 90 646 342 938
558 161 119 224 157 252 153 46 -6 33 -61 -84 -353 -135 -338 -269 -579 -526
-945 -284 -404 -362 -531 -500 -810 -103 -209 -158 -352 -192 -495 -31 -130
-36 -276 -9 -259 13 8 35 61 76 183 135 405 367 744 872 1276 240 254 565 555
598 555 8 0 16 -6 19 -13 2 -7 -58 -264 -134 -570 -113 -455 -144 -563 -166
-596 -41 -59 -526 -534 -631 -618 -123 -99 -298 -201 -565 -332 -460 -224
-687 -302 -1000 -341 -47 -6 -236 -15 -420 -20 -184 -5 -344 -11 -355 -14 -11
-3 -33 -8 -49 -11 -45 -10 -19 -23 69 -37 110 -17 554 -17 675 0 740 104 1475
460 2023 980 167 159 215 202 227 202 14 0 13 -53 -5 -194 -8 -65 -24 -223
-35 -350 -25 -285 -28 -308 -52 -373 -38 -102 -181 -202 -608 -423 -427 -222
-579 -308 -830 -476 -240 -159 -380 -273 -570 -464 -229 -228 -342 -377 -511
-671 -38 -68 -77 -131 -86 -139 -14 -13 -15 -12 -9 15 12 54 75 208 129 315
200 398 511 790 912 1149 72 64 265 225 430 357 165 133 306 248 314 257 28
35 -10 14 -150 -79 -174 -117 -385 -233 -488 -270 -171 -61 -186 -68 -184 -91
5 -41 -81 -85 -552 -283 -1135 -479 -1478 -673 -1945 -1101 -420 -384 -555
-565 -807 -1074 -212 -430 -442 -972 -1035 -2440 -127 -313 -341 -842 -475
-1175 -557 -1373 -663 -1648 -663 -1713 0 -39 52 -109 126 -168 38 -31 152
-116 254 -189 226 -162 443 -327 743 -564 197 -155 228 -184 237 -215 5 -20
16 -171 25 -336 16 -295 40 -670 110 -1695 57 -840 98 -1571 125 -2225 6 -137
13 -262 16 -278 5 -26 8 -27 65 -27 l59 0 0 83 c0 251 -84 1740 -175 3102 -47
706 -65 1053 -65 1286 0 219 2 224 63 193 80 -41 862 -493 1004 -580 197 -121
512 -329 838 -554 332 -228 583 -394 790 -520 256 -156 315 -204 315 -256 0
-67 -328 -614 -518 -863 -41 -54 -66 -101 -53 -101 29 0 252 236 476 505 165
198 293 334 320 341 29 7 80 -15 490 -214 176 -85 366 -177 423 -204 68 -33
107 -58 114 -73 12 -26 5 -96 -82 -825 -81 -684 -109 -996 -110 -1222 l0 -98
54 0 54 0 6 63 c3 34 8 120 11 192 11 243 51 633 155 1491 163 1341 264 2701
195 2632 -11 -10 -45 -203 -64 -363 -26 -213 -64 -621 -91 -960 -49 -625 -68
-725 -137 -725 -65 0 -754 335 -848 412 -67 55 -57 80 155 403 382 583 627
1089 836 1727 48 145 92 269 99 276 21 22 31 -4 69 -173 34 -153 101 -393 200
-717 69 -224 75 -283 48 -472 -30 -211 -40 -382 -52 -926 -19 -880 -11 -1432
25 -1685 40 -287 141 -676 265 -1027 47 -133 58 -151 87 -146 20 3 19 7 -24
133 -24 72 -73 230 -108 353 -146 505 -172 718 -196 1571 -9 312 -9 501 0 770
18 559 38 771 106 1096 46 225 46 239 -6 262 -16 7 -35 30 -49 60 -62 131
-186 567 -249 873 -60 292 -62 377 -16 710 52 380 99 937 78 915 -14 -13 -24
-72 -83 -470 -113 -758 -190 -1133 -310 -1510 -188 -587 -555 -1263 -1104
-2033 -150 -210 -206 -272 -206 -227 0 8 63 137 139 287 393 769 604 1347 787
2148 89 393 176 871 219 1205 14 108 36 412 34 475 0 14 -25 -132 -55 -325
-59 -379 -143 -814 -165 -860 -43 -88 -74 5 -118 352 -73 575 -91 1317 -42
1735 89 744 301 1539 583 2178 105 237 223 454 376 689 23 35 42 68 42 73 0
37 -337 -318 -551 -582 -562 -689 -928 -1444 -1073 -2210 -50 -264 -67 -430
-73 -721 -8 -397 11 -592 31 -321 16 206 59 610 82 767 98 667 289 1250 553
1682 118 195 484 703 523 727 9 6 20 7 24 4 8 -9 -5 -48 -102 -298 -258 -669
-439 -1363 -510 -1960 -22 -181 -30 -825 -15 -1073 26 -409 69 -694 161 -1082
l61 -254 -71 -273 c-93 -356 -116 -438 -207 -713 -211 -643 -430 -1147 -516
-1191 -25 -13 -32 -13 -75 6 -124 55 -486 290 -1309 848 -455 309 -712 464
-1723 1045 -632 362 -879 509 -1095 652 -202 134 -240 169 -238 223 3 57 70
240 248 677 222 545 455 1121 782 1935 451 1123 735 1814 913 2220 481 1098
1062 1674 2260 2244 287 137 766 338 839 352 26 5 31 3 31 -12 0 -19 -16 -39
-171 -221 -178 -208 -334 -444 -474 -718 -118 -230 -178 -403 -191 -555 -9
-99 -18 -123 -44 -115 -18 6 -20 2 -20 -46 0 -29 -9 -85 -19 -123 -27 -97 -40
-223 -51 -471 -17 -379 -17 -379 59 -5 93 458 132 597 223 805 127 289 371
636 628 895 229 230 471 413 790 595 315 181 899 474 943 475 32 0 31 -32 -6
-184 -55 -228 -84 -420 -112 -756 -86 -1014 -233 -1403 -853 -2250 -555 -758
-804 -1143 -1012 -1565 -161 -328 -242 -544 -324 -873 -46 -184 -97 -470 -116
-652 -23 -215 -29 -560 -10 -560 8 0 12 31 50 380 122 1112 413 1773 1321
3010 428 583 580 817 720 1105 162 333 231 626 274 1160 44 555 124 986 232
1257 35 88 57 119 72 102 4 -5 13 -97 20 -204 17 -303 76 -661 166 -1020 148
-588 437 -1226 752 -1658 133 -183 269 -339 477 -547 216 -217 218 -217 41
-15 -365 417 -571 723 -811 1203 -292 583 -446 1109 -536 1837 -21 166 -17
823 5 1025 56 507 137 923 322 1650 57 226 106 437 110 470 l6 60 -48 -51
c-26 -27 -67 -76 -90 -108 -67 -96 -275 -315 -468 -496 -208 -194 -427 -416
-539 -545 -83 -95 -116 -125 -116 -104 0 24 62 122 292 461 127 188 251 375
275 416 152 256 324 671 373 898 32 152 61 200 255 429 107 127 165 202 165
217 0 25 -36 -5 -149 -124z" />
        <path d="M27596 17663 c-10 -10 -7 -111 4 -118 15 -10 31 43 24 81 -6 35 -16
48 -28 37z" />
        <path d="M12332 17623 c-12 -9 -89 -88 -170 -177 -126 -139 -136 -152 -73 -96
112 98 291 271 291 281 0 14 -22 10 -48 -8z" />
        <path d="M24647 17518 c-40 -50 -126 -188 -191 -308 l-46 -85 47 50 c133 143
280 385 234 385 -5 0 -25 -19 -44 -42z" />
        <path d="M27551 17170 c-2 -243 21 -1128 34 -1304 46 -649 125 -1130 265
-1618 147 -510 379 -1066 678 -1623 233 -435 508 -915 533 -931 29 -18 -45
134 -241 491 -443 809 -726 1467 -911 2119 -143 506 -233 1000 -273 1501 -26
319 -36 493 -66 1160 -11 236 -18 314 -19 205z" />
        <path d="M24348 17039 c-89 -125 -197 -322 -298 -539 -64 -139 -75 -170 -63
-170 33 0 424 723 411 761 -2 7 -24 -15 -50 -52z" />
        <path d="M28756 16955 c-8 -23 -7 -68 3 -83 14 -22 33 12 29 54 -3 40 -21 56
-32 29z" />
        <path d="M30630 16958 c0 -9 13 -53 30 -97 90 -245 366 -1217 539 -1902 174
-686 185 -800 178 -1719 -6 -858 -9 -872 -400 -2080 -248 -766 -368 -1272
-397 -1670 -7 -85 -16 -166 -22 -180 l-10 -24 -18 24 -18 24 -7 -34 c-18 -98
71 -488 229 -995 89 -287 145 -420 167 -398 13 13 -14 130 -57 253 -151 430
-222 920 -195 1360 20 328 46 474 141 810 120 421 477 1509 505 1539 7 7 18
11 23 7 6 -3 29 -63 53 -133 92 -278 235 -554 452 -878 91 -137 128 -186 391
-525 790 -1018 983 -1329 1166 -1880 141 -421 225 -848 261 -1319 15 -204 7
-740 -15 -921 -36 -299 -95 -601 -131 -673 -14 -28 -25 -66 -25 -89 0 -22 -20
-100 -45 -174 -44 -131 -85 -282 -85 -316 0 -32 19 -19 45 31 68 135 238 714
280 956 62 354 71 1091 20 1530 -19 158 -55 345 -111 570 -90 358 -199 654
-360 975 -182 362 -341 599 -725 1085 -558 706 -794 1053 -930 1365 -47 110
-122 330 -145 428 -30 126 -20 301 42 727 31 213 35 225 69 225 49 0 1004
-492 1560 -803 292 -163 684 -412 870 -552 303 -228 479 -412 671 -700 182
-274 273 -485 539 -1255 402 -1161 673 -1838 1125 -2810 183 -394 339 -745
352 -795 10 -38 9 -46 -11 -79 -59 -96 -456 -410 -1106 -878 -683 -491 -1331
-982 -1980 -1499 -631 -503 -1159 -856 -1531 -1024 -158 -71 -402 -166 -507
-196 -113 -34 -108 -42 -151 261 -40 281 -98 763 -122 1024 -27 284 -3 384
132 551 123 153 288 423 334 548 12 32 35 73 50 90 19 23 30 48 35 87 14 103
95 326 125 345 7 4 16 2 21 -6 8 -12 12 -11 23 4 7 9 26 17 43 17 37 0 63 -27
228 -238 169 -217 315 -373 531 -569 189 -172 332 -287 479 -387 117 -80 123
-83 109 -65 -158 205 -263 314 -339 351 -34 17 -48 32 -66 72 -13 28 -87 134
-163 236 -231 308 -395 566 -516 815 -114 234 -120 283 -65 505 36 146 68 364
71 485 8 263 5 1203 -5 1330 -38 508 -119 832 -477 1917 -127 386 -147 458
-124 458 15 0 376 -350 529 -513 730 -778 1088 -1502 1240 -2507 29 -194 68
-554 82 -775 13 -190 13 -190 22 -110 15 143 1 661 -22 835 -72 536 -211 1004
-436 1465 -213 435 -404 689 -921 1225 -265 275 -471 505 -576 645 -50 66
-105 132 -122 148 -28 25 -31 25 -34 8 -5 -32 24 -127 149 -494 402 -1171 463
-1366 524 -1672 71 -353 90 -691 81 -1385 -11 -779 -15 -846 -58 -1009 -23
-89 -48 -240 -48 -293 0 -21 11 -59 24 -85 14 -27 45 -91 69 -143 75 -163 328
-564 496 -788 111 -147 124 -168 118 -184 -11 -30 -429 424 -596 647 -37 50
-121 178 -186 285 -65 107 -147 242 -182 300 -122 199 -266 517 -343 755 -41
129 -64 238 -86 403 -9 73 -18 131 -20 129 -6 -6 -33 -133 -80 -377 -88 -457
-188 -871 -353 -1451 -263 -928 -291 -1121 -291 -2004 0 -763 19 -943 147
-1410 158 -577 401 -1175 640 -1575 93 -154 107 -170 150 -170 l33 0 -20 40
c-11 22 -38 67 -60 101 -22 34 -42 75 -44 93 -3 17 -10 200 -16 406 -20 705
-42 1146 -67 1329 -16 123 -16 124 4 141 11 9 47 22 79 29 363 76 736 254
1254 596 256 169 501 348 929 679 1075 830 1747 1335 1778 1336 14 0 24 -8 29
-22 40 -123 -101 -1864 -256 -3173 -58 -489 -150 -1421 -150 -1524 l0 -31 59
0 59 0 6 42 c3 24 13 120 21 213 30 329 76 765 130 1225 152 1294 278 2664
291 3155 3 116 7 220 10 233 3 15 110 102 357 286 386 289 505 385 643 521 98
96 154 174 154 214 0 31 -67 188 -238 556 -74 160 -193 416 -264 570 -325 701
-590 1364 -889 2225 -267 769 -459 1257 -574 1461 -345 610 -924 1077 -2110
1701 -110 58 -416 214 -680 346 -264 132 -488 249 -498 259 -15 18 -19 61 -32
349 -8 181 -22 412 -30 514 -45 532 -156 1069 -390 1885 -115 400 -127 455
-102 455 24 0 231 -317 375 -575 140 -250 282 -666 382 -1115 l39 -175 -5 120
c-7 161 -22 305 -41 390 -50 232 -136 461 -273 730 -112 221 -173 325 -358
605 -125 188 -328 523 -415 680 -20 36 -43 74 -51 85 -13 17 -15 18 -16 3z
m825 -10698 c87 -215 184 -417 309 -644 53 -96 96 -185 96 -198 0 -34 -127
-407 -194 -570 -123 -302 -308 -672 -372 -746 -65 -75 -69 -17 -18 264 20 110
38 244 41 299 5 90 4 99 -10 87 -42 -35 -127 -346 -172 -627 -42 -264 -74
-347 -178 -466 -34 -39 -77 -90 -96 -113 l-35 -41 35 31 c162 145 198 174 217
174 11 0 23 -8 26 -18 6 -18 91 -772 125 -1107 72 -700 137 -1684 129 -1945
-2 -94 -6 -115 -18 -115 -58 0 -381 871 -491 1320 -101 415 -152 1045 -130
1589 26 632 82 957 286 1661 134 462 157 544 211 755 30 118 70 292 90 385 42
208 42 207 62 203 11 -2 40 -61 87 -178z" />
        <path d="M14300 16771 c0 -62 15 -90 25 -48 9 36 2 100 -12 105 -10 3 -13 -13
-13 -57z" />
        <path d="M14308 16360 c-8 -162 2 -427 13 -365 10 49 9 429 0 470 -4 19 -9
-21 -13 -105z" />
        <path d="M15303 16455 c0 -22 2 -30 4 -17 2 12 2 30 0 40 -3 9 -5 -1 -4 -23z" />
        <path d="M11505 16441 c-59 -35 -143 -106 -134 -115 11 -11 139 21 161 40 20
18 48 73 48 94 0 17 -23 11 -75 -19z" />
        <path d="M29762 16400 c0 -14 2 -19 5 -12 2 6 2 18 0 25 -3 6 -5 1 -5 -13z" />
        <path d="M15307 15790 c8 -1211 31 -1769 89 -2165 34 -237 115 -585 191 -820
158 -493 439 -1043 701 -1372 75 -94 300 -318 310 -309 2 3 -41 58 -95 124
-265 316 -557 789 -684 1109 -188 475 -312 957 -378 1473 -59 455 -79 788
-112 1845 -22 715 -27 738 -22 115z" />
        <path d="M29806 16214 c-8 -20 -8 -113 0 -153 12 -57 24 -21 24 69 0 84 -10
120 -24 84z" />
        <path d="M17460 15961 c0 -19 116 -119 126 -108 7 7 -73 105 -95 117 -27 14
-31 13 -31 -9z" />
        <path d="M14351 15385 c-1 -134 23 -532 44 -721 26 -237 66 -458 86 -469 12
-8 12 133 -1 270 -12 118 -118 990 -124 1015 -2 8 -4 -34 -5 -95z" />
        <path d="M19220 15387 c0 -17 25 -39 67 -61 35 -17 83 -22 83 -7 0 17 -60 60
-98 71 -48 13 -52 13 -52 -3z" />
        <path d="M19435 15301 c-7 -13 27 -31 57 -31 30 0 52 15 44 29 -9 13 -92 15
-101 2z" />
        <path d="M26760 15106 c0 -80 11 -115 24 -80 8 20 8 128 0 148 -14 38 -24 10
-24 -68z" />
        <path d="M13636 14396 c-4 -25 -4 -73 0 -107 6 -50 9 -58 18 -43 14 25 14 170
0 184 -9 9 -13 0 -18 -34z" />
        <path d="M16507 14383 c-11 -11 -8 -91 4 -99 15 -9 29 14 29 48 0 46 -15 70
-33 51z" />
        <path d="M17465 14340 c-7 -33 2 -90 15 -90 11 0 20 26 20 60 0 60 -24 81 -35
30z" />
        <path d="M31805 14238 c-9 -24 -1 -113 10 -111 14 4 19 103 6 116 -7 7 -12 5
-16 -5z" />
        <path d="M25523 13988 c-33 -134 -113 -448 -176 -698 -304 -1199 -460 -2077
-527 -2965 -17 -227 -24 -886 -11 -1105 23 -403 81 -951 114 -1085 22 -89 22
-89 25 -43 2 26 -8 165 -22 310 -100 1042 -96 1534 24 2508 108 874 210 1406
484 2510 134 540 180 745 174 781 -8 60 -28 10 -85 -213z" />
        <path d="M16544 14196 c-8 -34 3 -79 19 -73 7 2 12 22 12 47 0 49 -21 66 -31
26z" />
        <path d="M17507 14090 c-8 -39 2 -92 17 -87 6 2 11 27 11 57 0 59 -19 79 -28
30z" />
        <path d="M14505 14035 c20 -206 170 -728 316 -1100 139 -357 385 -794 622
-1110 292 -388 656 -735 968 -923 101 -60 299 -162 316 -162 39 0 -12 40 -277
218 -190 128 -330 243 -514 422 -391 382 -715 827 -926 1274 -127 268 -242
587 -340 938 -70 255 -136 460 -155 483 -15 19 -16 16 -10 -40z" />
        <path d="M16597 14034 c-10 -11 -8 -112 2 -119 15 -9 23 12 23 62 0 44 -12 70
-25 57z" />
        <path d="M9290 14002 c0 -17 129 -131 183 -162 82 -47 124 -38 90 20 -31 53
-129 110 -250 145 -13 3 -23 2 -23 -3z" />
        <path d="M17557 13914 c-4 -4 -7 -34 -7 -66 0 -78 24 -76 28 2 3 50 -6 78 -21
64z" />
        <path d="M30767 13761 c-4 -18 -7 -71 -7 -116 0 -45 3 -98 7 -116 7 -33 7 -33
14 -9 4 14 7 70 7 125 0 55 -3 111 -7 125 -7 24 -7 24 -14 -9z" />
        <path d="M9620 13746 c0 -19 286 -170 435 -229 140 -56 222 -65 630 -71 198
-2 356 -3 350 -1 -5 2 -125 13 -265 25 -496 42 -724 95 -1014 236 -76 38 -136
55 -136 40z" />
        <path d="M13635 13381 c-9 -91 3 -217 19 -201 7 7 11 55 11 130 0 75 -4 123
-11 130 -9 9 -14 -6 -19 -59z" />
        <path d="M30727 13187 c-10 -26 -8 -269 2 -285 18 -29 29 217 12 278 -6 22 -8
23 -14 7z" />
        <path d="M13674 12927 c-24 -62 36 -391 67 -371 22 13 -18 316 -50 372 -9 16
-10 16 -17 -1z" />
        <path d="M30682 12638 c-17 -78 -67 -404 -96 -628 -77 -591 -141 -1352 -151
-1790 -3 -140 -8 -291 -11 -335 -4 -44 -4 -78 -1 -75 3 3 11 73 17 155 29 399
53 686 81 960 28 277 46 425 113 955 24 187 57 522 72 718 7 103 -6 125 -24
40z" />
        <path d="M27017 12608 c-9 -32 -7 -199 2 -223 12 -29 21 30 21 134 0 89 -12
133 -23 89z" />
        <path d="M13756 12388 c9 -73 84 -369 128 -505 44 -135 70 -196 93 -214 15
-13 16 -11 10 26 -4 22 -45 173 -91 335 -76 268 -125 410 -141 410 -3 0 -3
-24 1 -52z" />
        <path d="M14506 12217 c-7 -37 2 -97 14 -97 12 0 20 27 20 65 0 66 -23 88 -34
32z" />
        <path d="M17132 12080 c-11 -28 -4 -90 9 -90 10 0 29 42 29 64 0 7 -6 21 -14
32 -14 18 -15 18 -24 -6z" />
        <path d="M14550 11981 c0 -62 15 -90 25 -48 9 36 2 100 -12 105 -10 3 -13 -13
-13 -57z" />
        <path d="M28516 12033 c-10 -10 -7 -143 3 -143 14 0 21 28 21 85 0 51 -9 73
-24 58z" />
        <path d="M17177 11923 c-11 -10 -8 -91 2 -98 13 -7 31 27 31 58 0 25 -22 52
-33 40z" />
        <path d="M27062 11560 c0 -152 4 -264 8 -250 4 14 8 126 8 250 0 124 -4 236
-8 250 -4 14 -8 -98 -8 -250z" />
        <path d="M14590 11788 c0 -103 87 -408 116 -408 18 0 -39 271 -78 370 -28 72
-38 82 -38 38z" />
        <path d="M28473 11695 c-10 -24 -10 -131 0 -141 4 -4 10 -4 14 0 12 12 16 123
5 142 -10 18 -11 18 -19 -1z" />
        <path d="M17256 11624 c-18 -47 3 -117 25 -83 16 26 8 99 -11 99 -4 0 -11 -7
-14 -16z" />
        <path d="M29110 11631 c0 -19 69 -189 135 -331 245 -532 373 -1029 442 -1710
14 -137 18 -268 18 -605 0 -485 -7 -585 -70 -1040 -8 -52 6 -37 32 35 36 99
76 374 105 725 18 229 16 640 -5 820 -76 652 -166 1049 -334 1475 -116 294
-323 699 -323 631z" />
        <path d="M14000 11574 c0 -62 71 -160 86 -120 8 22 -40 122 -65 135 -19 11
-21 9 -21 -15z" />
        <path d="M15426 11458 c-8 -30 -6 -107 4 -138 l7 -25 12 28 c12 31 14 78 5
126 -8 36 -19 40 -28 9z" />
        <path d="M28425 11379 c-8 -35 2 -119 14 -119 17 0 28 101 15 134 -10 25 -22
19 -29 -15z" />
        <path d="M14084 11359 c14 -71 161 -339 186 -339 6 0 8 11 4 28 -8 36 -96 223
-137 290 -36 59 -63 70 -53 21z" />
        <path d="M25756 11374 c-9 -24 -7 -67 4 -84 9 -13 11 -13 20 0 17 26 10 100
-10 100 -4 0 -11 -7 -14 -16z" />
        <path d="M14710 11256 c0 -46 16 -69 31 -45 16 24 6 83 -13 87 -15 3 -18 -4
-18 -42z" />
        <path d="M25717 11213 c-10 -9 -8 -76 2 -92 7 -11 11 -10 20 7 23 43 5 113
-22 85z" />
        <path d="M28381 11162 c-6 -11 -11 -36 -11 -55 0 -143 -305 -1377 -456 -1849
-236 -734 -602 -1545 -1012 -2243 -353 -603 -697 -1081 -1183 -1645 -380 -442
-461 -583 -132 -232 1049 1122 1847 2465 2339 3937 226 679 459 1624 489 1990
5 62 3 84 -8 99 -14 19 -15 19 -26 -2z" />
        <path d="M15464 11069 c12 -186 90 -533 202 -902 254 -835 738 -1705 1211
-2174 103 -103 133 -127 133 -105 0 4 -59 77 -131 162 -676 803 -1077 1643
-1314 2755 -70 329 -113 442 -101 264z" />
        <path d="M14760 11086 c0 -76 72 -286 99 -286 34 0 -32 240 -83 305 -15 19
-15 18 -16 -19z" />
        <path d="M25675 11011 c-3 -16 -3 -46 1 -67 6 -34 8 -36 20 -19 15 20 18 55 8
93 -9 31 -21 28 -29 -7z" />
        <path d="M27016 10929 c-4 -19 -18 -187 -31 -374 -14 -187 -32 -410 -41 -495
-96 -973 -295 -1925 -586 -2810 -173 -527 -321 -888 -578 -1415 -175 -359
-271 -573 -250 -560 30 18 209 312 296 486 54 108 69 129 98 143 47 22 91 75
201 241 320 484 877 1570 992 1935 17 52 33 110 36 128 20 102 -55 -40 -217
-417 -118 -274 -210 -466 -366 -761 -306 -583 -536 -980 -568 -980 -28 0 -8
56 198 564 256 631 439 1256 601 2056 88 435 153 888 210 1468 23 236 38 778
22 807 -9 15 -11 12 -17 -16z" />
        <path d="M25641 10807 c-36 -95 -141 -780 -141 -921 0 -146 75 204 120 559 35
275 45 385 36 385 -4 0 -10 -10 -15 -23z" />
        <path d="M14877 10658 c39 -201 436 -1113 624 -1434 123 -210 332 -503 520
-729 158 -189 402 -415 425 -392 9 8 -36 62 -187 226 -165 179 -264 294 -365
425 -312 404 -615 972 -860 1611 -38 97 -84 209 -104 248 -39 79 -64 100 -53
45z" />
        <path d="M23099 10665 c-82 -16 -189 -49 -231 -71 -30 -15 -31 -18 -13 -24 39
-14 184 16 291 61 113 47 93 62 -47 34z" />
        <path d="M20185 10631 c-10 -18 42 -36 72 -25 15 5 27 14 27 19 1 14 -91 19
-99 6z" />
        <path d="M20350 10590 c0 -31 92 -39 98 -7 3 14 -4 17 -47 17 -28 0 -51 -4
-51 -10z" />
        <path d="M20521 10551 c-11 -7 -9 -11 8 -21 30 -15 86 -9 86 10 0 17 -71 26
-94 11z" />
        <path d="M22627 10553 c-33 -9 -11 -28 38 -31 44 -3 77 9 63 24 -9 8 -79 14
-101 7z" />
        <path d="M20732 10498 c3 -9 24 -13 61 -13 79 0 77 19 -2 23 -48 2 -62 0 -59
-10z" />
        <path d="M22363 10498 c2 -8 23 -13 57 -13 34 0 55 5 58 13 3 9 -13 12 -58 12
-45 0 -61 -3 -57 -12z" />
        <path d="M13377 10449 c-7 -25 2 -77 13 -84 4 -3 13 9 20 26 10 22 10 36 2 54
-14 31 -28 32 -35 4z" />
        <path d="M20982 10458 c3 -9 24 -13 61 -13 79 0 77 19 -2 23 -48 2 -62 0 -59
-10z" />
        <path d="M22042 10458 c3 -9 26 -13 71 -13 92 0 91 19 -1 23 -57 2 -73 0 -70
-10z" />
        <path d="M30056 10453 c-9 -10 -7 -141 3 -147 14 -9 21 20 21 84 0 55 -9 78
-24 63z" />
        <path d="M13359 10175 c-23 -36 -59 -522 -66 -890 -12 -678 48 -1500 162
-2200 67 -411 105 -561 320 -1265 53 -173 109 -358 125 -410 107 -357 266
-760 299 -760 4 0 -7 57 -24 127 -64 255 -224 976 -274 1238 l-19 100 1 -180
c2 -153 0 -180 -13 -180 -19 0 -36 36 -77 169 -118 383 -237 931 -312 1441
-111 749 -150 1453 -120 2194 10 271 9 634 -2 616z" />
        <path d="M30096 10121 c-9 -77 2 -187 17 -172 6 6 11 54 11 111 0 118 -17 155
-28 61z" />
        <path d="M30477 9667 c-10 -26 -8 -199 2 -215 18 -30 29 148 12 208 -6 22 -8
23 -14 7z" />
        <path d="M25477 9627 c-10 -26 -9 -289 2 -305 18 -30 29 195 13 283 -6 30 -9
36 -15 22z" />
        <path d="M27467 9383 c-4 -3 -7 -25 -7 -48 0 -23 3 -45 7 -48 13 -13 33 16 33
48 0 32 -20 61 -33 48z" />
        <path d="M18483 9258 c-18 -51 0 -793 33 -1308 58 -923 159 -1540 363 -2215
71 -233 106 -327 114 -299 42 152 49 265 49 779 -1 1090 -65 1561 -318 2350
-35 110 -99 316 -141 457 -43 142 -81 258 -85 258 -4 0 -10 -10 -15 -22z m151
-665 c62 -160 174 -581 225 -843 83 -429 123 -930 125 -1556 1 -276 -2 -344
-13 -358 -10 -12 -17 -13 -27 -5 -66 54 -226 836 -293 1429 -25 225 -28 259
-52 725 -32 623 -32 642 -26 659 13 34 36 15 61 -51z" />
        <path d="M27424 9206 c-8 -22 0 -91 11 -91 15 0 29 49 21 79 -7 28 -23 34 -32
12z" />
        <path d="M25428 9164 c-11 -11 -10 -578 2 -794 13 -242 30 -400 43 -400 18 0
-8 976 -31 1148 -4 30 -10 50 -14 46z" />
        <path d="M12608 8975 c-42 -94 -103 -271 -153 -445 -55 -196 -44 -216 26 -44
48 118 142 397 159 474 21 96 8 102 -32 15z" />
        <path d="M27380 9031 c-29 -55 -52 -211 -31 -211 14 0 31 25 42 62 14 46 27
141 22 156 -7 18 -21 15 -33 -7z" />
        <path d="M17307 8874 c-4 -4 -7 -34 -7 -66 0 -73 23 -77 28 -5 3 47 -8 84 -21
71z" />
        <path d="M14386 8845 c-9 -25 -7 -138 4 -155 14 -23 25 15 24 88 -1 64 -15 99
-28 67z" />
        <path d="M31643 8588 c57 -947 93 -1446 122 -1698 55 -464 203 -1090 257
-1090 7 0 22 15 33 33 18 29 20 52 22 242 2 214 -4 233 -27 87 -13 -78 -32
-101 -56 -68 -7 10 -24 66 -38 125 -79 334 -148 900 -176 1441 -10 192 -21
350 -36 548 -5 57 -3 82 4 82 21 0 44 -49 79 -163 105 -345 182 -767 218
-1207 20 -240 52 -507 64 -528 30 -53 25 258 -9 588 -45 434 -92 750 -140 940
-60 237 -202 616 -273 728 -43 67 -51 56 -44 -60z" />
        <path d="M11696 8622 c-62 -123 -137 -414 -92 -358 48 60 156 406 127 406 -6
0 -22 -22 -35 -48z" />
        <path d="M14420 8493 c0 -118 85 -493 111 -493 20 0 1 150 -45 356 -28 125
-41 164 -56 164 -5 0 -10 -12 -10 -27z" />
        <path d="M17345 8402 c-9 -87 2 -204 17 -178 13 22 13 209 0 232 -7 13 -11 0
-17 -54z" />
        <path d="M12368 8215 c-82 -245 -230 -912 -268 -1210 -31 -244 -38 -465 -29
-995 8 -543 16 -626 85 -892 64 -250 198 -618 301 -825 46 -94 96 -163 108
-151 12 11 -13 73 -105 268 -176 371 -257 675 -321 1211 -29 242 -32 717 -6
999 35 375 90 744 157 1060 72 340 111 546 108 579 -3 33 -5 30 -30 -44z" />
        <path d="M11546 8165 c-9 -25 -7 -68 4 -85 16 -23 31 7 28 54 -3 41 -21 59
-32 31z" />
        <path d="M11507 8004 c-10 -10 -8 -76 2 -93 7 -11 11 -9 21 8 21 39 2 109 -23
85z" />
        <path d="M13851 7938 c-19 -50 -23 -118 -16 -257 8 -151 13 -156 35 -38 13 71
30 92 55 66 7 -8 32 -66 55 -129 272 -733 733 -1453 1305 -2039 390 -400 745
-676 1092 -849 142 -71 130 -56 -72 93 -573 423 -721 551 -1053 905 -538 574
-907 1130 -1147 1730 -21 52 -66 175 -100 272 -85 241 -129 311 -154 246z" />
        <path d="M24966 7935 c-14 -56 39 -275 67 -275 26 0 -23 276 -52 295 -5 2 -12
-6 -15 -20z" />
        <path d="M14545 7910 c-8 -27 2 -90 15 -90 23 0 26 100 3 107 -6 2 -14 -6 -18
-17z" />
        <path d="M11456 7818 c-42 -231 -116 -835 -115 -948 1 -162 32 -9 94 465 39
293 55 515 38 515 -6 0 -13 -15 -17 -32z" />
        <path d="M29591 7832 c-13 -24 -5 -92 10 -92 10 0 29 42 29 64 0 7 -6 21 -14
31 -13 18 -14 18 -25 -3z" />
        <path d="M17130 7802 c0 -17 58 -89 100 -125 66 -56 80 -48 32 19 -50 68 -132
134 -132 106z" />
        <path d="M15216 7757 c-7 -36 2 -97 14 -97 16 0 26 82 14 114 -10 26 -21 19
-28 -17z" />
        <path d="M14580 7743 c1 -59 96 -348 205 -623 150 -379 250 -573 449 -875 349
-529 703 -910 1215 -1309 92 -72 214 -168 271 -214 56 -46 105 -81 107 -78 3
3 -55 70 -129 148 -74 79 -169 183 -211 232 -496 572 -940 1449 -1133 2235
-25 102 -54 206 -66 231 -18 41 -21 43 -29 23 -13 -35 16 -175 86 -418 76
-262 160 -517 222 -675 101 -257 326 -669 580 -1064 84 -131 95 -156 68 -156
-38 0 -378 345 -591 600 -372 445 -611 877 -884 1595 -88 232 -135 341 -151
351 -5 3 -9 2 -9 -3z" />
        <path d="M17374 7698 c-5 -7 -9 -233 -10 -503 0 -292 -5 -549 -12 -635 -57
-677 -141 -1158 -303 -1733 -52 -183 -66 -266 -55 -310 6 -25 73 -84 83 -73 4
3 -2 15 -12 26 -17 19 -18 28 -8 108 7 48 41 194 77 324 141 516 220 960 266
1498 6 69 17 330 25 580 10 302 20 477 29 519 12 54 12 71 0 110 -16 55 -67
111 -80 89z" />
        <path d="M25510 7606 c0 -80 11 -115 24 -80 8 20 8 128 0 148 -14 38 -24 10
-24 -68z" />
        <path d="M18265 7660 c-8 -14 -10 -108 -2 -117 14 -14 27 13 27 55 0 52 -12
82 -25 62z" />
        <path d="M25044 7565 c-8 -33 3 -78 19 -72 26 8 27 97 1 97 -7 0 -16 -11 -20
-25z" />
        <path d="M25086 7404 c-8 -30 1 -84 14 -84 4 0 13 14 20 30 10 23 10 37 2 55
-15 32 -28 32 -36 -1z" />
        <path d="M25556 7373 c-9 -10 -7 -121 3 -127 13 -9 21 19 21 74 0 46 -9 67
-24 53z" />
        <path d="M13808 7179 c-8 -154 2 -415 13 -354 10 49 9 409 0 450 -5 19 -9 -16
-13 -96z" />
        <path d="M18306 7270 c-14 -72 -2 -216 15 -188 5 7 9 54 9 103 0 96 -12 140
-24 85z" />
        <path d="M25597 7163 c-11 -11 -8 -111 4 -118 17 -11 23 3 23 55 0 48 -13 78
-27 63z" />
        <path d="M28737 7125 c-12 -36 -36 -522 -47 -920 -40 -1486 -212 -2549 -585
-3608 -348 -992 -708 -1665 -1250 -2336 -77 -95 -155 -193 -173 -217 l-34 -44
36 0 c33 0 42 8 167 158 949 1137 1517 2531 1783 4382 48 331 70 643 111 1585
16 356 19 966 6 1000 l-8 20 -6 -20z" />
        <path d="M9714 7058 c9 -50 62 -151 92 -178 l27 -25 -7 43 c-10 66 -81 192
-108 192 -6 0 -8 -13 -4 -32z" />
        <path d="M25635 6958 c-9 -24 -2 -93 10 -93 6 0 14 17 19 38 8 30 6 41 -7 54
-15 15 -17 15 -22 1z" />
        <path d="M9840 6774 c0 -52 83 -204 111 -204 28 0 -42 169 -87 211 l-24 22 0
-29z" />
        <path d="M25670 6750 c0 -57 24 -71 35 -20 8 37 -2 70 -21 70 -10 0 -14 -13
-14 -50z" />
        <path d="M27746 6668 c-13 -24 -68 -142 -121 -263 -211 -477 -526 -1068 -746
-1396 -207 -310 -1221 -1509 -1276 -1509 -22 0 19 67 194 320 348 504 632 957
621 992 -5 15 -227 -301 -565 -807 -724 -1082 -956 -1521 -1182 -2242 -28 -89
-56 -165 -63 -169 -20 -13 -1 147 61 501 32 187 73 411 90 499 18 87 29 161
27 164 -22 21 -100 -273 -181 -673 -104 -520 -110 -596 -101 -1405 3 -344 9
-637 12 -652 5 -23 12 -28 36 -28 l29 0 -8 153 c-11 206 -8 564 6 722 18 192
53 383 114 625 118 459 309 974 459 1237 159 278 710 949 1055 1284 111 109
143 129 168 109 24 -20 162 -623 220 -965 73 -429 100 -784 92 -1200 -6 -304
-14 -406 -48 -645 -55 -386 -168 -798 -310 -1126 -28 -65 -57 -136 -65 -156
l-13 -38 39 0 c51 0 55 6 136 221 242 642 346 1197 346 1844 1 584 -77 1145
-266 1919 -36 148 -66 284 -66 302 0 27 19 57 109 166 287 354 581 793 794
1183 188 346 485 1075 437 1075 -5 0 -20 -19 -34 -42z" />
        <path d="M25717 6633 c-4 -3 -7 -25 -7 -48 0 -23 3 -45 7 -48 13 -13 33 16 33
48 0 32 -20 61 -33 48z" />
        <path d="M10174 6576 c-7 -40 -1 -132 10 -143 14 -14 21 13 21 82 0 85 -19
122 -31 61z" />
        <path d="M13845 6459 c-9 -84 3 -255 16 -224 11 28 11 283 0 289 -5 3 -12 -26
-16 -65z" />
        <path d="M32338 6452 c-34 -38 -58 -125 -38 -137 14 -9 70 83 70 116 0 35 -13
43 -32 21z" />
        <path d="M10000 6422 c0 -58 385 -839 553 -1121 80 -135 74 -71 -10 109 -59
126 -106 256 -142 393 -38 143 -49 204 -61 351 -10 123 -18 148 -39 122 -19
-22 -47 -4 -55 34 -4 20 -10 29 -17 24 -9 -5 -10 -40 -6 -121 5 -88 3 -114 -6
-111 -15 5 -58 70 -120 185 -52 93 -97 157 -97 135z" />
        <path d="M35258 6010 c-17 -10 -88 -102 -88 -114 0 -14 63 30 96 67 41 45 37
72 -8 47z" />
        <path d="M33477 5950 c-10 -37 -8 -228 2 -234 19 -12 29 174 12 234 l-7 25 -7
-25z" />
        <path d="M35055 5848 c-69 -80 -68 -100 2 -49 39 28 73 67 73 83 0 23 -43 3
-75 -34z" />
        <path d="M34880 5722 c-108 -73 -698 -519 -834 -632 -191 -158 -192 -159 -180
-160 41 -1 1094 788 1094 820 0 18 -25 9 -80 -28z" />
        <path d="M33425 5551 c-7 -33 3 -101 15 -101 12 0 20 27 20 65 0 64 -23 88
-35 36z" />
        <path d="M8371 5294 c75 -80 817 -579 835 -561 20 19 -802 587 -851 587 -5 0
2 -12 16 -26z" />
        <path d="M10640 5170 c0 -52 76 -167 96 -147 12 12 -28 100 -62 136 -33 35
-33 36 -34 11z" />
        <path d="M33772 4896 c-40 -43 -68 -86 -56 -86 13 0 95 65 109 87 15 23 13 43
-4 43 -5 0 -27 -20 -49 -44z" />
        <path d="M33586 4760 c-170 -109 -504 -379 -470 -380 48 -1 554 378 554 416 0
8 -1 14 -2 14 -2 0 -38 -23 -82 -50z" />
        <path d="M25518 4628 c-76 -116 -197 -368 -213 -443 l-6 -30 25 27 c51 56 204
358 240 476 13 39 -11 24 -46 -30z" />
        <path d="M13168 4568 c-84 -206 -269 -1148 -347 -1769 -32 -252 -36 -269 -57
-269 -19 0 -27 18 -89 202 -109 320 -171 547 -210 773 -15 82 -28 151 -29 153
-11 11 -107 -306 -160 -530 -73 -302 -86 -455 -93 -1033 -11 -1017 39 -1509
204 -1980 36 -101 41 -110 66 -113 16 -2 27 1 27 9 0 7 -18 80 -39 163 -106
405 -169 835 -193 1326 -22 457 28 1239 103 1603 16 77 33 145 38 150 7 7 15
6 25 -2 27 -22 256 -737 317 -988 30 -121 30 -126 33 -445 3 -232 10 -385 25
-543 62 -646 120 -955 223 -1202 29 -70 31 -73 64 -73 23 0 34 5 34 14 0 8
-22 81 -50 161 -195 576 -260 1511 -174 2510 45 526 87 795 249 1580 71 345
78 415 33 303z" />
        <path d="M16585 4580 c-8 -12 48 -52 131 -93 76 -38 144 -56 144 -39 0 36
-258 159 -275 132z" />
        <path d="M25134 4528 c-42 -45 -107 -208 -84 -208 28 0 113 162 108 206 l-3
26 -21 -24z" />
        <path d="M16214 4246 c-8 -22 0 -91 11 -91 15 0 29 49 21 79 -7 28 -23 34 -32
12z" />
        <path d="M28004 4247 c-10 -28 0 -82 16 -82 11 0 15 12 15 44 0 44 -19 68 -31
38z" />
        <path d="M30006 4165 c-9 -25 -7 -68 4 -85 16 -23 31 7 28 54 -3 41 -21 59
-32 31z" />
        <path d="M27965 4011 c-7 -33 3 -101 15 -101 12 0 20 27 20 65 0 64 -23 88
-35 36z" />
        <path d="M29966 3933 c-31 -105 -42 -186 -56 -438 -13 -246 -13 -883 0 -1016
24 -233 78 -434 220 -816 111 -296 139 -411 170 -688 29 -255 40 -452 40 -695
0 -263 2 -280 40 -280 28 0 29 2 35 66 4 36 5 208 2 382 -4 255 -9 347 -27
470 -22 154 -20 182 12 170 7 -3 73 -92 147 -197 183 -262 356 -475 536 -660
82 -86 165 -173 183 -194 32 -37 33 -38 94 -35 l61 3 -144 151 c-79 82 -183
193 -230 245 -786 864 -1111 1646 -1111 2674 -1 278 7 409 43 743 11 107 19
196 16 198 -2 2 -16 -35 -31 -83z" />
        <path d="M25202 3966 c-57 -83 -185 -401 -289 -716 -90 -274 -132 -434 -104
-405 14 16 100 236 236 605 70 190 142 377 160 417 41 89 52 133 33 133 -7 0
-23 -15 -36 -34z" />
        <path d="M16142 3938 c-20 -27 -57 -107 -99 -222 -53 -145 -142 -358 -218
-526 -62 -137 -135 -318 -135 -334 2 -58 254 450 396 794 43 107 84 243 84
282 0 21 -13 24 -28 6z" />
        <path d="M27925 3801 c-3 -16 -3 -46 1 -67 6 -34 8 -36 20 -19 15 20 18 55 8
93 -9 31 -21 28 -29 -7z" />
        <path d="M27882 3556 c-41 -106 -92 -286 -182 -641 -97 -387 -106 -430 -91
-421 57 36 310 952 299 1083 l-3 38 -23 -59z" />
        <path d="M27519 3265 c-2 -99 -2 -261 1 -360 4 -153 6 -169 12 -110 10 88 9
533 -1 600 -5 36 -8 -2 -12 -130z" />
        <path d="M17206 3347 c-53 -70 -123 -247 -98 -247 16 0 69 81 102 153 51 114
49 164 -4 94z" />
        <path d="M14147 3082 c-14 -22 -26 -467 -28 -1032 -2 -536 -10 -1010 -24
-1305 -8 -171 4 -188 29 -40 33 196 62 1290 51 1905 -7 397 -13 496 -28 472z" />
        <path d="M15386 2735 c-9 -25 -7 -118 4 -135 13 -21 24 12 25 77 0 54 -17 89
-29 58z" />
        <path d="M19885 2670 c-11 -18 -8 -81 4 -93 7 -7 14 -1 21 17 13 36 13 48 -3
71 -11 14 -16 15 -22 5z" />
        <path d="M27526 2328 c-14 -24 -42 -94 -62 -158 -20 -63 -52 -164 -71 -225
-112 -355 -494 -1137 -823 -1685 -147 -244 -155 -260 -136 -260 50 0 355 495
590 960 223 440 556 1264 556 1375 0 48 -23 45 -54 -7z" />
        <path d="M29565 2104 c5 -105 33 -275 110 -675 18 -96 41 -237 50 -312 19
-169 35 -552 35 -874 l0 -243 44 0 45 0 6 52 c7 62 -10 643 -25 820 -14 160
-25 245 -61 460 -30 180 -35 248 -21 248 30 0 85 -129 192 -450 133 -398 178
-618 215 -1052 7 -78 7 -78 36 -78 25 0 29 4 30 28 6 98 -19 353 -52 536 -58
321 -151 603 -337 1021 -44 99 -117 263 -162 365 -46 102 -89 203 -97 225 -12
37 -13 33 -8 -71z" />
        <path d="M13715 2090 c-7 -33 2 -90 15 -90 11 0 20 26 20 60 0 60 -24 81 -35
30z" />
        <path d="M13680 1500 c0 -112 4 -200 9 -200 14 0 24 198 16 305 -12 161 -25
107 -25 -105z" />
        <path d="M28188 1164 c-11 -10 -10 -374 1 -374 11 0 21 103 20 199 -1 98 -12
185 -21 175z" />
        <path d="M27706 1108 c-9 -13 -19 -39 -22 -57 -7 -32 -6 -33 15 -22 43 24 66
88 34 98 -6 2 -19 -6 -27 -19z" />
        <path d="M13180 895 c0 -177 14 -220 25 -81 8 94 -2 246 -16 246 -5 0 -9 -74
-9 -165z" />
        <path d="M13680 835 c0 -98 4 -175 9 -175 14 0 24 177 16 269 -12 138 -25 90
-25 -94z" />
        <path d="M14586 904 c-8 -30 1 -84 14 -84 16 0 30 60 20 85 -12 32 -26 32 -34
-1z" />
        <path d="M27573 855 c-16 -19 -76 -113 -132 -207 -57 -95 -161 -258 -230 -361
-69 -104 -141 -210 -159 -238 l-33 -49 46 0 c43 0 47 3 90 57 47 60 159 225
329 486 71 109 101 148 114 145 24 -4 31 -27 184 -611 l20 -77 38 0 37 0 -8
53 c-11 68 -94 376 -159 591 -51 169 -82 246 -99 246 -5 0 -23 -16 -38 -35z" />
        <path d="M14550 705 c-59 -133 -141 -359 -190 -525 -54 -183 -54 -180 -30
-180 24 0 33 20 110 250 69 205 144 475 137 493 -3 6 -15 -10 -27 -38z" />
        <path d="M28214 461 c7 -96 35 -265 63 -388 16 -69 18 -73 45 -73 25 0 27 3
22 28 -25 139 -86 436 -96 471 -8 25 -20 47 -27 49 -12 4 -13 -11 -7 -87z" />
        <path d="M13215 476 c-8 -48 2 -126 15 -126 11 0 20 38 20 85 0 87 -24 115
-35 41z" />
        <path d="M13715 435 c-4 -25 -3 -66 2 -92 l10 -48 11 28 c19 46 13 157 -9 157
-4 0 -11 -20 -14 -45z" />
        <path d="M14046 428 c-3 -13 -6 -45 -6 -73 0 -27 -9 -113 -20 -190 -25 -172
-25 -165 4 -165 26 0 27 1 46 175 13 119 10 267 -6 272 -6 2 -14 -6 -18 -19z" />
        <path d="M13265 239 c-10 -16 -12 -136 -2 -145 13 -13 21 7 25 65 4 62 -8 105
-23 80z" />
        <path d="M28886 195 c-9 -25 -7 -88 4 -105 14 -23 25 -2 25 50 0 52 -17 85
-29 55z" />
        <path d="M13757 173 c-9 -8 -9 -88 0 -96 12 -12 33 15 33 43 0 48 -15 72 -33
53z" />
        <path d="M24420 25 c0 -18 5 -25 20 -25 21 0 24 8 14 34 -10 25 -34 19 -34 -9z" />
    </g>
</svg>