<svg width="406.8" height="74.801" viewBox="0 0 406.8 74.801" xmlns="http://www.w3.org/2000/svg"><g id="svgGroup" stroke-linecap="round" fill-rule="evenodd" font-size="9pt" stroke="#FFFFFF" stroke-width="0.25mm" fill="#FFFFFF" style="stroke:#FFFFFF;stroke-width:0.25mm;fill:#FFFFFF"><path d="M 43.7 3.8 L 60.8 3.8 L 60.8 74 L 43.7 74 L 43.7 45.1 L 17.1 45.1 L 17.1 74 L 0 74 L 0 3.8 L 17.1 3.8 L 17.1 31.3 L 43.7 31.3 L 43.7 3.8 Z M 298.7 41.4 L 298.7 74 L 281.7 74 L 281.7 43.7 Q 281.7 38.1 278.8 35 Q 275.9 31.9 271 31.9 Q 266.1 31.9 263.2 35 Q 260.3 38.1 260.3 43.7 L 260.3 74 L 243.2 74 L 243.2 0 L 260.3 0 L 260.3 25.7 Q 262.9 22 267.4 19.8 Q 271.9 17.6 277.5 17.6 Q 287.1 17.6 292.9 23.95 Q 298.7 30.3 298.7 41.4 Z M 125.4 50.2 L 86.7 50.2 Q 87.1 55.4 90.05 58.15 Q 93 60.9 97.3 60.9 Q 103.7 60.9 106.2 55.5 L 124.4 55.5 Q 123 61 119.35 65.4 Q 115.7 69.8 110.2 72.3 Q 104.7 74.8 97.9 74.8 Q 89.7 74.8 83.3 71.3 Q 76.9 67.8 73.3 61.3 Q 69.7 54.8 69.7 46.1 Q 69.7 37.4 73.25 30.9 Q 76.8 24.4 83.2 20.9 Q 89.6 17.4 97.9 17.4 Q 106 17.4 112.3 20.8 Q 118.6 24.2 122.15 30.5 Q 125.7 36.8 125.7 45.2 Q 125.7 47.6 125.4 50.2 Z M 362.9 50.2 L 324.2 50.2 Q 324.6 55.4 327.55 58.15 Q 330.5 60.9 334.8 60.9 Q 341.2 60.9 343.7 55.5 L 361.9 55.5 Q 360.5 61 356.85 65.4 Q 353.2 69.8 347.7 72.3 Q 342.2 74.8 335.4 74.8 Q 327.2 74.8 320.8 71.3 Q 314.4 67.8 310.8 61.3 Q 307.2 54.8 307.2 46.1 Q 307.2 37.4 310.75 30.9 Q 314.3 24.4 320.7 20.9 Q 327.1 17.4 335.4 17.4 Q 343.5 17.4 349.8 20.8 Q 356.1 24.2 359.65 30.5 Q 363.2 36.8 363.2 45.2 Q 363.2 47.6 362.9 50.2 Z M 173.1 26.1 L 173.1 18.2 L 190.2 18.2 L 190.2 74 L 173.1 74 L 173.1 66.1 Q 170.6 70 166.15 72.4 Q 161.7 74.8 155.8 74.8 Q 149 74.8 143.4 71.25 Q 137.8 67.7 134.55 61.15 Q 131.3 54.6 131.3 46 Q 131.3 37.4 134.55 30.9 Q 137.8 24.4 143.4 20.9 Q 149 17.4 155.9 17.4 Q 161.8 17.4 166.25 19.8 Q 170.7 22.2 173.1 26.1 Z M 227.6 59.5 L 233.7 59.5 L 233.7 74 L 225 74 Q 215.7 74 210.5 69.45 Q 205.3 64.9 205.3 54.6 L 205.3 32.4 L 198.5 32.4 L 198.5 18.2 L 205.3 18.2 L 205.3 4.6 L 222.4 4.6 L 222.4 18.2 L 233.6 18.2 L 233.6 32.4 L 222.4 32.4 L 222.4 54.8 Q 222.4 57.3 223.6 58.4 Q 224.8 59.5 227.6 59.5 Z M 406.8 17.6 L 406.8 35.7 L 402.1 35.7 Q 395.7 35.7 392.5 38.45 Q 389.3 41.2 389.3 48.1 L 389.3 74 L 372.2 74 L 372.2 18.2 L 389.3 18.2 L 389.3 27.5 Q 392.3 22.9 396.8 20.25 Q 401.3 17.6 406.8 17.6 Z M 173.1 46.1 Q 173.1 52.5 169.55 56.2 Q 166 59.9 160.9 59.9 Q 155.8 59.9 152.25 56.15 Q 148.7 52.4 148.7 46 Q 148.7 39.6 152.25 35.95 Q 155.8 32.3 160.9 32.3 Q 166 32.3 169.55 36 Q 173.1 39.7 173.1 46.1 Z M 86.8 40.7 Q 87.5 36.1 90.45 33.6 Q 93.4 31.1 97.7 31.1 Q 102.2 31.1 105.2 33.7 Q 108.2 36.3 108.2 40.7 L 86.8 40.7 Z M 324.3 40.7 Q 325 36.1 327.95 33.6 Q 330.9 31.1 335.2 31.1 Q 339.7 31.1 342.7 33.7 Q 345.7 36.3 345.7 40.7 L 324.3 40.7 Z" vector-effect="non-scaling-stroke"/></g></svg>