<?xml version="1.0" standalone="no"?>
<!DOCTYPE svg PUBLIC "-//W3C//DTD SVG 20010904//EN" "http://www.w3.org/TR/2001/REC-SVG-20010904/DTD/svg10.dtd">
<svg version="1.0" xmlns="http://www.w3.org/2000/svg" width="1024.000000pt" height="1024.000000pt"
    viewBox="0 0 1024.000000 1024.000000" preserveAspectRatio="xMidYMid meet">

    <g transform="translate(0.000000,1024.000000) scale(0.100000,-0.100000)" fill="#000000" stroke="none">
        <path d="M5176 9749 c-22 -5 -42 -12 -45 -16 -3 -3 8 -2 24 2 17 4 68 11 115
15 l85 7 -70 1 c-38 0 -88 -4 -109 -9z" />
        <path d="M5403 9743 c9 -2 23 -2 30 0 6 3 -1 5 -18 5 -16 0 -22 -2 -12 -5z" />
        <path d="M5458 9733 c7 -3 16 -2 19 1 4 3 -2 6 -13 5 -11 0 -14 -3 -6 -6z" />
        <path d="M5090 9720 c-8 -5 -10 -10 -5 -10 6 0 17 5 25 10 8 5 11 10 5 10 -5
0 -17 -5 -25 -10z" />
        <path d="M5002 9670 c-23 -17 -42 -33 -42 -36 0 -4 56 34 85 58 23 20 -6 5
-43 -22z" />
        <path d="M5180 9690 c-110 -20 -245 -88 -310 -155 -38 -39 -30 -48 9 -11 41
39 138 93 210 118 53 18 88 23 176 23 133 0 218 -25 390 -114 231 -121 348
-201 550 -379 72 -64 173 -149 225 -191 287 -227 342 -273 419 -346 153 -146
242 -273 309 -445 18 -47 30 -71 27 -55 -11 49 -62 165 -109 245 -86 147 -216
275 -596 587 -74 61 -196 165 -270 232 -187 169 -378 295 -614 407 -154 72
-310 104 -416 84z" />
        <path d="M4403 9683 c31 -2 83 -2 115 0 31 2 5 3 -58 3 -63 0 -89 -1 -57 -3z" />
        <path d="M4298 9673 c6 -2 18 -2 25 0 6 3 1 5 -13 5 -14 0 -19 -2 -12 -5z" />
        <path d="M4656 9651 c45 -15 97 -38 115 -50 l34 -23 -30 26 c-30 26 -152 76
-183 76 -9 0 20 -13 64 -29z" />
        <path d="M4194 9650 c-69 -24 -185 -83 -242 -122 -103 -71 -265 -249 -335
-367 -30 -51 -12 -35 24 21 41 63 180 224 191 220 4 -1 7 3 6 9 -5 20 122 116
217 166 50 26 122 57 160 69 39 13 61 23 50 23 -11 0 -43 -9 -71 -19z" />
        <path d="M4413 9653 c20 -2 54 -2 75 0 20 2 3 4 -38 4 -41 0 -58 -2 -37 -4z" />
        <path d="M4308 9643 c6 -2 18 -2 25 0 6 3 1 5 -13 5 -14 0 -19 -2 -12 -5z" />
        <path d="M4548 9643 c6 -2 18 -2 25 0 6 3 1 5 -13 5 -14 0 -19 -2 -12 -5z" />
        <path d="M4258 9633 c7 -3 16 -2 19 1 4 3 -2 6 -13 5 -11 0 -14 -3 -6 -6z" />
        <path d="M4605 9630 c11 -5 27 -9 35 -9 9 0 8 4 -5 9 -11 5 -27 9 -35 9 -9 0
-8 -4 5 -9z" />
        <path d="M4664 9611 c3 -5 -40 -11 -97 -13 -118 -5 -182 -24 -332 -99 -214
-106 -448 -311 -586 -513 -74 -109 -191 -250 -407 -486 -147 -161 -202 -234
-257 -345 -46 -93 -81 -227 -72 -282 4 -25 4 -24 6 7 4 97 70 254 154 365 46
60 137 155 137 142 0 -4 -29 -45 -63 -93 -87 -117 -140 -220 -188 -366 -40
-120 -41 -126 -44 -283 l-3 -160 8 145 c4 80 14 175 23 211 35 146 117 318
215 454 32 44 76 105 97 135 l40 55 -63 -54 c-34 -29 -83 -78 -109 -107 -25
-30 -48 -52 -51 -49 -7 7 45 67 209 245 217 235 269 295 358 415 139 187 163
215 250 292 177 159 341 259 521 319 74 25 100 29 200 29 101 0 120 -3 160
-24 61 -31 39 -11 -34 33 -59 36 -82 44 -72 27z m-1424 -1195 c0 -2 -8 -10
-17 -17 -16 -13 -17 -12 -4 4 13 16 21 21 21 13z m-170 -153 c-1 -5 -12 -21
-27 -38 -26 -30 -26 -30 11 33 8 13 16 16 16 5z m-60 -93 c-6 -11 -13 -20 -16
-20 -2 0 0 9 6 20 6 11 13 20 16 20 2 0 0 -9 -6 -20z" />
        <path d="M5038 9569 c-21 -11 -38 -22 -38 -24 0 -5 79 32 89 41 12 11 -18 1
-51 -17z" />
        <path d="M5167 9528 c-38 -3 -70 -8 -72 -10 -2 -2 58 -3 133 -3 118 0 145 -4
191 -23 30 -12 57 -20 59 -18 2 2 -23 14 -55 26 -72 27 -166 37 -256 28z" />
        <path d="M4929 9493 l-24 -28 28 24 c25 23 32 31 24 31 -2 0 -14 -12 -28 -27z" />
        <path d="M4730 9476 c0 -3 9 -10 20 -16 11 -6 20 -8 20 -6 0 3 -9 10 -20 16
-11 6 -20 8 -20 6z" />
        <path d="M5540 9438 c30 -17 80 -49 110 -70 45 -32 49 -33 20 -8 -37 33 -160
110 -176 110 -5 0 16 -14 46 -32z" />
        <path d="M4538 9433 c23 -2 59 -2 80 0 20 2 1 4 -43 4 -44 0 -61 -2 -37 -4z" />
        <path d="M4405 9411 c-119 -43 -248 -124 -320 -203 l-40 -43 45 41 c106 96
216 162 333 200 40 13 63 23 52 23 -11 0 -42 -8 -70 -18z" />
        <path d="M5053 9383 c15 -2 39 -2 55 0 15 2 2 4 -28 4 -30 0 -43 -2 -27 -4z" />
        <path d="M5181 9366 c71 -20 154 -61 232 -113 89 -59 255 -218 338 -323 63
-81 95 -112 43 -42 -110 148 -223 264 -339 350 -74 55 -226 129 -280 136 l-40
6 46 -14z" />
        <path d="M5725 9310 c10 -11 20 -20 23 -20 3 0 -3 9 -13 20 -10 11 -20 20 -23
20 -3 0 3 -9 13 -20z" />
        <path d="M4618 9303 c7 -3 16 -2 19 1 4 3 -2 6 -13 5 -11 0 -14 -3 -6 -6z" />
        <path d="M4578 9293 c7 -3 16 -2 19 1 4 3 -2 6 -13 5 -11 0 -14 -3 -6 -6z" />
        <path d="M4473 9260 c-94 -42 -247 -162 -325 -254 -50 -58 -48 -57 27 18 100
98 203 177 292 221 72 37 77 48 6 15z" />
        <path d="M5040 9214 c36 -39 82 -100 104 -137 40 -70 59 -91 30 -34 -40 78
-133 198 -174 224 -14 9 4 -15 40 -53z" />
        <path d="M5220 9243 c197 -145 328 -299 442 -520 29 -56 55 -100 57 -98 7 8
-113 223 -167 299 -100 139 -225 261 -327 320 -30 17 -30 17 -5 -1z" />
        <path d="M4668 9188 c-26 -34 -88 -151 -88 -165 0 -4 17 24 38 62 20 39 47 85
60 103 30 42 22 42 -10 0z" />
        <path d="M5000 9196 c0 -2 8 -10 18 -17 15 -13 16 -12 3 4 -13 16 -21 21 -21
13z" />
        <path d="M5045 9136 c10 -14 19 -26 22 -26 7 0 -17 39 -28 46 -6 3 -3 -5 6
-20z" />
        <path d="M4781 9134 c0 -11 3 -14 6 -6 3 7 2 16 -1 19 -3 4 -6 -2 -5 -13z" />
        <path d="M4510 9113 c-118 -89 -279 -281 -374 -445 -44 -76 -24 -56 29 30 98
155 235 316 345 405 52 42 52 50 0 10z" />
        <path d="M4771 9094 c0 -11 3 -14 6 -6 3 7 2 16 -1 19 -3 4 -6 -2 -5 -13z" />
        <path d="M5080 9080 c6 -11 13 -20 16 -20 2 0 0 9 -6 20 -6 11 -13 20 -16 20
-2 0 0 -9 6 -20z" />
        <path d="M3565 9069 c-4 -6 -5 -12 -2 -15 2 -3 7 2 10 11 7 17 1 20 -8 4z" />
        <path d="M4761 9044 c0 -11 3 -14 6 -6 3 7 2 16 -1 19 -3 4 -6 -2 -5 -13z" />
        <path d="M5142 8965 c23 -46 44 -83 46 -81 4 5 -76 166 -83 166 -3 0 14 -38
37 -85z" />
        <path d="M4752 8995 c0 -16 2 -22 5 -12 2 9 2 23 0 30 -3 6 -5 -1 -5 -18z" />
        <path d="M4551 8946 c-11 -35 -22 -81 -25 -102 -4 -22 4 -3 17 41 13 44 27 90
31 103 4 12 5 22 2 22 -3 0 -14 -29 -25 -64z" />
        <path d="M5201 8975 c0 -5 11 -30 24 -55 13 -25 24 -40 24 -35 0 6 -11 30 -24
55 -13 25 -24 41 -24 35z" />
        <path d="M4742 8930 c0 -19 2 -27 5 -17 2 9 2 25 0 35 -3 9 -5 1 -5 -18z" />
        <path d="M4733 8820 c0 -30 2 -43 4 -27 2 15 2 39 0 55 -2 15 -4 2 -4 -28z" />
        <path d="M5250 8865 c0 -5 5 -17 10 -25 5 -8 10 -10 10 -5 0 6 -5 17 -10 25
-5 8 -10 11 -10 5z" />
        <path d="M5200 8845 c0 -5 5 -17 10 -25 5 -8 10 -10 10 -5 0 6 -5 17 -10 25
-5 8 -10 11 -10 5z" />
        <path d="M4512 8780 c0 -14 2 -19 5 -12 2 6 2 18 0 25 -3 6 -5 1 -5 -13z" />
        <path d="M6146 8743 c15 -27 31 -52 35 -58 4 -5 55 -98 114 -205 59 -107 155
-269 215 -360 167 -257 239 -389 296 -545 18 -49 33 -84 34 -77 1 31 -85 235
-142 337 -33 61 -113 191 -178 290 -64 99 -148 236 -185 305 -83 154 -204 360
-211 360 -3 0 7 -21 22 -47z" />
        <path d="M6623 8745 c35 -33 83 -107 127 -195 39 -78 200 -463 196 -468 -4 -4
-178 184 -243 263 -27 33 -89 116 -138 185 -49 69 -93 130 -98 135 -33 32 133
-206 224 -322 34 -43 130 -146 213 -229 182 -182 362 -321 515 -399 80 -40 73
-29 -8 16 -123 67 -332 220 -403 295 -16 18 -60 111 -112 240 -92 231 -126
302 -179 382 -20 28 -33 52 -30 52 14 0 137 -107 213 -187 98 -100 140 -156
200 -263 23 -41 39 -66 35 -55 -29 91 -175 287 -290 391 -108 97 -302 236
-222 159z" />
        <path d="M6420 8730 c6 -11 13 -20 16 -20 2 0 0 9 -6 20 -6 11 -13 20 -16 20
-2 0 0 -9 6 -20z" />
        <path d="M4502 8710 c0 -14 2 -19 5 -12 2 6 2 18 0 25 -3 6 -5 1 -5 -13z" />
        <path d="M3527 8658 c-18 -29 -44 -71 -57 -93 -13 -22 -53 -72 -90 -111 -135
-143 -270 -324 -329 -441 -32 -64 -81 -202 -81 -225 1 -7 13 23 29 68 62 181
169 347 351 544 l50 55 -31 -54 c-54 -96 -126 -244 -142 -296 -9 -27 -28 -108
-43 -180 -47 -229 -87 -344 -186 -535 -181 -348 -196 -380 -227 -472 -52 -156
-72 -262 -77 -413 -3 -80 -1 -164 5 -195 9 -47 10 -35 6 75 -10 276 59 532
224 834 105 193 251 477 251 487 -1 5 -10 -7 -21 -26 -11 -19 -17 -26 -14 -15
10 30 62 247 86 357 13 60 37 131 63 185 49 100 212 401 250 462 15 23 24 41
21 41 -2 0 -19 -24 -38 -52z" />
        <path d="M4412 8690 c0 -14 2 -19 5 -12 2 6 2 18 0 25 -3 6 -5 1 -5 -13z" />
        <path d="M4397 8623 c-3 -22 -28 -76 -59 -124 -96 -152 -158 -320 -194 -529
-21 -114 -26 -371 -11 -490 12 -94 0 -69 -25 51 -18 87 -22 139 -22 319 -1
226 9 296 65 459 20 58 19 84 -1 29 -98 -269 -234 -688 -286 -886 -14 -52 -42
-117 -49 -110 -12 12 54 368 106 572 11 43 18 80 16 82 -6 6 -30 -84 -72 -266
-42 -184 -55 -228 -96 -334 -48 -124 -196 -411 -277 -533 -8 -13 -12 -23 -9
-23 7 0 80 115 142 225 31 55 54 89 51 76 -3 -17 -2 -21 6 -13 7 7 17 8 28 2
14 -8 18 -33 24 -167 10 -236 45 -444 112 -674 75 -260 172 -487 255 -596 22
-29 36 -53 31 -53 -4 0 -44 32 -88 71 l-79 71 75 -73 c41 -40 102 -90 135
-111 42 -26 54 -38 40 -39 -22 -1 38 -22 95 -33 34 -7 34 -6 -9 14 -64 30
-161 90 -158 98 1 4 -13 29 -31 55 -53 75 -147 280 -191 415 -38 113 -91 304
-87 309 1 1 23 -8 48 -20 l46 -22 22 -90 c80 -323 151 -458 334 -633 54 -51
76 -80 76 -97 0 -13 4 -35 9 -48 19 -50 33 -229 33 -420 0 -110 -4 -202 -7
-205 -14 -14 -104 98 -115 141 -15 60 -125 372 -170 483 -21 52 -34 94 -29 94
6 0 22 -6 37 -14 15 -7 38 -17 52 -21 14 -4 -30 21 -98 55 -103 51 -135 73
-196 133 -82 82 -122 137 -183 252 -49 93 -58 94 -12 2 79 -155 195 -290 310
-358 l66 -40 71 -192 c83 -222 143 -399 139 -404 -5 -5 -108 140 -168 237 -29
47 -81 144 -116 215 -34 72 -63 125 -63 119 0 -21 148 -310 200 -389 77 -117
167 -229 260 -323 83 -84 213 -193 253 -212 18 -9 18 -8 -3 7 -52 38 -176 141
-190 158 -12 14 -15 64 -16 274 0 184 -5 283 -17 351 -8 52 -15 95 -14 96 1 1
57 -40 125 -91 158 -118 279 -190 367 -218 101 -31 232 -29 340 6 132 43 316
164 531 349 84 71 114 92 100 70 -12 -20 -36 -313 -36 -445 l0 -144 -50 -106
c-99 -210 -146 -396 -153 -612 -3 -71 -3 -112 -1 -90 12 107 27 184 54 268 16
50 27 93 25 95 -2 2 -17 -38 -34 -90 -17 -51 -30 -84 -31 -73 0 29 36 173 54
217 9 20 13 45 9 54 -4 12 -3 15 5 10 7 -4 10 -2 6 7 -3 8 9 48 25 91 62 154
124 265 316 561 113 174 219 352 269 452 68 136 56 127 -17 -12 -35 -66 -108
-190 -162 -275 -53 -85 -121 -192 -149 -237 -28 -45 -52 -80 -54 -78 -3 3 26
94 53 165 10 25 75 164 146 310 186 386 225 509 254 809 17 176 19 288 5 381
-5 35 -8 66 -6 67 4 5 185 -220 225 -280 52 -76 119 -226 140 -313 11 -43 20
-72 20 -63 1 19 -18 127 -26 149 -4 8 -6 24 -5 35 1 19 0 19 -5 1 -4 -14 -12
-2 -32 46 -69 163 -237 372 -552 687 -129 130 -273 282 -319 339 -45 56 -85
102 -88 102 -2 0 2 -8 9 -17 48 -62 102 -128 162 -195 38 -43 64 -78 58 -78
-6 0 -40 12 -74 26 -194 81 -390 280 -507 513 -17 35 -44 111 -60 170 -35 130
-39 104 -6 -35 58 -238 172 -450 323 -602 84 -84 71 -80 -70 25 -308 230 -521
558 -572 881 -7 51 -13 72 -14 50 -2 -68 38 -264 80 -393 75 -229 190 -431
334 -584 60 -64 69 -77 37 -52 -159 124 -359 383 -433 561 -51 120 -90 240
-105 315 l-14 70 6 -100 c10 -183 85 -470 170 -654 39 -85 41 -96 13 -61 -28
34 -12 3 21 -40 50 -66 43 -65 -29 5 -198 192 -367 472 -426 702 -8 32 -19 96
-24 143 -9 78 -10 74 -6 -55 10 -299 69 -534 199 -793 20 -40 34 -78 30 -84
-4 -7 -3 -8 4 -4 7 4 12 4 12 -1 1 -4 12 -21 27 -38 l26 -30 -22 35 c-80 128
-168 336 -205 485 -27 105 -58 296 -51 304 3 2 5 -1 5 -7 0 -6 14 -49 31 -95
37 -104 109 -232 202 -357 72 -98 307 -340 329 -340 7 0 2 9 -12 20 -14 11
-21 20 -16 20 5 0 -1 12 -15 26 -13 14 -23 29 -22 32 2 4 -17 48 -41 97 -56
114 -106 258 -140 403 -31 131 -30 164 3 71 48 -134 168 -330 273 -444 31 -34
47 -59 42 -67 -4 -7 -3 -10 1 -5 5 4 21 -5 37 -20 l28 -26 -41 -44 c-35 -38
-71 -103 -92 -165 -6 -16 -11 -15 -59 7 -29 13 -74 27 -99 30 -55 8 -149 -8
-203 -35 -22 -11 -40 -18 -41 -17 -13 47 -78 150 -126 202 -53 57 -59 65 -36
60 25 -7 26 -6 14 19 -8 17 -13 21 -15 11 -2 -8 -8 -13 -13 -9 -5 3 -7 10 -4
15 4 5 -4 22 -16 37 -16 19 -20 21 -15 7 5 -11 10 -27 13 -35 4 -8 -11 1 -32
20 l-38 35 21 -32 22 -32 -42 17 c-24 9 -45 20 -46 24 -2 5 -8 6 -13 3 -5 -3
-28 0 -51 6 -24 7 -49 12 -55 10 -7 -1 -24 6 -38 15 -14 9 -25 12 -25 6 0 -6
6 -13 13 -15 6 -3 2 -6 -10 -6 -15 -1 -23 5 -23 15 0 12 -6 15 -24 10 -14 -3
-28 -2 -31 4 -3 5 0 10 7 11 21 1 -24 18 -50 18 -13 1 -20 -3 -17 -9 4 -6 -5
-10 -19 -10 -21 0 -26 5 -26 25 0 14 6 25 13 25 8 0 8 3 -2 9 -29 19 14 304
75 489 32 99 103 248 143 301 18 23 18 21 24 -100 11 -225 56 -401 144 -571
46 -90 130 -214 190 -282 54 -60 47 -41 -10 32 -146 184 -230 361 -279 585
-19 86 -22 133 -22 305 0 111 -1 202 -2 202 -1 0 -4 -17 -7 -37z m-329 -623
c-5 -36 -7 -123 -4 -194 5 -115 4 -131 -12 -143 -14 -11 -14 -12 -1 -7 21 7
33 -22 12 -30 -9 -4 -18 -4 -21 -1 -3 3 0 5 6 5 7 0 12 4 12 9 0 20 -53 2 -86
-30 -41 -40 -44 -55 -6 -36 15 8 44 20 66 27 32 10 40 10 47 -1 14 -23 11 -26
-55 -57 -35 -16 -82 -47 -105 -67 -23 -21 -43 -36 -45 -34 -5 5 19 82 120 398
41 128 77 231 78 230 2 -2 -1 -33 -6 -69z m1141 -159 c24 -36 77 -99 117 -140
l72 -76 -20 -28 c-23 -32 -14 -36 17 -7 l21 20 23 -24 23 -24 -45 -31 c-41
-28 -46 -29 -59 -13 -39 47 -39 48 -16 78 l22 29 -27 -24 c-15 -14 -28 -23
-30 -20 -51 66 -145 246 -191 366 -48 122 -45 136 7 38 23 -44 62 -109 86
-144z m290 -110 c33 -41 40 -55 30 -62 -18 -11 -31 6 -75 96 -19 39 -26 59
-17 45 10 -14 38 -49 62 -79z m46 -81 c-4 -6 1 -7 11 -3 13 5 16 3 11 -10 -5
-12 -1 -17 13 -17 26 0 26 -16 -1 -23 -13 -4 -22 0 -26 11 -4 9 -13 21 -20 25
-14 9 -9 27 8 27 6 0 7 -4 4 -10z m-1320 -32 l40 -12 -30 -7 c-16 -3 -47 -7
-67 -8 -32 -1 -38 2 -38 19 0 24 32 27 95 8z m229 -54 c240 -58 395 -306 350
-560 -52 -303 -350 -502 -638 -428 -139 36 -266 136 -325 255 -36 75 -71 204
-71 266 0 29 -4 43 -12 42 -48 -6 -59 1 -56 34 3 29 6 32 43 37 39 5 41 7 61
66 25 74 83 163 128 198 43 32 125 76 142 76 27 0 13 -16 -33 -37 -152 -70
-243 -226 -243 -419 0 -265 190 -481 448 -509 130 -15 300 52 395 154 189 204
195 487 14 678 -99 104 -242 151 -429 140 -59 -4 -98 -2 -98 3 0 30 205 33
324 4z m1176 16 c0 -5 -15 -10 -32 -10 -25 0 -29 3 -18 10 20 13 50 13 50 0z
m-135 -40 c3 -5 -9 -17 -27 -26 -18 -9 -41 -23 -50 -31 -22 -19 -44 -8 -27 14
12 14 77 52 91 53 4 0 9 -4 13 -10z m-375 -50 c6 -11 8 -20 6 -20 -3 0 -10 9
-16 20 -6 11 -8 20 -6 20 3 0 10 -9 16 -20z m212 -84 c-127 -144 -149 -364
-57 -547 56 -109 179 -211 301 -249 178 -54 391 6 511 144 74 86 132 241 133
354 0 23 5 42 10 42 15 0 12 -115 -6 -183 -33 -129 -118 -248 -229 -322 -266
-176 -649 -51 -760 249 -40 107 -49 201 -30 294 8 42 27 101 40 131 33 71 94
146 108 132 7 -7 0 -21 -21 -45z m-171 7 c13 -16 12 -17 -3 -4 -10 7 -18 15
-18 17 0 8 8 3 21 -13z m-1380 -148 c-18 -40 -42 -58 -54 -37 -3 4 12 41 31
82 l36 75 4 -37 c2 -23 -5 -55 -17 -83z m1303 10 c74 -19 116 -44 116 -68 0
-10 -3 -17 -7 -15 -98 50 -109 53 -199 53 -82 0 -94 -3 -132 -27 -49 -33 -52
-34 -52 -10 0 33 104 77 190 81 14 1 52 -6 84 -14z m46 -65 c25 -12 48 -27 51
-32 8 -12 0 -48 -15 -67 -8 -11 -8 -13 0 -8 8 5 14 -14 19 -60 4 -36 13 -84
21 -106 12 -34 12 -38 0 -28 -12 10 -24 47 -50 156 -3 11 -3 -4 0 -34 6 -64
26 -117 58 -151 13 -14 32 -41 41 -60 30 -60 94 -128 163 -174 218 -144 489
-121 667 58 34 33 74 82 89 109 39 67 75 174 76 227 1 25 5 53 8 63 7 16 11
15 36 -12 l28 -29 -22 -104 c-13 -56 -42 -173 -65 -258 -24 -85 -64 -247 -90
-360 -76 -332 -130 -456 -254 -592 -113 -123 -396 -343 -541 -421 -117 -63
-191 -82 -315 -82 -96 1 -118 4 -173 27 -146 62 -397 244 -577 419 -198 194
-222 244 -353 774 -11 44 -36 134 -56 199 -20 66 -35 121 -33 123 2 1 19 -18
37 -43 91 -120 247 -194 410 -194 93 1 146 12 230 52 76 36 191 145 235 223
16 28 38 61 51 75 28 32 54 110 53 158 -1 34 -2 33 -9 -13 -8 -50 -39 -139
-46 -132 -3 2 2 30 11 63 8 32 15 76 15 97 0 28 3 36 13 31 6 -4 4 2 -5 13
-10 11 -18 26 -18 35 0 19 37 53 80 73 51 23 171 15 230 -15z m-1354 -259 c8
-46 37 -157 64 -245 62 -205 83 -287 75 -294 -11 -11 -76 31 -90 57 -11 23
-45 178 -45 209 0 6 16 -5 36 -26 l37 -37 -32 39 c-18 21 -37 50 -42 63 -12
33 -29 238 -27 333 1 48 3 59 5 30 2 -25 10 -83 19 -129z m2586 42 c21 -60 17
-385 -5 -444 -24 -62 -74 -109 -125 -116 l-40 -5 64 253 c35 140 66 275 70
302 4 26 10 47 15 47 4 0 13 -17 21 -37z m-6 -545 c-46 -287 -79 -380 -264
-758 -53 -107 -111 -245 -138 -325 -47 -143 -85 -228 -105 -241 -24 -15 9 436
41 555 5 21 33 66 61 101 93 116 157 268 207 493 l28 122 41 5 c45 7 87 30
106 60 18 30 29 24 23 -12z" />
        <path d="M5376 7554 c-11 -7 -18 -16 -15 -18 2 -2 13 2 23 10 11 7 18 16 15
18 -2 2 -13 -2 -23 -10z" />
        <path d="M5410 7559 c0 -5 5 -7 10 -4 6 3 10 8 10 11 0 2 -4 4 -10 4 -5 0 -10
-5 -10 -11z" />
        <path d="M5280 6526 c0 -13 -9 -36 -21 -52 l-21 -29 26 28 c22 24 37 77 21 77
-3 0 -5 -11 -5 -24z" />
        <path d="M4751 6523 c-2 -24 18 -60 35 -67 17 -6 17 -6 1 11 -9 10 -20 30 -26
43 -5 14 -10 20 -10 13z" />
        <path d="M4841 6496 c-15 -18 2 -30 32 -22 13 3 35 -1 50 -9 38 -20 34 1 -5
25 -39 24 -61 25 -77 6z" />
        <path d="M5123 6498 c-12 -6 -24 -17 -27 -24 -6 -16 10 -19 19 -3 4 6 19 7 36
4 36 -8 54 2 38 21 -13 16 -35 17 -66 2z" />
        <path d="M5045 6185 c-40 -19 -16 -19 26 0 19 8 27 14 19 14 -8 0 -28 -7 -45
-14z" />
        <path d="M5160 6186 c0 -3 9 -10 20 -16 11 -6 20 -8 20 -6 0 3 -9 10 -20 16
-11 6 -20 8 -20 6z" />
        <path d="M4833 6154 l-28 -25 33 22 c17 13 32 24 32 26 0 8 -11 1 -37 -23z" />
        <path d="M5215 6153 c6 -6 39 -34 75 -63 53 -42 57 -44 20 -10 -41 38 -119 98
-95 73z" />
        <path d="M4764 6098 l-29 -33 33 29 c17 17 32 31 32 33 0 8 -8 1 -36 -29z" />
        <path d="M4800 6000 c-91 -34 -112 -39 -159 -33 -39 4 -52 2 -47 -6 10 -16 89
-14 154 5 44 13 73 15 132 9 96 -11 203 -11 310 -1 67 7 98 5 149 -9 40 -10
78 -14 102 -10 63 11 45 21 -38 21 -62 0 -97 7 -171 33 -77 28 -101 32 -135
26 -51 -9 -110 -10 -157 -2 -27 4 -60 -4 -140 -33z m171 18 c31 -9 51 -8 94 2
44 11 63 11 96 1 23 -7 38 -16 33 -21 -12 -11 -117 -30 -167 -30 -52 0 -167
21 -167 31 0 7 44 26 64 28 5 1 26 -4 47 -11z" />
        <path d="M4760 5811 c40 -33 102 -60 166 -72 116 -22 293 8 356 61 22 19 22
19 -17 0 -146 -70 -361 -65 -495 12 l-35 20 25 -21z" />
        <path d="M3744 8533 c-15 -27 -74 -122 -131 -212 -131 -206 -181 -299 -232
-430 -43 -110 -85 -264 -95 -346 -3 -28 6 0 20 60 55 236 130 414 269 635 43
69 99 159 125 200 51 82 83 140 76 140 -2 0 -17 -21 -32 -47z" />
        <path d="M5550 8415 c0 -5 5 -17 10 -25 5 -8 10 -10 10 -5 0 6 -5 17 -10 25
-5 8 -10 11 -10 5z" />
        <path d="M6124 8385 c93 -303 181 -566 244 -725 48 -124 137 -320 146 -320 2
0 -15 42 -39 93 -73 157 -149 360 -249 667 -53 162 -99 297 -103 300 -3 3 -3
-4 1 -15z" />
        <path d="M5576 8350 c20 -78 152 -356 250 -526 139 -241 369 -517 564 -675 30
-24 -3 13 -74 84 -71 70 -125 127 -121 127 4 0 2 7 -5 15 -7 8 -16 12 -21 10
-11 -8 -180 201 -255 315 -88 135 -184 313 -253 470 -90 204 -91 207 -85 180z" />
        <path d="M5292 8240 c0 -14 2 -19 5 -12 2 6 2 18 0 25 -3 6 -5 1 -5 -13z" />
        <path d="M3522 7974 c-18 -35 -32 -68 -32 -72 1 -4 17 24 36 62 19 37 34 70
32 72 -2 2 -18 -26 -36 -62z" />
        <path d="M6431 7970 c18 -25 68 -88 110 -140 43 -52 102 -135 133 -185 76
-123 83 -132 40 -50 -44 85 -96 158 -204 290 -91 111 -132 155 -79 85z" />
        <path d="M6970 7905 c0 -2 27 -23 60 -45 41 -28 67 -54 81 -83 45 -88 126
-215 212 -331 162 -216 228 -329 282 -476 28 -77 30 -94 45 -290 l8 -115 -3
150 c-2 130 -6 161 -28 230 -48 146 -136 299 -317 545 -72 99 -185 288 -177
297 3 2 36 -11 73 -30 72 -35 202 -82 210 -75 2 3 -22 12 -53 22 -89 28 -192
78 -297 144 -53 33 -96 59 -96 57z" />
        <path d="M3442 7788 c-61 -158 -133 -399 -131 -438 0 -8 14 35 30 95 35 132
82 275 121 369 15 38 26 71 24 73 -2 2 -22 -42 -44 -99z" />
        <path d="M4610 7835 c0 -5 5 -17 10 -25 5 -8 10 -10 10 -5 0 6 -5 17 -10 25
-5 8 -10 11 -10 5z" />
        <path d="M6266 7790 c3 -14 11 -32 16 -40 6 -10 7 -7 2 10 -3 14 -11 32 -16
40 -6 10 -7 7 -2 -10z" />
        <path d="M4631 7785 c0 -5 8 -26 19 -45 11 -19 19 -30 19 -25 0 6 -8 26 -19
45 -11 19 -19 31 -19 25z" />
        <path d="M2955 7730 c-4 -23 -5 -43 -2 -46 2 -3 7 14 11 37 4 23 5 44 2 46 -2
2 -7 -14 -11 -37z" />
        <path d="M6295 7710 c14 -46 84 -191 137 -283 81 -141 214 -311 340 -432 95
-92 238 -207 238 -192 0 2 -41 35 -90 73 -61 46 -93 77 -96 94 -4 14 -10 39
-15 55 -7 24 -7 21 -3 -15 l6 -45 -62 60 c-65 63 -197 232 -192 246 1 5 -3 8
-9 7 -6 -2 -14 3 -17 11 -3 9 0 11 9 6 8 -5 11 -4 6 1 -5 5 -13 9 -19 9 -16 0
-142 216 -189 324 -43 98 -57 125 -44 81z" />
        <path d="M4169 7699 c-9 -6 8 -9 49 -10 34 -1 67 -3 72 -4 6 -1 22 -3 36 -4
14 0 22 -5 19 -11 -3 -6 1 -7 10 -4 9 4 31 -6 53 -22 28 -21 32 -22 18 -6 -24
28 -7 29 28 1 22 -17 26 -18 26 -4 0 14 3 13 27 -2 15 -10 24 -12 20 -5 -5 7
-3 12 3 12 6 0 13 -7 17 -16 5 -13 7 -13 14 -2 6 10 9 8 9 -7 0 -15 2 -17 9
-6 7 11 13 10 35 -4 14 -9 23 -22 19 -28 -3 -5 -1 -7 5 -3 6 3 18 -4 26 -16 9
-12 16 -18 16 -12 0 19 -49 65 -87 80 -20 9 -66 22 -102 30 -207 46 -299 58
-322 43z" />
        <path d="M3606 7655 c-4 -16 -49 -133 -101 -260 -149 -369 -184 -503 -190
-740 l-4 -140 9 141 c15 234 62 416 177 693 84 201 125 311 120 325 -2 6 -7
-2 -11 -19z" />
        <path d="M4208 7673 c6 -2 18 -2 25 0 6 3 1 5 -13 5 -14 0 -19 -2 -12 -5z" />
        <path d="M7465 7666 c43 -14 164 -32 154 -22 -3 3 -36 10 -75 16 -38 5 -80 12
-94 15 -14 3 -7 -1 15 -9z" />
        <path d="M2943 7620 c0 -30 2 -43 4 -27 2 15 2 39 0 55 -2 15 -4 2 -4 -28z" />
        <path d="M4270 7660 c0 -5 5 -10 11 -10 5 0 7 5 4 10 -3 6 -8 10 -11 10 -2 0
-4 -4 -4 -10z" />
        <path d="M4715 7610 c9 -16 18 -30 21 -30 2 0 -2 14 -11 30 -9 17 -18 30 -21
30 -2 0 2 -13 11 -30z" />
        <path d="M5040 7580 c6 -11 13 -20 16 -20 2 0 0 9 -6 20 -6 11 -13 20 -16 20
-2 0 0 -9 6 -20z" />
        <path d="M6055 7555 c28 -48 106 -155 111 -155 2 0 -21 37 -52 83 -60 86 -91
124 -59 72z" />
        <path d="M4792 7480 c7 -14 11 -28 10 -32 -1 -3 5 -9 14 -12 16 -6 8 13 -21
49 -15 19 -16 19 -3 -5z" />
        <path d="M6766 7485 c36 -99 73 -188 74 -177 0 16 -57 162 -71 182 -9 12 -9
11 -3 -5z" />
        <path d="M3272 7465 c0 -16 2 -22 5 -12 2 9 2 23 0 30 -3 6 -5 -1 -5 -18z" />
        <path d="M6841 7464 c0 -11 3 -14 6 -6 3 7 2 16 -1 19 -3 4 -6 -2 -5 -13z" />
        <path d="M7244 7428 c8 -14 41 -116 71 -225 64 -228 97 -332 155 -492 99 -278
131 -454 126 -699 -2 -95 -2 -171 0 -169 3 2 9 55 15 118 20 228 -9 391 -145
809 -78 241 -147 466 -184 595 -7 24 104 -97 173 -190 67 -89 108 -162 146
-261 16 -44 27 -65 24 -49 -13 60 -69 179 -125 263 -49 75 -132 176 -244 296
-26 29 -27 29 -12 4z" />
        <path d="M6851 7424 c0 -11 3 -14 6 -6 3 7 2 16 -1 19 -3 4 -6 -2 -5 -13z" />
        <path d="M3262 7385 c0 -16 2 -22 5 -12 2 9 2 23 0 30 -3 6 -5 -1 -5 -18z" />
        <path d="M3109 7308 c-142 -174 -304 -479 -364 -685 -14 -47 -25 -93 -25 -102
1 -9 16 34 34 94 17 61 52 153 76 205 46 101 135 269 150 284 5 5 -4 -32 -21
-82 -56 -175 -82 -443 -60 -612 21 -155 22 -165 31 -185 5 -11 23 -57 39 -101
33 -93 50 -128 51 -104 0 8 9 -3 20 -25 11 -22 17 -31 14 -20 -76 221 -76 484
-1 705 l22 65 6 -180 c4 -99 14 -247 24 -330 31 -259 5 -510 -71 -693 -88
-213 -188 -376 -298 -488 -39 -41 -71 -74 -69 -74 9 0 53 25 53 30 0 4 6 7 13
7 39 0 281 215 343 304 15 22 30 35 34 30 3 -6 11 8 17 30 12 46 14 48 -56
-48 -60 -83 -191 -209 -283 -274 l-63 -43 53 59 c147 165 287 441 334 657 28
132 30 389 5 581 -10 71 -20 203 -23 295 -6 151 -5 172 14 222 35 97 33 97
-13 3 -69 -140 -115 -344 -115 -514 0 -56 15 -165 36 -269 10 -50 -15 6 -46
100 -50 152 -63 259 -57 449 9 284 69 509 178 666 32 47 58 85 56 85 -1 0 -18
-19 -38 -42z" />
        <path d="M3302 7310 c0 -14 2 -19 5 -12 2 6 2 18 0 25 -3 6 -5 1 -5 -13z" />
        <path d="M3292 7250 c0 -14 2 -19 5 -12 2 6 2 18 0 25 -3 6 -5 1 -5 -13z" />
        <path d="M6741 7260 c0 -8 4 -24 9 -35 5 -13 9 -14 9 -5 0 8 -4 24 -9 35 -5
13 -9 14 -9 5z" />
        <path d="M3282 7185 c0 -16 2 -22 5 -12 2 9 2 23 0 30 -3 6 -5 -1 -5 -18z" />
        <path d="M6220 7196 c0 -2 8 -10 18 -17 15 -13 16 -12 3 4 -13 16 -21 21 -21
13z" />
        <path d="M6766 7170 c4 -19 11 -44 15 -55 6 -14 7 -9 3 15 -4 19 -11 44 -15
55 -6 14 -7 9 -3 -15z" />
        <path d="M6305 7121 c30 -33 172 -146 210 -167 11 -6 51 -31 90 -54 38 -24
107 -60 152 -81 46 -21 83 -44 83 -51 0 -10 2 -10 8 -1 6 10 20 8 60 -7 29
-11 58 -20 65 -20 6 0 -33 18 -89 39 -196 75 -419 206 -550 323 -33 29 -45 37
-29 19z" />
        <path d="M6450 7106 c0 -2 8 -10 18 -17 15 -13 16 -12 3 4 -13 16 -21 21 -21
13z" />
        <path d="M6791 7074 c0 -11 3 -14 6 -6 3 7 2 16 -1 19 -3 4 -6 -2 -5 -13z" />
        <path d="M6490 7076 c0 -2 8 -10 18 -17 15 -13 16 -12 3 4 -13 16 -21 21 -21
13z" />
        <path d="M6520 6916 c0 -2 8 -10 18 -17 15 -13 16 -12 3 4 -13 16 -21 21 -21
13z" />
        <path d="M3572 6823 c-28 -102 -52 -256 -50 -313 1 -39 2 -40 5 -10 9 87 37
251 54 319 10 41 17 76 15 78 -2 2 -13 -31 -24 -74z" />
        <path d="M6570 6850 c12 -16 24 -30 26 -30 3 0 -4 14 -16 30 -12 17 -24 30
-26 30 -3 0 4 -13 16 -30z" />
        <path d="M6637 6743 c21 -39 39 -70 41 -68 5 4 -43 96 -62 120 -9 11 1 -12 21
-52z" />
        <path d="M7141 6774 c0 -11 3 -14 6 -6 3 7 2 16 -1 19 -3 4 -6 -2 -5 -13z" />
        <path d="M7351 6778 c-1 -4 4 -19 10 -35 6 -15 22 -117 35 -225 13 -109 37
-257 54 -328 74 -314 97 -555 78 -805 -5 -63 -4 -80 3 -55 5 19 12 100 15 180
8 178 -7 304 -75 650 -27 135 -54 292 -60 350 -7 58 -14 119 -16 135 -4 29 -3
28 16 -9 61 -114 137 -342 164 -486 7 -41 14 -61 14 -45 1 49 -44 233 -84 339
-35 95 -152 348 -154 334z" />
        <path d="M6858 6680 c4 -36 7 -146 7 -245 -1 -136 2 -166 8 -125 10 66 2 350
-12 400 -8 27 -8 20 -3 -30z" />
        <path d="M6998 6733 c7 -3 16 -2 19 1 4 3 -2 6 -13 5 -11 0 -14 -3 -6 -6z" />
        <path d="M7038 6723 c7 -3 16 -2 19 1 4 3 -2 6 -13 5 -11 0 -14 -3 -6 -6z" />
        <path d="M3512 6700 c0 -14 2 -19 5 -12 2 6 2 18 0 25 -3 6 -5 1 -5 -13z" />
        <path d="M7142 6703 c9 -2 19 -12 21 -21 3 -12 5 -10 6 6 1 17 -4 22 -21 21
-16 -1 -18 -3 -6 -6z" />
        <path d="M6681 6655 c0 -5 9 -28 20 -50 10 -22 16 -29 13 -15 -7 28 -33 80
-33 65z" />
        <path d="M3503 6570 c0 -41 2 -58 4 -37 2 20 2 54 0 75 -2 20 -4 3 -4 -38z" />
        <path d="M7171 6624 c0 -11 3 -14 6 -6 3 7 2 16 -1 19 -3 4 -6 -2 -5 -13z" />
        <path d="M7182 6560 c0 -14 2 -19 5 -12 2 6 2 18 0 25 -3 6 -5 1 -5 -13z" />
        <path d="M7192 6500 c0 -19 2 -27 5 -17 2 9 2 25 0 35 -3 9 -5 1 -5 -18z" />
        <path d="M3322 6485 c0 -16 2 -22 5 -12 2 9 2 23 0 30 -3 6 -5 -1 -5 -18z" />
        <path d="M2712 6465 c0 -16 2 -22 5 -12 2 9 2 23 0 30 -3 6 -5 -1 -5 -18z" />
        <path d="M3506 6378 c3 -52 10 -119 14 -149 6 -37 7 -19 3 61 -6 147 -8 169
-16 176 -4 4 -4 -36 -1 -88z" />
        <path d="M7203 6415 c0 -22 2 -30 4 -17 2 12 2 30 0 40 -3 9 -5 -1 -4 -23z" />
        <path d="M7023 6340 c0 -30 2 -43 4 -27 2 15 2 39 0 55 -2 15 -4 2 -4 -28z" />
        <path d="M7213 6295 c0 -33 2 -45 4 -27 2 18 2 45 0 60 -2 15 -4 0 -4 -33z" />
        <path d="M7328 6155 c-7 -150 -37 -318 -87 -490 -43 -147 -71 -260 -70 -287 0
-12 11 22 24 77 13 55 39 152 58 215 l34 115 7 -80 c18 -213 109 -513 223
-740 36 -71 81 -177 101 -235 37 -105 37 -106 37 -275 0 -138 -3 -177 -17
-205 -9 -19 -19 -48 -23 -65 -3 -16 -8 -39 -10 -50 -3 -11 4 0 16 25 35 77 50
165 50 299 0 191 -29 297 -145 528 -29 60 -74 169 -100 244 -96 287 -125 461
-106 642 6 56 15 137 19 180 5 43 11 80 14 83 9 9 86 -201 118 -323 23 -87 33
-154 39 -258 l8 -140 -3 140 c-3 168 -34 300 -115 502 -28 71 -55 153 -59 183
-6 47 -8 35 -13 -85z" />
        <path d="M3760 6266 c0 -13 62 -157 66 -153 2 2 -10 37 -27 78 -31 74 -39 89
-39 75z" />
        <path d="M7033 6210 c0 -36 2 -50 4 -32 2 17 2 47 0 65 -2 17 -4 3 -4 -33z" />
        <path d="M6852 6230 c0 -14 2 -19 5 -12 2 6 2 18 0 25 -3 6 -5 1 -5 -13z" />
        <path d="M6842 6180 c0 -14 2 -19 5 -12 2 6 2 18 0 25 -3 6 -5 1 -5 -13z" />
        <path d="M2873 6145 c0 -27 2 -38 4 -22 2 15 2 37 0 50 -2 12 -4 0 -4 -28z" />
        <path d="M2912 6150 c0 -19 2 -27 5 -17 2 9 2 25 0 35 -3 9 -5 1 -5 -18z" />
        <path d="M6622 6160 c0 -14 2 -19 5 -12 2 6 2 18 0 25 -3 6 -5 1 -5 -13z" />
        <path d="M3532 6145 c0 -16 2 -22 5 -12 2 9 2 23 0 30 -3 6 -5 -1 -5 -18z" />
        <path d="M3272 6120 c0 -19 2 -27 5 -17 2 9 2 25 0 35 -3 9 -5 1 -5 -18z" />
        <path d="M6831 6134 c0 -11 3 -14 6 -6 3 7 2 16 -1 19 -3 4 -6 -2 -5 -13z" />
        <path d="M3630 6125 c0 -5 5 -17 10 -25 5 -8 10 -10 10 -5 0 6 -5 17 -10 25
-5 8 -10 11 -10 5z" />
        <path d="M6600 6073 c-45 -205 -166 -468 -329 -717 -117 -180 -164 -267 -211
-392 -33 -90 -39 -72 -11 31 37 134 108 288 210 455 25 41 -3 9 -51 -60 -25
-36 -83 -105 -128 -155 -104 -113 -182 -216 -247 -325 -57 -96 -117 -213 -128
-250 -3 -14 22 31 57 99 35 68 67 125 73 125 5 1 17 -44 26 -100 17 -105 35
-170 76 -267 23 -58 24 -61 15 -235 -7 -120 -17 -207 -32 -270 l-22 -94 -67
-43 c-202 -130 -407 -190 -646 -188 -134 1 -237 17 -350 55 -76 25 -255 110
-316 149 -54 34 -53 33 -69 214 -5 66 -12 138 -15 160 l-5 40 36 -40 c114
-128 179 -235 220 -360 29 -88 31 -50 3 57 -26 105 -62 184 -155 340 -100 168
-137 263 -136 347 1 35 3 65 5 68 3 2 44 -17 93 -42 48 -25 93 -45 99 -45 5 0
-35 24 -91 54 -248 130 -486 355 -665 629 -42 64 -89 147 -104 182 -48 111
-39 63 10 -62 51 -129 136 -294 198 -388 47 -70 153 -199 193 -235 15 -14 -7
16 -49 65 -43 50 -102 126 -131 170 -58 87 -162 283 -154 290 2 3 31 -34 62
-80 98 -145 300 -358 427 -452 l54 -40 27 -114 c30 -121 80 -233 185 -414 59
-100 113 -216 113 -238 -1 -7 -15 14 -31 47 -34 65 -66 110 -151 213 -32 38
-73 96 -93 128 -42 70 -47 63 -7 -9 26 -46 30 -64 36 -180 21 -406 127 -744
307 -982 27 -36 49 -68 49 -71 0 -31 -173 193 -250 324 -111 187 -215 433
-275 646 -19 67 -34 114 -34 105 -2 -34 71 -263 124 -396 134 -329 294 -576
469 -724 41 -35 73 -65 71 -66 -6 -6 -96 50 -177 110 -309 229 -548 576 -668
968 -18 58 -36 116 -41 130 -8 23 -9 22 -4 -5 9 -52 98 -340 107 -346 5 -3 7
-12 5 -20 -2 -8 -2 -10 1 -5 2 4 28 -36 56 -91 85 -162 188 -309 304 -434 62
-67 76 -105 119 -319 26 -125 28 -153 28 -375 0 -195 -3 -257 -19 -332 -10
-51 -22 -90 -27 -87 -5 3 -9 3 -9 0 0 -2 36 -106 80 -231 45 -125 79 -232 78
-237 -2 -5 -14 17 -27 49 -14 32 -79 164 -145 293 l-121 235 -11 140 -11 140
-2 -180 c-3 -441 -105 -711 -362 -960 -97 -94 -219 -195 -234 -195 -4 0 29 39
73 87 80 89 181 222 209 278 22 43 13 31 -55 -70 -58 -85 -117 -162 -110 -140
2 6 21 44 41 86 49 102 85 232 99 354 6 55 15 103 20 106 5 3 3 9 -5 12 -10 4
-18 -7 -27 -36 -34 -115 -143 -281 -266 -406 -65 -66 -94 -90 -93 -76 6 77 -7
37 -31 -95 -51 -288 -134 -512 -271 -737 -49 -80 -159 -226 -165 -220 -3 2 18
52 45 111 28 59 45 103 39 100 -8 -5 -9 -1 -4 12 34 88 85 365 73 395 -3 8 -6
0 -6 -17 -2 -51 -29 -203 -53 -288 -19 -70 -23 -77 -35 -60 -12 16 -72 190
-86 249 -3 12 -5 14 -6 4 0 -8 10 -53 23 -99 14 -47 24 -86 22 -87 -7 -8 -98
202 -115 267 -59 219 -53 561 14 875 39 186 37 174 25 145 -16 -37 -68 -302
-79 -409 -6 -51 -12 -95 -14 -97 -7 -8 -69 187 -76 238 l-7 53 -16 -55 c-37
-127 -43 -175 -43 -380 1 -228 14 -322 66 -463 33 -92 33 -91 17 -81 -7 4 -8
3 -4 -5 4 -6 12 -8 18 -5 7 5 9 2 6 -7 -3 -8 7 -30 24 -49 l29 -35 -30 61
c-63 130 -96 260 -111 446 -11 129 1 351 23 448 l12 54 49 -148 c32 -99 46
-158 42 -177 -9 -47 13 -298 35 -389 21 -89 96 -257 148 -334 17 -24 31 -54
31 -65 0 -32 -56 -176 -96 -249 l-37 -67 48 53 c26 29 68 77 93 108 25 30 48
51 52 47 4 -4 26 -33 48 -64 54 -75 142 -169 205 -221 32 -25 16 -7 -39 48
-50 49 -118 127 -152 173 l-62 84 20 31 c12 17 42 67 68 111 47 80 47 80 50
45 11 -129 92 -398 137 -456 8 -10 0 18 -19 63 -62 148 -113 359 -103 432 2
20 26 86 51 146 55 127 99 277 125 423 l19 102 85 80 c98 92 174 190 235 304
l43 81 -6 -60 c-14 -125 -86 -326 -152 -426 -40 -60 -113 -142 -158 -177 -32
-26 -26 -28 15 -7 17 9 30 20 30 26 0 6 4 8 9 5 17 -11 176 116 291 233 128
129 186 218 244 367 47 122 74 230 88 349 l11 100 45 -93 45 -92 -23 -68 c-12
-37 -38 -98 -57 -135 -19 -38 -29 -66 -22 -62 7 5 10 3 7 -6 -3 -8 -10 -13
-16 -12 -7 2 -9 -4 -5 -14 4 -10 2 -14 -4 -10 -10 7 -17 -1 -58 -68 l-19 -30
28 25 c40 36 109 143 158 245 l42 89 87 -178 c49 -100 90 -172 93 -164 3 7 4
3 2 -9 -2 -12 7 -50 20 -85 12 -35 23 -57 23 -50 2 34 -48 205 -111 382 -77
215 -75 199 -42 370 12 61 17 141 17 285 0 210 -16 348 -63 529 -11 44 -19 80
-17 82 1 1 29 -20 62 -47 99 -82 312 -215 388 -242 30 -11 19 0 -28 28 -160
93 -338 353 -430 626 -31 96 -65 231 -65 264 0 8 29 -5 78 -34 90 -54 257
-123 369 -152 54 -14 125 -22 228 -26 128 -4 165 -2 251 16 175 36 319 93 434
170 24 17 45 29 46 28 1 -1 -4 -33 -12 -72 -24 -122 -54 -385 -60 -525 -11
-230 15 -457 97 -855 26 -130 31 -178 36 -360 l5 -210 -35 -110 c-69 -213 -97
-361 -97 -510 0 -73 25 -264 36 -274 4 -3 4 8 1 25 -49 257 -21 501 92 805 61
166 67 187 39 127 l-23 -48 -1 168 c-2 172 -9 229 -88 647 -78 415 -58 809 70
1364 20 84 42 171 50 194 8 22 12 42 10 44 -2 2 -13 -22 -24 -54 l-21 -58 4
45 c3 25 7 114 10 198 14 376 86 597 303 930 137 209 186 301 255 477 49 127
95 290 84 301 -2 2 -10 -22 -17 -53z m-2802 -728 c-3 -3 -9 2 -12 12 -6 14 -5
15 5 6 7 -7 10 -15 7 -18z m2311 -155 c-56 -130 -92 -256 -84 -300 4 -22 2
-30 -3 -22 -6 9 -12 -11 -16 -58 -4 -40 -11 -82 -16 -94 -5 -11 -12 -60 -15
-109 -4 -48 -11 -85 -16 -82 -15 10 -59 167 -70 255 -6 47 -14 102 -19 123 -7
34 -4 44 27 90 61 91 241 303 249 294 2 -2 -14 -46 -37 -97z m-1732 -482 c-3
-7 -5 -2 -5 12 0 14 2 19 5 13 2 -7 2 -19 0 -25z m424 -1585 c13 -16 12 -17
-3 -4 -10 7 -18 15 -18 17 0 8 8 3 21 -13z m-276 -1040 c-9 -39 -95 -216 -101
-210 -3 3 6 28 20 56 23 44 47 101 69 164 10 28 20 20 12 -10z m-1314 -1686
c-10 -9 -11 -8 -5 6 3 10 9 15 12 12 3 -3 0 -11 -7 -18z" />
        <path d="M5973 4845 c0 -27 2 -38 4 -22 2 15 2 37 0 50 -2 12 -4 0 -4 -28z" />
        <path d="M6821 6094 c0 -11 3 -14 6 -6 3 7 2 16 -1 19 -3 4 -6 -2 -5 -13z" />
        <path d="M7040 5966 c0 -177 -14 -360 -41 -524 -11 -68 -19 -126 -16 -128 4
-5 32 150 47 266 12 91 26 530 17 530 -4 0 -7 -65 -7 -144z" />
        <path d="M3870 6020 c6 -11 13 -20 16 -20 2 0 0 9 -6 20 -6 11 -13 20 -16 20
-2 0 0 -9 6 -20z" />
        <path d="M2922 6010 c0 -14 2 -19 5 -12 2 6 2 18 0 25 -3 6 -5 1 -5 -13z" />
        <path d="M3283 5995 c0 -22 2 -30 4 -17 2 12 2 30 0 40 -3 9 -5 -1 -4 -23z" />
        <path d="M2873 5935 c0 -22 2 -30 4 -17 2 12 2 30 0 40 -3 9 -5 -1 -4 -23z" />
        <path d="M2931 5944 c0 -11 3 -14 6 -6 3 7 2 16 -1 19 -3 4 -6 -2 -5 -13z" />
        <path d="M3296 5880 c14 -167 87 -416 170 -585 93 -189 266 -392 389 -457 27
-14 12 -1 -59 52 -33 25 -89 79 -126 121 -189 214 -291 448 -360 825 -15 84
-19 94 -14 44z" />
        <path d="M2941 5904 c0 -11 3 -14 6 -6 3 7 2 16 -1 19 -3 4 -6 -2 -5 -13z" />
        <path d="M3940 5900 c6 -11 13 -20 16 -20 2 0 0 9 -6 20 -6 11 -13 20 -16 20
-2 0 0 -9 6 -20z" />
        <path d="M2882 5865 c0 -16 2 -22 5 -12 2 9 2 23 0 30 -3 6 -5 -1 -5 -18z" />
        <path d="M3945 5810 c10 -11 20 -20 23 -20 3 0 -3 9 -13 20 -10 11 -20 20 -23
20 -3 0 3 -9 13 -20z" />
        <path d="M6551 5814 c0 -11 3 -14 6 -6 3 7 2 16 -1 19 -3 4 -6 -2 -5 -13z" />
        <path d="M2891 5804 c0 -11 3 -14 6 -6 3 7 2 16 -1 19 -3 4 -6 -2 -5 -13z" />
        <path d="M6541 5764 c0 -11 3 -14 6 -6 3 7 2 16 -1 19 -3 4 -6 -2 -5 -13z" />
        <path d="M2901 5754 c0 -11 3 -14 6 -6 3 7 2 16 -1 19 -3 4 -6 -2 -5 -13z" />
        <path d="M6531 5724 c0 -11 3 -14 6 -6 3 7 2 16 -1 19 -3 4 -6 -2 -5 -13z" />
        <path d="M6981 5724 c0 -11 3 -14 6 -6 3 7 2 16 -1 19 -3 4 -6 -2 -5 -13z" />
        <path d="M6521 5684 c0 -11 3 -14 6 -6 3 7 2 16 -1 19 -3 4 -6 -2 -5 -13z" />
        <path d="M6961 5639 c-7 -33 -10 -63 -8 -65 2 -3 10 23 16 57 7 33 10 63 8 65
-2 3 -10 -23 -16 -57z" />
        <path d="M6512 5640 c0 -14 2 -19 5 -12 2 6 2 18 0 25 -3 6 -5 1 -5 -13z" />
        <path d="M6476 5462 c-47 -254 -57 -357 -60 -602 l-4 -235 8 225 c8 233 22
364 66 608 14 79 24 145 22 148 -3 2 -17 -63 -32 -144z" />
        <path d="M6942 5540 c0 -14 2 -19 5 -12 2 6 2 18 0 25 -3 6 -5 1 -5 -13z" />
        <path d="M6917 5418 c-36 -209 -42 -277 -42 -533 0 -399 22 -513 195 -1010 61
-176 117 -342 125 -370 7 -27 14 -41 14 -30 1 11 -45 153 -100 315 -146 426
-157 461 -184 605 -57 312 -59 653 -4 983 11 68 19 126 16 128 -2 2 -11 -38
-20 -88z" />
        <path d="M3520 5406 c0 -19 114 -224 168 -300 88 -125 236 -272 312 -310 8 -4
2 3 -15 16 -181 140 -287 269 -410 500 -30 57 -55 99 -55 94z" />
        <path d="M7156 5313 c-3 -21 -8 -132 -10 -248 l-4 -210 8 195 c4 107 10 219
15 248 4 28 5 52 2 52 -2 0 -8 -17 -11 -37z" />
        <path d="M3096 5305 c-4 -16 -23 -61 -43 -100 -52 -104 -124 -194 -223 -279
-25 -21 -35 -33 -22 -27 43 23 153 134 198 203 50 74 108 201 101 221 -2 7 -7
-2 -11 -18z" />
        <path d="M6943 5163 c-18 -75 -31 -138 -29 -140 5 -6 68 256 64 268 -2 5 -18
-52 -35 -128z" />
        <path d="M7511 5274 c0 -11 3 -14 6 -6 3 7 2 16 -1 19 -3 4 -6 -2 -5 -13z" />
        <path d="M3166 5136 c-69 -79 -172 -156 -291 -218 -49 -26 -86 -48 -82 -48 24
-1 173 83 245 137 51 40 82 58 82 48 0 -24 -49 -146 -82 -205 -17 -30 -60 -95
-96 -145 -96 -134 -154 -265 -151 -340 0 -11 6 0 13 25 32 112 105 216 261
370 85 83 116 108 111 90 -4 -14 -21 -83 -39 -155 l-32 -130 -85 -86 c-72 -72
-102 -94 -188 -137 -159 -80 -224 -97 -371 -97 -129 0 -123 -12 7 -14 184 -3
406 89 555 228 l80 76 -7 -35 c-3 -19 -9 -75 -13 -123 -6 -82 -8 -90 -36 -113
-17 -14 -71 -46 -121 -71 -261 -130 -385 -239 -473 -412 -41 -82 -43 -64 -3
31 62 145 169 272 335 399 103 78 119 95 32 34 -37 -26 -89 -53 -115 -60 -32
-9 -39 -14 -22 -14 15 -1 -31 -25 -120 -62 -294 -123 -377 -170 -494 -280
-152 -141 -161 -160 -521 -1054 -51 -126 -114 -281 -139 -343 -25 -63 -46
-122 -46 -131 0 -11 26 -36 64 -62 35 -24 109 -79 164 -122 l100 -79 6 -106
c3 -59 13 -204 21 -322 33 -467 46 -793 47 -1192 1 -230 4 -418 8 -418 14 0
20 111 20 386 0 401 -14 733 -60 1404 -5 80 -10 175 -10 212 l0 67 98 -56
c159 -90 210 -122 357 -223 77 -54 170 -115 207 -136 37 -21 68 -45 68 -52 0
-19 -76 -147 -119 -202 -61 -77 6 -12 87 85 42 50 78 90 81 90 3 0 62 -27 129
-60 l124 -60 -6 -55 c-3 -30 -15 -129 -26 -220 -25 -210 -25 -338 0 -503 39
-248 60 -422 67 -549 4 -86 10 -128 18 -128 23 0 3 240 -50 610 -43 302 -43
318 15 790 28 228 55 578 46 587 -6 6 -23 -144 -36 -307 -12 -160 -17 -190
-33 -190 -14 0 -185 83 -210 102 -18 13 -16 19 36 97 83 122 156 272 197 399
l36 112 13 -62 c7 -35 26 -104 42 -153 27 -86 28 -94 17 -155 -7 -39 -12 -171
-13 -325 0 -237 2 -269 23 -365 25 -111 72 -243 97 -276 11 -13 10 -6 -3 21
-31 63 -70 188 -89 283 -25 122 -25 559 0 677 20 93 20 98 7 90 -11 -7 -54
131 -75 239 -13 66 -13 88 0 173 8 54 16 136 19 183 4 55 -3 23 -18 -92 -40
-295 -82 -430 -201 -637 -55 -98 -197 -301 -210 -301 -2 0 20 46 50 103 71
136 118 252 159 394 40 139 84 369 91 468 l4 70 -9 -65 c-20 -141 -44 -260
-50 -253 -27 29 -51 331 -39 482 20 250 118 562 225 715 34 49 32 48 -30 -19
-244 -259 -360 -537 -355 -848 2 -80 2 -79 10 36 16 218 65 395 147 532 35 59
144 207 148 202 2 -1 -17 -52 -41 -112 -48 -120 -98 -305 -114 -428 -22 -159
-9 -393 29 -538 l17 -67 -28 -110 c-46 -178 -143 -422 -168 -422 -16 0 -129
71 -286 180 -142 97 -205 136 -485 296 -195 111 -289 171 -296 188 -3 7 18 69
47 137 28 68 130 320 226 559 95 239 196 480 223 535 121 244 275 376 596 515
76 33 140 57 143 55 2 -3 -14 -24 -35 -47 -91 -98 -179 -264 -178 -331 1 -27
-1 -35 -8 -26 -7 11 -8 9 -6 -6 1 -11 -1 -25 -5 -32 -4 -6 -9 -53 -12 -105
l-5 -93 14 80 c26 152 52 219 132 331 52 73 125 142 214 199 77 50 290 158
290 148 0 -5 -7 -33 -15 -63 -8 -30 -20 -113 -25 -185 -18 -229 -59 -331 -214
-540 -226 -304 -302 -462 -335 -700 -6 -42 -10 -102 -10 -133 1 -46 3 -39 10
38 25 281 97 451 320 751 191 258 222 330 239 559 9 126 36 256 64 307 l15 28
1 -50 c0 -90 29 -245 64 -350 63 -186 143 -321 262 -442 71 -72 72 -73 16 -11
-91 101 -146 184 -207 309 -62 130 -98 258 -116 409 -20 180 3 374 80 665 16
61 28 111 26 113 -1 2 -13 -13 -25 -32 -12 -20 -64 -74 -115 -122 -51 -47
-113 -110 -136 -139 -24 -30 -45 -52 -48 -50 -2 3 18 37 45 77 27 39 70 103
96 141 45 66 108 217 108 257 0 11 17 39 37 62 57 66 67 78 61 78 -3 0 -31
-29 -62 -64z m-305 -597 c-12 -19 -21 -30 -21 -26 0 14 31 69 36 64 3 -3 -4
-20 -15 -38z" />
        <path d="M6622 5160 c0 -14 2 -19 5 -12 2 6 2 18 0 25 -3 6 -5 1 -5 -13z" />
        <path d="M2925 5128 l-40 -43 43 40 c23 21 42 40 42 42 0 8 -9 0 -45 -39z" />
        <path d="M5906 5125 c-9 -14 -23 -37 -32 -52 l-16 -28 20 24 c24 29 55 81 49
81 -3 0 -12 -11 -21 -25z" />
        <path d="M6615 4890 c7 -390 75 -641 267 -987 49 -90 92 -163 94 -163 3 0 -16
37 -41 83 -139 249 -208 413 -255 602 -37 151 -50 253 -60 480 l-8 180 3 -195z" />
        <path d="M5827 4998 c-35 -61 -81 -155 -70 -143 13 13 104 185 99 185 -2 0
-15 -19 -29 -42z" />
        <path d="M6901 4994 c0 -11 3 -14 6 -6 3 7 2 16 -1 19 -3 4 -6 -2 -5 -13z" />
        <path d="M7350 5009 c0 -4 7 -22 15 -42 20 -48 120 -409 147 -532 18 -83 22
-133 22 -290 1 -222 -3 -242 -99 -535 -65 -198 -94 -327 -96 -429 -1 -46 -3
-51 -9 -26 -6 22 -8 24 -9 9 -2 -45 83 -343 95 -331 2 2 -5 30 -17 63 -49 140
-60 282 -34 429 7 44 44 171 81 282 l68 202 16 -52 c25 -81 84 -185 160 -283
241 -309 279 -370 329 -524 78 -243 80 -528 4 -748 -14 -40 -23 -75 -21 -78 8
-7 54 141 72 228 21 102 21 319 0 429 -41 217 -112 370 -254 549 -190 238
-239 314 -275 432 -17 51 -17 66 -5 162 8 58 15 106 17 106 14 0 334 -167 436
-228 158 -94 242 -162 301 -245 58 -81 82 -135 157 -356 85 -246 157 -425 260
-646 49 -104 89 -195 89 -202 0 -17 -107 -104 -270 -220 -154 -110 -340 -251
-482 -365 -126 -102 -268 -198 -349 -236 -65 -31 -159 -65 -165 -60 -6 7 -44
314 -44 358 0 38 6 55 31 86 37 47 83 123 86 144 1 8 7 16 13 18 5 2 8 7 5 12
-3 5 6 37 20 72 14 35 23 50 20 33 -4 -22 -3 -26 4 -15 12 17 8 20 79 -71 50
-64 136 -145 217 -204 l40 -30 -40 47 c-22 25 -46 44 -53 42 -7 -2 -10 1 -7 6
3 5 -14 33 -38 63 -50 62 -109 155 -138 221 -19 45 -20 48 -3 109 12 47 16
109 17 257 1 238 -10 299 -98 569 l-64 194 96 -94 c254 -250 347 -466 366
-844 3 -56 3 -55 5 15 4 172 -35 355 -110 508 -54 111 -104 177 -232 308 -59
60 -120 129 -136 153 -17 25 -30 40 -30 34 0 -6 30 -96 66 -199 111 -320 119
-360 119 -624 0 -178 -4 -239 -17 -290 -9 -37 -13 -66 -7 -68 5 -2 9 -9 9 -15
0 -19 98 -178 142 -230 22 -27 38 -50 35 -53 -8 -8 -158 158 -189 210 -16 28
-45 75 -64 105 -49 80 -95 196 -102 260 l-5 56 -22 -121 c-13 -67 -43 -193
-68 -280 -75 -259 -82 -303 -82 -524 1 -170 4 -207 24 -290 47 -191 130 -385
209 -488 18 -24 32 -46 30 -48 -2 -2 -50 43 -105 99 -285 287 -365 515 -318
902 l5 40 -12 -40 c-6 -22 -11 -107 -12 -190 -1 -165 6 -206 60 -347 28 -72
35 -108 44 -219 11 -144 0 -327 -25 -414 l-14 -50 7 55 c4 30 6 116 5 190 -1
166 -29 282 -102 439 -27 58 -52 117 -55 131 -2 14 -3 9 -2 -10 2 -19 14 -89
27 -155 23 -116 24 -135 23 -555 -1 -410 -1 -423 8 -220 16 354 14 591 -5 702
-9 54 -17 103 -17 110 1 39 68 -137 90 -235 32 -149 30 -379 -5 -532 -7 -33
-12 -61 -10 -63 6 -6 54 152 70 228 21 101 30 327 17 415 -6 38 -10 70 -8 72
1 2 28 -34 59 -80 31 -45 83 -109 116 -142 57 -55 61 -62 61 -105 -1 -86 -29
-246 -70 -390 -23 -80 -50 -189 -61 -243 -20 -105 -26 -257 -9 -257 6 0 10 26
10 58 0 87 25 220 75 402 47 171 75 320 75 403 l0 48 67 -55 c38 -30 70 -53
72 -51 2 2 -12 23 -31 47 -19 24 -48 63 -65 88 l-30 45 -6 195 c-4 107 -9 211
-13 230 l-6 35 50 12 c115 27 273 122 492 294 80 62 213 164 295 226 l150 112
3 -34 c5 -52 -35 -519 -63 -743 -60 -490 -99 -1312 -61 -1312 11 0 14 57 19
308 6 357 25 637 67 987 33 273 70 679 70 762 l0 52 109 81 c104 76 171 139
171 160 0 5 -40 94 -89 198 -105 221 -175 395 -266 662 -37 107 -86 231 -108
275 -87 168 -248 293 -603 470 l-200 100 -6 140 c-7 156 -34 301 -97 517 -22
73 -38 135 -36 137 5 5 87 -123 118 -184 28 -56 64 -167 77 -242 l9 -48 -4 60
c-8 111 -61 238 -161 385 -32 47 -70 110 -86 140 -15 30 -27 52 -28 49z m264
-2704 l37 -67 -22 -67 c-40 -120 -122 -282 -136 -268 -2 3 2 42 11 88 9 46 14
84 12 87 -7 6 -36 -103 -44 -167 -7 -50 -15 -69 -43 -99 l-34 -37 35 32 36 33
22 -198 c21 -183 41 -457 41 -562 0 -44 0 -44 -14 -20 -27 47 -85 205 -111
304 -44 167 -48 443 -9 630 9 43 34 138 56 210 22 72 47 170 57 217 l17 86 26
-68 c14 -37 43 -97 63 -134z" />
        <path d="M3432 4960 c0 -14 2 -19 5 -12 2 6 2 18 0 25 -3 6 -5 1 -5 -13z" />
        <path d="M3434 4830 c0 -58 1 -81 3 -52 2 28 2 76 0 105 -2 28 -3 5 -3 -53z" />
        <path d="M3675 4615 c4 -313 15 -425 61 -583 47 -161 141 -331 225 -407 31
-28 31 -27 -5 13 -62 72 -133 188 -165 271 -78 203 -101 346 -111 716 l-8 280
3 -290z" />
        <path d="M2745 4868 c-16 -11 -22 -17 -12 -14 10 3 22 6 27 6 4 0 10 7 14 15
7 18 8 18 -29 -7z" />
        <path d="M5732 4815 c-17 -37 -14 -45 4 -12 9 16 14 31 11 33 -2 2 -9 -7 -15
-21z" />
        <path d="M7153 4805 c0 -22 2 -30 4 -17 2 12 2 30 0 40 -3 9 -5 -1 -4 -23z" />
        <path d="M4190 4766 c0 -2 8 -10 18 -17 15 -13 16 -12 3 4 -13 16 -21 21 -21
13z" />
        <path d="M3446 4588 c4 -98 23 -252 31 -245 2 2 -3 62 -12 133 -8 71 -17 147
-19 169 -2 22 -2 -4 0 -57z" />
        <path d="M4620 4620 c8 -5 20 -10 25 -10 6 0 3 5 -5 10 -8 5 -19 10 -25 10 -5
0 -3 -5 5 -10z" />
        <path d="M4668 4603 c7 -3 16 -2 19 1 4 3 -2 6 -13 5 -11 0 -14 -3 -6 -6z" />
        <path d="M6422 4560 c0 -19 2 -27 5 -17 2 9 2 25 0 35 -3 9 -5 1 -5 -18z" />
        <path d="M3273 4375 c0 -22 2 -30 4 -17 2 12 2 30 0 40 -3 9 -5 -1 -4 -23z" />
        <path d="M3961 4374 c0 -11 3 -14 6 -6 3 7 2 16 -1 19 -3 4 -6 -2 -5 -13z" />
        <path d="M4192 4370 c0 -14 2 -19 5 -12 2 6 2 18 0 25 -3 6 -5 1 -5 -13z" />
        <path d="M7632 4340 c0 -14 2 -19 5 -12 2 6 2 18 0 25 -3 6 -5 1 -5 -13z" />
        <path d="M3971 4334 c0 -11 3 -14 6 -6 3 7 2 16 -1 19 -3 4 -6 -2 -5 -13z" />
        <path d="M6140 4348 c0 -4 -20 -84 -45 -180 -118 -456 -159 -783 -136 -1076 7
-86 16 -175 21 -197 9 -39 9 -38 5 10 -31 308 -30 418 5 690 24 183 56 344
115 574 25 96 43 176 40 179 -3 3 -5 3 -5 0z" />
        <path d="M3481 4315 c-1 -34 47 -201 83 -288 87 -211 247 -405 405 -490 70
-39 64 -28 -10 18 -121 75 -252 218 -333 366 -47 85 -83 182 -117 309 -15 58
-28 96 -28 85z" />
        <path d="M4202 4310 c0 -14 2 -19 5 -12 2 6 2 18 0 25 -3 6 -5 1 -5 -13z" />
        <path d="M3982 4290 c0 -14 2 -19 5 -12 2 6 2 18 0 25 -3 6 -5 1 -5 -13z" />
        <path d="M2230 4296 c0 -2 15 -15 33 -29 22 -16 34 -21 34 -12 0 7 -15 20 -34
29 -18 9 -33 14 -33 12z" />
        <path d="M4212 4260 c0 -14 2 -19 5 -12 2 6 2 18 0 25 -3 6 -5 1 -5 -13z" />
        <path d="M7383 4210 c0 -30 2 -43 4 -27 2 15 2 39 0 55 -2 15 -4 2 -4 -28z" />
        <path d="M2310 4235 c0 -3 30 -20 68 -38 61 -28 77 -32 172 -33 l105 -2 -100
8 c-97 7 -148 20 -214 54 -17 9 -31 14 -31 11z" />
        <path d="M3273 4130 c0 -30 2 -43 4 -27 2 15 2 39 0 55 -2 15 -4 2 -4 -28z" />
        <path d="M7373 4065 c0 -33 2 -45 4 -27 2 18 2 45 0 60 -2 15 -4 0 -4 -33z" />
        <path d="M3282 4025 c0 -16 4 -43 8 -60 11 -42 11 -1 1 50 -7 34 -9 35 -9 10z" />
        <path d="M7336 3769 c-15 -128 -30 -292 -31 -364 l-4 -130 9 135 c5 74 20 228
35 342 15 114 25 217 23 230 -2 12 -16 -84 -32 -213z" />
        <path d="M6483 3935 c0 -27 2 -38 4 -22 2 15 2 37 0 50 -2 12 -4 0 -4 -28z" />
        <path d="M3301 3920 c-1 -21 38 -160 50 -179 7 -12 8 -9 3 9 -4 14 -18 61 -30
105 -12 44 -23 73 -23 65z" />
        <path d="M3482 3860 c0 -14 2 -19 5 -12 2 6 2 18 0 25 -3 6 -5 1 -5 -13z" />
        <path d="M4111 3824 c0 -11 3 -14 6 -6 3 7 2 16 -1 19 -3 4 -6 -2 -5 -13z" />
        <path d="M3492 3810 c0 -14 2 -19 5 -12 2 6 2 18 0 25 -3 6 -5 1 -5 -13z" />
        <path d="M6842 3805 c0 -16 2 -22 5 -12 2 9 2 23 0 30 -3 6 -5 -1 -5 -18z" />
        <path d="M6494 3710 c0 -58 1 -81 3 -52 2 28 2 76 0 105 -2 28 -3 5 -3 -53z" />
        <path d="M4121 3784 c0 -11 3 -14 6 -6 3 7 2 16 -1 19 -3 4 -6 -2 -5 -13z" />
        <path d="M3501 3770 c0 -8 6 -37 13 -65 8 -27 15 -43 15 -35 0 8 -6 38 -13 65
-8 28 -15 43 -15 35z" />
        <path d="M6832 3725 c0 -16 2 -22 5 -12 2 9 2 23 0 30 -3 6 -5 -1 -5 -18z" />
        <path d="M4141 3714 c0 -11 3 -14 6 -6 3 7 2 16 -1 19 -3 4 -6 -2 -5 -13z" />
        <path d="M7026 3635 c97 -204 132 -504 89 -775 -5 -35 -5 -35 5 -5 16 49 31
242 25 319 -16 197 -49 333 -110 464 -24 50 -46 92 -49 92 -2 0 15 -43 40 -95z" />
        <path d="M3360 3715 c0 -5 5 -17 10 -25 5 -8 10 -10 10 -5 0 6 -5 17 -10 25
-5 8 -10 11 -10 5z" />
        <path d="M3702 3670 c0 -19 2 -27 5 -17 2 9 2 25 0 35 -3 9 -5 1 -5 -18z" />
        <path d="M6822 3655 c0 -16 2 -22 5 -12 2 9 2 23 0 30 -3 6 -5 -1 -5 -18z" />
        <path d="M3380 3666 c0 -11 40 -86 45 -86 3 0 -4 19 -16 43 -23 45 -29 54 -29
43z" />
        <path d="M6181 3654 c0 -11 3 -14 6 -6 3 7 2 16 -1 19 -3 4 -6 -2 -5 -13z" />
        <path d="M3531 3634 c0 -11 3 -14 6 -6 3 7 2 16 -1 19 -3 4 -6 -2 -5 -13z" />
        <path d="M3711 3612 c-2 -40 29 -174 64 -278 63 -190 183 -394 291 -494 27
-25 22 -17 -15 25 -156 178 -262 399 -317 660 -12 61 -23 100 -23 87z" />
        <path d="M6171 3614 c0 -11 3 -14 6 -6 3 7 2 16 -1 19 -3 4 -6 -2 -5 -13z" />
        <path d="M6810 3604 c0 -42 -72 -336 -111 -454 -111 -337 -291 -657 -509 -908
-96 -109 -130 -156 -65 -87 266 282 464 617 583 985 62 192 123 462 108 477
-3 4 -6 -2 -6 -13z" />
        <path d="M3542 3600 c0 -8 6 -31 13 -50 7 -19 13 -28 13 -20 0 8 -6 31 -13 50
-7 19 -13 28 -13 20z" />
        <path d="M6478 3477 c-24 -412 -127 -821 -290 -1144 -36 -73 -65 -133 -63
-133 5 0 73 118 80 139 3 12 10 19 15 16 25 -16 265 429 294 545 8 32 1 19
-58 -119 -48 -111 -183 -359 -217 -401 -25 -29 -26 -33 45 140 66 160 116 338
156 550 30 164 54 401 48 485 -2 30 -6 -2 -10 -78z" />
        <path d="M6162 3570 c0 -14 2 -19 5 -12 2 6 2 18 0 25 -3 6 -5 1 -5 -13z" />
        <path d="M6137 3438 c-10 -59 -17 -119 -16 -135 0 -15 9 28 20 97 10 69 17
130 16 135 -2 6 -11 -38 -20 -97z" />
        <path d="M3570 3501 c0 -25 87 -233 137 -324 56 -104 159 -235 223 -286 32
-25 22 -12 -36 49 -120 125 -207 272 -291 490 -17 47 -32 79 -33 71z" />
        <path d="M5510 3485 c-25 -7 -36 -13 -25 -13 11 0 38 5 60 13 52 17 24 17 -35
0z" />
        <path d="M4848 3483 c7 -3 16 -2 19 1 4 3 -2 6 -13 5 -11 0 -14 -3 -6 -6z" />
        <path d="M4888 3473 c7 -3 16 -2 19 1 4 3 -2 6 -13 5 -11 0 -14 -3 -6 -6z" />
        <path d="M4928 3463 c7 -3 16 -2 19 1 4 3 -2 6 -13 5 -11 0 -14 -3 -6 -6z" />
        <path d="M5428 3463 c6 -2 18 -2 25 0 6 3 1 5 -13 5 -14 0 -19 -2 -12 -5z" />
        <path d="M4978 3453 c6 -2 18 -2 25 0 6 3 1 5 -13 5 -14 0 -19 -2 -12 -5z" />
        <path d="M5368 3453 c6 -2 18 -2 25 0 6 3 1 5 -13 5 -14 0 -19 -2 -12 -5z" />
        <path d="M3211 3434 c0 -11 3 -14 6 -6 3 7 2 16 -1 19 -3 4 -6 -2 -5 -13z" />
        <path d="M5038 3443 c6 -2 18 -2 25 0 6 3 1 5 -13 5 -14 0 -19 -2 -12 -5z" />
        <path d="M5293 3443 c9 -2 23 -2 30 0 6 3 -1 5 -18 5 -16 0 -22 -2 -12 -5z" />
        <path d="M7212 3425 c0 -16 2 -22 5 -12 2 9 2 23 0 30 -3 6 -5 -1 -5 -18z" />
        <path d="M7223 3350 c0 -25 2 -35 4 -22 2 12 2 32 0 45 -2 12 -4 2 -4 -23z" />
        <path d="M3195 3253 c-13 -216 10 -506 55 -718 22 -100 131 -443 151 -474 9
-13 10 -13 4 4 -13 39 -47 191 -61 265 l-13 75 4 -70 4 -70 -20 60 c-83 248
-128 598 -115 898 4 86 5 157 3 157 -3 0 -8 -57 -12 -127z m152 -1005 c-3 -8
-6 -5 -6 6 -1 11 2 17 5 13 3 -3 4 -12 1 -19z" />
        <path d="M6113 3210 c0 -36 2 -50 4 -32 2 17 2 47 0 65 -2 17 -4 3 -4 -33z" />
        <path d="M7313 3230 c0 -25 2 -35 4 -22 2 12 2 32 0 45 -2 12 -4 2 -4 -23z" />
        <path d="M4437 3050 c9 -339 37 -551 97 -740 l23 -75 8 59 c4 32 5 140 2 240
-6 195 -25 305 -87 491 -16 50 -34 108 -38 130 -6 27 -8 -8 -5 -105z m53 -99
c45 -152 61 -261 67 -448 4 -122 2 -183 -5 -183 -23 0 -80 294 -87 455 -3 61
-7 146 -10 189 -5 94 4 90 35 -13z" />
        <path d="M6591 3174 c0 -11 3 -14 6 -6 3 7 2 16 -1 19 -3 4 -6 -2 -5 -13z" />
        <path d="M6581 3134 c0 -11 3 -14 6 -6 3 7 2 16 -1 19 -3 4 -6 -2 -5 -13z" />
        <path d="M6101 3034 c1 -60 5 -138 9 -174 4 -37 5 7 2 105 -5 191 -13 236 -11
69z" />
        <path d="M3006 3033 c-14 -43 -26 -83 -25 -88 0 -6 14 28 30 74 16 47 27 86
25 88 -2 3 -16 -31 -30 -74z" />
        <path d="M6566 3084 c-4 -14 -5 -28 -3 -31 3 -2 8 8 11 23 4 14 5 28 3 31 -3
2 -8 -8 -11 -23z" />
        <path d="M3452 3040 c0 -19 2 -27 5 -17 2 9 2 25 0 35 -3 9 -5 1 -5 -18z" />
        <path d="M4152 3050 c0 -14 2 -19 5 -12 2 6 2 18 0 25 -3 6 -5 1 -5 -13z" />
        <path d="M7596 2995 c2 -22 8 -119 14 -215 10 -180 26 -295 57 -403 15 -53 18
-59 24 -37 4 14 7 43 7 65 l-1 40 -6 -40 -7 -40 -12 40 c-20 70 -41 226 -47
350 -3 66 -8 138 -11 160 -9 70 13 26 41 -80 16 -61 31 -157 38 -245 6 -80 13
-134 15 -121 7 44 -18 275 -38 358 -11 45 -33 110 -49 145 -28 62 -29 62 -25
23z" />
        <path d="M2796 2974 c-9 -26 -16 -52 -15 -58 0 -6 9 13 20 43 10 30 17 56 15
58 -2 2 -11 -17 -20 -43z" />
        <path d="M3462 2975 c0 -31 25 -142 26 -115 1 8 -5 44 -13 80 -7 36 -13 52
-13 35z" />
        <path d="M4163 2935 c0 -27 2 -38 4 -22 2 15 2 37 0 50 -2 12 -4 0 -4 -28z" />
        <path d="M2947 2823 c-44 -187 -52 -251 -50 -418 1 -136 5 -175 26 -256 22
-85 79 -219 92 -219 3 0 -8 27 -25 60 -100 199 -112 494 -34 829 13 57 22 106
20 108 -2 2 -15 -44 -29 -104z" />
        <path d="M2771 2884 c0 -11 3 -14 6 -6 3 7 2 16 -1 19 -3 4 -6 -2 -5 -13z" />
        <path d="M2761 2844 c0 -11 3 -14 6 -6 3 7 2 16 -1 19 -3 4 -6 -2 -5 -13z" />
        <path d="M3326 2844 c-3 -8 -5 -34 -5 -57 l2 -42 6 35 6 35 24 -65 c100 -274
336 -559 566 -684 28 -15 42 -21 31 -14 -149 104 -201 146 -284 233 -150 155
-253 318 -311 490 -18 54 -31 80 -35 69z" />
        <path d="M5992 2835 c0 -11 4 -31 8 -45 6 -20 8 -21 8 -5 0 11 -4 31 -8 45 -6
20 -8 21 -8 5z" />
        <path d="M3491 2824 c0 -11 3 -14 6 -6 3 7 2 16 -1 19 -3 4 -6 -2 -5 -13z" />
        <path d="M2750 2814 c0 -5 -7 -54 -15 -109 -8 -55 -14 -116 -14 -135 1 -19 9
28 19 105 11 77 17 141 14 144 -2 2 -4 0 -4 -5z" />
        <path d="M7101 2804 c0 -11 3 -14 6 -6 3 7 2 16 -1 19 -3 4 -6 -2 -5 -13z" />
        <path d="M3652 2790 c0 -14 2 -19 5 -12 2 6 2 18 0 25 -3 6 -5 1 -5 -13z" />
        <path d="M4125 2790 c10 -11 20 -20 23 -20 3 0 -3 9 -13 20 -10 11 -20 20 -23
20 -3 0 3 -9 13 -20z" />
        <path d="M3500 2794 c0 -19 46 -147 83 -227 70 -151 204 -320 332 -418 28 -21
73 -57 100 -81 38 -31 33 -25 -18 26 -139 137 -270 385 -318 600 -7 33 -15 54
-17 48 -6 -19 46 -196 84 -284 30 -71 97 -188 151 -265 35 -50 -10 -18 -85 62
-132 139 -206 262 -278 459 -18 50 -33 86 -34 80z" />
        <path d="M4170 2780 c-1 -8 -1 -63 0 -121 2 -188 -25 -388 -75 -560 -21 -72
-21 -80 -6 -91 13 -10 14 -9 5 0 -8 9 -5 34 12 91 49 170 74 350 74 536 0 57
4 105 8 107 4 2 2 14 -5 28 -7 15 -13 19 -13 10z" />
        <path d="M6122 2760 c0 -19 2 -27 5 -17 2 9 2 25 0 35 -3 9 -5 1 -5 -18z" />
        <path d="M4382 2760 c0 -14 2 -19 5 -12 2 6 2 18 0 25 -3 6 -5 1 -5 -13z" />
        <path d="M6011 2744 c0 -11 3 -14 6 -6 3 7 2 16 -1 19 -3 4 -6 -2 -5 -13z" />
        <path d="M3314 2625 c0 -55 1 -76 3 -47 2 29 2 74 0 100 -2 26 -3 2 -3 -53z" />
        <path d="M6021 2704 c0 -11 3 -14 6 -6 3 7 2 16 -1 19 -3 4 -6 -2 -5 -13z" />
        <path d="M6132 2690 c0 -14 2 -19 5 -12 2 6 2 18 0 25 -3 6 -5 1 -5 -13z" />
        <path d="M4393 2660 c0 -25 2 -35 4 -22 2 12 2 32 0 45 -2 12 -4 2 -4 -23z" />
        <path d="M6142 2640 c0 -14 2 -19 5 -12 2 6 2 18 0 25 -3 6 -5 1 -5 -13z" />
        <path d="M6887 2423 c-11 -408 -61 -674 -183 -981 -90 -226 -201 -397 -378
-582 -56 -58 -74 -80 -41 -50 331 306 516 698 590 1255 15 113 34 585 23 585
-3 0 -8 -102 -11 -227z" />
        <path d="M2331 2635 c0 -5 6 -21 14 -35 8 -14 14 -20 14 -15 0 6 -6 21 -14 35
-8 14 -14 21 -14 15z" />
        <path d="M6151 2594 c0 -11 3 -14 6 -6 3 7 2 16 -1 19 -3 4 -6 -2 -5 -13z" />
        <path d="M2361 2565 c0 -5 6 -21 14 -35 8 -14 14 -20 14 -15 0 6 -6 21 -14 35
-8 14 -14 21 -14 15z" />
        <path d="M6161 2554 c0 -11 3 -14 6 -6 3 7 2 16 -1 19 -3 4 -6 -2 -5 -13z" />
        <path d="M6640 2492 c-45 -111 -142 -293 -200 -374 -61 -85 -322 -390 -328
-383 -2 2 37 61 86 132 76 109 158 240 140 223 -3 -3 -67 -97 -143 -210 -154
-228 -230 -375 -272 -523 -15 -54 -29 -94 -31 -88 -3 9 32 212 53 311 5 24 5
24 -4 3 -6 -13 -22 -82 -36 -155 -24 -123 -26 -149 -23 -352 2 -184 6 -229 22
-278 10 -32 20 -57 22 -55 2 2 -3 35 -11 73 -25 117 -30 286 -11 394 22 123
76 286 129 383 46 86 287 362 298 343 4 -6 21 -78 39 -161 91 -428 19 -784
-213 -1060 -32 -38 -39 -49 -18 -30 42 38 141 168 141 184 0 7 4 10 9 7 5 -3
15 2 22 11 12 14 12 16 0 8 -10 -6 -13 -4 -8 6 140 317 156 581 57 984 l-21
84 47 58 c63 77 143 201 188 290 41 82 99 224 93 229 -2 2 -14 -22 -27 -54z" />
        <path d="M2442 2500 c0 -19 2 -27 5 -17 2 9 2 25 0 35 -3 9 -5 1 -5 -18z" />
        <path d="M6171 2514 c0 -11 3 -14 6 -6 3 7 2 16 -1 19 -3 4 -6 -2 -5 -13z" />
        <path d="M3323 2465 c0 -33 2 -45 4 -27 2 18 2 45 0 60 -2 15 -4 0 -4 -33z" />
        <path d="M7756 2475 c-9 -26 -7 -32 5 -12 6 10 9 21 6 23 -2 3 -7 -2 -11 -11z" />
        <path d="M2400 2477 c0 -11 139 -287 145 -287 3 0 -4 19 -16 43 -28 53 -49
130 -50 182 0 32 -2 36 -9 20 -8 -18 -9 -18 -10 5 -1 14 -4 20 -6 13 -3 -6 -1
-28 5 -47 5 -20 8 -36 5 -36 -2 0 -17 26 -33 58 -17 31 -30 54 -31 49z" />
        <path d="M8033 2335 c0 -27 2 -38 4 -22 2 15 2 37 0 50 -2 12 -4 0 -4 -28z" />
        <path d="M8449 2363 c-13 -16 -12 -17 4 -4 16 13 21 21 13 21 -2 0 -10 -8 -17
-17z" />
        <path d="M8409 2333 c-13 -16 -12 -17 4 -4 16 13 21 21 13 21 -2 0 -10 -8 -17
-17z" />
        <path d="M8265 2229 c-111 -83 -185 -146 -105 -88 86 62 230 172 230 175 0 7
-4 4 -125 -87z" />
        <path d="M8022 2260 c0 -14 2 -19 5 -12 2 6 2 18 0 25 -3 6 -5 1 -5 -13z" />
        <path d="M2004 2212 c3 -6 54 -43 113 -82 60 -40 101 -66 93 -58 -22 21 -213
151 -206 140z" />
        <path d="M2560 2160 c6 -11 13 -20 16 -20 2 0 0 9 -6 20 -6 11 -13 20 -16 20
-2 0 0 -9 6 -20z" />
        <path d="M8099 2103 c-13 -16 -12 -17 4 -4 16 13 21 21 13 21 -2 0 -10 -8 -17
-17z" />
        <path d="M8015 2044 c-78 -58 -95 -78 -25 -29 53 37 100 76 90 74 -3 0 -32
-20 -65 -45z" />
        <path d="M6099 1999 c-16 -34 -29 -63 -27 -65 2 -2 18 26 36 61 17 36 30 65
27 65 -3 0 -19 -27 -36 -61z" />
        <path d="M3980 2035 c0 -7 61 -37 66 -33 2 3 -12 12 -31 21 -19 9 -35 15 -35
12z" />
        <path d="M6022 2005 c-17 -37 -14 -45 4 -12 9 16 14 31 11 33 -2 2 -9 -7 -15
-21z" />
        <path d="M3891 1944 c0 -11 3 -14 6 -6 3 7 2 16 -1 19 -3 4 -6 -2 -5 -13z" />
        <path d="M6721 1944 c0 -11 3 -14 6 -6 3 7 2 16 -1 19 -3 4 -6 -2 -5 -13z" />
        <path d="M7201 1924 c0 -11 3 -14 6 -6 3 7 2 16 -1 19 -3 4 -6 -2 -5 -13z" />
        <path d="M6712 1890 c0 -14 2 -19 5 -12 2 6 2 18 0 25 -3 6 -5 1 -5 -13z" />
        <path d="M6030 1848 c-28 -64 -80 -218 -79 -232 0 -6 19 43 43 109 24 66 48
131 55 144 7 12 11 25 8 27 -2 3 -15 -19 -27 -48z" />
        <path d="M3856 1837 c-10 -29 -35 -89 -56 -134 -21 -46 -36 -83 -34 -83 7 0
88 175 104 223 19 58 7 53 -14 -6z" />
        <path d="M6702 1840 c0 -14 2 -19 5 -12 2 6 2 18 0 25 -3 6 -5 1 -5 -13z" />
        <path d="M6604 1675 c0 -77 2 -107 3 -67 2 40 2 103 0 140 -2 37 -3 4 -3 -73z" />
        <path d="M6663 1687 c-42 -159 -47 -180 -28 -132 20 51 67 234 63 246 -2 5
-18 -46 -35 -114z" />
        <path d="M4117 1715 c-9 -19 -15 -35 -12 -35 7 0 37 61 33 66 -3 2 -12 -12
-21 -31z" />
        <path d="M3390 1463 c0 -121 -2 -262 -5 -314 -4 -85 -3 -88 5 -34 10 65 15
553 6 563 -3 3 -6 -94 -6 -215z" />
        <path d="M3692 1575 c0 -16 2 -22 5 -12 2 9 2 23 0 30 -3 6 -5 -1 -5 -18z" />
        <path d="M4771 1564 c0 -11 3 -14 6 -6 3 7 2 16 -1 19 -3 4 -6 -2 -5 -13z" />
        <path d="M6603 1484 c-7 -16 -15 -40 -18 -54 -25 -91 -135 -320 -212 -440 -29
-47 -42 -71 -28 -55 33 39 91 138 145 244 52 104 133 308 128 323 -3 7 -9 -2
-15 -18z" />
        <path d="M3292 1430 c0 -14 2 -19 5 -12 2 6 2 18 0 25 -3 6 -5 1 -5 -13z" />
        <path d="M3283 1295 c0 -44 2 -61 4 -37 2 23 2 59 0 80 -2 20 -4 1 -4 -43z" />
        <path d="M6763 1170 c0 -41 2 -58 4 -37 2 20 2 54 0 75 -2 20 -4 3 -4 -38z" />
        <path d="M3163 1150 c0 -36 2 -50 4 -32 2 17 2 47 0 65 -2 17 -4 3 -4 -33z" />
        <path d="M6646 1193 c-6 -14 -5 -15 5 -6 7 7 10 15 7 18 -3 3 -9 -2 -12 -12z" />
        <path d="M3283 1135 c0 -38 2 -53 4 -32 2 20 2 52 0 70 -2 17 -4 1 -4 -38z" />
        <path d="M3501 1144 c0 -11 3 -14 6 -6 3 7 2 16 -1 19 -3 4 -6 -2 -5 -13z" />
        <path d="M6580 1078 c-119 -204 -275 -358 -446 -441 -38 -19 -80 -37 -94 -40
-14 -3 -34 -13 -45 -22 -27 -21 91 22 170 63 140 70 284 208 392 374 l69 106
28 -102 c15 -55 31 -127 36 -160 13 -81 13 -334 1 -375 -6 -19 -9 -36 -7 -38
5 -5 44 105 51 142 5 29 5 29 -8 -3 -11 -31 -13 -20 -14 105 0 79 -7 170 -16
214 -15 75 -65 249 -71 249 -2 0 -23 -33 -46 -72z" />
        <path d="M3457 1008 c-20 -62 -35 -114 -33 -116 2 -2 21 47 41 108 20 61 35
113 33 115 -2 2 -20 -46 -41 -107z" />
        <path d="M6771 1065 c-1 -41 33 -198 58 -271 28 -78 27 -93 -13 -179 -39 -84
-79 -145 -142 -216 -24 -27 -48 -59 -54 -71 -13 -27 61 52 122 130 23 29 61
92 84 140 l43 86 19 -44 c23 -53 110 -205 178 -312 27 -41 54 -84 61 -94 6
-11 2 7 -10 38 -12 31 -26 54 -31 51 -5 -4 -7 1 -3 11 4 9 3 14 -2 11 -11 -6
-90 123 -160 263 -64 129 -105 247 -130 382 -10 58 -19 92 -20 75z" />
        <path d="M3172 1040 c0 -19 2 -27 5 -17 2 9 2 25 0 35 -3 9 -5 1 -5 -18z" />
        <path d="M3292 1030 c0 -19 2 -27 5 -17 2 9 2 25 0 35 -3 9 -5 1 -5 -18z" />
        <path d="M3182 975 c0 -16 2 -22 5 -12 2 9 2 23 0 30 -3 6 -5 -1 -5 -18z" />
        <path d="M6932 970 c0 -14 2 -19 5 -12 2 6 2 18 0 25 -3 6 -5 1 -5 -13z" />
        <path d="M3301 964 c0 -11 3 -14 6 -6 3 7 2 16 -1 19 -3 4 -6 -2 -5 -13z" />
        <path d="M5861 934 c0 -11 3 -14 6 -6 3 7 2 16 -1 19 -3 4 -6 -2 -5 -13z" />
        <path d="M3311 914 c0 -11 3 -14 6 -6 3 7 2 16 -1 19 -3 4 -6 -2 -5 -13z" />
        <path d="M6942 885 c0 -16 2 -22 5 -12 2 9 2 23 0 30 -3 6 -5 -1 -5 -18z" />
        <path d="M3369 773 c-52 -127 -56 -139 -30 -93 24 42 84 191 78 196 -2 2 -23
-45 -48 -103z" />
        <path d="M6952 820 c0 -14 4 -38 8 -55 7 -27 8 -27 8 -5 0 14 -4 39 -8 55 -7
27 -8 27 -8 5z" />
        <path d="M6972 710 c0 -14 2 -19 5 -12 2 6 2 18 0 25 -3 6 -5 1 -5 -13z" />
        <path d="M6752 695 c0 -16 2 -22 5 -12 2 9 2 23 0 30 -3 6 -5 -1 -5 -18z" />
        <path d="M6981 665 c0 -21 36 -137 38 -120 0 6 -8 39 -19 75 -10 36 -19 56
-19 45z" />
        <path d="M6742 640 c0 -14 2 -19 5 -12 2 6 2 18 0 25 -3 6 -5 1 -5 -13z" />
        <path d="M7021 524 c-1 -15 30 -106 35 -101 2 2 -5 28 -15 58 -11 30 -20 49
-20 43z" />
        <path d="M3467 412 c10 -19 33 -50 51 -70 l33 -37 -33 45 c-18 25 -41 57 -51
70 -17 24 -17 24 0 -8z" />
        <path d="M7153 265 c0 -22 2 -30 4 -17 2 12 2 30 0 40 -3 9 -5 -1 -4 -23z" />
        <path d="M3640 230 c6 -11 13 -20 16 -20 2 0 0 9 -6 20 -6 11 -13 20 -16 20
-2 0 0 -9 6 -20z" />
        <path d="M7158 203 c-3 -10 1 -31 8 -48 13 -29 13 -29 7 15 -7 53 -9 57 -15
33z" />
        <path d="M3665 180 c10 -11 20 -20 22 -20 2 0 -1 9 -7 20 -6 11 -16 20 -22 20
-6 0 -3 -9 7 -20z" />
    </g>
</svg>