<?xml version="1.0" standalone="no"?>
<!DOCTYPE svg PUBLIC "-//W3C//DTD SVG 20010904//EN" "http://www.w3.org/TR/2001/REC-SVG-20010904/DTD/svg10.dtd">
<svg version="1.0" xmlns="http://www.w3.org/2000/svg" width="737.000000pt" height="966.000000pt"
        viewBox="0 0 737.000000 966.000000" preserveAspectRatio="xMidYMid meet">

        <g transform="translate(0.000000,966.000000) scale(0.100000,-0.100000)" fill="#000000" stroke="none">
                <path d="M3125 9649 c-217 -14 -408 -65 -541 -145 -111 -66 -169 -118 -459
-409 -252 -252 -499 -474 -513 -460 -11 11 178 336 260 448 103 139 241 233
401 273 70 17 88 34 37 34 -42 0 -141 -34 -225 -78 -84 -43 -208 -163 -277
-267 -61 -93 -178 -304 -213 -385 -27 -64 -31 -68 -199 -197 -207 -158 -333
-243 -420 -284 -36 -17 -66 -35 -66 -40 0 -13 14 -11 68 10 109 43 276 157
652 444 174 133 302 249 574 522 293 294 370 355 518 414 282 112 835 118 991
11 18 -12 48 -44 67 -71 32 -44 60 -63 60 -40 0 5 -20 36 -45 70 -73 99 -165
135 -390 151 -77 5 -144 9 -150 8 -5 0 -64 -4 -130 -9z" />
                <path d="M4335 9583 c-11 -2 -65 -15 -120 -28 -55 -14 -129 -29 -164 -36 -88
-15 -191 -69 -191 -101 0 -15 27 -8 44 11 28 30 76 49 157 62 41 6 119 22 174
35 123 30 259 31 355 5 101 -28 291 -105 376 -152 195 -107 346 -274 454 -503
26 -55 75 -158 108 -228 100 -210 137 -258 364 -473 78 -74 109 -133 178 -335
60 -177 82 -225 109 -240 30 -16 44 -12 25 7 -30 30 -82 154 -108 256 -14 54
-43 137 -63 185 -32 72 -49 97 -102 147 -249 233 -281 278 -410 567 -94 211
-162 327 -245 416 -113 124 -172 170 -307 245 -85 47 -314 134 -402 152 -64
14 -187 18 -232 8z" />
                <path d="M3585 9489 c-16 -6 -53 -8 -81 -5 -67 8 -246 -10 -359 -35 -160 -35
-316 -128 -456 -275 -171 -179 -340 -546 -338 -734 0 -54 1 -54 20 39 36 171
132 393 242 558 90 136 291 303 425 353 86 33 224 59 347 66 61 4 108 4 105 1
-3 -3 -59 -29 -125 -57 -281 -122 -396 -192 -530 -322 -165 -159 -404 -518
-345 -518 6 0 10 6 10 13 0 19 149 245 225 342 87 112 195 212 298 280 48 31
181 103 295 158 218 107 248 115 340 95 46 -11 40 9 -8 23 -21 7 -37 16 -34
20 3 5 4 9 2 8 -2 0 -16 -5 -33 -10z" />
                <path d="M4125 9439 c-22 -5 -48 -8 -57 -5 -10 2 -18 1 -18 -3 0 -10 40 -46
68 -60 12 -7 78 -58 145 -114 68 -56 172 -140 231 -186 208 -164 318 -317 431
-603 22 -54 41 -95 43 -93 11 11 -37 153 -88 260 -97 202 -195 324 -377 466
-58 46 -145 116 -193 155 -47 39 -111 89 -140 110 l-54 38 35 8 c52 12 169 -1
333 -38 146 -33 152 -35 302 -121 196 -113 295 -192 412 -328 204 -238 251
-340 306 -665 45 -262 95 -388 174 -433 47 -28 52 -13 10 31 -70 73 -94 144
-143 422 -58 332 -102 426 -317 676 -47 56 -124 131 -170 168 -85 69 -365 235
-428 254 -162 51 -423 82 -505 61z" />
                <path d="M3565 9326 c-16 -13 -33 -22 -37 -20 -16 10 -150 -69 -201 -118 -47
-46 -107 -127 -107 -143 0 -3 44 38 98 92 55 56 120 110 150 126 28 16 52 26
52 23 0 -3 -15 -29 -34 -58 -44 -70 -119 -219 -156 -314 -49 -123 -69 -209
-94 -404 -23 -180 -26 -190 -89 -351 -36 -91 -77 -190 -92 -220 -91 -179 -306
-424 -482 -548 -44 -30 -41 -17 11 53 55 74 206 359 240 454 35 97 65 249 70
358 6 100 3 89 -35 -121 -29 -163 -61 -254 -148 -420 l-78 -150 -84 -17 c-46
-9 -90 -17 -97 -18 -7 0 7 28 31 63 105 147 256 414 312 552 70 171 98 227
108 213 6 -9 7 -7 3 6 -15 45 240 437 342 527 l47 41 -44 -23 c-50 -27 -120
-103 -190 -204 -91 -132 -209 -345 -261 -472 -29 -71 -71 -164 -93 -208 -48
-96 -205 -359 -261 -435 -56 -78 -185 -227 -243 -280 -47 -44 -47 -44 -12 -5
19 22 58 65 86 95 101 109 149 181 209 320 52 122 145 391 141 409 -1 9 -9 -2
-16 -24 -33 -98 -145 -374 -182 -448 -60 -119 -89 -154 -166 -199 -37 -21 -87
-58 -111 -81 -39 -37 -34 -28 41 83 155 231 201 331 288 630 33 113 67 218 75
234 10 21 11 33 4 40 -16 16 -25 -4 -71 -149 -22 -71 -57 -181 -76 -244 -45
-142 -143 -339 -246 -493 -99 -148 -151 -206 -231 -257 -96 -60 -94 -76 4 -26
37 19 60 19 60 0 0 -18 31 -56 40 -50 9 6 0 55 -10 55 -4 0 -10 9 -13 19 -3
13 9 32 40 63 l44 43 -25 -45 c-14 -25 -26 -51 -26 -57 0 -24 20 -13 36 20 9
18 30 41 47 51 l32 18 -36 -39 c-49 -52 -65 -82 -67 -123 -2 -35 -2 -35 16
-14 18 21 18 20 14 -60 -4 -71 -1 -92 26 -168 42 -119 75 -180 143 -268 38
-49 77 -87 114 -110 31 -19 65 -43 76 -53 11 -10 25 -15 31 -11 7 5 8 3 3 -5
-5 -9 -2 -12 11 -9 11 2 24 -2 29 -10 6 -7 28 -19 50 -27 l40 -14 -35 -1 c-67
0 -200 50 -200 76 0 7 -8 15 -18 18 -20 7 -71 56 -58 56 5 0 -17 28 -49 61
-31 34 -70 85 -86 114 -17 30 -37 59 -44 65 -8 7 -15 27 -15 45 0 72 -104 305
-136 305 -8 0 -14 10 -14 25 0 14 -4 25 -10 25 -5 0 -10 -7 -10 -15 0 -9 -7
-18 -15 -21 -25 -10 -18 -56 12 -80 l27 -21 -22 -47 c-39 -83 -53 -164 -59
-336 -4 -137 -2 -188 16 -302 50 -325 16 -533 -124 -749 -79 -123 -132 -176
-239 -245 l-29 -18 26 41 c42 67 77 162 94 258 12 73 14 132 9 305 -3 118 -10
235 -16 260 -22 104 -8 583 20 688 9 34 -3 44 -18 15 -34 -67 -57 -443 -40
-651 8 -99 8 -146 0 -183 -19 -79 -69 -197 -112 -262 -22 -33 -40 -61 -40 -63
0 -3 9 0 21 6 28 15 84 105 118 190 15 39 31 74 36 78 4 4 5 -81 2 -188 -6
-221 -14 -264 -82 -410 -39 -86 -48 -97 -87 -117 -69 -35 -168 -76 -172 -72
-6 6 12 343 25 474 14 136 35 221 92 368 50 126 92 212 132 271 31 46 23 63
-11 21 -37 -46 -67 -103 -122 -232 -100 -234 -114 -306 -137 -668 -14 -240
-17 -263 -37 -365 -13 -68 -64 -222 -90 -274 -28 -55 -4 -35 28 24 15 28 29
48 31 46 9 -8 -51 -147 -103 -238 -70 -124 -125 -193 -180 -227 -24 -14 -44
-29 -44 -33 -1 -31 102 42 149 105 96 127 192 331 196 417 2 25 15 89 29 144
14 54 26 106 26 116 0 13 21 25 78 45 42 15 116 47 163 70 l86 44 -18 -54
c-10 -30 -28 -112 -40 -182 -31 -171 -34 -482 -6 -583 22 -79 57 -156 85 -190
19 -21 18 -16 -7 40 -50 112 -62 173 -68 345 -5 164 8 312 43 489 25 123 37
148 104 212 66 62 132 149 171 224 l23 45 7 -92 c4 -51 16 -123 27 -160 26
-84 40 -195 48 -373 7 -148 2 -190 -22 -190 -12 0 -14 -5 -8 -17 16 -32 8
-146 -15 -231 -13 -45 -27 -82 -31 -82 -12 0 -65 142 -90 244 -13 52 -23 124
-23 177 -2 95 -20 119 -25 33 -7 -107 35 -291 99 -434 l30 -64 -42 -127 c-23
-70 -39 -133 -37 -141 3 -7 24 37 47 97 24 61 46 114 51 118 4 5 18 -9 31 -30
13 -21 45 -61 71 -88 35 -38 50 -63 58 -100 16 -73 36 -133 101 -300 140 -363
133 -512 -39 -875 -27 -58 -48 -107 -46 -109 16 -18 168 290 194 393 45 178
22 349 -84 612 -57 144 -102 291 -92 301 3 4 2 11 -3 17 -5 6 -28 108 -51 226
l-43 215 -2 260 c-1 143 -5 275 -10 294 -8 33 -6 32 57 -35 64 -67 66 -71 73
-134 21 -205 83 -358 170 -425 34 -25 33 -24 -14 39 -69 91 -106 198 -126 369
-7 61 -4 64 35 42 14 -8 45 -14 69 -15 28 0 52 -7 64 -17 19 -17 19 -17 13 5
-6 18 -2 27 18 43 15 12 36 37 47 57 l20 37 -5 -41 c-14 -106 -27 -357 -29
-558 -2 -216 -1 -223 25 -301 15 -44 47 -110 72 -146 56 -85 86 -194 93 -344
l5 -110 -26 30 c-14 17 -46 67 -71 111 -56 99 -71 121 -80 113 -11 -11 91
-204 134 -253 23 -26 41 -53 41 -60 0 -83 -64 -311 -125 -443 -19 -40 -31 -73
-29 -73 3 0 29 51 59 113 57 118 99 249 110 341 l7 56 27 -19 c67 -48 357
-179 368 -167 3 3 -3 9 -13 13 -43 16 -331 176 -350 194 -18 17 -22 36 -27
132 -4 62 -15 145 -25 184 l-18 72 33 -30 c19 -16 39 -29 45 -29 12 0 15 -5
-64 95 -75 94 -124 186 -144 270 -14 60 -16 110 -10 360 5 284 20 492 36 508
17 18 102 -250 135 -425 21 -109 23 -117 24 -68 0 30 -8 98 -19 150 -22 106
-23 116 -9 81 21 -52 17 -10 -7 78 -24 88 -26 117 -4 95 6 -6 23 -62 38 -125
25 -107 27 -127 26 -339 -1 -205 0 -218 11 -152 6 39 14 74 17 77 11 11 16
-218 7 -372 -9 -166 -22 -273 -40 -330 -6 -18 -9 -43 -6 -55 7 -42 46 63 61
165 32 211 30 503 -4 777 -10 82 -22 306 -16 299 2 -2 21 -123 42 -269 37
-258 37 -269 26 -380 -11 -107 -23 -447 -14 -407 5 23 22 11 22 -16 0 -35 75
-248 116 -328 20 -41 54 -99 75 -130 42 -62 123 -139 147 -139 17 0 20 -4 -71
99 -143 162 -275 542 -247 715 6 36 11 116 11 178 1 106 2 111 15 81 8 -18 17
-33 20 -33 3 0 3 39 -1 86 l-7 86 45 -7 c40 -6 47 -4 57 14 9 17 5 35 -24 101
-19 44 -32 80 -29 80 2 0 24 -16 47 -35 24 -19 48 -35 54 -35 27 0 20 27 -27
99 -28 42 -51 80 -51 84 0 10 38 -15 146 -95 92 -69 108 -76 119 -58 12 19
-22 56 -118 129 -58 44 -97 81 -99 94 -4 18 13 10 103 -49 146 -97 262 -154
399 -200 98 -32 128 -38 200 -37 47 0 111 7 143 16 31 8 57 11 57 6 0 -20 139
-5 249 27 21 6 23 5 17 -12 -16 -39 -18 -54 -7 -54 7 0 10 4 7 8 -10 16 45 82
83 102 21 10 41 16 45 13 3 -4 6 -2 6 3 0 5 15 18 33 28 20 12 -4 -17 -65 -78
-88 -88 -118 -129 -105 -143 3 -3 14 0 24 6 13 8 14 10 3 11 -14 0 77 100 92
100 11 0 -32 -69 -52 -83 -14 -10 -15 -14 -5 -24 11 -10 17 -7 29 12 16 24 74
55 102 55 24 0 15 -33 -27 -105 -75 -126 -85 -176 -36 -174 17 1 18 2 5 6 -10
2 -18 12 -18 21 0 17 71 145 77 139 3 -4 -15 -108 -23 -135 -2 -7 -6 -68 -8
-135 -4 -126 5 -201 29 -233 13 -17 14 -6 8 87 -4 68 -2 108 4 112 6 4 13 -14
17 -46 4 -28 18 -85 32 -125 13 -40 24 -91 24 -115 0 -23 7 -93 17 -155 l16
-112 -29 -31 c-16 -17 -76 -69 -134 -116 -236 -191 -553 -299 -795 -273 -44 5
-88 9 -97 9 -10 1 -15 7 -12 14 3 8 -10 20 -31 30 -19 9 -35 21 -35 26 0 4
-16 11 -35 14 -31 5 -139 66 -131 74 3 3 192 -46 233 -59 4 -2 9 1 11 5 1 4
-46 32 -105 62 -106 53 -197 122 -262 197 -18 21 -30 42 -26 48 3 5 -1 10 -9
10 -34 0 -12 -38 67 -115 45 -45 111 -98 147 -118 74 -42 69 -46 -22 -17 -76
24 -78 24 -78 6 0 -20 124 -108 193 -136 32 -14 55 -26 50 -27 -17 -6 -238 55
-298 82 -62 27 -77 26 -57 -5 10 -16 9 -18 -3 -14 -8 4 -15 2 -15 -3 0 -10
129 -73 190 -92 19 -7 46 -18 60 -26 23 -13 23 -14 4 -15 -38 0 -178 41 -253
76 -81 37 -100 42 -81 19 6 -8 66 -35 131 -61 82 -32 117 -50 110 -57 -11 -11
-74 12 -124 46 -32 22 -52 13 -22 -10 40 -30 122 -62 204 -78 47 -10 94 -23
105 -30 27 -17 167 -35 266 -35 139 0 327 48 470 120 213 107 470 304 437 336
-9 10 -58 -28 -67 -52 -5 -13 -17 -27 -28 -33 -28 -15 -22 17 11 60 41 55 32
59 -16 8 -82 -88 -253 -193 -422 -259 -125 -49 -176 -72 -140 -65 52 10 212
65 281 96 37 16 69 28 71 26 8 -9 -125 -71 -218 -103 -231 -78 -520 -94 -684
-38 -69 23 -70 24 -22 19 26 -3 47 -1 47 3 0 4 -42 29 -92 55 -51 26 -84 45
-73 41 68 -21 252 -64 318 -73 152 -21 287 -9 437 40 84 28 258 109 312 147
24 16 66 43 93 60 50 31 137 112 120 112 -5 0 4 14 20 30 16 17 32 30 36 30 4
0 16 -16 28 -35 29 -50 43 -44 25 13 -41 129 -67 332 -44 332 7 0 7 8 -1 22
-25 46 8 264 71 466 30 98 38 158 21 148 -24 -15 -116 -341 -130 -460 l-7 -61
-19 75 c-13 54 -19 126 -23 255 -4 168 -2 188 21 285 15 58 37 137 50 175 l24
70 7 -60 c4 -33 11 -90 17 -127 5 -38 7 -92 4 -120 -6 -58 7 -95 24 -68 5 7
12 48 16 90 10 130 16 182 22 176 3 -3 9 -63 14 -133 5 -70 15 -164 24 -208 8
-44 19 -125 24 -180 6 -55 17 -120 26 -145 8 -25 13 -34 10 -20 -3 14 -7 61
-10 105 -4 64 -3 75 6 53 6 -16 15 -28 21 -28 6 0 7 8 3 18 -37 91 -38 103
-26 240 13 148 41 308 63 362 l15 35 12 -96 c7 -53 18 -119 25 -146 9 -35 11
-67 5 -104 -5 -30 -9 -193 -10 -364 0 -170 -1 -353 -2 -405 -1 -68 4 -110 17
-150 18 -54 73 -170 80 -170 2 0 -7 27 -21 60 -46 116 -56 190 -48 363 4 86
10 157 14 157 4 0 11 -13 17 -28 14 -36 76 -132 86 -132 4 0 -10 35 -32 78
-62 123 -72 172 -77 387 -2 123 -1 185 6 176 5 -8 7 -29 4 -47 -9 -52 45 -280
62 -263 2 3 -4 43 -14 89 -10 47 -21 101 -25 120 -5 33 -4 33 21 -15 46 -88
101 -284 113 -402 6 -59 15 -144 21 -187 22 -186 5 -377 -47 -541 -33 -103
-105 -258 -115 -248 -5 5 -13 51 -19 103 -16 144 -71 339 -95 336 -14 -1 -11
-19 18 -118 15 -48 31 -127 37 -175 5 -48 17 -111 26 -140 l17 -52 -28 -48
c-69 -117 -145 -222 -159 -217 -20 8 -45 -8 -112 -66 -32 -28 -58 -49 -60 -47
-1 1 7 51 18 110 18 97 19 131 2 114 -3 -3 -17 -56 -30 -119 -13 -62 -26 -118
-28 -125 -12 -29 -203 -107 -367 -148 -176 -45 -280 -57 -549 -62 l-255 -5
-52 118 c-46 105 -143 349 -143 359 0 2 38 -34 84 -80 227 -227 535 -329 744
-246 208 83 418 352 583 746 21 49 40 83 42 75 3 -8 13 -49 22 -90 20 -86 61
-194 80 -210 7 -6 1 25 -16 73 -15 46 -37 132 -48 191 l-21 108 25 81 c27 89
55 218 54 245 0 9 -13 -28 -29 -83 -37 -132 -49 -162 -66 -169 -8 -3 -14 -19
-14 -41 0 -47 -34 -134 -124 -316 -143 -288 -305 -488 -456 -563 -95 -46 -169
-59 -268 -45 -211 29 -443 178 -595 380 -27 36 -71 148 -62 157 3 3 22 -2 42
-12 44 -19 139 -46 167 -46 29 0 8 15 -39 30 -67 21 -166 73 -184 96 -10 12
-23 47 -30 78 -7 31 -17 56 -23 56 -9 0 -6 -32 9 -85 l6 -20 -23 20 c-31 28
-76 94 -112 168 -35 71 -65 107 -90 107 -15 0 -17 -7 -12 -43 8 -56 -27 -160
-101 -297 -32 -58 -61 -116 -66 -129 -19 -49 22 1 77 95 50 85 66 117 96 194
9 22 12 17 30 -55 17 -70 19 -102 14 -260 -3 -104 -12 -210 -21 -250 -20 -92
-18 -101 6 -40 24 59 49 179 49 238 0 97 11 90 55 -36 132 -380 245 -611 488
-997 l18 -28 -78 -27 c-117 -41 -223 -92 -230 -111 -20 -51 95 -55 286 -9 57
14 105 24 106 23 1 -2 35 -50 75 -108 41 -58 129 -180 197 -272 68 -92 123
-171 123 -176 0 -5 -12 -17 -26 -27 -14 -9 -35 -37 -45 -61 -18 -40 -19 -57
-12 -182 4 -75 9 -118 11 -95 l3 43 38 -40 c43 -45 70 -50 118 -20 38 23 81
101 89 164 11 76 -29 150 -91 172 -19 6 -29 16 -29 27 1 9 -4 17 -12 17 -24 0
-16 19 53 139 36 64 106 197 154 295 58 119 96 184 111 193 28 15 38 16 38 3
0 -23 -116 -323 -175 -452 -35 -76 -61 -138 -60 -138 19 0 158 308 225 497
l44 121 76 36 c42 20 80 36 84 36 5 0 -12 -18 -38 -41 -25 -22 -46 -47 -46
-56 0 -19 154 108 158 131 5 25 -17 19 -118 -29 -51 -25 -95 -44 -97 -41 -15
15 28 89 88 154 38 39 69 77 69 82 0 18 -28 23 -61 11 -30 -10 -31 -10 -25 12
16 55 66 270 82 350 l17 88 57 39 c37 25 64 37 77 34 40 -11 124 88 238 281
189 320 247 565 211 896 -28 259 -37 311 -62 387 -13 40 -24 75 -24 78 0 3 18
-17 39 -44 40 -50 90 -92 110 -92 18 0 12 26 -10 46 -50 45 -153 190 -185 260
-45 100 -81 226 -99 354 -15 111 -20 296 -7 303 4 3 27 -15 52 -39 25 -24 52
-47 62 -50 15 -4 16 -21 11 -157 -5 -138 -3 -157 16 -208 21 -54 55 -98 67
-86 3 3 -6 35 -20 71 -23 57 -26 79 -26 183 0 141 7 193 27 193 78 0 216 166
262 315 26 83 43 232 36 324 l-5 76 16 -45 c10 -30 17 -102 21 -220 7 -221 -5
-293 -75 -442 -50 -108 -56 -157 -8 -76 89 153 116 250 117 433 1 140 9 150
25 29 3 -30 10 -57 15 -60 31 -19 16 124 -27 249 -14 40 -34 104 -44 142 -11
39 -35 105 -54 148 -33 76 -33 79 -20 124 16 54 10 68 -16 35 -22 -27 -18 -39
-60 167 -35 172 -39 261 -20 445 7 65 10 151 8 191 -6 94 3 111 40 68 15 -17
41 -55 59 -85 30 -51 31 -55 21 -113 -12 -73 -3 -178 22 -248 31 -88 116 -261
139 -281 28 -26 40 -12 18 22 -41 63 -129 262 -143 320 -8 36 -14 97 -12 140
l3 77 44 -92 c24 -51 50 -94 57 -97 10 -4 10 3 -1 32 -45 126 -144 303 -208
369 -25 27 -28 35 -17 47 13 17 6 81 -12 103 -5 7 -31 15 -56 18 -82 11 -89
14 -115 54 -15 22 -53 71 -86 109 -32 37 -70 93 -84 123 -52 112 -108 249
-167 409 -34 91 -69 172 -77 180 -14 13 -15 13 -8 -5 4 -11 36 -99 70 -195 64
-181 82 -226 168 -415 60 -133 78 -157 226 -308 128 -130 121 -142 -23 -38
-109 80 -286 264 -286 299 0 5 -9 17 -20 27 -25 23 -70 131 -115 280 -50 163
-71 272 -90 455 -18 176 -36 264 -65 318 -26 49 -67 98 -76 89 -4 -3 8 -23 25
-43 54 -61 71 -129 95 -379 21 -213 82 -458 171 -680 4 -11 -38 25 -95 80
-119 117 -235 274 -278 378 -49 116 -83 319 -95 562 -2 33 -4 5 -5 -63 -6
-413 77 -613 390 -938 105 -110 164 -186 197 -254 7 -16 0 -10 -21 15 -64 79
-145 152 -283 257 -150 114 -175 137 -206 189 -50 85 -150 304 -183 397 -43
123 -60 156 -51 97 20 -126 166 -457 239 -542 20 -22 36 -43 36 -46 0 -3 -30
-8 -67 -12 -38 -4 -107 -22 -155 -40 -125 -49 -148 -62 -148 -88 -1 -20 -2
-20 -11 -4 -25 42 -39 -23 -20 -90 8 -28 6 -36 -18 -62 -15 -16 -35 -48 -46
-71 -21 -46 -15 -45 -110 -9 -78 31 -242 34 -292 7 l-32 -18 -20 29 -21 29 25
69 c13 37 20 72 16 76 -5 5 -12 4 -15 -2 -10 -16 -36 -1 -36 20 0 20 -15 26
-25 9 -10 -16 -28 -12 -21 5 4 10 -1 15 -14 15 -13 0 -20 -7 -20 -19 0 -14 -5
-18 -19 -14 -10 3 -22 0 -25 -6 -4 -6 -12 -11 -17 -11 -6 0 9 15 33 33 57 44
153 159 239 286 86 127 121 195 159 310 41 121 37 148 -5 34 -18 -51 -52 -128
-75 -170 -63 -118 -195 -298 -287 -391 -45 -47 -84 -89 -87 -96 -2 -6 -5 -7
-5 -1 -1 6 33 62 75 125 88 133 182 320 219 434 28 88 60 241 69 326 l5 55
-15 -60 c-9 -33 -29 -115 -45 -183 -34 -138 -93 -286 -164 -412 -68 -120 -135
-221 -152 -227 -17 -7 -131 26 -140 40 -3 6 19 7 58 3 89 -9 54 11 -42 24 -41
6 -82 13 -91 16 -12 3 -18 0 -18 -10 0 -8 8 -20 18 -26 13 -8 11 -9 -13 -4
-16 4 -32 8 -34 10 -2 2 24 34 58 72 127 141 200 265 283 477 32 83 37 92 33
55 -17 -128 -77 -281 -129 -329 -28 -26 -33 -41 -15 -41 18 0 69 60 95 112 34
68 71 204 90 338 9 63 16 124 16 135 0 41 30 261 44 321 44 192 188 498 287
610 34 40 25 44 -18 10z m543 -1751 c-48 -13 -119 -40 -159 -60 -47 -24 -75
-33 -81 -27 -13 13 -2 32 18 32 8 0 42 12 77 26 66 27 165 52 207 52 14 1 -14
-10 -62 -23z m202 -50 c-34 -19 -35 -20 -115 -39 -100 -24 -249 -101 -307
-159 -26 -26 -48 -44 -48 -38 0 23 127 133 193 166 39 20 75 42 81 50 13 17
90 32 166 34 53 1 54 0 30 -14z m-1342 -27 c51 -21 155 -88 148 -95 -1 -1 -32
14 -70 33 -38 19 -64 34 -60 34 29 2 -56 31 -111 39 -83 12 -100 25 -25 19 30
-3 83 -16 118 -30z m-174 16 c28 -11 17 -24 -20 -24 -31 0 -35 2 -24 15 14 17
21 18 44 9z m-314 -44 c-90 -36 -115 -39 -101 -11 12 22 67 39 131 40 l45 0
-75 -29z m1546 7 c-10 -7 -46 -29 -80 -50 -56 -34 -58 -35 -26 -7 19 16 52 39
75 50 44 22 61 26 31 7z m374 -48 c0 -7 11 -9 30 -6 19 4 34 1 44 -8 8 -8 18
-15 23 -15 4 0 21 -11 38 -24 27 -22 28 -26 17 -51 -10 -22 -10 -30 -1 -36 18
-11 -27 -94 -79 -145 -51 -50 -72 -55 -72 -19 0 14 -5 25 -10 25 -6 0 -16 -11
-22 -25 -17 -37 -42 -33 -34 6 9 44 -12 35 -65 -30 -43 -54 -66 -64 -61 -28 6
47 124 321 149 350 18 19 43 23 43 6z m-1190 -9 c6 9 11 7 20 -9 23 -44 6 -51
-35 -14 -24 21 -30 30 -16 23 18 -9 25 -9 31 0z m660 7 c0 -2 -10 -12 -21 -23
-22 -19 -22 -19 -10 4 10 18 31 31 31 19z m-1005 -48 c5 -16 12 -19 28 -14 62
19 67 19 67 -9 0 -24 8 -30 37 -27 7 1 13 -14 15 -36 2 -23 8 -37 15 -36 12 3
5 -24 -27 -102 l-13 -30 -6 25 c-10 38 -42 36 -71 -4 -14 -18 -30 -32 -36 -29
-7 2 -15 0 -19 -6 -3 -6 -11 -11 -17 -11 -6 0 -8 3 -5 7 15 14 -14 32 -38 23
-15 -6 -27 -6 -30 0 -11 18 -23 10 -52 -35 -25 -40 -43 -56 -43 -39 0 15 34
105 41 110 5 3 9 13 9 23 0 10 11 30 25 45 14 15 41 59 60 97 37 73 49 82 60
48z m337 -65 c6 -13 15 -24 20 -24 4 0 8 -7 8 -15 0 -8 9 -20 20 -27 20 -13
28 -58 10 -58 -5 0 -7 -7 -3 -17 5 -14 7 -13 14 5 5 14 14 20 23 16 9 -3 12
-12 8 -22 -5 -15 -4 -15 11 -3 28 22 27 9 0 -24 -14 -16 -23 -22 -19 -12 3 9
2 17 -3 17 -5 0 -11 -27 -15 -60 -8 -69 -26 -81 -26 -17 0 75 -35 195 -69 237
-17 21 -31 41 -31 45 0 14 42 -19 52 -41z m644 8 c-17 -16 -18 -16 -5 5 7 12
15 20 18 17 3 -2 -3 -12 -13 -22z m-33 -32 c-3 -11 -10 -20 -16 -20 -6 0 -8
-3 -4 -6 3 -4 -5 -36 -19 -71 -25 -68 -33 -112 -14 -83 8 12 9 10 9 -10 -1
-14 -5 -38 -9 -55 l-8 -30 -1 28 c-1 24 -3 26 -21 17 -15 -8 -18 -17 -14 -43
5 -28 4 -29 -7 -13 -13 21 -16 78 -6 117 10 39 -44 78 -128 92 -67 11 -99 37
-46 37 34 0 133 -33 178 -60 34 -20 35 -20 60 29 16 29 16 34 1 25 -13 -8 -2
9 31 49 18 22 20 22 14 -3z m-383 -50 c-14 -4 -36 -8 -49 -9 -14 -1 -33 -8
-43 -18 -10 -9 -18 -11 -18 -5 0 19 53 41 95 41 35 -1 37 -2 15 -9z m129 -61
c35 -5 76 -19 91 -29 25 -17 27 -24 22 -68 -8 -92 46 -299 120 -449 64 -131
166 -213 335 -267 77 -24 87 -25 182 -16 211 20 316 65 437 186 54 53 93 102
114 143 38 76 96 248 105 314 11 76 21 54 13 -30 -3 -43 -7 -118 -7 -168 -1
-79 -40 -320 -82 -505 -24 -105 -143 -456 -176 -518 -19 -37 -78 -132 -131
-212 -129 -197 -254 -320 -493 -486 -268 -187 -380 -236 -539 -238 -87 -1
-101 2 -165 32 -132 62 -324 191 -478 320 -63 54 -147 124 -186 156 -86 71
-219 209 -283 294 -56 75 -153 256 -202 377 -49 119 -86 278 -136 575 -31 182
-28 190 27 90 80 -142 215 -256 352 -297 81 -23 363 -14 443 15 125 45 220
128 295 257 40 70 93 192 93 216 0 7 2 10 5 7 6 -6 -12 -168 -21 -193 -4 -8
-2 -15 4 -15 5 0 14 17 20 38 l10 37 1 -35 c1 -32 3 -33 13 -15 14 24 17 221
4 250 -8 19 -9 19 -16 -5 -7 -22 -8 -21 -9 11 -1 20 4 51 10 68 9 24 9 35 0
44 -17 17 -13 33 15 66 15 18 45 37 72 45 58 18 62 18 141 5z m1489 -1 c13
-13 16 -58 4 -58 -4 0 -23 16 -42 35 l-34 35 30 0 c17 0 35 -5 42 -12z m-3068
-88 c11 0 20 -4 20 -9 0 -6 -12 -6 -30 0 -17 7 -30 18 -30 27 1 15 2 15 11 0
5 -10 19 -18 29 -18z m2974 -10 c20 0 21 -19 3 -34 -8 -6 -33 -67 -57 -136
-75 -222 -150 -333 -283 -420 -87 -57 -237 -102 -347 -106 -73 -2 -76 -1 -25
4 l60 7 -120 18 c-84 13 -138 27 -180 47 -68 32 -151 113 -184 177 -33 65 -25
64 18 -2 51 -77 91 -115 166 -155 63 -33 55 -24 -40 49 -64 49 -144 163 -151
214 -3 29 -1 27 26 -22 93 -168 215 -260 381 -283 95 -13 174 -2 287 42 45 17
68 23 61 14 -18 -22 1 -16 51 16 137 88 248 284 264 465 4 39 9 88 13 110 l5
39 18 -22 c10 -12 25 -22 34 -22z m-422 24 c8 -8 -60 -144 -72 -144 -14 0 -13
9 10 75 22 64 44 88 62 69z m-1542 -41 c0 -15 -65 -163 -71 -163 -29 0 -2 108
38 152 17 19 33 24 33 11z m2040 -23 c8 -15 6 -34 -9 -77 l-20 -58 4 75 c3 41
5 76 5 78 0 8 11 -1 20 -18z m-3020 -55 c11 -38 10 -50 -3 -77 -24 -52 -47
-225 -47 -356 0 -66 9 -191 20 -277 20 -154 20 -158 2 -187 l-19 -29 -6 103
c-3 57 -16 162 -28 233 -34 210 -19 465 37 604 9 22 20 39 24 36 4 -2 13 -25
20 -50z m2117 -63 c-22 -57 -93 -161 -109 -162 -15 0 -8 22 25 78 18 31 49 91
68 132 32 70 34 73 37 43 2 -18 -8 -59 -21 -91z m-841 31 c-3 -38 -11 -86 -19
-107 -13 -37 -14 -38 -20 -16 -3 13 -3 27 2 30 12 8 24 50 13 50 -4 0 -23 -33
-40 -72 -55 -123 -74 -135 -36 -22 19 55 34 106 34 115 0 18 30 21 42 5 3 -5
9 12 13 37 11 70 18 57 11 -20z m-661 25 c-31 -141 -159 -352 -147 -242 5 48
119 274 137 274 13 0 15 -6 10 -32z m1441 -20 c-7 -37 -32 -78 -46 -78 -15 0
-12 20 10 68 23 51 46 57 36 10z m-292 -48 l7 -35 -20 35 c-10 19 -17 39 -14
43 8 14 20 -5 27 -43z m-1285 -59 c-21 -51 -44 -79 -55 -68 -9 8 26 94 50 125
30 38 33 7 5 -57z m1300 -66 c0 -5 -4 -3 -9 5 -5 8 -9 22 -9 30 0 16 17 -16
18 -35z m-1782 -27 c-3 -8 -6 -5 -6 6 -1 11 2 17 5 13 3 -3 4 -12 1 -19z
m1024 -192 c-8 -10 -9 -15 -1 -18 13 -4 -25 -48 -42 -48 -6 0 -1 11 12 25 13
14 20 25 16 25 -5 0 -3 7 4 15 7 8 15 15 17 15 3 0 0 -6 -6 -14z m-1029 -104
c2 -28 0 -52 -4 -52 -5 0 -7 35 -7 78 2 78 6 69 11 -26z m951 37 c-11 -12 -27
-19 -34 -17 -9 3 -3 11 16 21 40 22 43 21 18 -4z m82 -9 c-11 -18 -89 -58
-145 -75 -42 -12 -75 -14 -143 -9 -48 4 -86 8 -85 9 2 1 37 5 78 8 44 3 65 2
50 -3 -31 -10 -8 -12 43 -4 43 8 50 24 10 24 -45 0 -15 14 35 16 26 1 70 11
97 22 59 23 68 25 60 12z m1982 -27 c-3 -10 -5 -4 -5 12 0 17 2 24 5 18 2 -7
2 -21 0 -30z m-2990 -25 c-3 -8 -6 -5 -6 6 -1 11 2 17 5 13 3 -3 4 -12 1 -19z
m42 -22 c8 -29 7 -36 -1 -28 -6 6 -13 26 -15 43 -4 41 2 35 16 -15z m-32 -18
c-3 -8 -6 -5 -6 6 -1 11 2 17 5 13 3 -3 4 -12 1 -19z m-30 -60 c-3 -8 -6 -5
-6 6 -1 11 2 17 5 13 3 -3 4 -12 1 -19z m3006 -46 c8 -10 12 -10 18 0 12 19
17 8 32 -65 l14 -67 -29 25 c-31 26 -58 33 -58 14 0 -6 12 -20 26 -31 90 -72
151 -303 141 -538 -8 -187 -60 -320 -165 -426 -105 -106 -202 -67 -302 119
-41 75 -42 80 -33 135 l8 57 18 -70 c39 -158 134 -238 226 -191 76 40 170 200
191 329 13 76 8 228 -10 315 -15 66 -79 191 -112 215 -37 27 -48 14 -17 -20
13 -15 16 -22 7 -14 -9 7 -27 11 -40 8 l-23 -4 22 -8 c13 -4 19 -13 16 -21 -3
-9 2 -14 13 -14 16 0 17 -2 4 -10 -18 -12 -80 -13 -80 -2 0 4 14 46 30 92 17
47 28 73 25 58 -9 -44 10 -32 36 23 14 30 23 68 23 93 -1 22 1 34 4 26 2 -8 9
-21 15 -28z m-2941 -19 c35 -85 59 -193 48 -214 -13 -23 -5 -39 18 -39 16 -1
15 -1 -1 -11 -9 -5 -22 -7 -27 -4 -6 3 -10 1 -10 -6 0 -8 12 -10 38 -6 l37 5
-30 -13 c-35 -16 -85 -19 -85 -6 0 5 9 30 20 56 23 54 23 55 10 55 -6 0 -16
-11 -22 -25 -17 -38 -28 -30 -28 19 0 31 5 46 16 50 8 3 12 11 9 17 -4 6 -13
8 -21 5 -8 -3 -15 -1 -15 4 -4 25 -3 30 5 29 5 0 13 5 17 13 12 18 11 58 -1
58 -5 0 -10 11 -10 25 0 36 15 31 32 -12z m2883 -33 c-9 -41 -17 -33 -9 9 4
17 9 30 11 27 3 -2 2 -19 -2 -36z m-2935 -240 c8 -48 9 -75 2 -83 -15 -17 -42
-169 -42 -232 0 -68 22 -184 49 -256 27 -70 110 -154 163 -164 31 -6 36 -12
50 -55 18 -55 16 -60 -21 -60 -40 0 -120 51 -179 114 -132 140 -174 361 -113
599 24 92 67 207 77 207 1 0 8 -32 14 -70z m125 50 c3 -5 1 -10 -4 -10 -6 0
-11 5 -11 10 0 6 2 10 4 10 3 0 8 -4 11 -10z m2869 -27 c4 -9 1 -20 -6 -25
-20 -12 -28 -10 -28 10 0 33 23 43 34 15z m36 -95 c6 -20 15 -85 21 -145 14
-144 -1 -253 -46 -339 -33 -63 -85 -137 -91 -131 -2 2 16 69 40 149 25 81 50
184 56 230 12 83 5 254 -10 263 -4 2 -10 -62 -13 -143 -3 -81 -11 -165 -17
-187 -6 -22 -34 -111 -61 -197 -47 -150 -51 -158 -76 -158 -17 0 -40 15 -71
45 -42 43 -44 47 -39 88 4 23 13 62 21 87 l15 45 -5 -40 -4 -40 21 44 c12 25
30 85 40 135 20 98 26 266 9 266 -5 0 -10 -25 -10 -56 0 -37 -9 -78 -27 -122
-15 -37 -41 -114 -59 -172 -23 -75 -34 -99 -39 -85 -4 11 -13 37 -20 59 -14
37 -13 40 32 130 25 50 54 115 64 144 10 29 30 78 44 110 l25 57 96 0 95 0 9
-37z m-2840 -8 c17 -34 19 -45 9 -82 -17 -62 2 -137 62 -255 41 -80 50 -105
46 -135 -6 -48 -44 -126 -67 -138 -16 -9 -25 14 -94 221 -42 126 -80 260 -86
297 -6 37 -12 77 -15 90 -5 19 -1 22 27 23 18 0 42 4 53 9 35 15 44 11 65 -30z
m-150 -178 c14 -112 9 -142 -10 -62 -7 28 -19 54 -26 57 -8 3 -13 13 -10 22 2
9 7 38 11 66 9 67 20 43 35 -83z m226 41 c20 -38 61 -106 91 -152 29 -47 51
-87 48 -89 -2 -2 -23 12 -46 32 -61 52 -72 44 -17 -11 43 -44 50 -58 87 -183
56 -189 58 -209 11 -100 -23 52 -44 100 -46 107 -3 6 -11 10 -18 7 -13 -5 -46
90 -46 129 0 9 -4 17 -9 17 -11 0 -75 132 -90 185 -11 39 -15 125 -7 125 2 0
21 -30 42 -67z m-217 -318 c0 -38 -2 -46 -10 -33 -18 31 -49 191 -48 248 1 55
1 54 29 -55 16 -60 29 -132 29 -160z m137 -162 c-8 -8 -62 16 -81 37 -12 14
-16 46 -19 161 l-3 144 55 -168 c30 -92 52 -171 48 -174z m2581 245 c-3 -8 -6
-5 -6 6 -1 11 2 17 5 13 3 -3 4 -12 1 -19z m-167 -325 c-8 -179 -18 -284 -31
-345 -11 -47 -25 -135 -31 -195 -11 -96 -13 -104 -20 -68 -16 80 -22 448 -8
504 7 30 16 48 20 41 7 -12 17 54 26 184 5 57 12 89 27 112 12 18 23 31 25 29
2 -2 -1 -120 -8 -262z m-2061 153 c-2 -2 -19 14 -38 37 l-34 42 38 -37 c22
-21 37 -39 34 -42z m-186 -46 c-13 -78 -56 -160 -84 -160 -4 0 -14 21 -23 47
-13 38 -14 49 -4 52 27 9 69 66 81 109 l12 44 12 -28 c7 -16 9 -45 6 -64z
m196 -25 c23 -47 31 -76 31 -116 -1 -45 -2 -51 -12 -34 -6 11 -25 34 -42 50
-26 24 -37 49 -53 114 l-21 83 31 -28 31 -29 -29 40 -28 40 30 -29 c17 -15 45
-56 62 -91z m1991 73 c0 -7 -17 -26 -38 -43 l-37 -30 35 42 c39 47 40 48 40
31z m-1960 -23 c11 -13 10 -14 -4 -9 -9 3 -16 10 -16 15 0 13 6 11 20 -6z
m2063 -198 c-5 -107 -9 -137 -21 -142 -13 -5 -14 9 -8 97 10 160 17 213 27
196 5 -8 5 -76 2 -151z m-160 106 c-10 -30 -14 -34 -24 -27 -6 4 -3 14 7 25
21 24 25 24 17 2z m-1863 -44 c0 -5 -4 -9 -10 -9 -5 0 -10 7 -10 16 0 8 5 12
10 9 6 -3 10 -10 10 -16z m1802 -35 c-12 -26 -18 -32 -20 -20 -2 10 4 26 14
37 25 27 26 24 6 -17z m-1571 -111 c23 -29 -63 42 -101 83 -28 30 -23 28 26
-14 34 -28 67 -59 75 -69z m1510 84 c-10 -9 -11 -8 -5 6 3 10 9 15 12 12 3 -3
0 -11 -7 -18z m79 -53 c-6 -32 -10 -96 -10 -141 0 -45 -4 -84 -9 -87 -4 -3
-11 40 -15 95 -5 89 -4 105 15 150 12 27 23 48 25 46 2 -2 -1 -30 -6 -63z m35
6 c-4 -23 -9 -39 -11 -37 -3 2 -2 23 2 46 4 23 9 40 11 37 3 -3 2 -23 -2 -46z
m-1795 11 c0 -9 32 -59 70 -111 39 -52 73 -102 75 -111 3 -10 12 -20 20 -23 7
-2 19 -15 26 -28 12 -22 11 -22 -7 -8 -10 8 -29 25 -42 38 -19 20 -25 22 -38
11 -11 -9 -18 -9 -26 -1 -9 9 -7 12 10 12 12 0 22 6 22 13 0 17 -36 74 -80
127 -57 69 -77 116 -45 104 8 -4 15 -14 15 -23z m1656 -141 c-25 -69 -45 -117
-45 -108 -1 10 6 38 14 63 9 25 13 50 10 55 -9 15 16 102 39 135 l21 30 3 -25
c1 -14 -18 -81 -42 -150z m-1513 41 c102 -77 129 -104 51 -50 -31 21 -54 30
-70 26 -20 -3 -30 4 -58 42 -18 25 -36 52 -41 60 -11 19 2 11 118 -78z m1483
77 c-14 -48 -17 -51 -28 -40 -9 9 -7 17 7 32 21 23 26 25 21 8z m-1592 -94
c26 -31 46 -61 46 -67 0 -8 -3 -8 -11 0 -7 7 -24 9 -39 6 -31 -6 -33 -1 -45
75 -4 23 -4 42 -1 42 3 0 25 -25 50 -56z m1567 -15 c-6 -25 -19 -50 -33 -60
-32 -25 -34 -16 -4 24 33 42 35 62 5 47 -11 -7 -18 -14 -15 -17 7 -7 -72 -110
-91 -117 -13 -5 -13 -2 2 21 10 16 26 37 36 49 11 11 16 23 12 27 -10 10 28
47 48 47 10 0 24 6 31 14 19 20 20 14 9 -35z m-284 -53 c-41 -33 -175 -103
-244 -127 -68 -23 -194 -35 -242 -22 -30 8 -26 9 35 9 95 1 168 22 330 97 76
36 141 65 144 66 3 0 -8 -10 -23 -23z m98 14 c-7 -11 -107 -80 -145 -100 -35
-18 -24 -8 60 54 73 53 98 66 85 46z m-1144 -27 c13 -16 12 -17 -3 -4 -17 13
-22 21 -14 21 2 0 10 -8 17 -17z m-198 -55 c30 -49 87 -167 87 -182 0 -3 -13
-6 -28 -6 -25 0 -30 6 -47 55 -10 30 -20 53 -23 50 -2 -2 3 -23 12 -46 12 -30
14 -45 6 -53 -8 -8 -13 -7 -20 4 -8 12 -10 11 -10 -5 l-1 -20 -8 20 c-7 17
-21 108 -26 170 -1 11 -5 30 -9 43 -6 18 -4 22 13 22 15 0 32 -17 54 -52z
m238 25 c13 -16 12 -17 -3 -4 -17 13 -22 21 -14 21 2 0 10 -8 17 -17z m1117
-25 c-18 -24 -43 -39 -93 -56 -92 -31 -114 -24 -45 14 34 20 57 28 62 21 4 -6
23 2 49 21 24 18 45 32 47 32 3 0 -7 -15 -20 -32z m148 -74 c-5 -23 -14 -35
-34 -42 -15 -6 -36 -14 -47 -18 -19 -8 -19 -7 -2 19 9 14 17 31 17 38 0 6 15
30 33 52 l32 41 3 -28 c2 -16 1 -44 -2 -62z m-416 -4 c-8 -6 -22 -10 -30 -9
-9 0 -5 6 10 14 27 14 44 10 20 -5z m-1871 -284 c17 -93 29 -171 27 -173 -5
-5 -93 112 -111 148 -12 23 -11 35 11 103 13 42 24 84 24 93 0 11 3 13 9 8 5
-6 23 -86 40 -179z m2221 -1007 c-19 -17 -53 -39 -75 -50 -22 -11 -32 -14 -21
-7 10 7 41 29 70 50 63 44 73 47 26 7z m-1546 -104 c7 -61 -8 -31 -18 35 -4
29 -4 40 2 30 5 -8 12 -37 16 -65z m86 -107 c54 -95 69 -140 71 -213 0 -33 4
-82 8 -110 6 -42 9 -46 14 -25 4 14 8 61 9 105 l3 80 17 -30 c9 -17 37 -91 61
-165 25 -74 74 -205 110 -290 l65 -155 -34 -3 c-22 -2 -34 -9 -34 -18 0 -8 2
-14 4 -14 2 0 12 -3 22 -7 12 -4 15 -3 10 5 -5 8 1 12 18 12 23 0 35 -21 141
-237 63 -130 114 -237 113 -238 -2 0 -16 -7 -33 -14 -35 -15 -25 -26 -138 154
-156 250 -295 553 -415 905 -41 122 -50 160 -54 238 -2 50 -3 92 -2 92 1 0 21
-33 44 -72z m120 -125 c0 -19 -8 -9 -45 52 l-17 30 31 -33 c17 -18 31 -40 31
-49z m748 50 c-10 -2 -26 -2 -35 0 -10 3 -2 5 17 5 19 0 27 -2 18 -5z m-95
-10 c-23 -2 -64 -2 -90 0 -26 2 -7 3 42 3 50 0 71 -1 48 -3z m-559 -288 c20
-54 34 -100 32 -102 -3 -4 -53 128 -71 187 -18 59 6 7 39 -85z m75 -200 c0 -5
-6 1 -14 15 -8 14 -14 30 -14 35 0 6 6 -1 14 -15 8 -14 14 -29 14 -35z m21
-50 c0 -5 -5 -3 -10 5 -5 8 -10 20 -10 25 0 6 5 3 10 -5 5 -8 10 -19 10 -25z
m29 -70 c0 -5 -6 1 -14 15 -8 14 -14 30 -14 35 0 6 6 -1 14 -15 8 -14 14 -29
14 -35z m1201 26 c0 -15 -225 -225 -308 -288 -44 -33 -120 -86 -170 -116 -119
-74 -371 -200 -387 -193 -17 6 -129 193 -194 323 -28 57 -51 104 -51 105 0 2
89 4 198 6 226 3 415 22 558 57 108 26 275 79 314 101 30 16 40 17 40 5z m-49
-231 c-33 -96 -65 -189 -71 -206 -9 -27 -25 -38 -105 -73 -236 -104 -606 -237
-632 -227 -6 3 -21 23 -33 46 l-21 41 53 21 c121 49 338 166 461 249 137 91
306 234 367 310 23 29 36 39 38 29 1 -9 -24 -94 -57 -190z m-1122 135 c0 -5
-6 1 -14 15 -8 14 -14 30 -14 35 0 6 6 -1 14 -15 8 -14 14 -29 14 -35z m1191
-48 c-6 -29 -25 -104 -42 -168 -26 -101 -33 -118 -55 -128 -20 -9 -24 -9 -21
1 3 7 32 93 64 191 57 171 79 213 54 104z m-1017 -277 c31 -52 70 -115 86
-139 31 -47 32 -61 2 -61 -13 0 -45 56 -124 219 -111 226 -139 296 -64 156 24
-44 69 -123 100 -175z m1008 -27 c-5 -10 -24 -31 -41 -48 l-32 -30 8 30 c9 40
12 45 38 55 32 13 38 12 27 -7z m-81 -35 c-1 -27 -39 -94 -69 -122 -17 -17
-31 -27 -31 -25 0 11 53 135 62 147 6 6 17 12 24 12 8 0 14 -6 14 -12z m-80
-27 c0 -26 -62 -156 -89 -186 -32 -37 -39 -61 -20 -67 10 -3 -188 -406 -251
-512 l-24 -39 -21 27 c-24 30 -155 258 -239 418 l-57 106 143 48 c136 45 486
180 525 203 22 13 33 14 33 2z m27 -137 c-10 -34 -60 -74 -75 -60 -4 5 75 96
84 96 1 0 -3 -16 -9 -36z m-780 -58 c19 -38 20 -45 7 -50 -33 -13 -50 -4 -72
34 l-23 40 23 10 c38 15 43 12 65 -34z m-84 -26 c15 -21 23 -41 19 -44 -4 -2
-62 -16 -130 -30 -269 -57 -302 -17 -57 68 72 24 133 45 136 45 4 1 18 -17 32
-39z m159 -112 c20 -40 62 -120 93 -177 31 -57 52 -101 47 -97 -5 3 -60 78
-122 167 -89 126 -110 163 -99 170 30 19 45 8 81 -63z m305 -553 c1 -5 -15
-18 -37 -27 -44 -18 -51 -9 -19 23 20 20 50 23 56 4z m95 -62 c29 -26 41 -76
28 -121 -12 -45 -69 -102 -101 -102 -30 0 -74 29 -93 61 -15 25 -15 31 0 76 9
26 27 63 41 82 24 31 29 33 67 27 22 -4 48 -14 58 -23z m-166 -40 c-8 -15 -15
-22 -16 -15 0 17 20 55 27 49 2 -3 -2 -18 -11 -34z m77 -190 c26 -3 54 0 68 7
22 12 21 10 -5 -19 -40 -42 -84 -43 -120 0 -30 36 -35 60 -6 34 10 -9 39 -20
63 -22z" />
                <path d="M3742 6463 c14 -16 31 -38 37 -50 29 -56 -2 -130 -69 -162 l-40 -19
26 48 c28 52 29 77 2 94 -24 15 -52 -3 -56 -37 -2 -18 3 -29 18 -37 21 -11 21
-12 3 -32 -56 -63 -175 -82 -235 -38 -21 15 -33 19 -36 12 -2 -7 -8 -9 -14 -6
-6 4 -9 1 -6 -7 8 -25 67 -51 127 -56 75 -7 120 2 164 31 20 14 38 22 41 18
10 -9 95 38 106 58 6 10 10 42 10 71 0 55 -26 111 -60 129 -35 19 -44 10 -18
-17z" />
                <path d="M3228 6443 c-20 -5 -38 -60 -38 -116 0 -41 19 -85 46 -107 13 -12 12
-6 -5 25 -26 50 -28 71 -1 28 23 -38 62 -66 87 -61 28 5 21 33 -9 36 -18 2
-34 15 -49 39 -19 30 -21 44 -16 99 4 35 5 63 4 63 -1 -1 -10 -3 -19 -6z" />
                <path d="M3330 6340 c-16 -29 4 -60 38 -60 15 -1 38 -7 52 -15 56 -32 189 -6
198 39 3 13 -5 12 -50 -9 -64 -30 -74 -30 -116 -5 -37 23 -46 25 -36 9 4 -7 1
-10 -6 -7 -18 6 -21 38 -4 45 27 10 14 23 -26 23 -29 0 -42 -5 -50 -20z" />
                <path d="M3585 5979 c-17 -6 -67 -8 -116 -4 -73 5 -96 2 -142 -15 -70 -26
-209 -119 -222 -147 -8 -19 -18 -23 -79 -25 -72 -3 -89 -14 -62 -40 20 -20
175 -13 280 13 99 24 100 24 82 -3 -30 -42 -16 -54 17 -15 28 34 36 37 65 31
17 -4 32 -13 32 -20 0 -16 17 -19 22 -4 2 5 33 11 70 12 38 2 68 6 68 9 0 4
14 9 31 13 23 4 39 0 61 -15 34 -25 49 -18 23 11 -23 26 -17 25 69 -6 149 -54
380 -19 302 45 -11 9 -28 8 -74 -5 -59 -16 -65 -16 -194 6 -136 23 -143 23
-285 -6 -12 -2 -24 0 -27 5 -12 19 -123 23 -174 7 -46 -16 -203 -38 -210 -31
-7 6 93 74 163 112 68 36 74 37 190 40 256 8 225 12 342 -48 58 -30 110 -56
117 -58 25 -9 -22 34 -71 66 -101 64 -214 94 -278 72z" />
                <path d="M3480 5732 c0 -5 7 -15 15 -22 8 -7 15 -8 15 -2 0 5 -7 15 -15 22 -8
7 -15 8 -15 2z" />
                <path d="M3855 5658 c-211 -138 -398 -154 -613 -51 -42 20 -94 44 -114 54 -21
10 -40 14 -43 9 -8 -12 201 -126 270 -146 40 -12 95 -18 165 -18 116 -1 159
11 260 70 60 35 148 109 140 117 -3 3 -32 -13 -65 -35z" />
                <path d="M4900 5889 c-1 -150 -10 -221 -34 -289 -41 -115 -40 -110 -22 -110
38 0 86 165 86 298 0 59 -4 83 -15 92 -8 7 -15 11 -15 9z" />
                <path d="M2154 5863 c3 -21 11 -89 16 -151 11 -117 27 -178 61 -237 25 -42 36
-47 15 -7 -26 51 -45 136 -56 253 -5 65 -13 131 -16 148 -9 45 -27 39 -20 -6z" />
                <path d="M4225 4970 c-3 -6 1 -7 9 -4 18 7 21 14 7 14 -6 0 -13 -4 -16 -10z" />
                <path d="M3990 9305 c0 -3 8 -18 17 -32 10 -15 23 -41 29 -58 7 -16 39 -97 72
-180 33 -82 70 -186 81 -229 20 -78 27 -94 35 -85 15 15 -64 250 -149 444
l-17 40 22 -20 c84 -75 199 -263 237 -385 27 -88 43 -119 43 -84 0 66 -72 240
-140 339 -16 23 -68 87 -115 141 -80 91 -115 124 -115 109z" />
                <path d="M3900 9195 c0 -11 7 -85 15 -164 22 -204 7 -332 -76 -666 -55 -221
-99 -350 -169 -490 -57 -115 -126 -222 -136 -212 -3 3 4 23 14 44 35 68 89
244 117 377 35 174 27 193 -13 28 -63 -258 -116 -399 -196 -515 -41 -60 -59
-105 -38 -95 4 2 50 48 102 103 168 176 269 395 359 775 76 320 91 496 57 695
-18 108 -35 164 -36 120z" />
                <path d="M4325 9021 c49 -29 114 -110 155 -191 52 -104 102 -269 155 -516 78
-362 118 -486 185 -574 38 -50 33 -7 -7 68 -48 89 -84 214 -147 502 -80 370
-153 556 -260 667 -43 44 -69 63 -86 63 -24 0 -24 0 5 -19z" />
                <path d="M3556 8897 c-21 -51 -44 -155 -51 -227 -3 -36 -8 -75 -11 -87 -2 -13
-1 -23 4 -23 5 0 16 47 26 105 18 110 51 226 68 236 12 7 2 29 -12 29 -6 0
-16 -15 -24 -33z" />
                <path d="M2033 8803 c-115 -113 -202 -253 -377 -607 -85 -171 -182 -358 -217
-416 -73 -119 -168 -250 -182 -250 -13 0 -1 145 19 230 8 36 32 120 54 187 33
103 38 129 31 165 -4 24 -10 36 -13 28 -3 -8 -15 -49 -28 -90 -28 -95 -126
-296 -230 -472 -75 -127 -93 -167 -71 -153 12 7 132 198 183 290 l38 70 -7
-55 c-5 -30 -8 -98 -8 -150 l0 -95 -165 -168 c-240 -245 -316 -287 -458 -252
-37 9 -78 19 -92 22 -22 6 -24 5 -11 -11 23 -28 145 -59 204 -52 104 12 167
54 358 243 l176 174 14 -48 c7 -26 15 -54 17 -61 2 -7 -17 -21 -47 -34 -51
-21 -66 -38 -33 -38 9 0 36 9 58 19 42 19 42 19 52 -2 7 -18 2 -33 -33 -82
-86 -121 -101 -169 -140 -440 -21 -148 -65 -352 -113 -520 l-9 -30 -27 53
c-48 95 -68 192 -70 342 -1 116 2 145 22 210 42 133 139 297 193 326 15 8 18
13 10 18 -52 32 -237 -265 -276 -444 -23 -104 -30 -275 -16 -403 20 -181 27
-158 24 80 l-2 228 13 -95 c16 -107 54 -231 91 -295 14 -23 25 -50 25 -61 0
-34 -56 -139 -89 -167 -33 -28 -61 -35 -61 -16 0 5 -4 8 -10 4 -18 -11 2 -35
31 -35 42 0 112 68 140 136 13 30 27 54 32 54 5 0 7 6 4 14 -3 8 16 96 43 195
47 176 63 257 95 489 37 265 94 354 435 684 102 98 179 178 172 178 -14 0
-150 -122 -335 -302 -70 -68 -130 -122 -132 -119 -15 15 2 40 48 71 80 54 215
193 305 314 75 101 200 321 189 332 -2 3 -35 -46 -72 -108 -90 -151 -190 -283
-290 -382 -89 -89 -192 -172 -201 -163 -4 3 -13 33 -20 67 l-14 60 52 63 c122
146 216 314 453 812 69 146 114 229 120 223 3 -2 -14 -53 -36 -113 -57 -156
-88 -277 -94 -370 l-4 -80 19 92 c24 118 57 224 120 393 28 74 53 145 54 158
4 25 4 26 105 140 40 46 71 85 68 88 -3 3 -41 -30 -84 -73z" />
                <path d="M5510 8871 c0 -7 42 -77 94 -154 52 -78 134 -211 182 -295 48 -84 89
-151 91 -149 13 13 -135 285 -244 449 -85 127 -123 173 -123 149z" />
                <path d="M2247 8597 c-44 -107 -92 -260 -157 -507 -57 -215 -96 -325 -136
-383 -14 -21 -24 -41 -21 -44 13 -12 46 21 74 74 39 74 59 139 127 404 30 119
78 287 106 374 28 87 49 159 47 162 -3 2 -20 -34 -40 -80z" />
                <path d="M1510 8441 c-80 -81 -208 -199 -285 -262 -207 -169 -345 -339 -396
-489 -28 -85 -31 -220 -6 -304 22 -71 32 -69 16 4 -17 79 -6 232 21 303 55
144 229 349 440 518 140 112 189 158 274 259 94 112 100 120 90 120 -5 0 -74
-67 -154 -149z" />
                <path d="M5263 8432 c21 -296 110 -488 347 -747 98 -107 152 -176 212 -270 65
-101 233 -413 265 -492 21 -50 29 -62 31 -45 6 37 -26 119 -101 262 -150 287
-224 397 -392 580 -230 252 -297 399 -340 753 -4 26 -11 47 -17 47 -8 0 -9
-27 -5 -88z" />
                <path d="M5635 8339 c22 -161 76 -291 227 -543 81 -135 88 -144 244 -291 174
-163 244 -222 244 -207 0 17 -132 153 -243 250 -117 103 -161 161 -287 380
-87 153 -127 249 -154 374 -21 92 -42 118 -31 37z" />
                <path d="M4875 8341 c-10 -17 22 -180 55 -283 52 -163 152 -336 263 -455 68
-72 99 -86 38 -16 -85 96 -204 300 -256 438 -14 37 -40 125 -56 194 -16 69
-31 127 -33 129 -2 2 -7 -1 -11 -7z" />
                <path d="M3318 8114 c-25 -44 -80 -121 -122 -173 -73 -91 -86 -111 -67 -111
16 0 170 202 206 272 51 97 38 106 -17 12z" />
                <path d="M5186 8142 c-8 -14 14 -79 47 -134 68 -114 286 -357 350 -390 49 -24
59 -17 15 10 -44 28 -115 103 -230 242 -104 127 -132 169 -158 237 -9 25 -20
41 -24 35z" />
                <path d="M2167 8023 c-4 -3 -7 -38 -7 -77 -2 -249 -103 -436 -329 -608 -66
-50 -68 -62 -3 -29 82 43 192 152 260 257 65 102 102 250 102 406 0 54 -7 68
-23 51z" />
                <path d="M5860 7695 c0 -68 110 -252 209 -350 28 -27 51 -58 51 -69 0 -10 14
-62 31 -115 30 -91 32 -108 40 -316 6 -166 12 -240 27 -300 11 -44 19 -81 18
-83 -6 -6 -116 137 -172 222 -61 95 -87 156 -78 181 9 22 -13 18 -26 -5 -23
-43 58 -191 208 -378 52 -65 110 -142 129 -172 62 -93 218 -414 251 -512 28
-86 70 -323 58 -335 -9 -10 -133 82 -208 155 -43 41 -100 108 -128 148 -51 73
-172 306 -168 321 2 7 -35 137 -50 173 -4 9 -8 -1 -10 -23 -5 -53 31 -173 88
-294 102 -216 231 -373 393 -477 77 -50 87 -59 87 -86 0 -33 15 -40 25 -11 5
17 13 14 95 -27 81 -41 97 -46 176 -50 69 -4 86 -2 82 9 -3 8 -35 18 -85 25
-79 11 -167 44 -222 83 -27 20 -28 24 -34 134 -4 93 -11 132 -37 208 -39 114
-132 307 -235 489 -62 109 -83 157 -112 260 -34 120 -36 134 -43 350 -7 225
-7 225 -43 325 -20 55 -35 101 -33 102 6 6 211 -108 259 -145 39 -29 63 -58
89 -108 47 -90 88 -212 88 -264 0 -54 -21 -180 -30 -180 -11 0 -90 121 -150
230 -92 165 -120 205 -120 169 0 -23 157 -304 208 -371 28 -38 52 -76 52 -84
0 -8 5 -12 10 -9 6 4 33 -14 59 -40 26 -26 61 -56 77 -66 36 -25 104 -61 104
-55 0 2 -24 22 -52 44 -29 22 -77 63 -107 91 l-53 51 11 44 c6 25 12 57 13 73
1 20 3 15 9 -17 5 -30 6 -2 5 80 -3 140 -20 206 -79 304 -67 112 -142 174
-297 249 -41 20 -96 53 -121 74 -85 70 -209 247 -232 331 -12 46 -27 56 -27
17z" />
                <path d="M5340 7656 c0 -20 17 -69 42 -117 52 -105 144 -200 278 -288 105 -70
163 -114 229 -175 38 -35 41 -37 24 -11 -35 51 -144 148 -243 217 -113 78
-179 142 -231 222 -42 63 -83 162 -74 177 4 5 -1 9 -9 9 -11 0 -16 -10 -16
-34z" />
                <path d="M2570 7590 c-22 -7 -21 -8 13 -9 23 -1 36 3 32 9 -7 11 -10 11 -45 0z" />
                <path d="M4965 7566 c-16 -39 50 -216 119 -319 81 -122 262 -288 280 -258 3 5
-15 25 -41 44 -58 42 -155 143 -206 214 -49 67 -113 205 -131 279 -10 46 -15
55 -21 40z" />
                <path d="M1733 7361 c-73 -76 -157 -155 -187 -175 -30 -20 -58 -41 -62 -47
-29 -47 93 28 179 110 32 31 89 92 126 136 88 106 95 115 85 115 -5 0 -69 -63
-141 -139z" />
                <path d="M2032 7404 c-63 -50 -89 -84 -64 -84 13 0 147 128 141 134 -3 3 -38
-19 -77 -50z" />
                <path d="M5160 7317 c0 -17 56 -97 143 -205 37 -45 83 -113 101 -151 31 -61
46 -106 100 -296 l14 -50 1 41 c1 61 -43 226 -84 308 -19 39 -75 121 -123 182
-48 60 -98 126 -112 147 -26 38 -40 47 -40 24z" />
                <path d="M5670 7098 c0 -18 14 -80 30 -137 46 -159 48 -229 11 -480 -18 -117
-30 -218 -28 -224 4 -14 64 231 78 323 19 125 7 278 -30 393 -18 54 -33 112
-33 128 -1 41 -28 38 -28 -3z" />
                <path d="M930 7009 c-14 -19 -67 -79 -118 -134 -133 -142 -173 -219 -229 -432
-26 -99 -28 -122 -27 -273 1 -159 15 -264 44 -330 8 -20 9 -15 5 30 -29 294
-25 423 16 590 26 102 71 219 103 267 13 19 60 74 103 122 89 96 137 164 131
182 -2 7 -15 -2 -28 -22z" />
                <path d="M1762 7013 c-31 -61 -73 -244 -93 -411 -9 -80 -10 -117 0 -170 7 -37
15 -73 19 -79 4 -6 7 57 8 140 0 157 25 317 73 475 18 58 13 85 -7 45z" />
                <path d="M1440 6950 c0 -82 -44 -301 -83 -413 -50 -143 -103 -225 -298 -457
-100 -118 -208 -247 -241 -287 -54 -65 -66 -74 -126 -94 -54 -18 -79 -21 -146
-16 -45 4 -109 14 -144 23 -62 16 -91 13 -62 -7 63 -40 261 -61 342 -36 l47
15 -30 -59 c-16 -33 -43 -99 -59 -147 -16 -49 -40 -113 -53 -143 -40 -88 -134
-389 -152 -480 -19 -101 -21 -238 -5 -299 18 -65 54 -131 91 -165 l32 -30 -33
49 c-102 151 -94 352 29 716 116 344 203 476 488 743 59 55 77 77 63 77 -10 0
-54 -32 -97 -71 -43 -38 -89 -76 -103 -83 -77 -41 -66 -22 89 159 88 102 192
225 231 273 144 178 227 408 237 660 4 95 2 132 -6 132 -7 0 -11 -22 -11 -60z
m-642 -1282 c-29 -35 -63 -76 -76 -93 -15 -20 -11 -5 14 44 25 47 49 80 68 92
51 31 49 22 -6 -43z" />
                <path d="M6235 6713 c4 -10 16 -43 26 -73 37 -106 118 -256 199 -370 151 -212
183 -293 200 -506 15 -195 31 -206 25 -19 -6 239 -33 314 -194 545 -108 154
-128 189 -181 315 -24 55 -47 106 -53 113 -14 18 -30 15 -22 -5z" />
                <path d="M5790 6492 c0 -133 59 -338 155 -538 64 -136 116 -214 183 -276 73
-68 99 -63 34 6 -70 74 -133 174 -193 308 -85 187 -118 300 -147 492 -10 68
-32 73 -32 8z" />
                <path d="M5340 6160 c0 -7 11 -28 25 -45 34 -45 79 -164 99 -259 10 -49 16
-128 16 -210 0 -161 -20 -249 -82 -369 -67 -128 -214 -271 -301 -292 -33 -9
-44 -23 -22 -31 54 -21 262 147 334 268 88 150 115 268 108 463 -6 154 -26
247 -75 355 -28 62 -102 149 -102 120z" />
                <path d="M1134 5808 c-358 -572 -430 -797 -322 -1015 30 -58 31 -64 20 -117
-18 -89 -43 -167 -52 -161 -19 12 -79 114 -96 165 -36 103 -13 444 32 477 11
8 12 13 3 19 -36 22 -75 -106 -85 -278 -10 -163 21 -270 106 -362 l39 -42 -36
-60 c-43 -72 -72 -109 -190 -247 -52 -59 -113 -138 -137 -176 -79 -123 -150
-158 -302 -148 -103 7 -123 -3 -43 -21 90 -21 157 -13 262 33 14 6 17 2 17
-20 0 -34 16 -24 25 16 4 19 37 63 80 111 112 121 235 279 286 368 50 87 123
288 113 314 -3 9 -3 23 0 32 5 13 12 11 45 -15 21 -17 42 -31 45 -31 17 0 1
28 -39 71 -25 26 -45 57 -45 69 0 11 -5 19 -11 17 -7 -1 -21 23 -31 53 -16 44
-19 72 -15 145 8 158 82 334 294 695 138 235 207 360 200 360 -3 0 -76 -114
-163 -252z m-551 -1637 c-26 -32 -50 -57 -52 -55 -4 3 89 114 96 114 3 0 -17
-26 -44 -59z" />
                <path d="M5640 6056 c0 -2 11 -28 24 -57 26 -60 145 -427 176 -546 19 -71 36
-196 42 -311 2 -23 8 -42 13 -42 25 0 12 216 -21 345 -12 48 -67 225 -140 452
-3 10 4 4 15 -13 21 -31 101 -247 148 -399 17 -56 27 -114 30 -192 3 -62 9
-113 14 -113 15 0 22 70 16 168 -5 94 -11 117 -82 317 -10 28 70 -96 100 -156
41 -80 55 -152 55 -284 0 -150 -11 -218 -60 -370 -21 -66 -41 -133 -44 -150
l-7 -30 22 35 c12 19 34 66 49 105 15 38 31 79 35 90 6 14 11 -4 16 -60 8
-103 23 -155 65 -235 72 -138 231 -302 314 -324 l25 -7 -25 18 c-114 83 -208
188 -275 306 -67 120 -77 185 -79 497 -1 320 -5 340 -104 502 -30 51 -86 146
-123 211 -70 120 -133 204 -175 232 -13 8 -24 14 -24 11z" />
                <path d="M6330 5594 c0 -3 9 -19 20 -35 41 -56 120 -236 145 -329 56 -202 42
-425 -34 -573 -23 -43 -41 -84 -41 -90 0 -17 55 40 76 79 10 19 21 34 24 34 3
0 18 -32 33 -71 19 -49 31 -104 38 -180 6 -61 8 -116 6 -122 -6 -19 -152 187
-196 277 -61 124 -115 352 -91 381 15 18 -7 32 -23 16 -31 -31 13 -272 72
-398 49 -104 170 -271 276 -383 99 -103 162 -199 261 -390 42 -82 43 -37 1 60
-60 138 -118 230 -203 320 l-81 86 8 60 c15 101 -6 209 -64 332 -24 51 -24 53
-9 115 11 42 16 109 16 207 -1 128 -4 156 -27 235 -44 147 -164 375 -198 375
-5 0 -9 -3 -9 -6z" />
                <path d="M5637 5390 c-3 -14 -11 -90 -17 -170 -6 -80 -13 -157 -15 -172 -19
-125 99 -509 205 -663 86 -125 339 -326 453 -360 27 -8 41 -18 43 -31 1 -10
11 -53 22 -94 49 -183 54 -435 13 -580 -12 -41 -32 -112 -44 -157 -12 -46 -25
-83 -28 -83 -10 0 -37 161 -50 295 -8 86 -9 145 -2 207 11 87 3 172 -17 192
-19 19 -25 -8 -23 -107 2 -69 -5 -149 -22 -247 -55 -338 -48 -381 134 -745 76
-153 129 -272 145 -329 14 -49 29 -92 32 -95 13 -12 -7 127 -25 181 -10 30
-66 147 -125 260 -58 112 -115 231 -126 262 -28 81 -36 220 -20 347 l14 104
18 -110 c10 -60 27 -143 38 -183 11 -40 20 -92 20 -117 0 -65 18 -64 25 2 3
32 23 114 45 183 63 202 73 254 73 380 0 128 -21 267 -57 374 -14 39 -20 73
-15 74 21 8 6 21 -40 37 -96 32 -266 159 -394 294 -77 82 -132 187 -196 374
-58 168 -67 246 -54 459 10 165 5 282 -10 218z" />
                <path d="M1367 5168 c-22 -48 -35 -110 -53 -238 -40 -301 4 -525 144 -729 59
-87 115 -136 167 -146 29 -6 29 -6 -6 14 -115 64 -239 286 -275 493 -24 138
-4 447 37 575 6 18 9 41 6 50 -3 13 -8 8 -20 -19z" />
                <path d="M5365 5138 c-65 -157 -95 -517 -59 -709 21 -115 61 -246 90 -296 38
-65 47 -51 13 20 -16 35 -42 115 -56 178 -25 104 -27 131 -27 309 0 212 16
338 57 461 18 54 20 69 10 69 -8 0 -20 -15 -28 -32z" />
                <path d="M6640 5031 c0 -5 13 -31 30 -58 36 -59 93 -208 120 -314 30 -118 35
-184 16 -255 -21 -80 -21 -101 -2 -85 47 39 59 197 26 327 -21 81 -79 242
-107 298 -33 66 -83 118 -83 87z" />
                <path d="M2476 4968 c-13 -42 -14 -82 -5 -282 5 -121 17 -257 25 -301 14 -74
55 -185 69 -185 3 0 1 8 -4 18 -42 78 -70 335 -72 660 -1 96 -4 119 -13 90z" />
                <path d="M2084 4953 c2 -10 10 -45 16 -78 6 -33 45 -211 86 -395 40 -184 93
-444 118 -578 24 -134 47 -246 50 -249 3 -4 4 7 1 23 -2 16 -14 97 -25 179
-31 221 -63 387 -136 705 -87 378 -95 410 -106 410 -5 0 -7 -8 -4 -17z" />
                <path d="M5551 4718 c-2 -40 32 -181 78 -321 113 -345 129 -591 57 -869 -38
-150 -72 -230 -86 -207 -7 11 -10 10 -15 -3 -9 -23 2 -38 28 -38 19 0 27 -16
65 -138 23 -75 42 -145 42 -154 0 -10 5 -18 11 -18 7 0 8 16 3 48 -9 62 -62
241 -79 267 -11 18 -10 26 3 50 9 17 25 62 38 100 17 55 23 66 29 50 5 -11 23
-57 42 -102 83 -204 83 -351 -1 -544 -33 -77 -34 -96 -4 -61 51 57 98 215 98
327 0 86 -26 191 -73 300 -57 131 -59 143 -43 216 24 104 29 207 16 329 -16
161 -43 280 -107 460 -30 85 -65 193 -78 240 -13 47 -24 78 -24 68z" />
                <path d="M5094 4706 c-17 -45 45 -285 107 -413 47 -97 121 -182 234 -266 77
-58 181 -114 191 -104 3 2 -19 18 -48 35 -70 39 -202 146 -259 210 -85 94
-160 271 -194 457 -19 99 -21 106 -31 81z" />
                <path d="M2592 4685 c0 -16 2 -22 5 -12 2 9 2 23 0 30 -3 6 -5 -1 -5 -18z" />
                <path d="M1155 4542 c-49 -96 -159 -260 -219 -328 -53 -60 -130 -114 -162
-114 -28 0 -41 -18 -20 -26 28 -11 120 42 179 102 73 74 164 207 223 330 56
114 55 145 -1 36z" />
                <path d="M1048 4293 c-64 -70 -125 -183 -183 -338 -48 -128 -99 -200 -254
-356 -145 -146 -205 -189 -313 -225 -52 -17 -78 -31 -78 -41 0 -10 5 -13 17
-8 22 8 117 34 119 32 1 -1 -7 -36 -18 -77 -26 -100 -34 -268 -18 -367 24
-155 94 -288 188 -360 69 -52 68 -39 -1 30 -112 109 -167 263 -167 466 0 144
36 321 66 321 8 0 13 4 11 9 -1 4 25 29 58 54 75 57 237 222 299 306 l47 64
-8 -44 c-4 -24 -7 -102 -7 -174 1 -105 6 -149 26 -225 36 -132 83 -250 127
-316 l38 -57 -85 -141 c-178 -295 -267 -507 -279 -665 -7 -92 17 -249 53 -356
26 -78 26 -59 -2 95 -26 145 -22 285 11 395 36 122 80 220 165 372 106 188
162 275 170 266 5 -4 18 -33 31 -63 25 -62 34 -76 42 -63 3 5 -3 35 -14 67
-11 32 -17 67 -13 78 4 12 1 24 -7 28 -9 6 6 37 58 117 117 180 205 360 271
553 71 210 77 233 61 228 -7 -2 -20 -26 -30 -54 -94 -269 -137 -374 -200 -488
-76 -139 -174 -296 -185 -296 -13 0 5 276 24 385 42 230 86 362 202 603 38 78
67 142 66 142 -10 0 -90 -129 -128 -205 -103 -206 -150 -361 -189 -625 -15
-105 -19 -169 -15 -232 3 -49 4 -88 1 -88 -3 0 -21 32 -40 71 -86 169 -143
415 -130 554 18 196 90 404 203 588 23 37 40 67 39 67 -2 0 -15 -12 -29 -27z" />
                <path d="M1837 4263 c-2 -4 2 -44 11 -88 21 -111 21 -370 -2 -499 -17 -104
-15 -138 4 -65 42 154 52 397 24 554 -16 87 -26 116 -37 98z" />
                <path d="M4476 4238 c-22 -84 7 -271 59 -386 22 -48 23 -57 11 -71 -44 -49
-56 -257 -28 -456 23 -154 31 -182 69 -237 37 -55 46 -47 17 16 -49 108 -79
354 -63 531 14 168 19 174 69 74 17 -32 35 -59 40 -59 16 0 13 8 -55 150 -74
156 -94 231 -98 364 -2 94 -9 118 -21 74z" />
                <path d="M1747 4193 c-3 -5 -17 -69 -32 -143 -30 -152 -83 -322 -121 -390
l-25 -45 6 53 c8 70 61 223 86 244 25 21 24 27 -2 21 -11 -3 -27 -16 -35 -28
-41 -62 -94 -248 -94 -328 0 -21 -11 -49 -28 -73 -98 -137 -124 -177 -107
-164 10 8 44 47 75 86 l57 72 7 -87 c10 -129 31 -239 101 -526 36 -144 73
-327 84 -410 l21 -150 -5 125 -4 125 55 -115 c125 -259 184 -434 184 -550 0
-30 5 -62 11 -70 7 -11 9 16 6 95 -5 126 -30 215 -118 408 -177 390 -199 461
-199 654 0 68 5 133 10 144 7 12 7 19 1 19 -16 0 -22 -16 -35 -93 l-12 -72
-23 105 c-29 135 -51 297 -51 381 0 60 4 74 40 135 51 87 92 200 123 344 36
159 47 272 24 233z" />
                <path d="M5880 4063 c0 -12 16 -57 36 -100 108 -235 132 -420 70 -557 -18 -40
-21 -54 -10 -45 76 63 86 298 19 474 -38 99 -115 252 -115 228z" />
                <path d="M642 3960 c-9 -16 -32 -57 -51 -90 -58 -101 -191 -259 -320 -380 -68
-63 -118 -116 -112 -118 14 -5 182 139 252 215 71 78 195 245 223 302 39 78
46 136 8 71z" />
                <path d="M5326 3973 c-11 -11 6 -76 35 -135 19 -38 50 -75 95 -115 37 -32 94
-82 126 -112 32 -30 60 -52 63 -49 6 6 -84 100 -173 180 -63 57 -122 156 -122
205 0 23 -13 37 -24 26z" />
                <path d="M6420 3967 c0 -7 12 -29 26 -50 14 -21 35 -66 46 -100 11 -34 35 -84
53 -112 32 -47 168 -187 226 -231 25 -19 27 -27 39 -172 13 -146 9 -237 -15
-357 l-6 -30 20 23 c33 37 44 122 37 272 -4 74 -9 154 -12 178 l-6 43 83 -58
c110 -76 322 -288 379 -378 24 -38 45 -72 47 -74 2 -2 6 -1 10 2 3 4 -11 41
-31 82 -55 111 -230 289 -408 415 -128 91 -322 268 -347 318 -7 13 18 -7 56
-45 37 -38 93 -87 123 -110 67 -50 224 -113 303 -120 70 -7 77 10 10 26 -89
23 -253 99 -320 149 -113 84 -219 212 -230 276 -5 32 -23 52 -23 26 0 -18 -17
-10 -30 15 -14 27 -30 33 -30 12z" />
                <path d="M450 3858 c-69 -49 -147 -102 -175 -116 -35 -18 -45 -27 -32 -30 25
-5 91 30 178 96 196 148 218 186 29 50z" />
                <path d="M5065 3871 c-7 -13 8 -76 49 -201 95 -289 102 -421 46 -810 -11 -74
-22 -153 -25 -175 l-5 -40 16 35 c37 78 84 396 84 561 0 124 -23 240 -86 431
-33 101 -53 176 -49 188 4 14 2 20 -9 20 -8 0 -17 -4 -21 -9z" />
                <path d="M2079 3668 c-12 -23 -44 -87 -72 -141 -53 -104 -101 -157 -143 -157
-34 0 -26 -24 9 -28 57 -7 153 127 222 311 23 61 13 72 -16 15z" />
                <path d="M626 3503 c-26 -52 -39 -147 -38 -289 0 -158 13 -238 49 -304 13 -25
22 -37 19 -27 -3 10 -14 43 -23 75 -15 46 -18 94 -18 247 0 186 5 226 41 313
11 25 -16 11 -30 -15z" />
                <path d="M6583 3353 c-7 -12 -15 -55 -17 -97 -3 -41 -10 -85 -17 -97 -15 -30
-6 -175 17 -249 20 -69 113 -282 128 -295 37 -33 80 -103 101 -166 14 -40 25
-77 25 -82 0 -8 -112 142 -157 210 -11 17 -12 16 -12 -5 -1 -13 29 -64 68
-119 91 -127 145 -231 175 -334 20 -72 22 -97 17 -174 -3 -49 -9 -95 -13 -101
-11 -16 -127 -84 -144 -84 -20 0 -17 -18 4 -22 12 -2 -13 -27 -83 -83 -145
-114 -325 -267 -364 -309 -19 -20 -40 -36 -45 -36 -6 0 -26 13 -44 28 l-33 28
70 63 c39 34 80 67 93 74 13 7 48 37 78 67 31 30 116 111 190 179 147 135 161
151 133 151 -10 0 -81 -47 -158 -105 -77 -58 -142 -105 -145 -105 -4 0 -6 46
-6 103 -1 126 -18 177 -110 327 -123 203 -164 333 -170 540 -5 166 -11 210
-26 210 -7 0 -9 -61 -6 -192 5 -189 5 -195 40 -299 42 -123 69 -179 132 -273
86 -128 120 -266 96 -391 l-13 -66 -132 -89 -133 -89 -26 75 -25 74 24 54 c33
74 45 152 44 275 -1 111 -16 192 -36 199 -10 3 -11 -5 -5 -30 14 -66 7 -309
-11 -370 -10 -32 -21 -58 -26 -58 -4 0 -25 77 -46 172 -45 207 -70 288 -135
428 -43 92 -50 115 -50 168 0 48 -3 62 -15 62 -18 0 -29 -57 -22 -110 3 -21
28 -88 55 -148 55 -118 82 -205 142 -470 l39 -174 -24 -39 c-28 -43 -23 -50
12 -18 22 21 23 21 29 3 4 -10 15 -39 25 -63 11 -24 19 -47 19 -50 0 -4 -18
-17 -39 -30 -78 -43 -301 -224 -301 -243 0 -23 43 0 110 59 70 61 196 159 230
178 22 12 9 -1 -110 -103 -148 -128 -239 -215 -210 -201 29 14 212 136 288
191 28 21 52 37 52 34 0 -2 -79 -75 -175 -162 -96 -86 -175 -159 -175 -161 0
-15 155 108 292 231 l108 96 55 -37 55 -37 -26 -27 c-14 -15 -24 -31 -21 -36
6 -10 -215 -223 -232 -223 -5 0 -11 12 -13 27 -2 14 -8 28 -15 30 -7 3 -43
-24 -81 -59 -38 -35 -104 -94 -147 -132 -42 -38 -86 -83 -96 -100 -25 -42 -24
-103 3 -146 12 -19 22 -50 23 -68 2 -31 1 -32 -17 -15 -29 26 -50 6 -69 -63
l-17 -59 -3 44 c-2 26 -10 46 -17 49 -11 3 -12 -16 -5 -109 4 -63 7 -148 5
-189 -3 -84 4 -140 18 -140 6 0 10 21 10 48 0 74 38 394 48 404 12 12 35 -17
72 -90 30 -61 42 -121 67 -336 4 -38 13 -71 19 -73 7 -2 11 47 12 154 0 87 2
183 4 213 2 30 0 69 -5 85 l-7 30 15 -27 c8 -15 31 -74 51 -130 24 -71 33 -89
28 -58 -6 44 -18 82 -84 263 -30 83 -31 89 -15 113 9 13 20 22 26 19 5 -4 12
1 15 10 4 9 17 21 30 26 13 4 24 15 24 22 0 16 90 96 163 146 26 18 46 38 45
45 -4 16 177 177 569 509 160 135 300 257 310 270 25 32 70 60 83 52 5 -3 10
-2 10 4 0 19 -20 22 -47 6 -15 -8 -57 -33 -92 -55 -35 -22 -66 -38 -69 -35 -3
3 -26 -14 -51 -38 -76 -73 -422 -359 -428 -353 -7 7 48 54 300 260 53 43 107
95 121 115 38 55 147 164 185 184 l33 17 -4 78 c-3 61 -12 98 -45 177 -47 117
-66 189 -28 110 13 -27 42 -108 65 -178 38 -117 59 -152 78 -133 4 4 -4 35
-16 69 -13 34 -39 114 -57 177 -38 132 -66 206 -101 269 -30 54 -30 53 1 45
39 -10 29 11 -15 31 -22 10 -41 23 -41 29 -1 6 -2 18 -3 26 -1 8 -32 44 -71
80 -83 76 -83 76 -123 166 -37 86 -58 166 -66 254 l-6 65 24 -72 c62 -186 181
-302 351 -342 28 -7 58 -14 68 -17 9 -3 17 -1 17 5 0 6 -5 11 -11 11 -7 0 -54
19 -106 41 -148 65 -227 150 -281 301 -20 58 -26 99 -31 203 -5 110 -8 127
-18 108z m374 -1475 c-3 -8 -6 -5 -6 6 -1 11 2 17 5 13 3 -3 4 -12 1 -19z
m-127 -131 c0 -2 -15 -16 -32 -33 -27 -24 -29 -25 -13 -4 24 30 45 47 45 37z
m-375 -97 c-10 -11 -23 -20 -29 -20 -6 0 0 9 14 20 32 25 38 25 15 0z m230
-19 c-11 -10 -84 -74 -163 -142 -79 -68 -163 -141 -188 -163 -24 -21 -44 -33
-44 -28 0 10 158 149 325 285 79 65 109 85 70 48z m46 -15 c-30 -32 -250 -205
-232 -182 17 21 185 165 221 189 34 24 37 21 11 -7z m-368 -40 c-9 -16 -133
-127 -176 -158 -24 -17 -28 -18 -33 -3 -4 10 1 21 12 30 11 7 57 42 104 78 86
66 108 79 93 53z m117 -159 c0 -2 -12 -14 -27 -28 l-28 -24 24 28 c23 25 31
32 31 24z m-354 -28 c8 -13 -4 -23 -130 -112 -154 -107 -153 -100 9 38 55 46
103 84 107 85 4 0 10 -5 14 -11z m184 -169 c-19 -16 -39 -29 -45 -30 -5 0 6
13 25 30 19 16 39 29 45 30 5 0 -6 -13 -25 -30z m-345 -237 c11 -15 2 -28 -72
-103 -46 -47 -91 -97 -99 -112 -8 -16 -19 -28 -24 -28 -6 0 -5 -8 2 -19 10
-16 7 -25 -20 -55 -32 -37 -41 -66 -21 -66 9 0 28 -37 43 -87 6 -18 -1 -14
-33 18 -23 22 -41 49 -41 61 0 15 -5 19 -19 15 -22 -5 -41 28 -41 74 0 33 -3
30 154 169 59 52 117 107 128 123 23 32 27 33 43 10z m-85 -158 c-24 -25 -46
-45 -49 -45 -3 0 15 20 39 45 24 25 46 45 49 45 3 0 -15 -20 -39 -45z m-50
-79 c0 -2 -8 -10 -17 -17 -16 -13 -17 -12 -4 4 13 16 21 21 21 13z m-75 -351
c4 -33 4 -57 0 -53 -10 10 -35 117 -34 148 1 24 1 24 14 -5 7 -16 16 -57 20
-90z" />
                <path d="M2264 3276 c-4 -10 9 -57 30 -111 65 -163 79 -258 80 -510 1 -216 0
-223 -32 -351 -37 -152 -40 -190 -8 -120 26 56 21 61 67 -73 59 -173 74 -342
44 -511 -17 -99 -18 -110 -5 -90 7 11 11 9 19 -13 6 -15 14 -40 18 -55 l6 -27
-39 34 c-53 46 -106 111 -149 181 -55 90 -122 239 -134 300 -7 30 -14 66 -17
80 -5 21 -7 22 -15 8 -6 -11 -6 -42 1 -85 29 -177 201 -455 335 -540 36 -22
49 -40 71 -93 47 -112 152 -317 218 -425 165 -269 335 -444 533 -547 149 -77
270 -108 429 -108 370 0 732 230 996 635 60 91 208 377 208 402 0 7 5 13 10
13 6 0 10 -14 10 -31 0 -100 63 -242 143 -323 70 -71 88 -67 23 5 -58 65 -100
152 -121 254 -22 107 -31 362 -16 440 14 71 25 442 12 405 -5 -14 -10 -41 -10
-60 l-2 -35 -67 70 c-72 75 -124 166 -142 248 -15 68 -30 321 -23 375 5 36 3
44 -8 40 -21 -7 -27 -86 -18 -250 6 -118 13 -160 34 -220 14 -40 28 -84 30
-98 4 -24 4 -24 -3 -2 -11 35 -27 22 -24 -20 12 -134 -118 -361 -281 -490 -37
-28 -44 -38 -29 -38 31 0 132 81 186 149 27 34 51 60 53 58 5 -6 -40 -121 -85
-220 -164 -355 -411 -628 -677 -747 -103 -46 -247 -82 -330 -82 -149 0 -308
76 -446 212 -177 175 -319 441 -439 818 l-43 134 20 27 c52 70 96 194 108 301
14 135 -28 265 -143 444 -38 60 -53 75 -58 63 -4 -11 16 -52 56 -117 81 -130
110 -221 110 -339 0 -139 -36 -258 -113 -371 -17 -25 -24 -40 -16 -33 13 11
20 -3 48 -95 75 -245 190 -503 301 -672 75 -114 219 -259 310 -312 79 -46 72
-49 -13 -7 -121 62 -222 158 -327 314 -117 175 -186 337 -285 669 -17 56 -30
85 -36 79 -6 -6 6 -65 35 -164 147 -512 391 -862 669 -959 76 -27 299 -42 428
-29 299 30 571 217 759 524 101 165 206 421 275 675 20 74 38 141 41 149 3 9
18 1 47 -27 24 -21 56 -47 70 -57 24 -15 27 -24 26 -69 0 -28 -4 -71 -9 -96
-5 -25 -16 -79 -24 -121 -23 -122 -35 -159 -82 -254 -52 -108 -151 -236 -228
-296 -31 -24 -52 -45 -47 -47 12 -4 50 20 111 68 l44 35 -24 -35 c-118 -172
-308 -375 -443 -476 -243 -181 -469 -261 -707 -251 -202 8 -352 77 -510 237
-93 94 -155 176 -283 380 -77 122 -187 318 -187 332 0 3 17 2 38 -3 20 -5 51
-8 67 -8 24 1 18 4 -28 19 -32 10 -70 26 -85 36 -15 10 -31 19 -36 19 -5 0
-24 38 -42 85 -32 84 -32 86 -18 145 7 33 14 107 14 165 0 104 0 105 31 134
103 98 142 338 90 556 -30 122 -87 266 -162 407 -59 113 -159 343 -163 375 -3
26 -15 33 -22 14z m275 -663 c46 -136 63 -227 64 -338 1 -113 -21 -206 -75
-307 -31 -59 -48 -73 -48 -39 0 35 -50 192 -84 263 l-34 71 25 121 c23 112 25
135 19 306 -3 102 -8 201 -11 220 -7 51 106 -182 144 -297z m2055 -1189 c-148
-348 -361 -577 -633 -681 -98 -37 -145 -44 -60 -9 143 59 317 188 426 315 84
97 205 282 262 399 25 50 46 90 48 88 2 -2 -17 -52 -43 -112z m303 -110 c-221
-569 -597 -954 -1015 -1041 -95 -19 -307 -13 -397 12 -328 91 -610 380 -850
872 -75 152 -85 186 -19 64 90 -169 226 -388 311 -501 54 -71 172 -188 239
-236 81 -58 170 -98 268 -119 113 -25 298 -17 421 19 393 114 774 471 1016
951 64 126 78 114 26 -21z m-2329 1 c-3 -3 -9 2 -12 12 -6 14 -5 15 5 6 7 -7
10 -15 7 -18z" />
                <path d="M1312 3128 c-127 -257 -143 -455 -53 -669 17 -41 40 -85 51 -99 20
-24 19 -22 -1 30 -57 142 -71 211 -72 330 0 141 23 235 88 365 25 50 43 82 40
72 -34 -121 -32 -437 5 -550 23 -74 35 -87 19 -22 -17 67 -27 294 -18 403 9
116 32 211 56 229 21 16 7 31 -15 17 -13 -9 -20 -7 -28 4 -9 12 -23 -10 -72
-110z" />
                <path d="M5352 3218 c9 -16 13 -68 13 -168 0 -153 -13 -232 -61 -372 -28 -84
-31 -113 -8 -83 39 51 104 327 104 439 0 72 -17 175 -32 194 -18 21 -29 13
-16 -10z" />
                <path d="M1991 3080 c-90 -248 -101 -410 -41 -591 33 -102 45 -127 55 -117 4
3 -8 50 -25 105 -55 166 -51 348 12 551 21 68 20 110 -1 52z" />
                <path d="M533 3009 c3 -52 17 -150 31 -219 14 -69 26 -145 27 -170 0 -25 5
-56 9 -70 19 -59 8 135 -14 262 -14 75 -28 168 -32 207 -11 111 -28 102 -21
-10z" />
                <path d="M4813 3014 c-11 -28 6 -277 23 -339 18 -67 72 -191 79 -183 3 2 -6
32 -20 66 -35 86 -55 215 -55 353 0 75 -4 119 -10 119 -6 0 -13 -7 -17 -16z" />
                <path d="M5095 2973 c-4 -10 -15 -67 -26 -128 -50 -292 -36 -401 95 -697 71
-161 95 -254 105 -400 4 -65 10 -120 13 -124 19 -18 28 15 28 96 0 156 -33
277 -134 497 -70 154 -86 211 -93 343 -5 103 18 354 38 408 6 16 5 22 -5 22
-8 0 -17 -8 -21 -17z" />
                <path d="M242 2942 c0 -9 -11 -57 -26 -107 -40 -134 -106 -555 -89 -574 10
-12 16 16 16 71 -1 35 3 68 8 74 8 9 59 283 59 315 0 7 3 10 6 7 3 -3 1 -41
-5 -84 -22 -167 -32 -473 -19 -595 l12 -115 33 -1 c18 -1 35 3 38 8 8 11 134
-122 134 -141 1 -8 -8 -26 -19 -40 l-19 -25 -53 51 c-78 75 -160 141 -185 148
-36 11 -36 -11 2 -52 35 -40 48 -65 20 -42 -8 6 -19 9 -25 5 -13 -8 16 -50 97
-136 35 -36 63 -70 63 -75 0 -4 -15 -24 -32 -43 -31 -33 -17 -28 28 11 20 18
21 18 32 -74 7 -51 19 -181 27 -288 9 -107 23 -276 31 -375 18 -198 20 -455 5
-639 -10 -117 -6 -161 10 -117 5 12 12 65 15 117 8 109 18 105 28 -10 4 -44
11 -87 16 -95 13 -22 13 -17 -4 217 -8 108 -17 294 -21 412 -7 239 -30 600
-46 700 -5 36 -19 82 -29 103 -20 38 -13 50 11 20 8 -9 88 -80 179 -158 91
-78 259 -229 373 -336 370 -344 421 -390 491 -440 66 -47 86 -53 86 -25 0 12
-175 177 -410 388 -52 47 -201 174 -330 282 -199 168 -410 359 -410 372 0 16
32 -7 98 -69 291 -277 594 -533 835 -705 61 -44 140 -106 175 -139 58 -55 62
-61 56 -92 -9 -43 15 -39 29 5 11 34 26 54 39 54 13 0 6 -34 -27 -140 -15 -47
-31 -107 -36 -133 -4 -26 -11 -57 -14 -67 -8 -25 10 -27 20 -2 6 16 41 -68
103 -251 9 -26 19 -47 24 -47 10 0 10 7 -8 125 -8 55 -16 181 -19 280 l-3 180
9 -160 c14 -245 26 -294 28 -114 1 195 -8 299 -26 299 -10 0 -12 6 -8 19 7 22
-22 36 -54 26 -15 -4 -22 3 -35 37 -39 99 -127 193 -142 153 -4 -9 5 -39 19
-67 l25 -51 -83 83 c-48 48 -88 80 -94 76 -6 -4 -8 -13 -4 -19 12 -20 -58 29
-156 110 -173 141 -431 365 -431 373 0 4 7 10 15 14 14 5 78 -49 350 -303 61
-56 124 -111 140 -122 35 -24 -84 91 -302 293 -135 124 -164 158 -133 158 11
0 142 -107 275 -225 129 -114 184 -157 196 -149 16 10 -16 45 -156 169 -151
134 -204 185 -189 185 5 0 54 -41 109 -92 273 -249 521 -463 540 -463 12 -1
28 -5 36 -10 22 -12 0 9 -136 128 -66 58 -203 187 -305 287 -119 117 -144 145
-72 78 339 -309 460 -414 451 -392 -2 5 -112 110 -244 233 -132 123 -253 236
-268 251 l-29 27 46 62 c25 34 59 86 76 116 34 59 38 62 60 43 8 -7 6 -3 -5
10 -19 23 -19 24 12 85 37 73 103 222 103 231 0 20 -24 -13 -55 -74 -19 -38
-39 -71 -44 -74 -14 -9 -116 108 -145 166 -69 142 -103 459 -60 563 7 18 6 18
-9 6 -37 -29 -47 -147 -27 -311 24 -192 63 -284 163 -385 l69 -69 -21 -43
c-11 -24 -24 -43 -29 -43 -4 0 -26 19 -47 41 -36 38 -37 40 -8 19 21 -15 38
-20 50 -15 17 7 17 8 -2 18 -89 52 -194 261 -241 482 l-24 110 4 -85 c6 -126
73 -320 151 -434 15 -22 29 -49 31 -60 2 -11 19 -36 39 -56 19 -20 35 -41 35
-47 0 -19 -77 -147 -114 -188 l-35 -40 -32 32 -32 31 47 90 c48 95 51 102 38
102 -5 0 -26 -34 -48 -76 -21 -41 -43 -79 -49 -84 -7 -6 -66 46 -168 148
l-157 157 35 90 c53 135 81 247 119 485 20 119 42 234 50 256 22 62 55 124 81
150 22 22 22 24 5 24 -37 0 -101 -109 -125 -212 -8 -35 -26 -137 -40 -228 -14
-91 -39 -215 -55 -277 -32 -124 -80 -248 -95 -247 -6 0 -46 41 -91 90 l-81 90
-7 134 c-7 139 6 358 24 420 13 45 13 71 1 51 -7 -11 -9 -11 -14 0 -8 21 -27
-9 -27 -45 0 -15 -9 -65 -19 -110 -11 -44 -25 -142 -31 -216 -7 -74 -17 -144
-22 -155 -15 -36 0 344 21 500 27 204 29 234 14 239 -6 3 -11 -3 -11 -12z m25
-734 c-2 -13 -4 -3 -4 22 0 25 2 35 4 23 2 -13 2 -33 0 -45z m23 -133 c2 17 3
17 7 3 7 -27 32 -22 26 5 l-5 22 19 -22 c10 -11 42 -48 71 -82 52 -59 59 -77
18 -46 -26 19 -56 19 -56 0 0 -8 16 -33 36 -55 24 -26 34 -46 30 -56 -6 -15
-21 -12 -21 4 0 4 -25 31 -56 59 -31 29 -64 70 -75 92 -10 22 -22 37 -26 35
-10 -6 -10 52 -1 86 6 23 8 21 19 -20 7 -25 13 -36 14 -25z m-25 -85 c8 -26
-4 -48 -16 -29 -12 19 -11 49 0 49 5 0 12 -9 16 -20z m205 -82 c0 -24 -9 -23
-37 4 -31 29 -29 38 7 25 18 -7 30 -19 30 -29z m185 -169 l150 -152 -120 106
c-66 58 -137 118 -157 134 -33 25 -51 63 -30 63 4 0 75 -68 157 -151z m-338
27 c39 -29 55 -56 33 -56 -5 0 -49 39 -97 86 -73 71 -79 79 -33 44 30 -24 74
-57 97 -74z m182 40 c13 -14 20 -29 16 -36 -3 -6 -3 -9 2 -8 10 3 248 -230
242 -236 -8 -8 -293 265 -296 284 -4 27 9 25 36 -4z m-237 -53 c70 -69 79 -83
54 -83 -13 0 -126 119 -134 141 -9 23 18 4 80 -58z m246 -30 c239 -210 297
-292 119 -169 -52 36 -98 66 -101 66 -22 0 4 -38 65 -93 52 -47 70 -70 65 -82
-8 -21 -36 1 -186 144 -96 92 -103 102 -87 114 9 8 17 17 17 21 0 9 31 56 38
56 2 0 34 -26 70 -57z m232 -108 c30 -30 52 -55 49 -55 -2 0 -29 25 -59 55
-30 30 -52 55 -49 55 2 0 29 -25 59 -55z m-99 -85 c56 -39 73 -60 47 -60 -14
1 -128 99 -115 100 4 0 35 -18 68 -40z m200 -17 c13 -16 12 -17 -3 -4 -10 7
-18 15 -18 17 0 8 8 3 21 -13z m-25 -27 c10 -8 15 -18 11 -22 -4 -4 -17 2 -29
14 -25 25 -13 30 18 8z m-23 -24 c10 -10 14 -21 11 -25 -8 -7 -54 22 -54 34 0
15 26 10 43 -9z m240 -219 c59 -52 107 -97 107 -100 0 -7 -12 2 -115 93 -44
38 -106 91 -137 118 -32 27 -58 53 -58 58 0 5 21 -9 48 -33 26 -23 95 -84 155
-136z m286 -501 c39 -38 37 -37 -14 6 -33 28 -91 80 -130 117 l-70 67 84 -74
c46 -40 104 -93 130 -116z m160 58 c34 -64 38 -78 17 -61 -21 18 -96 135 -96
151 0 24 47 -29 79 -90z m114 -530 c7 -54 6 -54 -8 -23 -8 17 -24 64 -36 105
l-21 73 23 85 24 85 6 -135 c3 -74 9 -160 12 -190z" />
                <path d="M291 2024 c0 -11 3 -14 6 -6 3 7 2 16 -1 19 -3 4 -6 -2 -5 -13z" />
                <path d="M6420 2860 c0 -5 29 -49 65 -97 70 -95 109 -182 150 -336 30 -110 31
-184 6 -308 -10 -52 -22 -116 -25 -144 -4 -27 -11 -72 -17 -98 -13 -56 -7 -69
15 -35 21 32 86 356 86 428 0 113 -75 348 -143 452 -66 99 -137 171 -137 138z" />
                <path d="M5512 2757 c-20 -24 -35 -108 -30 -171 4 -39 18 -94 40 -147 112
-268 130 -316 132 -353 2 -23 6 -70 11 -106 9 -81 -3 -142 -61 -315 -24 -71
-44 -131 -44 -133 0 -3 7 2 17 9 38 32 111 248 122 363 l7 71 32 -97 c67 -204
60 -387 -22 -602 -28 -74 -31 -86 -17 -86 12 0 65 114 91 196 31 95 39 292 16
387 -23 98 -138 410 -211 572 -35 77 -68 158 -74 180 -18 65 -14 165 8 208 14
27 15 37 6 37 -7 0 -17 -6 -23 -13z" />
                <path d="M5960 2696 c0 -11 127 -269 152 -309 44 -68 46 -50 4 30 -20 37 -59
116 -87 176 -28 59 -55 107 -60 107 -5 0 -9 -2 -9 -4z" />
                <path d="M1657 2455 c-29 -140 -55 -238 -104 -390 -55 -169 -88 -237 -160
-332 -77 -101 -65 -123 15 -27 73 88 112 161 158 294 35 101 43 103 19 5 -42
-180 -114 -335 -200 -433 -30 -35 -55 -67 -55 -71 0 -23 17 -14 59 33 142 156
197 300 247 645 14 97 30 207 35 244 16 110 6 133 -14 32z" />
                <path d="M1402 2345 c-105 -159 -145 -201 -224 -233 -21 -8 -38 -19 -38 -23 0
-20 21 -15 86 20 55 29 80 51 120 105 64 85 178 286 161 286 -1 0 -48 -70
-105 -155z" />
                <path d="M120 2215 c0 -8 5 -15 10 -15 6 0 10 7 10 15 0 8 -4 15 -10 15 -5 0
-10 -7 -10 -15z" />
                <path d="M6717 1822 c-19 -20 -23 -37 -7 -27 10 6 33 45 27 45 -2 0 -11 -8
-20 -18z" />
                <path d="M1300 1801 c-20 -39 -40 -138 -46 -231 -11 -170 42 -328 147 -442
l49 -53 -54 81 c-56 84 -89 161 -108 248 -21 100 9 383 42 394 15 5 12 22 -5
22 -8 0 -19 -9 -25 -19z" />
                <path d="M5420 1766 c0 -2 -11 -58 -25 -126 -14 -68 -25 -149 -25 -181 0 -60
17 -156 28 -163 4 -2 7 53 7 122 0 70 4 141 8 157 l9 30 29 -55 c64 -124 72
-155 78 -320 10 -240 39 -232 40 11 1 128 -12 176 -85 322 -38 75 -53 115 -49
132 3 14 7 36 10 50 4 18 1 25 -10 25 -8 0 -15 -2 -15 -4z" />
                <path d="M1644 1736 c-10 -27 76 -275 137 -394 103 -202 108 -250 44 -429 -38
-106 -39 -113 -26 -113 13 0 71 147 88 224 21 97 8 155 -73 315 -63 125 -159
385 -148 402 3 5 0 9 -6 9 -6 0 -13 -6 -16 -14z" />
                <path d="M1850 1605 c0 -48 23 -131 56 -203 27 -59 53 -92 138 -180 58 -59
106 -102 106 -95 0 6 -40 55 -90 109 -116 126 -190 269 -190 366 0 15 -4 28
-10 28 -5 0 -10 -11 -10 -25z" />
                <path d="M6877 1573 c-4 -3 -7 -18 -7 -33 0 -15 -3 -30 -7 -34 -15 -15 -7
-171 47 -856 16 -212 31 -414 34 -450 2 -36 2 59 0 210 -2 151 -11 383 -19
515 -8 132 -15 326 -15 432 0 211 -5 244 -33 216z" />
                <path d="M5105 1547 c-5 -20 -1 -47 15 -90 37 -104 47 -138 70 -247 52 -249
135 -369 273 -395 51 -10 47 8 -5 22 -64 17 -122 73 -162 156 -32 65 -86 230
-86 262 0 7 28 -16 63 -52 95 -99 292 -222 384 -239 l31 -6 -89 -87 c-58 -57
-89 -95 -89 -109 0 -12 4 -22 8 -22 13 0 125 74 141 94 22 27 6 29 -25 3 -16
-13 -44 -34 -63 -47 l-34 -24 23 32 c13 18 35 39 47 48 13 8 40 37 59 64 19
27 44 50 56 52 14 2 22 11 23 25 1 18 -1 20 -12 12 -34 -28 -152 15 -288 105
-95 64 -173 138 -221 211 -32 47 -36 61 -41 144 -6 94 -16 106 -31 36 l-8 -40
-16 60 c-14 55 -16 58 -23 32z" />
                <path d="M1438 1475 c-9 -9 11 -83 33 -128 26 -49 121 -147 168 -171 51 -27
47 -12 -7 27 -27 19 -65 54 -85 79 -41 50 -87 142 -87 176 0 21 -10 29 -22 17z" />
                <path d="M2356 1348 c-11 -85 -46 -219 -71 -269 -13 -25 -37 -60 -53 -77 -34
-36 -32 -39 6 -16 62 37 105 126 136 277 20 95 21 137 2 137 -9 0 -16 -18 -20
-52z" />
                <path d="M5780 956 c-49 -36 -76 -64 -68 -71 3 -3 33 19 67 50 69 61 69 72 1
21z" />
                <path d="M2358 830 c-79 -41 -84 -58 -6 -20 l63 31 -40 -37 c-22 -20 -102 -74
-178 -121 -85 -53 -134 -90 -129 -95 6 -6 36 4 78 25 38 19 103 47 144 61 78
28 180 39 187 20 6 -18 -61 -94 -191 -215 -229 -212 -262 -277 -125 -248 28 6
53 9 55 6 3 -2 -3 -23 -12 -45 -9 -23 -14 -47 -12 -54 7 -19 50 70 46 95 -3
24 -27 27 -100 12 -21 -4 -38 -4 -38 1 0 12 52 67 190 199 168 162 200 201
200 243 l0 35 -62 -5 c-35 -3 -96 -17 -137 -31 -83 -29 -83 -29 13 38 90 63
136 104 136 121 0 20 -18 17 -82 -16z" />
                <path d="M1597 839 c7 -7 15 -10 18 -7 3 3 -2 9 -12 12 -14 6 -15 5 -6 -5z" />
                <path d="M1923 638 c-83 -87 -120 -156 -93 -173 5 -3 39 6 75 21 37 14 69 23
73 19 4 -4 -19 -55 -51 -115 -76 -144 -75 -166 4 -130 45 20 32 28 -15 10 -35
-13 -34 0 8 69 74 124 92 176 62 187 -7 3 -42 -7 -76 -21 -34 -14 -64 -24 -67
-22 -10 11 64 117 82 117 3 0 5 -12 6 -27 l1 -28 7 30 c4 17 15 44 24 62 31
59 16 59 -40 1z" />
                <path d="M1685 558 c0 -46 -3 -140 -8 -210 -4 -74 -4 -128 2 -128 4 0 11 17
14 38 11 65 20 328 13 356 -12 49 -21 26 -21 -56z" />
        </g>
</svg>