<svg width="1000" height="1000" xmlns="http://www.w3.org/2000/svg">
    <path fill="#000" stroke="#000"
        d="m523.5 57 17 1q17.6 4.9 32 13 23.9 15.6 42.5 36.5l15 21 23 38 10 20 30 82 12 40 4 21 2 19 4 18 1 13 2 6 4 36 2 8v7l2 8v7l1 1v7l2 8 2 25 3 14 1 27 1 1v38l1 1 1 27 1 1 1 18 6 27q22.7 45.3 58.5 77.5l6 5h5l29 8 27 10q3.2-7.3 16-5l12.5 8 10 17.5 7 28 5 29 1 13 2 7v6l1 1 4 46-8 18v4l7 9 3 8-1 5-5 10q5.7 4.8 6 15l-2 6-6 9-1 18.5h-10.5l-.5-2.5 3-16h-1q-1.6 6.9-7.5 9.5l-10 9h-8l1.5-2.5 12-15.5-8-3.5V975q3 1 2-2l-5.5-1H868l-6 15.5v12.5h-5v-1.5l1-1v-12l4-10V972l-29.5 5-21 6-28 11-9 6H755v-4h-7.5q-1.3-2.3-6-1l-3 5q-4.8 1.7-3.5-2.5l1-2.5-2.5-1h-10l-1-1h-9l-1-1-20-1-2-1-1.5 1.5v8.5h-4v-8.5l-1.5-1.5h-24l-1-1h-18l-1-1-27.5-1v12.5l-4 .5v-13.5l-1.5-.5-11.5 14h-15.5l-.5-1.5 59-69-24.5-18.5-9-6H602l-28 51.5-28.5 43.5q-5.4 1.9-4.5-1.5l26-39 32-58.5-17.5-11-33-25-3.5 8.5-3 15-8 24-2 11-20 56 9 20.5h-14.5l-.5-1.5-14-31-14-37-20-66.5-4.5 2q-24.9 24.6-54.5 44.5l67 89-4.5.5-66-87-24.5 17.5 55 69.5h-14.5l-.5-1.5-13.5-15.5-1.5 1.5v15.5h-4v-13.5l-3.5-.5-1 1h-76l-1.5 1.5 1 11.5h-5v-12h-5.5l-1 1-23 2-8 2-18 1q-1.2 2.2-6 1l-1.5 1.5 1 3.5h-13.5l-33-17-29-9-23-4h-27l.5 1.5 4 13 1 15.5q-3.8 1-5-1.5v-12l-5-15.5h-4.5l-12 4-6.5 5.5 5 10 2 9.5h-8.5l-1.5-1.5-8-16v-8l7-17v-4l-4-9v-7q3.2-4.3 3-12l-8-11v-8l3-10 4-70 1-1v-8l1-1 2-17 10-31q6.2-13.3 16.5-22.5 4-5 14-4l7 5h2l32-12 27-7 20.5-15q-1.1-2.7 1.5-2 24.8-24.7 42.5-56.5l6-14 2-16-15-65-1-27-1-1v-69l1-1v-8l1-1v-7l3-12v-5l6-23 8-43 7-29 10-29 14-52 9-25 17-44 19-36 21-32L388.5 94q18.9-17.1 43-29l16-5 18-2 1 1h12l13 3 3 2h5l10-5 13-1 1-1Zm5.5 10-19 7-6 6 1 2 15-8 3 1-15 7-3 4 15-6q4 1 6-1h26l4 2h-16l-16 3q-10 3-15 10l1 1 8-4 11-2h11l1 1 11 1 24 10 2 3-32-11q-23-3-34 6l-1 2 22-5 7 1-1 1h-5l-13 4-10 7q1 2-2 1l-1 3 1 15 13-7 13-3h13l15 3q16 7 29 17l1 2-26-13-17-4-20 1-14 7-6 10q-1 3 2 4 3-6 11-8l12-3h13l22 6 11 5 14 11 18 21 1 1q-15-16-33-29l-10-5-19-5-15 1 23 3v1h-12l-1-1-19 1-9 4-7 8-1 8 14-9-4 6 7-3q2-1 1 2l-8 4-9 12 1 3 4-4 15-6h15l10 4q2-1 1 2l-6-1-22 1-11 5-6 7 1 2q6-6 16-9l5 1q-9 2-15 7l-3 4v1q7-6 18-8l6 1-12 5v1l9-3q11-1 19 1l13 8 7 9 12 20 7 14 8 23 4 6 4 11 16 32 24 38 10 5 2 5 1 8 16 32 25 65 4 14 2 14 3 9 2 15 3 11 4 36 6 31h1l-1-17-1-1v-12l-1-1v-42l-1-1v-9l-9-44-14-40-22-42 1-2q20 26 33 60h1q-1-15-6-26l-10-21q-19-32-41-61l-15-26-15-32-5-14-29-60 1-2 9 15 14 30 14 23 25 50 39 63h1v-3l-11-32-26-52-13-48-6-17 1-2 11 23 7 20 26 60 20 63h1l-3-29-2-8v-7l-3-11-4-27-9-33-15-38-8-28-24-48q-19-33-41-61l-8-9-25-19-22-10-16-1Zm-54 1v1q10 1 18 6h1q-7-6-19-7Zm-21 5-1 1-14 1-12 4-11 6-18 14-23 26-14 21-16 28-23 58-4 15-15 41-7 27-2 3v3l-16 46 1 2 18-35 17-44 17-33 35-61 14-17q-1-3 2-2l2-1-9 14-47 88-17 43q-18 29-31 64l-7 20-8 35-1 17-1 1v44l-1 1v47l1 1v7l4 22 5 20h1q2-7-1-8v-56l1-1v-10l1-1 2-19 4-13 2-1q1 4-1 6l2 25 6 26h1l-1-23-1-3v-41l1-1 3-23 2-5q-1-4 2-3v13l4 19v5l8 26q9 22 21 41l33 49 16 39 5 26v33l-1 1-1 12-7 27-8 19 1 1q11-16 18-37l5-22 1-21 1-1v-20l-1-1-1-15-12-49-14-40-17-40-11-37-5-28v-7l-1-1-2-39-10 24-6 30v19l3 15 17 45 16 30v1l-6-7-25-46-9-22-5-23v-18l1-1 1-11 6-22 9-24 23-46 29-52 24-54 17-30q8-11 22-17l16-6 15-1 1-1 13 2 14 6q2 1 1-1-11-10-30-11l3-2q21 0 32 11l1 3 3 2-2-4q-9-12-25-15h-18l-12 4h-3l9-5 8-2 22 1 15 7 7 8h1l-10-17q-6-5-15-8v-1q11 1 18 7l5 9 2 1q-1-10-7-15-5-7-13-10l-10-2h-10l-7 2h-5q-14 3-24 9h-2l12-7 24-6h16q9 2 16 6l8 8-5-11-10-10-2-3 8 5v-2q-5-4-13-6l-16 1-17 5q-31 13-54 33l-1-1q16-17 38-27l21-10 23-5 13 2 11 8 1 3 3 2q0-8-4-12-6-11-20-14h-10l-1 1-15 1-22 7q-28 16-49 39 1 2-1 1l-2 1 4-6q18-20 41-34l16-8 20-5h22q11 2 19 9l1 1q0-11-5-15-5-8-14-11l-14-3-17 1-26 6q-18 8-31 20l-5 4 1-2 28-23 16-7 24-5h12l10 2 18 9 1 1-1-3q-12-17-37-20v-1h9l10 2q10 4 17 12-1 2 2 1l-1-4q-8-15-30-15v-1q15 0 25 6l3 3-1-3q-8-7-20-10-5 1-6-1h-17Zm-1 126-13 3-11 6-14 16-37 76-11 26-2 9v12q-2 1 1 2l25-1h13l1-1-1-2-8-1-10-11 6 2-1-4 4 2h3q1 2 2 0l-4-5 1-2q1 3 7 2l-1-3 10 2 1-6v2q1 3 5 2l1-4 1 4 20 1 13 7 11 13 3 3-11-9h-2l9 14v2l16 3 3-1v-13l2-1 2 12 3 3h18l1-1q1 3 8 1l2-4 1-8 3-2v9l-1 1q-1 3 2 4l17-3 4-10 4-5v-2l-3 2-10 9 3-5q8-12 22-18l10-2h12l3-4 1 5 2-1 2-3h1l-1 5q7 1 12-2 2-1 1 2l-2 3q6 1 8-3l1 1-4 6 8-2 1 1-1 2 3-1 1 1-2 3-12 9 2 1h22l1 1h9v-3l-3-6-13-21-4-5-18-8-8 2-46 20q-7 3-17 2v-5l3-10h1q-1 3 2 2l2-6 3 1 10-5 45-13 7 2 9 6h1l-18-35-9-28-14-23q-8-13-25-16h-10l-15 4h-21l-8-3-12-1-1-1h-27Zm-28 138-1 3 1 6 6 3 9-1 3-5-2-4-1 5-4 3-6-2q-4 0-3-4l3-2v-2h-5Zm142 0q-1 5 3 3 2-4-3-3Zm-148 1-10 5 1 2 4 3 5 1 2-1q-3-4-2-10Zm168 1-4 9h8l4-4v-3l-8-2Zm-29 1-5 3-7 9-1 2 17-3-4-11Zm20 0-1 4-5 2-4-1-5-3 1 6 4 1 8-1 4-2 1-4-3-2Zm-130 1q-1 7-6 10l13 3h6l-1-2-12-11Zm153 4q-3 2 0 3l2-1-2-2Zm-218 7-1 1h-10l-1 1-13 1-10 4-3 3-1 4v16l10 2 2 5 2 16 5 16q4 11 12 20t21 15l20 4 19-1q13-4 22-12 13-12 21-28l8-21 1-10v-2l1-2q-2-2-1-6l-4-6q-3 1-2-2l-15-9-26-6-14-1-1-1h-11l-1-1h-30Zm208 0-1 1h-11l-1 1-14 1-19 4-9 3-13 8-5 6-2 7 2 16 4 12 18 30 10 8 12 7 9 3h9l1 1q26 0 41-12 11-9 17-22l5-14 5-26 3-3q5 1 7-1l1-3v-11l-6-9-3-3-5-1-14-1-1-1h-12l-1-1h-15l-1 1q-4-2-11-1Zm-113 10 1 2 7 4 4 7 2 6 6-3q10-1 15 3v-4l3-6q3-6 10-7l-41-1q-2-2-7-1Zm22 21-4 2-4 5-6 23-10 19q-1 7 2 10 1 2-1 1l-4-6-4 5q-8 9-19 16l-12 5-12 1-1 1q-26 1-40-10h-2q4 15 11 28l12 16q-1 2 2 1l1 3q27 26 59 49l14 8 10 2 28-1 9-4 57-43 6-6 16-23 11-26v-4l-17 8-16 1-1 1-19-2-13-6-14-10-6-7q1-3-2-2l-3 5h-2l3-6-1-6-11-20-4-13-1-9-4-5-8-1Zm-153 6v13l3 6 3 1 1 1-4-18-3-3Zm311 0-4 1-4 17q-1 3 2 2l4-4 3-9q1-8-1-7Zm-316 11-1 31 1 1v8l1 1v7l1 1 3 24 7 30 10 30 9 21 17 56 6 31 2 42 1-6v-10l1-1 1-15 4-20-1-36-7-29 1-2 3 4 5 12 4 25 2-5 3-16v-24q-3-2-1-8l-7-27-6-14q-15-15-24-35l-5-13-5-20-2-4-2 8 1 15 1 1 3 23 2 4v5l5 19 7 19 6 28 2 4v6l2 5 5 28v12l-3-17-13-51-15-47-2-3q-1-10-4-17l-1-13-1-1v-9l-1-1-1-33-4-4q-9-7-10-20Zm324 7-3 25-4 20-6 20-23 56-8 29-1 12-1 1 1 21 6 28 9 23 12 18 23 20 25 14 37 14 37 9 4 2h1l-47-31-38-29q-20-17-32-41l-8-27-1-20q-2-2 1-3l6 28 9 21q12 21 29 38l19 14h1l-22-30-8-17-5-21v-33l1-1v-12l2-9 1-17 1-1v-12l1-1v-36l-1-2-2 30-1 1-2 17-4 14-2 16h-1l1-22 6-25 1-20 1-1-1-38-4-25-5 38q-6 25-16 46l-2 1 10-30 5-28v-24l-1-1v-14l-1-5Zm-12 16-8 5-10 14-5 19-12 28-16 20-5 10-8 28v24l7 18h1l-1-18-1-1 1-25q3-17 9-31l2-1-3 10-1 14-1 1v40q2 1 1 6l6 25 11 22 2 1-5-18-2-17-1-1v-30l5-24 8-22v-3l11-25 13-35 3-12v-21l-1-1Zm36 31q1 5 0 15l1 1v11l1 1v30l-1 1v12l-1 1-1 16-1 1 1 6 13-56-1-14q-4-14-11-25Zm18 59-2 2-4 20-6 19-4 23 3 25 10 32v2q-11-18-16-41h-1v10l2 10 7 18q14 26 34 47l19 16 38 23h1l-4-4-34-37q-14-18-23-41l-6-18-4-19-2-26-2-8-2-23-1-1-1-17-2-12Zm-413 4-1 4v2l1 1v22l1 1v50l-6 28-5 17-9 20-18 26-25 22-13 8-1 2q25-9 44-25l12-15 3-2-2 7-11 22-22 33-22 39-10 26-3 16 1 15 2-8 15-28 17-25 39-48 23-37 9-20q-2-6 2-5l-3 14-8 16-26 44-21 30-12 23-9 24-4 20v31l2 6 1 11 4 14 11 20q8 11 22 18h1q-13-11-19-28l-8-24-1-11-1-1 1-14 4-12 30-57 7-19q12-21 20-45 9-21 21-37l1-7 2 1-1 6q-18 29-31 63l-6 21-2 10v8l-1 1v14l3 14v6l6 22q7 16 19 28l19 14q13 8 31 13h3l-11-6-13-10-9-11-9-18-5-18-1-21-1-1 1-19 6-25 6-12 11-15 5-4-13 27-5 17 1 2 16-31 18-30 6-15 2-10v-9l1-1v-22l-1-7-2 2-4 17-11 30-21 38-2 1 20-47 7-21 3-14v-22l-3-14-8-22-16-29-4-3 12 37 4 23v26l-1 1v9l-1 1-1 13-3 12-13 29-14 22-7 15-6 22-3 25-2-4 1-22 6-22 8-18 15-26 11-26 2-11v-9l1-1v-20l1-1-1-28-11-35-12-29-15-24-4-9h-1l2 9v3l-8-24Zm284 16-37 29-16 9-7 2h-30l-12-3q-28-15-51-34l-3-1 3 16v12l1 1v20l-1 1v13l-1 1-1 19-5 29-5 17 12 39 7 2h33l9 3 10 8 9 10v1l-6-1q-8-8-19-12l-4-1h-23l-10-2-4 1 11 34 2 12 12 43v4l16 62 20 59 15 37q-1 3 2 2l33-109 8-40 14-56 1-9 11-39 1-2q-6-1-7 1h-22l-4 1-19 14h-4l7-9q6-8 16-12l5-1h24l6-1 6-20 9-44v-6l-5-13-5-21-2-20-1-1v-9l-1-1v-17l1-1v-12l1-1v-4Zm22 83-1 21-1 5q12 0 21 5h1l-20-31Zm-1 30-2 2-6 35 12 3 43 17-6-34-15-15-17-7-9-1Zm47 28 5 30 2 1 12 3 19 2 1 1h5q-5-4-7-11l-24-15-13-11Zm-238 8-9 26-11 22-3 9v1l16-13q7-6 18-6l-9-29-1-8-1-2Zm183 5-2 2q-2 18-9 32l2 1 10 2 6 4 25 23 2 4h2l18 17h8l-1-3v-14l-1-1v-9l-1-1v-10l-1-1-2-24-45-19-11-3Zm61 22v12l2 9 1 22 1 1v14l1 5h26l1-1 44-2h2v-2l-8-12-19-24-9-15-22-2-20-5Zm63 3 21 24 18 24 10 20 2 9v8l1 1v21l-1 1v11l-2 6 1 3 2-4 3-12v-27l-5-20-12-22-23-32-5-6-10-5Zm-6 6 1 2q1-3-1-2Zm3 3 1 2q1-3-1-2Zm2 2-1 2 19 23 10 17 11 27 5 24v21l-2 11 1 5 4-15 1-21 1-1-1-1v-15l-1-1-1-11-7-19q-16-27-39-46Zm29 0 23 42 6 17 2 12h19l1 1h7l-1-1v-9l-1-1-3-28-4-22-31-6-18-5Zm-328 3q-17 5-26 18l17 26v2l14 23 4 3 14-11-5-19-1-10-11-29v-3h-6Zm-176 1-31 8-3 3v6l-2 6v6l-2 6-2 19-2 7v7l8-1 10-23 26-43-2-1Zm340 2-11 33v6l-2 5v6l-2 6-2 15 14 8 34-56-16-17-8-5-7-1Zm218 7 2 19 5 25 1 15 2 1 15 2 26 7 15-39 1-7-29-12h-4l-2-2-21-6-3-2-8-1Zm-599 1q-33 9-59 24 4 24 11 43l37-8h5l4-31 5-23q2-7-3-5Zm187 10-26 37-17 20q-3-1-2 2l-5 4-6 7 1 16 2 10 4 10 5 6 10-5 68-52-23-40-9-13q1-3-2-2Zm-261 5-3 2-5 5-3 13v7l-2 7-1 16-1 1v9l2 1h7q2 3 9 2l20 8 1 1-7-22-12-47q-1-4-5-3Zm756 0-2 1-3 3-6 13-18 52v1l23-9 18-3-2-24-6-31-4-3Zm-266 4-13 18-22 36v2l53 35q13-26 31-48l-29-23-10-10-10-10Zm276 0 7 54q8-1 12 2l-9-39q-4-10-10-17Zm-781 13q-11 19-14 45l8-1 2-5 1-17 3-16v-6Zm246 0-6 7 1 1 5-6v-2Zm378 12-13 3-27 3-1 1h-12l-1 1h-12l-1 2 37 24 16 8 10 3 3 5-5 9-38 47h8l1 1h19l1 1h24l-1-7h-3l8-17 3-16v-23q-3-2-1-8-4-19-12-34l-3-3Zm-491 3-14 21-7 16-4 15-1 16-1 1 1 18 9 29 2 1-2-17-1-1v-7l-1-1v-8l-1-1 1-22 4-17 11-32 4-8v-3Zm196 9-82 63-12 7 1 5 6 8 18 16 21 11h7v2l26-19q2 1 1-2 14-9 26-21l5-3v-3l-6-17-10-43q1-5-1-4Zm337 5v30l-4 18q-6 16-17 28l-3 2q-7 3-5 13l3 1 23 2 22 4 10-21-1-57-1-1q2-11-1-16l-1-2h-15l-1-1h-9Zm-575 1-4 1-1 5v20l-1 1v50l7 16q4-3 10-2l-8-28-4-20v-9l-1-1 1-18 4-13-3-2Zm-11 1-37 9 3 12 20 50 23 30h2l-11-29 1-58 1-1v-12l-2-1Zm617 0 1 26 1 1v48l-10 22 1 2q13-13 23-28l24-61-22-7-18-3Zm-139 1-32 49 42 30 40-46v-2q-28-13-50-31Zm-105 4-2 2-6 31-2 4 1 3 19-32-10-8Zm336 9 1 18 1 1v39l-1 1v8l-2 10 9 1 11 6h2l1-5-1-2v-12l-1-1-1-17-5-25-2-18-4-3-8-1Zm-321 1-29 45 32 24 21 13 28-45-52-37Zm309 0-12 3-24 10-14 29q-18 23-33 51l-6 7 1 1 2-3 26-25q2 1 1-2l38-27 2-1v2h-2v2q-3-1-2 2l-44 45 28-12q6 0 11-3h5l6-2h8l1-1h14l1-1 1-14 1-1v-12l1-1v-20l-1-1-1-24q-2-4-8-2Zm-784 2-6 2-2 2v9l-1 1-1 29-2 11-1 23-1 1 1 4 6-4 10-3-2-10v-10l-1-1v-39l1-1v-13l-1-1Zm6 0-1 6v16l-1 1 1 38 1 1q-1 8 1 13h20l19 4q18 5 33 14l-1-2q-3 1-2-1l-3-3-3-3-6-5v-1l-34-35 1-2 36 28q2-1 1 2l10 7 17 17-8-11-13-23-14-19q-7-12-11-27l-6-5-21-8-16-2Zm163 1-5 10-4 19v15l5 23q7 19 20 33l15 13h1q-26-24-35-64v-34l3-11v-4Zm14 9-4 3 4 5 4 3-2-7q2-5-2-4Zm-7 19-1 7v14l5 17 16 27q7 9 18 13l-13-17-9-17-9-26-1-9v-2l-4-5q1-3-2-2Zm-22 2-4 8-2 9v13l5 15 14 25 9 8h1q-14-20-21-46l-2-9v-23Zm378 6-10 13-18 30-1 4 34 24h2q-1-3 2-2l4-6 24-28 3-6-40-29Zm-327 33q1 16 10 27l6 5q-8-11-12-25l-4-7Zm380 4-2 2 3 93 48 4 2-20 1-1v-7l1-1 1-21 1-1v-21l1-1-1-3v-20h-13l-1-1h-21l-1-1-19-1Zm-475 3-9 2 4 10 19 32 7 21 8 32 12-2h9l1-1 22-2 1-1h7l1-1h9l1-1q2 1 1-1v-2l-1-1v-36l-17-13-2 1 8 10q-1 2 2 1v2l5 2q4 2 1 4-29-2-44-17-16-11-24-30h-1l4 18 7 15h-1q-18-16-28-40 1-3-2-2Zm534 0 1 6-1 45-1 1v10l-1 1-2 25-2 8q5 2 15 1l1 1 15-53 18-32 2-7-29-5-16-1Zm141 1-1 1h-12l-1 1-11 1-26 8-19 9-18 13-8 9 51-20 21-5 3 1-5 3-24 9-40 20-14 9-5 7-6 19 43-20 58-17 6-15 2-20q3-6 10-6l1-4v-3h-5Zm-777 1v7l4 13v21l17 3 40 13 17 7 36 19h2l-5-12-2-9-9-8-18-10-35-16-21-7v-1l14 1 18 5 37 15h2l-16-16-28-15-32-9-21-1Zm571 0-70 83v3l2 1h20l1 1h12l1 1h24l1 1h11l1-1-1-43-1-1v-30l-1-1v-14Zm217 0-2 2q1 5-1 7l-7 3-3 3-2 20-4 9v1l29-5 6 1 1 2-1 2-36 9-8 3-2 14h22l8 2 3-1 13-16 7-15-10-15v-6l5-12q-6-8-18-8Zm-794 1q-11 3-17 10v5l7 9 1 4-1 7-2 4v7l4 9q-2 12-7 21l1 1 6-4 16-4-1-5v-16l-12-2-4-2-2-2 2-2h15l-1-2v-22l-4-12q1-5-1-4Zm219 0v6l5 11 7 11 13 10q2-1 1 2-6 2-17 1l7 9-6-2-14-9v2q3-1 2 2l6 4 4 5-1 1-12-2-10-4 1 39 7-1h75v-6l-6-8-44-52-18-19Zm27 8 17 21h2l13-9 3-4q-6-1-7 1l-13-1-15-8Zm-46 26 1 2h1l-2-2Zm-189 15 1 18 2 1h27l1 1h8l27 6 27 10 19 10q3 1 1-4l-38-22-3 1h2l3 5-14-4-31-16-21-5-11-1Zm750 8q-18 10-39 16-4 1-3-1l9-7v-1h-3l-25 9-31 15q-5 2-4 9l28-12 21-7 33-7h12l3-13-1-1Zm54 9-7 11 3 5 5-9q1-6-1-7Z" />
    <path fill="#000" stroke="#000"
        d="M534.5 111h24l10 2q17.9 6.3 30.5 17-1.1 2.7 1.5 2l13.5 13.5 30 40-1.5.5-10.5-9.5-31.5-40.5q-2.2.8-1.5-1.5-13-13-33.5-18.5l-5-1h-31l-1 1h-8l1-2 13-3ZM389.5 140l-.5 1.5-4 6.5q-2.7-1.1-2 1.5-29.3 38.2-53.5 81.5l-.5-2.5 19-39 16-24 23.5-24.5 2-1ZM545 159l9.5 1 14 6q17.8 9.7 31.5 23.5 17.9 19.6 30 45l-1.5.5-27.5-38.5-13.5-14.5q-11.9-10.6-28-17l-14.5-4v-2ZM433.5 178q2.6-.7 1.5 2l-3.5 1-14.5 12.5-10 12.5-3 1.5-16 23-13 26-29 44q-20.3 38.7-44 74l-9 19-13 35-8 31V471q-3.7 1.4-2-4.5l-1-1v-13l1-1 1-12 7-24q9.5-25.5 22-48l10-14 43-77 39-58.5q2.7 1.1 2-1.5l24.5-28.5 15-10ZM551.5 178q16.8 3.7 26.5 14.5l11 15-8-7-7.5-8.5q-9.5-8.5-23.5-12.5l1.5-1.5ZM624.5 178l2.5 1.5 18 30 5 11.5-3-1.5-17-29-5.5-12.5ZM400.5 200l.5 1.5q-8.7 8.5-14 19.5-2.7 1.1-2-1.5 6-11.5 15.5-19.5ZM669.5 244l7.5 19.5 7 25-2-1-10-29-3-11 .5-3.5ZM406.5 294l48 13 10 5q1.7-2.8 3.5 1.5l1.5 3.5 1-3q4.7 5.7 3.5 16h-9.5l-8-2-47-21-6-1-25 10 7-8 21-14ZM391.5 355h25l1 1h12l1 1h9l10 2 21 8 7.5 6.5q5.7 7.3 4 22-6.3 34.2-29.5 51.5l-11 7-10 3h-8l-1 1-2-1-2 1-1-1-14-1-6-2q-13.7-5.8-22.5-16.5l-6-9-6-15-3-13-1-14 1-1v-9l3-8 7.5-7.5 9-4 11-1 1-1Zm2.5 5-1 1-12 1-11 5-4 7-1 5v20l7 26 3 1v-1l59-62-3-2h-12l-1-1h-24ZM584.5 355h20l1 1 17 1q11.3 2.8 17.5 10.5l4 10v21l-6 23q-5.8 15.2-17.5 24.5l-13 8-12 3-11 1-1-1h-11l-12-4q-11.7-5.8-19.5-15.5l-14-22-5-16-1-14 2-8 3-5.5 6.5-5 13-6 17-4 21-1 1-1Zm6.5 5-1 1h-14l-1 1-15 1-16 4-12 6-5 8v17l5 17 4 7 7-5q-1-3 2-2l19-20v-2l4-2q-1-3 2-2l2-3q2 1 1-2h2v-1l3-2v-1l17-18q1-4-4-2ZM486.5 431q6.4-.4 8.5 3.5l2 4q-2.3 3.7-4.5-1.5l-4-1-2.5 4-4-2.5 2.5-5.5 2-1ZM512.5 431q7.3-1.2 9.5 2.5l1 3q-1.3 3.5-6 2.5 1.8-4.5-3.5-3l-2.5 1q1.1 2.7-1.5 2l-1.5.5v-4l4.5-4.5ZM643.5 438l.5 2.5-4 18-5 14-16 30-4.5 11.5-.5-2.5 2-7 19-39 6-23 2.5-4.5ZM489.5 466l13 4 8-3h8l9 4 17 14 7.5 1q1.1 2.7-1.5 2l-22 26-13 7-5 1h-18q-16.7-4.8-25.5-17.5-5.8-10.6-15-18l9.5-2.5 17-14 11-4Zm-.5 5-7 3-13 9-4 5 5 1q15 2 23-4l7 2q7 1 10-2 10 0 16 4h11l1-1q3 1 2-1-9-11-23-16-9-1-13 3h-4l-5-3h-6Zm25 21-5 2-3 5-4-2-2 4-1-4-5-4h-10l-1 1h-12l-1-1h-6v3q8 10 20 16l8 3q6-2 8 1 19 1 29-8l9-9 2-6-6 1h-9l-11-2ZM373.5 486l20.5 43.5 5 15 3 17-1.5 2.5-.5-6.5-6-20-19-41-1.5-10.5ZM314 562q3.7-1.4 2 4.5l2 10V587l-2-.5v-12l-2-12.5ZM313 603q2.7-1.1 2 1.5l-1 1-1 15-6 31-13 34q-8.5 19-20 35l-29 32v1.5q-2.7-1.1-2 1.5l-4 2.5-2.5 4-2 1-.5-1.5 37-43 20-35 13-35 9-45.5ZM656.5 647q12.5 15 29 26l20 11 5.5 1q1.4 3.7-4.5 2-1.5-2.5-7-1l-10-4-20.5-17.5-12-14-.5-3.5ZM318.5 800l.5 4.5-1 1v31l1 2.5q-3.7 1.4-2-4.5l-2-8v-14l2-11 1.5-1.5ZM138 983l3.5 1 14 1 21 5 25.5 9.5-29.5.5-8-5-26.5-10.5V983Z" />
</svg>