<svg xmlns="http://www.w3.org/2000/svg" viewBox="0 15.5 203.39999389648438 37.400001525878906" data-asc="1.05" width="203.39999389648438" height="37.400001525878906"><defs/><g fill="#ffffff"><g transform="translate(0, 0)"><path d="M30.40 17.40L30.40 52.50L21.85 52.50L21.85 38.05L8.55 38.05L8.55 52.50L0 52.50L0 17.40L8.55 17.40L8.55 31.15L21.85 31.15L21.85 17.40L30.40 17.40ZM62.85 38.10Q62.85 39.30 62.70 40.60L43.35 40.60Q43.55 43.20 45.03 44.58Q46.50 45.95 48.65 45.95Q51.85 45.95 53.10 43.25L62.20 43.25Q61.50 46 59.68 48.20Q57.85 50.40 55.10 51.65Q52.35 52.90 48.95 52.90Q44.85 52.90 41.65 51.15Q38.45 49.40 36.65 46.15Q34.85 42.90 34.85 38.55Q34.85 34.20 36.63 30.95Q38.40 27.70 41.60 25.95Q44.80 24.20 48.95 24.20Q53 24.20 56.15 25.90Q59.30 27.60 61.08 30.75Q62.85 33.90 62.85 38.10M54.10 35.85Q54.10 33.65 52.60 32.35Q51.10 31.05 48.85 31.05Q46.70 31.05 45.23 32.30Q43.75 33.55 43.40 35.85L54.10 35.85ZM65.65 38.50Q65.65 34.20 67.28 30.95Q68.90 27.70 71.70 25.95Q74.50 24.20 77.95 24.20Q80.90 24.20 83.13 25.40Q85.35 26.60 86.55 28.55L86.55 24.60L95.10 24.60L95.10 52.50L86.55 52.50L86.55 48.55Q85.30 50.50 83.08 51.70Q80.85 52.90 77.90 52.90Q74.50 52.90 71.70 51.13Q68.90 49.35 67.28 46.08Q65.65 42.80 65.65 38.50M86.55 38.55Q86.55 35.35 84.78 33.50Q83 31.65 80.45 31.65Q77.90 31.65 76.13 33.47Q74.35 35.30 74.35 38.50Q74.35 41.70 76.13 43.58Q77.90 45.45 80.45 45.45Q83 45.45 84.78 43.60Q86.55 41.75 86.55 38.55ZM116.85 45.25L116.85 52.50L112.50 52.50Q107.85 52.50 105.25 50.23Q102.65 47.95 102.65 42.80L102.65 31.70L99.25 31.70L99.25 24.60L102.65 24.60L102.65 17.80L111.20 17.80L111.20 24.60L116.80 24.60L116.80 31.70L111.20 31.70L111.20 42.90Q111.20 44.15 111.80 44.70Q112.40 45.25 113.80 45.25L116.85 45.25ZM138.75 24.30Q143.55 24.30 146.45 27.47Q149.35 30.65 149.35 36.20L149.35 52.50L140.85 52.50L140.85 37.35Q140.85 34.55 139.40 33Q137.95 31.45 135.50 31.45Q133.05 31.45 131.60 33Q130.15 34.55 130.15 37.35L130.15 52.50L121.60 52.50L121.60 15.50L130.15 15.50L130.15 28.35Q131.45 26.50 133.70 25.40Q135.95 24.30 138.75 24.30ZM181.60 38.10Q181.60 39.30 181.45 40.60L162.10 40.60Q162.30 43.20 163.77 44.58Q165.25 45.95 167.40 45.95Q170.60 45.95 171.85 43.25L180.95 43.25Q180.25 46 178.42 48.20Q176.60 50.40 173.85 51.65Q171.10 52.90 167.70 52.90Q163.60 52.90 160.40 51.15Q157.20 49.40 155.40 46.15Q153.60 42.90 153.60 38.55Q153.60 34.20 155.38 30.95Q157.15 27.70 160.35 25.95Q163.55 24.20 167.70 24.20Q171.75 24.20 174.90 25.90Q178.05 27.60 179.82 30.75Q181.60 33.90 181.60 38.10M172.85 35.85Q172.85 33.65 171.35 32.35Q169.85 31.05 167.60 31.05Q165.45 31.05 163.97 32.30Q162.50 33.55 162.15 35.85L172.85 35.85ZM194.65 29.25Q196.15 26.95 198.40 25.63Q200.65 24.30 203.40 24.30L203.40 33.35L201.05 33.35Q197.85 33.35 196.25 34.72Q194.65 36.10 194.65 39.55L194.65 52.50L186.10 52.50L186.10 24.60L194.65 24.60L194.65 29.25Z"/></g></g></svg>